G75*
G70*
%OFA0B0*%
%FSLAX24Y24*%
%IPPOS*%
%LPD*%
%AMOC8*
5,1,8,0,0,1.08239X$1,22.5*
%
%ADD10C,0.0079*%
%ADD11C,0.0030*%
%ADD12C,0.0050*%
%ADD13C,0.0060*%
%ADD14C,0.0100*%
%ADD15C,0.0150*%
D10*
X001863Y011754D02*
X004422Y011754D01*
X004422Y013605D01*
X001863Y013605D01*
X001863Y011754D01*
D11*
X002440Y011522D02*
X002440Y011279D01*
X002501Y011218D01*
X002622Y011218D01*
X002683Y011279D01*
X002440Y011522D01*
X002501Y011582D01*
X002622Y011582D01*
X002683Y011522D01*
X002683Y011279D01*
X002924Y011218D02*
X002924Y011582D01*
X003045Y011582D02*
X002802Y011582D01*
X003165Y011522D02*
X003165Y011279D01*
X003226Y011218D01*
X003347Y011218D01*
X003408Y011279D01*
X003408Y011522D01*
X003347Y011582D01*
X003226Y011582D01*
X003165Y011522D01*
X003527Y011522D02*
X003527Y011279D01*
X003588Y011218D01*
X003709Y011218D01*
X003770Y011279D01*
X003770Y011522D01*
X003709Y011582D01*
X003588Y011582D01*
X003527Y011522D01*
X003890Y011522D02*
X003890Y011461D01*
X003951Y011400D01*
X004133Y011400D01*
X004133Y011218D02*
X003951Y011218D01*
X003890Y011279D01*
X003890Y011340D01*
X003951Y011400D01*
X003890Y011522D02*
X003951Y011582D01*
X004133Y011582D01*
X004133Y011218D01*
X004052Y013738D02*
X003870Y013738D01*
X003810Y013799D01*
X003810Y013859D01*
X003870Y013920D01*
X004052Y013920D01*
X003870Y013920D02*
X003810Y013981D01*
X003810Y014041D01*
X003870Y014102D01*
X004052Y014102D01*
X004052Y013738D01*
X003690Y013799D02*
X003629Y013738D01*
X003508Y013738D01*
X003447Y013799D01*
X003447Y014041D01*
X003508Y014102D01*
X003629Y014102D01*
X003690Y014041D01*
X003690Y013799D01*
X003327Y013799D02*
X003267Y013738D01*
X003145Y013738D01*
X003085Y013799D01*
X003085Y014041D01*
X003145Y014102D01*
X003267Y014102D01*
X003327Y014041D01*
X003327Y013799D01*
X002965Y014102D02*
X002722Y014102D01*
X002844Y014102D02*
X002844Y013738D01*
X002602Y013738D02*
X002360Y013738D01*
X002481Y013738D02*
X002481Y014102D01*
X002602Y013981D01*
D12*
X003841Y005150D02*
X003843Y005177D01*
X003849Y005204D01*
X003858Y005230D01*
X003871Y005254D01*
X003887Y005277D01*
X003906Y005296D01*
X003928Y005313D01*
X003952Y005327D01*
X003977Y005337D01*
X004004Y005344D01*
X004031Y005347D01*
X004059Y005346D01*
X004086Y005341D01*
X004112Y005333D01*
X004136Y005321D01*
X004159Y005305D01*
X004180Y005287D01*
X004197Y005266D01*
X004212Y005242D01*
X004223Y005217D01*
X004231Y005191D01*
X004235Y005164D01*
X004235Y005136D01*
X004231Y005109D01*
X004223Y005083D01*
X004212Y005058D01*
X004197Y005034D01*
X004180Y005013D01*
X004159Y004995D01*
X004137Y004979D01*
X004112Y004967D01*
X004086Y004959D01*
X004059Y004954D01*
X004031Y004953D01*
X004004Y004956D01*
X003977Y004963D01*
X003952Y004973D01*
X003928Y004987D01*
X003906Y005004D01*
X003887Y005023D01*
X003871Y005046D01*
X003858Y005070D01*
X003849Y005096D01*
X003843Y005123D01*
X003841Y005150D01*
X004705Y012370D02*
X005066Y012370D01*
X004886Y012370D02*
X004886Y012911D01*
X005066Y012731D01*
X004191Y016902D02*
X004191Y017253D01*
X004016Y017253D01*
X003958Y017194D01*
X003958Y017078D01*
X004016Y017019D01*
X004191Y017019D01*
X004326Y017019D02*
X004326Y017194D01*
X004384Y017253D01*
X004443Y017194D01*
X004443Y017019D01*
X004560Y017019D02*
X004560Y017253D01*
X004501Y017253D01*
X004443Y017194D01*
X004694Y017194D02*
X004753Y017253D01*
X004870Y017253D01*
X004928Y017194D01*
X004928Y017078D01*
X004870Y017019D01*
X004753Y017019D01*
X004694Y017136D02*
X004928Y017136D01*
X004694Y017136D02*
X004694Y017194D01*
X005063Y017369D02*
X005296Y017369D01*
X005179Y017369D02*
X005179Y017019D01*
X005799Y017136D02*
X006033Y017136D01*
X006033Y017194D02*
X005974Y017253D01*
X005858Y017253D01*
X005799Y017194D01*
X005799Y017136D01*
X005858Y017019D02*
X005974Y017019D01*
X006033Y017078D01*
X006033Y017194D01*
X006165Y017253D02*
X006223Y017253D01*
X006340Y017136D01*
X006340Y017019D02*
X006340Y017253D01*
X006527Y017253D02*
X006527Y017019D01*
X006585Y017019D02*
X006468Y017019D01*
X006527Y017253D02*
X006585Y017253D01*
X006527Y017369D02*
X006527Y017428D01*
X006720Y017369D02*
X006954Y017369D01*
X006837Y017369D02*
X006837Y017019D01*
X003455Y017078D02*
X003396Y017019D01*
X003280Y017019D01*
X003221Y017078D01*
X003221Y017136D01*
X003280Y017194D01*
X003396Y017194D01*
X003455Y017253D01*
X003455Y017311D01*
X003396Y017369D01*
X003280Y017369D01*
X003221Y017311D01*
X003086Y017194D02*
X003028Y017253D01*
X002911Y017253D01*
X002853Y017194D01*
X002853Y017136D01*
X003086Y017136D01*
X003086Y017078D02*
X003086Y017194D01*
X003086Y017078D02*
X003028Y017019D01*
X002911Y017019D01*
X002718Y017019D02*
X002718Y017253D01*
X002543Y017253D01*
X002485Y017194D01*
X002485Y017019D01*
X002350Y017019D02*
X002175Y017019D01*
X002116Y017078D01*
X002175Y017136D01*
X002291Y017136D01*
X002350Y017194D01*
X002291Y017253D01*
X002116Y017253D01*
X001981Y017194D02*
X001981Y017078D01*
X001923Y017019D01*
X001806Y017019D01*
X001748Y017078D01*
X001748Y017194D01*
X001806Y017253D01*
X001923Y017253D01*
X001981Y017194D01*
X001613Y017136D02*
X001496Y017253D01*
X001438Y017253D01*
X001613Y017253D02*
X001613Y017019D01*
X011216Y014087D02*
X011218Y014101D01*
X011224Y014115D01*
X011232Y014127D01*
X011244Y014135D01*
X011258Y014141D01*
X011272Y014143D01*
X011286Y014141D01*
X011300Y014135D01*
X011312Y014127D01*
X011320Y014115D01*
X011326Y014101D01*
X011328Y014087D01*
X011326Y014073D01*
X011320Y014059D01*
X011312Y014047D01*
X011300Y014039D01*
X011286Y014033D01*
X011272Y014031D01*
X011258Y014033D01*
X011244Y014039D01*
X011232Y014047D01*
X011224Y014059D01*
X011218Y014073D01*
X011216Y014087D01*
X012473Y007493D02*
X012475Y007520D01*
X012481Y007547D01*
X012490Y007573D01*
X012503Y007597D01*
X012519Y007620D01*
X012538Y007639D01*
X012560Y007656D01*
X012584Y007670D01*
X012609Y007680D01*
X012636Y007687D01*
X012663Y007690D01*
X012691Y007689D01*
X012718Y007684D01*
X012744Y007676D01*
X012768Y007664D01*
X012791Y007648D01*
X012812Y007630D01*
X012829Y007609D01*
X012844Y007585D01*
X012855Y007560D01*
X012863Y007534D01*
X012867Y007507D01*
X012867Y007479D01*
X012863Y007452D01*
X012855Y007426D01*
X012844Y007401D01*
X012829Y007377D01*
X012812Y007356D01*
X012791Y007338D01*
X012769Y007322D01*
X012744Y007310D01*
X012718Y007302D01*
X012691Y007297D01*
X012663Y007296D01*
X012636Y007299D01*
X012609Y007306D01*
X012584Y007316D01*
X012560Y007330D01*
X012538Y007347D01*
X012519Y007366D01*
X012503Y007389D01*
X012490Y007413D01*
X012481Y007439D01*
X012475Y007466D01*
X012473Y007493D01*
D13*
X005414Y015761D02*
X005359Y015761D01*
X005303Y015816D01*
X005303Y016095D01*
X005359Y016095D02*
X005247Y016095D01*
X005107Y015928D02*
X005052Y015983D01*
X004940Y015983D01*
X004885Y015928D01*
X004885Y015872D01*
X005107Y015872D01*
X005107Y015816D02*
X005107Y015928D01*
X005107Y015816D02*
X005052Y015761D01*
X004940Y015761D01*
X004745Y015761D02*
X004745Y015983D01*
X004578Y015983D01*
X004522Y015928D01*
X004522Y015761D01*
X004382Y015761D02*
X004382Y015983D01*
X004216Y015983D01*
X004160Y015928D01*
X004160Y015761D01*
X004020Y015761D02*
X003909Y015761D01*
X003964Y015761D02*
X003964Y015983D01*
X004020Y015983D01*
X003964Y016095D02*
X003964Y016150D01*
X003723Y016039D02*
X003667Y016095D01*
X003723Y016039D02*
X003723Y015761D01*
X003778Y015928D02*
X003667Y015928D01*
X003537Y015928D02*
X003481Y015983D01*
X003370Y015983D01*
X003314Y015928D01*
X003314Y015872D01*
X003537Y015872D01*
X003537Y015816D02*
X003537Y015928D01*
X003537Y015816D02*
X003481Y015761D01*
X003370Y015761D01*
X003174Y015761D02*
X003174Y015983D01*
X003174Y015872D02*
X003063Y015983D01*
X003007Y015983D01*
X003002Y016401D02*
X002891Y016623D01*
X002751Y016623D02*
X002640Y016735D01*
X002640Y016401D01*
X002751Y016401D02*
X002528Y016401D01*
X002389Y016401D02*
X002333Y016401D01*
X002333Y016456D01*
X002389Y016456D01*
X002389Y016401D01*
X002207Y016456D02*
X002207Y016679D01*
X002152Y016735D01*
X002040Y016735D01*
X001985Y016679D01*
X002207Y016456D01*
X002152Y016401D01*
X002040Y016401D01*
X001985Y016456D01*
X001985Y016679D01*
X001845Y016456D02*
X001789Y016456D01*
X001789Y016401D01*
X001845Y016401D01*
X001845Y016456D01*
X001664Y016456D02*
X001664Y016679D01*
X001608Y016735D01*
X001497Y016735D01*
X001441Y016679D01*
X001664Y016456D01*
X001608Y016401D01*
X001497Y016401D01*
X001441Y016456D01*
X001441Y016679D01*
X001487Y016039D02*
X001487Y015816D01*
X001432Y015761D01*
X001673Y015761D02*
X001785Y015761D01*
X001729Y015761D02*
X001729Y016095D01*
X001785Y016095D01*
X001925Y015928D02*
X001980Y015983D01*
X002092Y015983D01*
X002147Y015928D01*
X002147Y015816D01*
X002092Y015761D01*
X001980Y015761D01*
X001925Y015816D01*
X001925Y015928D01*
X002287Y015928D02*
X002510Y015928D01*
X002510Y015761D02*
X002510Y016095D01*
X002287Y016095D02*
X002287Y015761D01*
X001543Y015983D02*
X001432Y015983D01*
X003002Y016401D02*
X003114Y016623D01*
X005414Y015761D02*
X005470Y015816D01*
D14*
X010534Y009874D02*
X010534Y003034D01*
X016931Y003034D01*
X016931Y009874D01*
X010534Y009874D01*
X011912Y009579D02*
X015553Y009579D01*
X016636Y008398D02*
X016636Y004461D01*
X015504Y003329D02*
X011961Y003329D01*
X010829Y004461D02*
X010829Y008398D01*
D15*
X012410Y015150D02*
X012410Y016233D01*
M02*
