G75*
G70*
%OFA0B0*%
%FSLAX24Y24*%
%IPPOS*%
%LPD*%
%AMOC8*
5,1,8,0,0,1.08239X$1,22.5*
%
%ADD10C,0.0000*%
%ADD11C,0.0210*%
%ADD12C,0.0295*%
%ADD13C,0.0100*%
%ADD14C,0.0300*%
%ADD15C,0.1266*%
D10*
X000937Y000524D02*
X000937Y017847D01*
X017079Y017847D01*
X017079Y000524D01*
X000937Y000524D01*
X002630Y002020D02*
X002632Y002046D01*
X002638Y002072D01*
X002648Y002097D01*
X002661Y002120D01*
X002677Y002140D01*
X002697Y002158D01*
X002719Y002173D01*
X002742Y002185D01*
X002768Y002193D01*
X002794Y002197D01*
X002820Y002197D01*
X002846Y002193D01*
X002872Y002185D01*
X002896Y002173D01*
X002917Y002158D01*
X002937Y002140D01*
X002953Y002120D01*
X002966Y002097D01*
X002976Y002072D01*
X002982Y002046D01*
X002984Y002020D01*
X002982Y001994D01*
X002976Y001968D01*
X002966Y001943D01*
X002953Y001920D01*
X002937Y001900D01*
X002917Y001882D01*
X002895Y001867D01*
X002872Y001855D01*
X002846Y001847D01*
X002820Y001843D01*
X002794Y001843D01*
X002768Y001847D01*
X002742Y001855D01*
X002718Y001867D01*
X002697Y001882D01*
X002677Y001900D01*
X002661Y001920D01*
X002648Y001943D01*
X002638Y001968D01*
X002632Y001994D01*
X002630Y002020D01*
X002630Y003752D02*
X002632Y003778D01*
X002638Y003804D01*
X002648Y003829D01*
X002661Y003852D01*
X002677Y003872D01*
X002697Y003890D01*
X002719Y003905D01*
X002742Y003917D01*
X002768Y003925D01*
X002794Y003929D01*
X002820Y003929D01*
X002846Y003925D01*
X002872Y003917D01*
X002896Y003905D01*
X002917Y003890D01*
X002937Y003872D01*
X002953Y003852D01*
X002966Y003829D01*
X002976Y003804D01*
X002982Y003778D01*
X002984Y003752D01*
X002982Y003726D01*
X002976Y003700D01*
X002966Y003675D01*
X002953Y003652D01*
X002937Y003632D01*
X002917Y003614D01*
X002895Y003599D01*
X002872Y003587D01*
X002846Y003579D01*
X002820Y003575D01*
X002794Y003575D01*
X002768Y003579D01*
X002742Y003587D01*
X002718Y003599D01*
X002697Y003614D01*
X002677Y003632D01*
X002661Y003652D01*
X002648Y003675D01*
X002638Y003700D01*
X002632Y003726D01*
X002630Y003752D01*
X007788Y001311D02*
X007790Y001352D01*
X007796Y001393D01*
X007806Y001433D01*
X007819Y001472D01*
X007836Y001509D01*
X007857Y001545D01*
X007881Y001579D01*
X007908Y001610D01*
X007937Y001638D01*
X007970Y001664D01*
X008004Y001686D01*
X008041Y001705D01*
X008079Y001720D01*
X008119Y001732D01*
X008159Y001740D01*
X008200Y001744D01*
X008242Y001744D01*
X008283Y001740D01*
X008323Y001732D01*
X008363Y001720D01*
X008401Y001705D01*
X008437Y001686D01*
X008472Y001664D01*
X008505Y001638D01*
X008534Y001610D01*
X008561Y001579D01*
X008585Y001545D01*
X008606Y001509D01*
X008623Y001472D01*
X008636Y001433D01*
X008646Y001393D01*
X008652Y001352D01*
X008654Y001311D01*
X008652Y001270D01*
X008646Y001229D01*
X008636Y001189D01*
X008623Y001150D01*
X008606Y001113D01*
X008585Y001077D01*
X008561Y001043D01*
X008534Y001012D01*
X008505Y000984D01*
X008472Y000958D01*
X008438Y000936D01*
X008401Y000917D01*
X008363Y000902D01*
X008323Y000890D01*
X008283Y000882D01*
X008242Y000878D01*
X008200Y000878D01*
X008159Y000882D01*
X008119Y000890D01*
X008079Y000902D01*
X008041Y000917D01*
X008005Y000936D01*
X007970Y000958D01*
X007937Y000984D01*
X007908Y001012D01*
X007881Y001043D01*
X007857Y001077D01*
X007836Y001113D01*
X007819Y001150D01*
X007806Y001189D01*
X007796Y001229D01*
X007790Y001270D01*
X007788Y001311D01*
X010741Y003674D02*
X010743Y003715D01*
X010749Y003756D01*
X010759Y003796D01*
X010772Y003835D01*
X010789Y003872D01*
X010810Y003908D01*
X010834Y003942D01*
X010861Y003973D01*
X010890Y004001D01*
X010923Y004027D01*
X010957Y004049D01*
X010994Y004068D01*
X011032Y004083D01*
X011072Y004095D01*
X011112Y004103D01*
X011153Y004107D01*
X011195Y004107D01*
X011236Y004103D01*
X011276Y004095D01*
X011316Y004083D01*
X011354Y004068D01*
X011390Y004049D01*
X011425Y004027D01*
X011458Y004001D01*
X011487Y003973D01*
X011514Y003942D01*
X011538Y003908D01*
X011559Y003872D01*
X011576Y003835D01*
X011589Y003796D01*
X011599Y003756D01*
X011605Y003715D01*
X011607Y003674D01*
X011605Y003633D01*
X011599Y003592D01*
X011589Y003552D01*
X011576Y003513D01*
X011559Y003476D01*
X011538Y003440D01*
X011514Y003406D01*
X011487Y003375D01*
X011458Y003347D01*
X011425Y003321D01*
X011391Y003299D01*
X011354Y003280D01*
X011316Y003265D01*
X011276Y003253D01*
X011236Y003245D01*
X011195Y003241D01*
X011153Y003241D01*
X011112Y003245D01*
X011072Y003253D01*
X011032Y003265D01*
X010994Y003280D01*
X010958Y003299D01*
X010923Y003321D01*
X010890Y003347D01*
X010861Y003375D01*
X010834Y003406D01*
X010810Y003440D01*
X010789Y003476D01*
X010772Y003513D01*
X010759Y003552D01*
X010749Y003592D01*
X010743Y003633D01*
X010741Y003674D01*
X010741Y009186D02*
X010743Y009227D01*
X010749Y009268D01*
X010759Y009308D01*
X010772Y009347D01*
X010789Y009384D01*
X010810Y009420D01*
X010834Y009454D01*
X010861Y009485D01*
X010890Y009513D01*
X010923Y009539D01*
X010957Y009561D01*
X010994Y009580D01*
X011032Y009595D01*
X011072Y009607D01*
X011112Y009615D01*
X011153Y009619D01*
X011195Y009619D01*
X011236Y009615D01*
X011276Y009607D01*
X011316Y009595D01*
X011354Y009580D01*
X011390Y009561D01*
X011425Y009539D01*
X011458Y009513D01*
X011487Y009485D01*
X011514Y009454D01*
X011538Y009420D01*
X011559Y009384D01*
X011576Y009347D01*
X011589Y009308D01*
X011599Y009268D01*
X011605Y009227D01*
X011607Y009186D01*
X011605Y009145D01*
X011599Y009104D01*
X011589Y009064D01*
X011576Y009025D01*
X011559Y008988D01*
X011538Y008952D01*
X011514Y008918D01*
X011487Y008887D01*
X011458Y008859D01*
X011425Y008833D01*
X011391Y008811D01*
X011354Y008792D01*
X011316Y008777D01*
X011276Y008765D01*
X011236Y008757D01*
X011195Y008753D01*
X011153Y008753D01*
X011112Y008757D01*
X011072Y008765D01*
X011032Y008777D01*
X010994Y008792D01*
X010958Y008811D01*
X010923Y008833D01*
X010890Y008859D01*
X010861Y008887D01*
X010834Y008918D01*
X010810Y008952D01*
X010789Y008988D01*
X010772Y009025D01*
X010759Y009064D01*
X010749Y009104D01*
X010743Y009145D01*
X010741Y009186D01*
X015859Y009186D02*
X015861Y009227D01*
X015867Y009268D01*
X015877Y009308D01*
X015890Y009347D01*
X015907Y009384D01*
X015928Y009420D01*
X015952Y009454D01*
X015979Y009485D01*
X016008Y009513D01*
X016041Y009539D01*
X016075Y009561D01*
X016112Y009580D01*
X016150Y009595D01*
X016190Y009607D01*
X016230Y009615D01*
X016271Y009619D01*
X016313Y009619D01*
X016354Y009615D01*
X016394Y009607D01*
X016434Y009595D01*
X016472Y009580D01*
X016508Y009561D01*
X016543Y009539D01*
X016576Y009513D01*
X016605Y009485D01*
X016632Y009454D01*
X016656Y009420D01*
X016677Y009384D01*
X016694Y009347D01*
X016707Y009308D01*
X016717Y009268D01*
X016723Y009227D01*
X016725Y009186D01*
X016723Y009145D01*
X016717Y009104D01*
X016707Y009064D01*
X016694Y009025D01*
X016677Y008988D01*
X016656Y008952D01*
X016632Y008918D01*
X016605Y008887D01*
X016576Y008859D01*
X016543Y008833D01*
X016509Y008811D01*
X016472Y008792D01*
X016434Y008777D01*
X016394Y008765D01*
X016354Y008757D01*
X016313Y008753D01*
X016271Y008753D01*
X016230Y008757D01*
X016190Y008765D01*
X016150Y008777D01*
X016112Y008792D01*
X016076Y008811D01*
X016041Y008833D01*
X016008Y008859D01*
X015979Y008887D01*
X015952Y008918D01*
X015928Y008952D01*
X015907Y008988D01*
X015890Y009025D01*
X015877Y009064D01*
X015867Y009104D01*
X015861Y009145D01*
X015859Y009186D01*
X015662Y001311D02*
X015664Y001352D01*
X015670Y001393D01*
X015680Y001433D01*
X015693Y001472D01*
X015710Y001509D01*
X015731Y001545D01*
X015755Y001579D01*
X015782Y001610D01*
X015811Y001638D01*
X015844Y001664D01*
X015878Y001686D01*
X015915Y001705D01*
X015953Y001720D01*
X015993Y001732D01*
X016033Y001740D01*
X016074Y001744D01*
X016116Y001744D01*
X016157Y001740D01*
X016197Y001732D01*
X016237Y001720D01*
X016275Y001705D01*
X016311Y001686D01*
X016346Y001664D01*
X016379Y001638D01*
X016408Y001610D01*
X016435Y001579D01*
X016459Y001545D01*
X016480Y001509D01*
X016497Y001472D01*
X016510Y001433D01*
X016520Y001393D01*
X016526Y001352D01*
X016528Y001311D01*
X016526Y001270D01*
X016520Y001229D01*
X016510Y001189D01*
X016497Y001150D01*
X016480Y001113D01*
X016459Y001077D01*
X016435Y001043D01*
X016408Y001012D01*
X016379Y000984D01*
X016346Y000958D01*
X016312Y000936D01*
X016275Y000917D01*
X016237Y000902D01*
X016197Y000890D01*
X016157Y000882D01*
X016116Y000878D01*
X016074Y000878D01*
X016033Y000882D01*
X015993Y000890D01*
X015953Y000902D01*
X015915Y000917D01*
X015879Y000936D01*
X015844Y000958D01*
X015811Y000984D01*
X015782Y001012D01*
X015755Y001043D01*
X015731Y001077D01*
X015710Y001113D01*
X015693Y001150D01*
X015680Y001189D01*
X015670Y001229D01*
X015664Y001270D01*
X015662Y001311D01*
X015662Y017060D02*
X015664Y017101D01*
X015670Y017142D01*
X015680Y017182D01*
X015693Y017221D01*
X015710Y017258D01*
X015731Y017294D01*
X015755Y017328D01*
X015782Y017359D01*
X015811Y017387D01*
X015844Y017413D01*
X015878Y017435D01*
X015915Y017454D01*
X015953Y017469D01*
X015993Y017481D01*
X016033Y017489D01*
X016074Y017493D01*
X016116Y017493D01*
X016157Y017489D01*
X016197Y017481D01*
X016237Y017469D01*
X016275Y017454D01*
X016311Y017435D01*
X016346Y017413D01*
X016379Y017387D01*
X016408Y017359D01*
X016435Y017328D01*
X016459Y017294D01*
X016480Y017258D01*
X016497Y017221D01*
X016510Y017182D01*
X016520Y017142D01*
X016526Y017101D01*
X016528Y017060D01*
X016526Y017019D01*
X016520Y016978D01*
X016510Y016938D01*
X016497Y016899D01*
X016480Y016862D01*
X016459Y016826D01*
X016435Y016792D01*
X016408Y016761D01*
X016379Y016733D01*
X016346Y016707D01*
X016312Y016685D01*
X016275Y016666D01*
X016237Y016651D01*
X016197Y016639D01*
X016157Y016631D01*
X016116Y016627D01*
X016074Y016627D01*
X016033Y016631D01*
X015993Y016639D01*
X015953Y016651D01*
X015915Y016666D01*
X015879Y016685D01*
X015844Y016707D01*
X015811Y016733D01*
X015782Y016761D01*
X015755Y016792D01*
X015731Y016826D01*
X015710Y016862D01*
X015693Y016899D01*
X015680Y016938D01*
X015670Y016978D01*
X015664Y017019D01*
X015662Y017060D01*
X007788Y017060D02*
X007790Y017101D01*
X007796Y017142D01*
X007806Y017182D01*
X007819Y017221D01*
X007836Y017258D01*
X007857Y017294D01*
X007881Y017328D01*
X007908Y017359D01*
X007937Y017387D01*
X007970Y017413D01*
X008004Y017435D01*
X008041Y017454D01*
X008079Y017469D01*
X008119Y017481D01*
X008159Y017489D01*
X008200Y017493D01*
X008242Y017493D01*
X008283Y017489D01*
X008323Y017481D01*
X008363Y017469D01*
X008401Y017454D01*
X008437Y017435D01*
X008472Y017413D01*
X008505Y017387D01*
X008534Y017359D01*
X008561Y017328D01*
X008585Y017294D01*
X008606Y017258D01*
X008623Y017221D01*
X008636Y017182D01*
X008646Y017142D01*
X008652Y017101D01*
X008654Y017060D01*
X008652Y017019D01*
X008646Y016978D01*
X008636Y016938D01*
X008623Y016899D01*
X008606Y016862D01*
X008585Y016826D01*
X008561Y016792D01*
X008534Y016761D01*
X008505Y016733D01*
X008472Y016707D01*
X008438Y016685D01*
X008401Y016666D01*
X008363Y016651D01*
X008323Y016639D01*
X008283Y016631D01*
X008242Y016627D01*
X008200Y016627D01*
X008159Y016631D01*
X008119Y016639D01*
X008079Y016651D01*
X008041Y016666D01*
X008005Y016685D01*
X007970Y016707D01*
X007937Y016733D01*
X007908Y016761D01*
X007881Y016792D01*
X007857Y016826D01*
X007836Y016862D01*
X007819Y016899D01*
X007806Y016938D01*
X007796Y016978D01*
X007790Y017019D01*
X007788Y017060D01*
D11*
X007433Y015928D03*
X006351Y017099D03*
X004874Y014304D03*
X006449Y012532D03*
X007926Y010662D03*
X008319Y010662D03*
X009648Y009481D03*
X010937Y011006D03*
X009796Y011302D03*
X008319Y012729D03*
X011272Y015682D03*
X014077Y015239D03*
X015544Y012532D03*
X014766Y010957D03*
X013083Y008939D03*
X012109Y008054D03*
X012847Y007512D03*
X014057Y006065D03*
X014313Y006341D03*
X014569Y006676D03*
X014963Y007365D03*
X013801Y005810D03*
X013546Y005554D03*
X013142Y005741D03*
X012847Y005445D03*
X012551Y005741D03*
X012847Y004067D03*
X013929Y003910D03*
X014618Y003871D03*
X014618Y005189D03*
X014618Y005593D03*
X015111Y005308D03*
X013093Y002689D03*
X012414Y002689D03*
X012158Y001410D03*
X011272Y001902D03*
X010898Y002414D03*
X010337Y001607D03*
X010898Y001390D03*
X010160Y004048D03*
X009697Y004904D03*
X009805Y005839D03*
X008172Y003969D03*
X007483Y005052D03*
X007483Y005347D03*
X007483Y005642D03*
X007729Y005937D03*
X007876Y006233D03*
X007876Y006528D03*
X007581Y007414D03*
X007778Y008398D03*
X007532Y008644D03*
X007286Y008398D03*
X006990Y008792D03*
X006646Y008546D03*
X006301Y008546D03*
X005957Y008595D03*
X005711Y008250D03*
X005268Y007709D03*
X004776Y007561D03*
X004333Y008546D03*
X005022Y010170D03*
X003447Y010367D03*
X002168Y009973D03*
X001626Y010022D03*
X001725Y007611D03*
X002463Y007611D03*
X002512Y006626D03*
X001751Y006603D03*
X004185Y003514D03*
X004874Y004904D03*
X005416Y005455D03*
X005563Y005002D03*
X005465Y006134D03*
X006794Y006184D03*
X006794Y005888D03*
X006794Y005593D03*
X006794Y005298D03*
X006794Y005002D03*
X007138Y003674D03*
X007138Y003378D03*
X007138Y003083D03*
X007138Y002788D03*
X006646Y001853D03*
X005514Y002886D03*
X003890Y001853D03*
X012256Y010908D03*
X016735Y010121D03*
X014520Y001902D03*
X014146Y001390D03*
X003152Y013093D03*
D12*
X004863Y013123D03*
X007138Y012532D03*
D13*
X006654Y012546D02*
X007679Y012546D01*
X007679Y012448D02*
X006654Y012448D01*
X006654Y012447D02*
X006534Y012327D01*
X006364Y012327D01*
X006244Y012447D01*
X006244Y012617D01*
X006364Y012737D01*
X006534Y012737D01*
X006654Y012617D01*
X006654Y012447D01*
X006556Y012349D02*
X007679Y012349D01*
X007679Y012251D02*
X001137Y012251D01*
X001137Y012349D02*
X006342Y012349D01*
X006244Y012448D02*
X001137Y012448D01*
X001137Y012546D02*
X006244Y012546D01*
X006272Y012645D02*
X001137Y012645D01*
X001137Y012743D02*
X007679Y012743D01*
X007679Y012645D02*
X006626Y012645D01*
X007679Y012842D02*
X001137Y012842D01*
X001137Y012941D02*
X003014Y012941D01*
X003067Y012888D02*
X003237Y012888D01*
X003357Y013008D01*
X003357Y013178D01*
X003237Y013298D01*
X003067Y013298D01*
X002947Y013178D01*
X002947Y013008D01*
X003067Y012888D01*
X002947Y013039D02*
X001137Y013039D01*
X001137Y013138D02*
X002947Y013138D01*
X003005Y013236D02*
X001137Y013236D01*
X001137Y013335D02*
X004728Y013335D01*
X004722Y013332D02*
X004653Y013263D01*
X004615Y013172D01*
X004615Y013073D01*
X004653Y012982D01*
X004722Y012913D01*
X004813Y012875D01*
X004912Y012875D01*
X005003Y012913D01*
X005072Y012982D01*
X005110Y013073D01*
X005110Y013172D01*
X005072Y013263D01*
X005003Y013332D01*
X004912Y013370D01*
X004813Y013370D01*
X004722Y013332D01*
X004642Y013236D02*
X003299Y013236D01*
X003357Y013138D02*
X004615Y013138D01*
X004629Y013039D02*
X003357Y013039D01*
X003289Y012941D02*
X004694Y012941D01*
X005031Y012941D02*
X007679Y012941D01*
X007679Y013039D02*
X005096Y013039D01*
X005110Y013138D02*
X007679Y013138D01*
X007679Y013236D02*
X005083Y013236D01*
X004997Y013335D02*
X007679Y013335D01*
X007679Y013433D02*
X001137Y013433D01*
X001137Y013532D02*
X007679Y013532D01*
X007679Y013630D02*
X001137Y013630D01*
X001137Y013729D02*
X007679Y013729D01*
X007679Y013827D02*
X001137Y013827D01*
X001137Y013926D02*
X007679Y013926D01*
X007679Y014025D02*
X001137Y014025D01*
X001137Y014123D02*
X004765Y014123D01*
X004789Y014099D02*
X004669Y014219D01*
X004669Y014389D01*
X004789Y014509D01*
X004959Y014509D01*
X005079Y014389D01*
X005079Y014219D01*
X004959Y014099D01*
X004789Y014099D01*
X004669Y014222D02*
X001137Y014222D01*
X001137Y014320D02*
X004669Y014320D01*
X004700Y014419D02*
X001137Y014419D01*
X001137Y014517D02*
X007679Y014517D01*
X007679Y014419D02*
X005049Y014419D01*
X005079Y014320D02*
X007679Y014320D01*
X007679Y014222D02*
X005079Y014222D01*
X004984Y014123D02*
X007679Y014123D01*
X007926Y014123D02*
X016879Y014123D01*
X016879Y014025D02*
X007926Y014025D01*
X007926Y013926D02*
X016879Y013926D01*
X016879Y013827D02*
X007926Y013827D01*
X007926Y013729D02*
X016879Y013729D01*
X016879Y013630D02*
X007926Y013630D01*
X007926Y013532D02*
X016879Y013532D01*
X016879Y013433D02*
X007926Y013433D01*
X007926Y013335D02*
X016879Y013335D01*
X016879Y013236D02*
X007926Y013236D01*
X007926Y013138D02*
X016879Y013138D01*
X016879Y013039D02*
X007926Y013039D01*
X007926Y012941D02*
X016879Y012941D01*
X016879Y012842D02*
X007926Y012842D01*
X007926Y012743D02*
X016879Y012743D01*
X016879Y012645D02*
X007926Y012645D01*
X007926Y012546D02*
X016879Y012546D01*
X016879Y012448D02*
X007926Y012448D01*
X007926Y012349D02*
X016879Y012349D01*
X016879Y012251D02*
X007926Y012251D01*
X007926Y012152D02*
X016879Y012152D01*
X016879Y012054D02*
X007926Y012054D01*
X007926Y011955D02*
X016879Y011955D01*
X016879Y011857D02*
X007926Y011857D01*
X007926Y011758D02*
X016879Y011758D01*
X016879Y011659D02*
X007926Y011659D01*
X007926Y011561D02*
X016879Y011561D01*
X016879Y011462D02*
X009925Y011462D01*
X009880Y011507D02*
X010001Y011387D01*
X010001Y011217D01*
X009880Y011097D01*
X009711Y011097D01*
X009591Y011217D01*
X009591Y011387D01*
X009711Y011507D01*
X009880Y011507D01*
X010001Y011364D02*
X016879Y011364D01*
X016879Y011265D02*
X010001Y011265D01*
X009951Y011167D02*
X016879Y011167D01*
X016879Y011068D02*
X014945Y011068D01*
X014971Y011042D02*
X014851Y011162D01*
X014681Y011162D01*
X014561Y011042D01*
X014561Y010872D01*
X014681Y010752D01*
X014851Y010752D01*
X014971Y010872D01*
X014971Y011042D01*
X014971Y010970D02*
X016879Y010970D01*
X016879Y010871D02*
X014970Y010871D01*
X014871Y010773D02*
X016879Y010773D01*
X016879Y010674D02*
X008524Y010674D01*
X008524Y010747D02*
X008404Y010867D01*
X008234Y010867D01*
X008122Y010755D01*
X008010Y010867D01*
X007926Y010867D01*
X007926Y016497D01*
X008095Y016426D01*
X008347Y016426D01*
X008579Y016523D01*
X008757Y016701D01*
X008854Y016934D01*
X008854Y017185D01*
X008757Y017418D01*
X008579Y017596D01*
X008457Y017647D01*
X015859Y017647D01*
X015736Y017596D01*
X015558Y017418D01*
X015462Y017185D01*
X015462Y016934D01*
X015558Y016701D01*
X015736Y016523D01*
X015969Y016426D01*
X016221Y016426D01*
X016453Y016523D01*
X016631Y016701D01*
X016728Y016934D01*
X016728Y017185D01*
X016631Y017418D01*
X016453Y017596D01*
X016331Y017647D01*
X016879Y017647D01*
X016879Y010514D01*
X008461Y010514D01*
X008524Y010577D01*
X008524Y010747D01*
X008498Y010773D02*
X012102Y010773D01*
X012051Y010823D02*
X012171Y010703D01*
X012341Y010703D01*
X012461Y010823D01*
X012461Y010993D01*
X012341Y011113D01*
X012171Y011113D01*
X012051Y010993D01*
X012051Y010823D01*
X012051Y010871D02*
X007926Y010871D01*
X007926Y010970D02*
X012051Y010970D01*
X012127Y011068D02*
X007926Y011068D01*
X007926Y011167D02*
X009641Y011167D01*
X009591Y011265D02*
X007926Y011265D01*
X007926Y011364D02*
X009591Y011364D01*
X009666Y011462D02*
X007926Y011462D01*
X007679Y011462D02*
X001137Y011462D01*
X001137Y011364D02*
X007679Y011364D01*
X007679Y011265D02*
X001137Y011265D01*
X001137Y011167D02*
X007679Y011167D01*
X007679Y011068D02*
X001137Y011068D01*
X001137Y010970D02*
X007679Y010970D01*
X007679Y010871D02*
X001137Y010871D01*
X001137Y010773D02*
X007679Y010773D01*
X007679Y010674D02*
X001137Y010674D01*
X001137Y010576D02*
X007679Y010576D01*
X007679Y010477D02*
X003627Y010477D01*
X003652Y010451D02*
X003532Y010572D01*
X003362Y010572D01*
X003242Y010451D01*
X003242Y010282D01*
X003362Y010162D01*
X003532Y010162D01*
X003652Y010282D01*
X003652Y010451D01*
X003652Y010378D02*
X007679Y010378D01*
X007679Y010280D02*
X005202Y010280D01*
X005227Y010255D02*
X005107Y010375D01*
X004937Y010375D01*
X004817Y010255D01*
X004817Y010085D01*
X004937Y009965D01*
X005107Y009965D01*
X005227Y010085D01*
X005227Y010255D01*
X005227Y010181D02*
X016879Y010181D01*
X016879Y010268D02*
X016879Y009777D01*
X016510Y009780D01*
X016418Y009819D01*
X016166Y009819D01*
X016081Y009783D01*
X011301Y009818D01*
X011299Y009819D01*
X011216Y009819D01*
X010288Y009825D01*
X010288Y001853D01*
X011067Y001847D01*
X011067Y001817D01*
X011187Y001697D01*
X011357Y001697D01*
X011477Y001817D01*
X011477Y001844D01*
X014315Y001824D01*
X014315Y001817D01*
X014435Y001697D01*
X014605Y001697D01*
X014725Y001817D01*
X014725Y001821D01*
X015702Y001814D01*
X015558Y001670D01*
X015462Y001437D01*
X015462Y001186D01*
X015558Y000953D01*
X015736Y000775D01*
X015859Y000724D01*
X008457Y000724D01*
X008579Y000775D01*
X008757Y000953D01*
X008854Y001186D01*
X008854Y001437D01*
X008757Y001670D01*
X008579Y001848D01*
X008347Y001945D01*
X008095Y001945D01*
X007862Y001848D01*
X007684Y001670D01*
X007588Y001437D01*
X007588Y001186D01*
X007684Y000953D01*
X007862Y000775D01*
X007985Y000724D01*
X001137Y000724D01*
X001137Y017647D01*
X007679Y017647D01*
X007679Y017407D01*
X007588Y017185D01*
X007588Y016934D01*
X007679Y016712D01*
X007679Y010268D01*
X016879Y010268D01*
X016879Y010083D02*
X005225Y010083D01*
X005126Y009984D02*
X016879Y009984D01*
X016879Y009886D02*
X002370Y009886D01*
X002373Y009888D02*
X002253Y009768D01*
X002083Y009768D01*
X001963Y009888D01*
X001963Y010058D01*
X002083Y010178D01*
X002253Y010178D01*
X002373Y010058D01*
X002373Y009888D01*
X002373Y009984D02*
X004918Y009984D01*
X004819Y010083D02*
X002348Y010083D01*
X002272Y009787D02*
X010288Y009787D01*
X010288Y009689D02*
X001137Y009689D01*
X001137Y009787D02*
X002063Y009787D01*
X001965Y009886D02*
X001137Y009886D01*
X001137Y009984D02*
X001963Y009984D01*
X001988Y010083D02*
X001137Y010083D01*
X001137Y010181D02*
X003343Y010181D01*
X003244Y010280D02*
X001137Y010280D01*
X001137Y010378D02*
X003242Y010378D01*
X003268Y010477D02*
X001137Y010477D01*
X001137Y009590D02*
X010288Y009590D01*
X010288Y009492D02*
X001137Y009492D01*
X001137Y009393D02*
X010288Y009393D01*
X010288Y009294D02*
X001137Y009294D01*
X001137Y009196D02*
X010288Y009196D01*
X010288Y009097D02*
X001137Y009097D01*
X001137Y008999D02*
X010288Y008999D01*
X010288Y008900D02*
X007172Y008900D01*
X007195Y008877D02*
X007075Y008997D01*
X006906Y008997D01*
X006785Y008877D01*
X006785Y008707D01*
X006906Y008587D01*
X007075Y008587D01*
X007195Y008707D01*
X007195Y008877D01*
X007195Y008802D02*
X007399Y008802D01*
X007447Y008849D02*
X007327Y008729D01*
X007327Y008603D01*
X007201Y008603D01*
X007081Y008483D01*
X007081Y008313D01*
X007201Y008193D01*
X007371Y008193D01*
X007491Y008313D01*
X007491Y008439D01*
X007573Y008439D01*
X007573Y008313D01*
X007693Y008193D01*
X007863Y008193D01*
X007983Y008313D01*
X007983Y008483D01*
X007863Y008603D01*
X007737Y008603D01*
X007737Y008729D01*
X007617Y008849D01*
X007447Y008849D01*
X007327Y008703D02*
X007192Y008703D01*
X007093Y008605D02*
X007327Y008605D01*
X007104Y008506D02*
X006851Y008506D01*
X006851Y008461D02*
X006851Y008631D01*
X006731Y008751D01*
X006561Y008751D01*
X006474Y008663D01*
X006386Y008751D01*
X006217Y008751D01*
X006154Y008688D01*
X006042Y008800D01*
X005872Y008800D01*
X005752Y008680D01*
X005752Y008510D01*
X005872Y008390D01*
X006042Y008390D01*
X006105Y008453D01*
X006217Y008341D01*
X006386Y008341D01*
X006474Y008428D01*
X006561Y008341D01*
X006731Y008341D01*
X006851Y008461D01*
X006798Y008408D02*
X007081Y008408D01*
X007085Y008309D02*
X005916Y008309D01*
X005916Y008335D02*
X005796Y008455D01*
X005626Y008455D01*
X005506Y008335D01*
X005506Y008166D01*
X005626Y008045D01*
X005796Y008045D01*
X005916Y008166D01*
X005916Y008335D01*
X005854Y008408D02*
X005844Y008408D01*
X005756Y008506D02*
X004538Y008506D01*
X004538Y008461D02*
X004418Y008341D01*
X004248Y008341D01*
X004128Y008461D01*
X004128Y008631D01*
X004248Y008751D01*
X004418Y008751D01*
X004538Y008631D01*
X004538Y008461D01*
X004485Y008408D02*
X005578Y008408D01*
X005506Y008309D02*
X001137Y008309D01*
X001137Y008210D02*
X005506Y008210D01*
X005560Y008112D02*
X001137Y008112D01*
X001137Y008013D02*
X010288Y008013D01*
X010288Y007915D02*
X001137Y007915D01*
X001137Y007816D02*
X005085Y007816D01*
X005063Y007794D02*
X005063Y007624D01*
X005183Y007504D01*
X005353Y007504D01*
X005473Y007624D01*
X005473Y007794D01*
X005353Y007914D01*
X005183Y007914D01*
X005063Y007794D01*
X005063Y007718D02*
X004909Y007718D01*
X004861Y007766D02*
X004691Y007766D01*
X004571Y007646D01*
X004571Y007477D01*
X004691Y007356D01*
X004861Y007356D01*
X004981Y007477D01*
X004981Y007646D01*
X004861Y007766D01*
X004981Y007619D02*
X005068Y007619D01*
X004981Y007521D02*
X005167Y007521D01*
X005369Y007521D02*
X007398Y007521D01*
X007376Y007499D02*
X007376Y007329D01*
X007496Y007209D01*
X007666Y007209D01*
X007786Y007329D01*
X007786Y007499D01*
X007666Y007619D01*
X007496Y007619D01*
X007376Y007499D01*
X007376Y007422D02*
X004926Y007422D01*
X004625Y007422D02*
X001826Y007422D01*
X001810Y007406D02*
X001930Y007526D01*
X001930Y007696D01*
X001810Y007816D01*
X001640Y007816D01*
X001520Y007696D01*
X001520Y007526D01*
X001640Y007406D01*
X001810Y007406D01*
X001925Y007521D02*
X004571Y007521D01*
X004571Y007619D02*
X001930Y007619D01*
X001908Y007718D02*
X004642Y007718D01*
X005451Y007816D02*
X010288Y007816D01*
X010288Y007718D02*
X005473Y007718D01*
X005468Y007619D02*
X010288Y007619D01*
X010288Y007521D02*
X007764Y007521D01*
X007786Y007422D02*
X010288Y007422D01*
X010288Y007324D02*
X007781Y007324D01*
X007682Y007225D02*
X010288Y007225D01*
X010288Y007126D02*
X001137Y007126D01*
X001137Y007028D02*
X010288Y007028D01*
X010288Y006929D02*
X001137Y006929D01*
X001137Y006831D02*
X002427Y006831D01*
X002307Y006711D01*
X002307Y006542D01*
X002427Y006421D01*
X002597Y006421D01*
X002717Y006542D01*
X002717Y006711D01*
X002597Y006831D01*
X002427Y006831D01*
X002328Y006732D02*
X001912Y006732D01*
X001956Y006688D02*
X001836Y006808D01*
X001667Y006808D01*
X001546Y006688D01*
X001546Y006518D01*
X001667Y006398D01*
X001836Y006398D01*
X001956Y006518D01*
X001956Y006688D01*
X001956Y006634D02*
X002307Y006634D01*
X002313Y006535D02*
X001956Y006535D01*
X001875Y006437D02*
X002412Y006437D01*
X002612Y006437D02*
X007678Y006437D01*
X007671Y006443D02*
X007734Y006380D01*
X007671Y006318D01*
X007671Y006148D01*
X007677Y006142D01*
X007644Y006142D01*
X007524Y006022D01*
X007524Y005853D01*
X007529Y005847D01*
X007398Y005847D01*
X007278Y005727D01*
X007278Y005557D01*
X007340Y005495D01*
X007278Y005432D01*
X007278Y005262D01*
X007340Y005199D01*
X007278Y005137D01*
X007278Y004967D01*
X007398Y004847D01*
X007567Y004847D01*
X007688Y004967D01*
X007688Y005137D01*
X007625Y005199D01*
X007688Y005262D01*
X007688Y005432D01*
X007625Y005495D01*
X007688Y005557D01*
X007688Y005727D01*
X007682Y005732D01*
X007814Y005732D01*
X007934Y005853D01*
X007934Y006022D01*
X007928Y006028D01*
X007961Y006028D01*
X008081Y006148D01*
X008081Y006318D01*
X008019Y006380D01*
X008081Y006443D01*
X008081Y006613D01*
X007961Y006733D01*
X007791Y006733D01*
X007671Y006613D01*
X007671Y006443D01*
X007671Y006535D02*
X002711Y006535D01*
X002717Y006634D02*
X007692Y006634D01*
X007791Y006732D02*
X002696Y006732D01*
X002598Y006831D02*
X010288Y006831D01*
X010288Y006732D02*
X007962Y006732D01*
X008060Y006634D02*
X010288Y006634D01*
X010288Y006535D02*
X008081Y006535D01*
X008075Y006437D02*
X010288Y006437D01*
X010288Y006338D02*
X008061Y006338D01*
X008081Y006240D02*
X010288Y006240D01*
X010288Y006141D02*
X008074Y006141D01*
X007976Y006043D02*
X010288Y006043D01*
X010288Y005944D02*
X007934Y005944D01*
X007926Y005845D02*
X010288Y005845D01*
X010288Y005747D02*
X007828Y005747D01*
X007688Y005648D02*
X010288Y005648D01*
X010288Y005550D02*
X007680Y005550D01*
X007668Y005451D02*
X010288Y005451D01*
X010288Y005353D02*
X007688Y005353D01*
X007680Y005254D02*
X010288Y005254D01*
X010288Y005156D02*
X007668Y005156D01*
X007688Y005057D02*
X009560Y005057D01*
X009612Y005109D02*
X009492Y004989D01*
X009492Y004819D01*
X009612Y004699D01*
X009782Y004699D01*
X009902Y004819D01*
X009902Y004989D01*
X009782Y005109D01*
X009612Y005109D01*
X009492Y004959D02*
X007679Y004959D01*
X007581Y004860D02*
X009492Y004860D01*
X009550Y004761D02*
X005022Y004761D01*
X005079Y004819D02*
X004959Y004699D01*
X004789Y004699D01*
X004669Y004819D01*
X004669Y004989D01*
X004789Y005109D01*
X004959Y005109D01*
X005079Y004989D01*
X005079Y004819D01*
X005079Y004860D02*
X005416Y004860D01*
X005358Y004918D02*
X005478Y004797D01*
X005648Y004797D01*
X005768Y004918D01*
X005768Y005087D01*
X005648Y005207D01*
X005478Y005207D01*
X005358Y005087D01*
X005358Y004918D01*
X005358Y004959D02*
X005079Y004959D01*
X005011Y005057D02*
X005358Y005057D01*
X005427Y005156D02*
X001137Y005156D01*
X001137Y005254D02*
X006589Y005254D01*
X006589Y005213D02*
X006651Y005150D01*
X006589Y005087D01*
X006589Y004918D01*
X006709Y004797D01*
X006879Y004797D01*
X006999Y004918D01*
X006999Y005087D01*
X006936Y005150D01*
X006999Y005213D01*
X006999Y005383D01*
X006936Y005445D01*
X006999Y005508D01*
X006999Y005678D01*
X006936Y005741D01*
X006999Y005803D01*
X006999Y005973D01*
X006936Y006036D01*
X006999Y006099D01*
X006999Y006268D01*
X006879Y006389D01*
X006709Y006389D01*
X006589Y006268D01*
X006589Y006099D01*
X006651Y006036D01*
X006589Y005973D01*
X006589Y005803D01*
X006651Y005741D01*
X006589Y005678D01*
X006589Y005508D01*
X006651Y005445D01*
X006589Y005383D01*
X006589Y005213D01*
X006646Y005156D02*
X005700Y005156D01*
X005768Y005057D02*
X006589Y005057D01*
X006589Y004959D02*
X005768Y004959D01*
X005711Y004860D02*
X006646Y004860D01*
X006941Y004860D02*
X007384Y004860D01*
X007286Y004959D02*
X006999Y004959D01*
X006999Y005057D02*
X007278Y005057D01*
X007297Y005156D02*
X006941Y005156D01*
X006999Y005254D02*
X007285Y005254D01*
X007278Y005353D02*
X006999Y005353D01*
X006942Y005451D02*
X007297Y005451D01*
X007285Y005550D02*
X006999Y005550D01*
X006999Y005648D02*
X007278Y005648D01*
X007297Y005747D02*
X006942Y005747D01*
X006999Y005845D02*
X007396Y005845D01*
X007524Y005944D02*
X006999Y005944D01*
X006942Y006043D02*
X007544Y006043D01*
X007642Y006141D02*
X006999Y006141D01*
X006999Y006240D02*
X007671Y006240D01*
X007692Y006338D02*
X006929Y006338D01*
X006658Y006338D02*
X005551Y006338D01*
X005550Y006339D02*
X005380Y006339D01*
X005260Y006219D01*
X005260Y006049D01*
X005380Y005929D01*
X005550Y005929D01*
X005670Y006049D01*
X005670Y006219D01*
X005550Y006339D01*
X005649Y006240D02*
X006589Y006240D01*
X006589Y006141D02*
X005670Y006141D01*
X005663Y006043D02*
X006645Y006043D01*
X006589Y005944D02*
X005564Y005944D01*
X005365Y005944D02*
X001137Y005944D01*
X001137Y006043D02*
X005267Y006043D01*
X005260Y006141D02*
X001137Y006141D01*
X001137Y006240D02*
X005280Y006240D01*
X005379Y006338D02*
X001137Y006338D01*
X001137Y006437D02*
X001628Y006437D01*
X001546Y006535D02*
X001137Y006535D01*
X001137Y006634D02*
X001546Y006634D01*
X001591Y006732D02*
X001137Y006732D01*
X001137Y007225D02*
X007480Y007225D01*
X007381Y007324D02*
X001137Y007324D01*
X001137Y007422D02*
X001623Y007422D01*
X001525Y007521D02*
X001137Y007521D01*
X001137Y007619D02*
X001520Y007619D01*
X001542Y007718D02*
X001137Y007718D01*
X001137Y008408D02*
X004181Y008408D01*
X004128Y008506D02*
X001137Y008506D01*
X001137Y008605D02*
X004128Y008605D01*
X004201Y008703D02*
X001137Y008703D01*
X001137Y008802D02*
X006785Y008802D01*
X006778Y008703D02*
X006789Y008703D01*
X006851Y008605D02*
X006888Y008605D01*
X006809Y008900D02*
X001137Y008900D01*
X001137Y011561D02*
X007679Y011561D01*
X007679Y011659D02*
X001137Y011659D01*
X001137Y011758D02*
X007679Y011758D01*
X007679Y011857D02*
X001137Y011857D01*
X001137Y011955D02*
X007679Y011955D01*
X007679Y012054D02*
X001137Y012054D01*
X001137Y012152D02*
X007679Y012152D01*
X008105Y010773D02*
X008140Y010773D01*
X008523Y010576D02*
X016879Y010576D01*
X016879Y009787D02*
X016493Y009787D01*
X016090Y009787D02*
X015543Y009787D01*
X015659Y009284D02*
X015659Y009060D01*
X015755Y008827D01*
X015933Y008649D01*
X016166Y008552D01*
X016418Y008552D01*
X016650Y008649D01*
X016828Y008827D01*
X016879Y008949D01*
X016879Y004123D01*
X016707Y004295D01*
X016437Y004407D01*
X016146Y004407D01*
X015876Y004295D01*
X015670Y004089D01*
X015559Y003820D01*
X015559Y003528D01*
X015670Y003258D01*
X015876Y003052D01*
X016146Y002941D01*
X016437Y002941D01*
X016707Y003052D01*
X016879Y003224D01*
X016879Y002099D01*
X014613Y002099D01*
X014605Y002107D01*
X014435Y002107D01*
X014427Y002099D01*
X011365Y002099D01*
X011357Y002107D01*
X011187Y002107D01*
X011179Y002099D01*
X010583Y002099D01*
X010583Y003445D01*
X010637Y003315D01*
X010815Y003137D01*
X011048Y003041D01*
X011299Y003041D01*
X011532Y003137D01*
X011710Y003315D01*
X011807Y003548D01*
X011807Y003800D01*
X011710Y004032D01*
X011532Y004210D01*
X011299Y004307D01*
X011048Y004307D01*
X010815Y004210D01*
X010637Y004032D01*
X010583Y003902D01*
X010583Y008957D01*
X010637Y008827D01*
X010815Y008649D01*
X011048Y008552D01*
X011299Y008552D01*
X011532Y008649D01*
X011710Y008827D01*
X011807Y009060D01*
X011807Y009284D01*
X015659Y009284D01*
X015659Y009196D02*
X011807Y009196D01*
X011807Y009097D02*
X015659Y009097D01*
X015684Y008999D02*
X011781Y008999D01*
X011741Y008900D02*
X015725Y008900D01*
X015780Y008802D02*
X011685Y008802D01*
X011586Y008703D02*
X015879Y008703D01*
X016040Y008605D02*
X011425Y008605D01*
X010922Y008605D02*
X010583Y008605D01*
X010583Y008703D02*
X010761Y008703D01*
X010662Y008802D02*
X010583Y008802D01*
X010583Y008900D02*
X010606Y008900D01*
X010288Y008802D02*
X007664Y008802D01*
X007737Y008703D02*
X010288Y008703D01*
X010288Y008605D02*
X007737Y008605D01*
X007960Y008506D02*
X010288Y008506D01*
X010288Y008408D02*
X007983Y008408D01*
X007979Y008309D02*
X010288Y008309D01*
X010288Y008210D02*
X007880Y008210D01*
X007676Y008210D02*
X007388Y008210D01*
X007487Y008309D02*
X007577Y008309D01*
X007573Y008408D02*
X007491Y008408D01*
X007183Y008210D02*
X005916Y008210D01*
X005862Y008112D02*
X010288Y008112D01*
X010583Y008112D02*
X011904Y008112D01*
X011904Y008139D02*
X011904Y007969D01*
X012024Y007849D01*
X012193Y007849D01*
X012314Y007969D01*
X012314Y008139D01*
X012193Y008259D01*
X012024Y008259D01*
X011904Y008139D01*
X011976Y008210D02*
X010583Y008210D01*
X010583Y008309D02*
X016879Y008309D01*
X016879Y008210D02*
X012242Y008210D01*
X012314Y008112D02*
X016879Y008112D01*
X016879Y008013D02*
X012314Y008013D01*
X012260Y007915D02*
X016879Y007915D01*
X016879Y007816D02*
X010583Y007816D01*
X010583Y007718D02*
X016879Y007718D01*
X016879Y007619D02*
X013030Y007619D01*
X013052Y007597D02*
X012932Y007717D01*
X012762Y007717D01*
X012642Y007597D01*
X012642Y007427D01*
X012762Y007307D01*
X012932Y007307D01*
X013052Y007427D01*
X013052Y007597D01*
X013052Y007521D02*
X014829Y007521D01*
X014878Y007570D02*
X014758Y007450D01*
X014758Y007280D01*
X014878Y007160D01*
X015048Y007160D01*
X015168Y007280D01*
X015168Y007450D01*
X015048Y007570D01*
X014878Y007570D01*
X014758Y007422D02*
X013046Y007422D01*
X012948Y007324D02*
X014758Y007324D01*
X014813Y007225D02*
X010583Y007225D01*
X010583Y007126D02*
X016879Y007126D01*
X016879Y007028D02*
X010583Y007028D01*
X010583Y006929D02*
X010926Y006929D01*
X010912Y006916D02*
X010874Y006824D01*
X010874Y006724D01*
X010912Y006632D01*
X010983Y006562D01*
X011065Y006528D01*
X010983Y006494D01*
X010912Y006424D01*
X010874Y006332D01*
X010874Y006232D01*
X010912Y006140D01*
X010983Y006070D01*
X011075Y006032D01*
X011174Y006032D01*
X011266Y006070D01*
X011336Y006140D01*
X011374Y006232D01*
X011374Y006332D01*
X011336Y006424D01*
X011266Y006494D01*
X011183Y006528D01*
X011266Y006562D01*
X011336Y006632D01*
X011374Y006724D01*
X011374Y006824D01*
X011336Y006916D01*
X011266Y006986D01*
X011174Y007024D01*
X011075Y007024D01*
X010983Y006986D01*
X010912Y006916D01*
X010877Y006831D02*
X010583Y006831D01*
X010583Y006732D02*
X010874Y006732D01*
X010912Y006634D02*
X010583Y006634D01*
X010583Y006535D02*
X011048Y006535D01*
X011201Y006535D02*
X014218Y006535D01*
X014228Y006546D02*
X014108Y006426D01*
X014108Y006270D01*
X013972Y006270D01*
X013852Y006150D01*
X013852Y006014D01*
X013717Y006014D01*
X013596Y005894D01*
X013596Y005759D01*
X013461Y005759D01*
X013341Y005639D01*
X013341Y005469D01*
X013461Y005349D01*
X013630Y005349D01*
X013751Y005469D01*
X013751Y005605D01*
X013886Y005605D01*
X014006Y005725D01*
X014006Y005860D01*
X014142Y005860D01*
X014262Y005981D01*
X014262Y006136D01*
X014398Y006136D01*
X014518Y006256D01*
X014518Y006426D01*
X014398Y006546D01*
X014228Y006546D01*
X014364Y006591D02*
X014484Y006471D01*
X014654Y006471D01*
X014774Y006591D01*
X014774Y006761D01*
X014654Y006881D01*
X014484Y006881D01*
X014364Y006761D01*
X014364Y006591D01*
X014364Y006634D02*
X011337Y006634D01*
X011374Y006732D02*
X014364Y006732D01*
X014435Y006831D02*
X011371Y006831D01*
X011322Y006929D02*
X016879Y006929D01*
X016879Y006831D02*
X014704Y006831D01*
X014774Y006732D02*
X016879Y006732D01*
X016879Y006634D02*
X014774Y006634D01*
X014719Y006535D02*
X016879Y006535D01*
X016879Y006437D02*
X014507Y006437D01*
X014518Y006338D02*
X016879Y006338D01*
X016879Y006240D02*
X014502Y006240D01*
X014403Y006141D02*
X016879Y006141D01*
X016879Y006043D02*
X014262Y006043D01*
X014226Y005944D02*
X016879Y005944D01*
X016879Y005845D02*
X014006Y005845D01*
X014006Y005747D02*
X014482Y005747D01*
X014534Y005798D02*
X014413Y005678D01*
X014413Y005508D01*
X014534Y005388D01*
X014703Y005388D01*
X014823Y005508D01*
X014823Y005678D01*
X014703Y005798D01*
X014534Y005798D01*
X014413Y005648D02*
X013930Y005648D01*
X013751Y005550D02*
X014413Y005550D01*
X014470Y005451D02*
X013733Y005451D01*
X013635Y005353D02*
X016879Y005353D01*
X016879Y005451D02*
X014767Y005451D01*
X014823Y005550D02*
X016879Y005550D01*
X016879Y005648D02*
X014823Y005648D01*
X014754Y005747D02*
X016879Y005747D01*
X016879Y005254D02*
X012945Y005254D01*
X012932Y005240D02*
X013052Y005360D01*
X013052Y005530D01*
X012932Y005650D01*
X012762Y005650D01*
X012642Y005530D01*
X012642Y005360D01*
X012762Y005240D01*
X012932Y005240D01*
X013044Y005353D02*
X013457Y005353D01*
X013358Y005451D02*
X013052Y005451D01*
X013032Y005550D02*
X013341Y005550D01*
X013350Y005648D02*
X012934Y005648D01*
X012760Y005648D02*
X012749Y005648D01*
X012756Y005656D02*
X012636Y005536D01*
X012467Y005536D01*
X012346Y005656D01*
X012346Y005826D01*
X012467Y005946D01*
X012636Y005946D01*
X012756Y005826D01*
X012756Y005656D01*
X012756Y005747D02*
X013449Y005747D01*
X013596Y005845D02*
X012737Y005845D01*
X012638Y005944D02*
X013646Y005944D01*
X013852Y006043D02*
X011199Y006043D01*
X011049Y006043D02*
X010583Y006043D01*
X010583Y006141D02*
X010912Y006141D01*
X010874Y006240D02*
X010583Y006240D01*
X010583Y006338D02*
X010877Y006338D01*
X010926Y006437D02*
X010583Y006437D01*
X010583Y005944D02*
X012465Y005944D01*
X012366Y005845D02*
X010583Y005845D01*
X010583Y005747D02*
X012346Y005747D01*
X012354Y005648D02*
X010583Y005648D01*
X010583Y005550D02*
X012452Y005550D01*
X012651Y005550D02*
X012661Y005550D01*
X012642Y005451D02*
X010583Y005451D01*
X010583Y005353D02*
X012649Y005353D01*
X012748Y005254D02*
X010583Y005254D01*
X010583Y005156D02*
X016879Y005156D01*
X016879Y005057D02*
X010583Y005057D01*
X010583Y004959D02*
X016879Y004959D01*
X016879Y004860D02*
X010583Y004860D01*
X010583Y004761D02*
X016879Y004761D01*
X016879Y004663D02*
X010583Y004663D01*
X010583Y004564D02*
X016879Y004564D01*
X016879Y004466D02*
X010583Y004466D01*
X010583Y004367D02*
X016051Y004367D01*
X015850Y004269D02*
X012935Y004269D01*
X012932Y004272D02*
X012762Y004272D01*
X012642Y004152D01*
X012642Y003982D01*
X012762Y003862D01*
X012932Y003862D01*
X013052Y003982D01*
X013052Y004152D01*
X012932Y004272D01*
X013034Y004170D02*
X015751Y004170D01*
X015663Y004072D02*
X014707Y004072D01*
X014703Y004076D02*
X014534Y004076D01*
X014413Y003955D01*
X014413Y003786D01*
X014534Y003666D01*
X014703Y003666D01*
X014823Y003786D01*
X014823Y003955D01*
X014703Y004076D01*
X014806Y003973D02*
X015622Y003973D01*
X015581Y003875D02*
X014823Y003875D01*
X014814Y003776D02*
X015559Y003776D01*
X015559Y003677D02*
X014715Y003677D01*
X014522Y003677D02*
X011807Y003677D01*
X011807Y003579D02*
X015559Y003579D01*
X015578Y003480D02*
X011779Y003480D01*
X011738Y003382D02*
X015619Y003382D01*
X015660Y003283D02*
X011678Y003283D01*
X011580Y003185D02*
X015744Y003185D01*
X015842Y003086D02*
X011409Y003086D01*
X010938Y003086D02*
X010583Y003086D01*
X010583Y002988D02*
X016032Y002988D01*
X016551Y002988D02*
X016879Y002988D01*
X016879Y003086D02*
X016741Y003086D01*
X016839Y003185D02*
X016879Y003185D01*
X016879Y002889D02*
X013183Y002889D01*
X013178Y002894D02*
X013008Y002894D01*
X012888Y002774D01*
X012888Y002605D01*
X013008Y002484D01*
X013178Y002484D01*
X013298Y002605D01*
X013298Y002774D01*
X013178Y002894D01*
X013282Y002791D02*
X016879Y002791D01*
X016879Y002692D02*
X013298Y002692D01*
X013287Y002594D02*
X016879Y002594D01*
X016879Y002495D02*
X013188Y002495D01*
X012997Y002495D02*
X010583Y002495D01*
X010583Y002594D02*
X012899Y002594D01*
X012888Y002692D02*
X010583Y002692D01*
X010583Y002791D02*
X012904Y002791D01*
X013003Y002889D02*
X010583Y002889D01*
X010288Y002889D02*
X007327Y002889D01*
X007343Y002873D02*
X007280Y002936D01*
X007343Y002998D01*
X007343Y003168D01*
X007280Y003231D01*
X007343Y003294D01*
X007343Y003463D01*
X007280Y003526D01*
X007343Y003589D01*
X007343Y003759D01*
X007223Y003879D01*
X007053Y003879D01*
X006933Y003759D01*
X006933Y003589D01*
X006996Y003526D01*
X006933Y003463D01*
X006933Y003294D01*
X006996Y003231D01*
X006933Y003168D01*
X006933Y002998D01*
X006996Y002936D01*
X006933Y002873D01*
X006933Y002703D01*
X007053Y002583D01*
X007223Y002583D01*
X007343Y002703D01*
X007343Y002873D01*
X007343Y002791D02*
X010288Y002791D01*
X010288Y002692D02*
X007332Y002692D01*
X007234Y002594D02*
X010288Y002594D01*
X010288Y002495D02*
X001137Y002495D01*
X001137Y002594D02*
X007043Y002594D01*
X006944Y002692D02*
X005610Y002692D01*
X005599Y002681D02*
X005719Y002801D01*
X005719Y002971D01*
X005599Y003091D01*
X005429Y003091D01*
X005309Y002971D01*
X005309Y002801D01*
X005429Y002681D01*
X005599Y002681D01*
X005708Y002791D02*
X006933Y002791D01*
X006949Y002889D02*
X005719Y002889D01*
X005703Y002988D02*
X006944Y002988D01*
X006933Y003086D02*
X005604Y003086D01*
X005424Y003086D02*
X001137Y003086D01*
X001137Y002988D02*
X005326Y002988D01*
X005309Y002889D02*
X001137Y002889D01*
X001137Y002791D02*
X005320Y002791D01*
X005418Y002692D02*
X001137Y002692D01*
X001137Y002396D02*
X002730Y002396D01*
X002732Y002397D02*
X002594Y002340D01*
X002488Y002234D01*
X002430Y002095D01*
X002430Y001945D01*
X002488Y001806D01*
X002594Y001700D01*
X002732Y001643D01*
X002882Y001643D01*
X003021Y001700D01*
X003127Y001806D01*
X003185Y001945D01*
X003185Y002095D01*
X003127Y002234D01*
X003021Y002340D01*
X002882Y002397D01*
X002732Y002397D01*
X002885Y002396D02*
X010288Y002396D01*
X010288Y002298D02*
X003063Y002298D01*
X003141Y002199D02*
X010288Y002199D01*
X010288Y002101D02*
X003182Y002101D01*
X003185Y002002D02*
X003750Y002002D01*
X003805Y002058D02*
X003685Y001938D01*
X003685Y001768D01*
X003805Y001648D01*
X003975Y001648D01*
X004095Y001768D01*
X004095Y001938D01*
X003975Y002058D01*
X003805Y002058D01*
X003685Y001904D02*
X003167Y001904D01*
X003126Y001805D02*
X003685Y001805D01*
X003746Y001707D02*
X003027Y001707D01*
X002588Y001707D02*
X001137Y001707D01*
X001137Y001805D02*
X002489Y001805D01*
X002447Y001904D02*
X001137Y001904D01*
X001137Y002002D02*
X002430Y002002D01*
X002433Y002101D02*
X001137Y002101D01*
X001137Y002199D02*
X002473Y002199D01*
X002552Y002298D02*
X001137Y002298D01*
X001137Y001608D02*
X007658Y001608D01*
X007618Y001510D02*
X001137Y001510D01*
X001137Y001411D02*
X007588Y001411D01*
X007588Y001312D02*
X001137Y001312D01*
X001137Y001214D02*
X007588Y001214D01*
X007617Y001115D02*
X001137Y001115D01*
X001137Y001017D02*
X007658Y001017D01*
X007719Y000918D02*
X001137Y000918D01*
X001137Y000820D02*
X007817Y000820D01*
X008624Y000820D02*
X015691Y000820D01*
X015593Y000918D02*
X008723Y000918D01*
X008784Y001017D02*
X015532Y001017D01*
X015491Y001115D02*
X008825Y001115D01*
X008854Y001214D02*
X012064Y001214D01*
X012073Y001205D02*
X012243Y001205D01*
X012363Y001325D01*
X012363Y001495D01*
X012243Y001615D01*
X012073Y001615D01*
X011953Y001495D01*
X011953Y001325D01*
X012073Y001205D01*
X011965Y001312D02*
X008854Y001312D01*
X008854Y001411D02*
X010243Y001411D01*
X010252Y001402D02*
X010422Y001402D01*
X010542Y001522D01*
X010542Y001692D01*
X010422Y001812D01*
X010252Y001812D01*
X010132Y001692D01*
X010132Y001522D01*
X010252Y001402D01*
X010144Y001510D02*
X008824Y001510D01*
X008783Y001608D02*
X010132Y001608D01*
X010147Y001707D02*
X008721Y001707D01*
X008622Y001805D02*
X010245Y001805D01*
X010288Y001904D02*
X008445Y001904D01*
X007996Y001904D02*
X004095Y001904D01*
X004095Y001805D02*
X007819Y001805D01*
X007721Y001707D02*
X004034Y001707D01*
X004031Y002002D02*
X010288Y002002D01*
X010428Y001805D02*
X011079Y001805D01*
X011177Y001707D02*
X010527Y001707D01*
X010542Y001608D02*
X012066Y001608D01*
X011968Y001510D02*
X010530Y001510D01*
X010431Y001411D02*
X011953Y001411D01*
X012249Y001608D02*
X015532Y001608D01*
X015492Y001510D02*
X012348Y001510D01*
X012363Y001411D02*
X015462Y001411D01*
X015462Y001312D02*
X012350Y001312D01*
X012252Y001214D02*
X015462Y001214D01*
X015595Y001707D02*
X014614Y001707D01*
X014713Y001805D02*
X015693Y001805D01*
X014611Y002101D02*
X016879Y002101D01*
X016879Y002199D02*
X010583Y002199D01*
X010583Y002101D02*
X011181Y002101D01*
X011363Y002101D02*
X014429Y002101D01*
X014327Y001805D02*
X011465Y001805D01*
X011366Y001707D02*
X014426Y001707D01*
X014423Y003776D02*
X011807Y003776D01*
X011776Y003875D02*
X012750Y003875D01*
X012651Y003973D02*
X011735Y003973D01*
X011671Y004072D02*
X012642Y004072D01*
X012660Y004170D02*
X011572Y004170D01*
X011391Y004269D02*
X012758Y004269D01*
X013052Y004072D02*
X014530Y004072D01*
X014431Y003973D02*
X013042Y003973D01*
X012944Y003875D02*
X014413Y003875D01*
X013852Y006141D02*
X011336Y006141D01*
X011374Y006240D02*
X013942Y006240D01*
X014108Y006338D02*
X011372Y006338D01*
X011323Y006437D02*
X014119Y006437D01*
X014409Y006535D02*
X014420Y006535D01*
X015113Y007225D02*
X016879Y007225D01*
X016879Y007324D02*
X015168Y007324D01*
X015168Y007422D02*
X016879Y007422D01*
X016879Y007521D02*
X015097Y007521D01*
X016544Y008605D02*
X016879Y008605D01*
X016879Y008703D02*
X016705Y008703D01*
X016803Y008802D02*
X016879Y008802D01*
X016879Y008900D02*
X016859Y008900D01*
X016879Y008506D02*
X010583Y008506D01*
X010583Y008408D02*
X016879Y008408D01*
X014661Y010773D02*
X012411Y010773D01*
X012461Y010871D02*
X014562Y010871D01*
X014561Y010970D02*
X012461Y010970D01*
X012386Y011068D02*
X014587Y011068D01*
X016879Y014222D02*
X007926Y014222D01*
X007926Y014320D02*
X016879Y014320D01*
X016879Y014419D02*
X007926Y014419D01*
X007926Y014517D02*
X016879Y014517D01*
X016879Y014616D02*
X007926Y014616D01*
X007926Y014714D02*
X016879Y014714D01*
X016879Y014813D02*
X007926Y014813D01*
X007926Y014911D02*
X016879Y014911D01*
X016879Y015010D02*
X007926Y015010D01*
X007926Y015109D02*
X013917Y015109D01*
X013872Y015154D02*
X013992Y015034D01*
X014162Y015034D01*
X014282Y015154D01*
X014282Y015324D01*
X014162Y015444D01*
X013992Y015444D01*
X013872Y015324D01*
X013872Y015154D01*
X013872Y015207D02*
X007926Y015207D01*
X007926Y015306D02*
X013872Y015306D01*
X013953Y015404D02*
X007926Y015404D01*
X007926Y015503D02*
X011161Y015503D01*
X011187Y015477D02*
X011357Y015477D01*
X011477Y015597D01*
X011477Y015766D01*
X011357Y015887D01*
X011187Y015887D01*
X011067Y015766D01*
X011067Y015597D01*
X011187Y015477D01*
X011067Y015601D02*
X007926Y015601D01*
X007926Y015700D02*
X011067Y015700D01*
X011099Y015798D02*
X007926Y015798D01*
X007926Y015897D02*
X016879Y015897D01*
X016879Y015995D02*
X007926Y015995D01*
X007926Y016094D02*
X016879Y016094D01*
X016879Y016192D02*
X007926Y016192D01*
X007926Y016291D02*
X016879Y016291D01*
X016879Y016390D02*
X007926Y016390D01*
X007926Y016488D02*
X007946Y016488D01*
X007679Y016488D02*
X001137Y016488D01*
X001137Y016390D02*
X007679Y016390D01*
X007679Y016291D02*
X001137Y016291D01*
X001137Y016192D02*
X007679Y016192D01*
X007679Y016094D02*
X007557Y016094D01*
X007518Y016133D02*
X007348Y016133D01*
X007228Y016013D01*
X007228Y015843D01*
X007348Y015723D01*
X007518Y015723D01*
X007638Y015843D01*
X007638Y016013D01*
X007518Y016133D01*
X007638Y015995D02*
X007679Y015995D01*
X007679Y015897D02*
X007638Y015897D01*
X007679Y015798D02*
X007594Y015798D01*
X007679Y015700D02*
X001137Y015700D01*
X001137Y015798D02*
X007273Y015798D01*
X007228Y015897D02*
X001137Y015897D01*
X001137Y015995D02*
X007228Y015995D01*
X007310Y016094D02*
X001137Y016094D01*
X001137Y016587D02*
X007679Y016587D01*
X007679Y016685D02*
X001137Y016685D01*
X001137Y016784D02*
X007650Y016784D01*
X007609Y016882D02*
X001137Y016882D01*
X001137Y016981D02*
X007588Y016981D01*
X007588Y017079D02*
X001137Y017079D01*
X001137Y017178D02*
X007588Y017178D01*
X007625Y017276D02*
X001137Y017276D01*
X001137Y017375D02*
X007666Y017375D01*
X007679Y017474D02*
X001137Y017474D01*
X001137Y017572D02*
X007679Y017572D01*
X008603Y017572D02*
X015712Y017572D01*
X015614Y017474D02*
X008702Y017474D01*
X008775Y017375D02*
X015540Y017375D01*
X015499Y017276D02*
X008816Y017276D01*
X008854Y017178D02*
X015462Y017178D01*
X015462Y017079D02*
X008854Y017079D01*
X008854Y016981D02*
X015462Y016981D01*
X015483Y016882D02*
X008833Y016882D01*
X008792Y016784D02*
X015524Y016784D01*
X015574Y016685D02*
X008742Y016685D01*
X008643Y016587D02*
X015672Y016587D01*
X015820Y016488D02*
X008496Y016488D01*
X007679Y015601D02*
X001137Y015601D01*
X001137Y015503D02*
X007679Y015503D01*
X007679Y015404D02*
X001137Y015404D01*
X001137Y015306D02*
X007679Y015306D01*
X007679Y015207D02*
X001137Y015207D01*
X001137Y015109D02*
X007679Y015109D01*
X007679Y015010D02*
X001137Y015010D01*
X001137Y014911D02*
X007679Y014911D01*
X007679Y014813D02*
X001137Y014813D01*
X001137Y014714D02*
X007679Y014714D01*
X007679Y014616D02*
X001137Y014616D01*
X003650Y010280D02*
X004842Y010280D01*
X004817Y010181D02*
X003552Y010181D01*
X004465Y008703D02*
X005775Y008703D01*
X005752Y008605D02*
X004538Y008605D01*
X006059Y008408D02*
X006150Y008408D01*
X006139Y008703D02*
X006169Y008703D01*
X006434Y008703D02*
X006514Y008703D01*
X006494Y008408D02*
X006453Y008408D01*
X006589Y005845D02*
X001137Y005845D01*
X001137Y005747D02*
X006645Y005747D01*
X006589Y005648D02*
X001137Y005648D01*
X001137Y005550D02*
X006589Y005550D01*
X006645Y005451D02*
X001137Y005451D01*
X001137Y005353D02*
X006589Y005353D01*
X007967Y004054D02*
X007967Y003884D01*
X008087Y003764D01*
X008256Y003764D01*
X008377Y003884D01*
X008377Y004054D01*
X008256Y004174D01*
X008087Y004174D01*
X007967Y004054D01*
X007984Y004072D02*
X003022Y004072D01*
X003021Y004072D02*
X002882Y004130D01*
X002732Y004130D01*
X002594Y004072D01*
X002488Y003966D01*
X002430Y003827D01*
X002430Y003677D01*
X002488Y003539D01*
X002594Y003433D01*
X002732Y003375D01*
X002882Y003375D01*
X003021Y003433D01*
X003127Y003539D01*
X003185Y003677D01*
X003185Y003827D01*
X003127Y003966D01*
X003021Y004072D01*
X003120Y003973D02*
X007967Y003973D01*
X007976Y003875D02*
X007227Y003875D01*
X007326Y003776D02*
X008075Y003776D01*
X008269Y003776D02*
X010288Y003776D01*
X010288Y003677D02*
X007343Y003677D01*
X007333Y003579D02*
X010288Y003579D01*
X010288Y003480D02*
X007326Y003480D01*
X007343Y003382D02*
X010288Y003382D01*
X010288Y003283D02*
X007333Y003283D01*
X007326Y003185D02*
X010288Y003185D01*
X010288Y003086D02*
X007343Y003086D01*
X007332Y002988D02*
X010288Y002988D01*
X010583Y003185D02*
X010767Y003185D01*
X010669Y003283D02*
X010583Y003283D01*
X010583Y003382D02*
X010609Y003382D01*
X010288Y003875D02*
X008367Y003875D01*
X008377Y003973D02*
X010288Y003973D01*
X010288Y004072D02*
X008359Y004072D01*
X008260Y004170D02*
X010288Y004170D01*
X010288Y004269D02*
X001137Y004269D01*
X001137Y004367D02*
X010288Y004367D01*
X010288Y004466D02*
X001137Y004466D01*
X001137Y004564D02*
X010288Y004564D01*
X010288Y004663D02*
X001137Y004663D01*
X001137Y004761D02*
X004727Y004761D01*
X004669Y004860D02*
X001137Y004860D01*
X001137Y004959D02*
X004669Y004959D01*
X004738Y005057D02*
X001137Y005057D01*
X001137Y004170D02*
X008083Y004170D01*
X007049Y003875D02*
X003165Y003875D01*
X003185Y003776D02*
X006951Y003776D01*
X006933Y003677D02*
X004312Y003677D01*
X004270Y003719D02*
X004390Y003599D01*
X004390Y003429D01*
X004270Y003309D01*
X004100Y003309D01*
X003980Y003429D01*
X003980Y003599D01*
X004100Y003719D01*
X004270Y003719D01*
X004390Y003579D02*
X006943Y003579D01*
X006950Y003480D02*
X004390Y003480D01*
X004343Y003382D02*
X006933Y003382D01*
X006943Y003283D02*
X001137Y003283D01*
X001137Y003185D02*
X006950Y003185D01*
X009844Y004761D02*
X010288Y004761D01*
X010288Y004860D02*
X009902Y004860D01*
X009902Y004959D02*
X010288Y004959D01*
X010288Y005057D02*
X009834Y005057D01*
X010583Y004269D02*
X010956Y004269D01*
X010775Y004170D02*
X010583Y004170D01*
X010583Y004072D02*
X010676Y004072D01*
X010612Y003973D02*
X010583Y003973D01*
X010583Y002396D02*
X016879Y002396D01*
X016879Y002298D02*
X010583Y002298D01*
X010583Y007324D02*
X012746Y007324D01*
X012647Y007422D02*
X010583Y007422D01*
X010583Y007521D02*
X012642Y007521D01*
X012664Y007619D02*
X010583Y007619D01*
X010583Y007915D02*
X011957Y007915D01*
X011904Y008013D02*
X010583Y008013D01*
X016533Y004367D02*
X016879Y004367D01*
X016879Y004269D02*
X016733Y004269D01*
X016832Y004170D02*
X016879Y004170D01*
X016879Y015109D02*
X014237Y015109D01*
X014282Y015207D02*
X016879Y015207D01*
X016879Y015306D02*
X014282Y015306D01*
X014201Y015404D02*
X016879Y015404D01*
X016879Y015503D02*
X011383Y015503D01*
X011477Y015601D02*
X016879Y015601D01*
X016879Y015700D02*
X011477Y015700D01*
X011445Y015798D02*
X016879Y015798D01*
X016879Y016488D02*
X016370Y016488D01*
X016517Y016587D02*
X016879Y016587D01*
X016879Y016685D02*
X016616Y016685D01*
X016666Y016784D02*
X016879Y016784D01*
X016879Y016882D02*
X016707Y016882D01*
X016728Y016981D02*
X016879Y016981D01*
X016879Y017079D02*
X016728Y017079D01*
X016728Y017178D02*
X016879Y017178D01*
X016879Y017276D02*
X016690Y017276D01*
X016649Y017375D02*
X016879Y017375D01*
X016879Y017474D02*
X016576Y017474D01*
X016477Y017572D02*
X016879Y017572D01*
X004059Y003677D02*
X003185Y003677D01*
X003144Y003579D02*
X003980Y003579D01*
X003980Y003480D02*
X003069Y003480D01*
X002898Y003382D02*
X004028Y003382D01*
X002716Y003382D02*
X001137Y003382D01*
X001137Y003480D02*
X002546Y003480D01*
X002471Y003579D02*
X001137Y003579D01*
X001137Y003677D02*
X002430Y003677D01*
X002430Y003776D02*
X001137Y003776D01*
X001137Y003875D02*
X002450Y003875D01*
X002495Y003973D02*
X001137Y003973D01*
X001137Y004072D02*
X002593Y004072D01*
D14*
X011124Y006282D03*
X011124Y006774D03*
D15*
X016292Y003674D03*
M02*
