G75*
G70*
%OFA0B0*%
%FSLAX24Y24*%
%IPPOS*%
%LPD*%
%AMOC8*
5,1,8,0,0,1.08239X$1,22.5*
%
%ADD10C,0.0000*%
%ADD11R,0.0413X0.0236*%
%ADD12R,0.0315X0.0315*%
%ADD13R,0.0315X0.0315*%
%ADD14R,0.0394X0.0433*%
%ADD15R,0.1100X0.0290*%
%ADD16R,0.0433X0.0394*%
%ADD17R,0.0890X0.0850*%
%ADD18R,0.0870X0.0472*%
%ADD19R,0.0299X0.0500*%
%ADD20R,0.1150X0.0500*%
%ADD21R,0.0650X0.1350*%
%ADD22R,0.0550X0.0137*%
%ADD23R,0.0551X0.0630*%
%ADD24R,0.0217X0.0472*%
%ADD25R,0.0217X0.0591*%
%ADD26R,0.0327X0.0248*%
%ADD27R,0.0120X0.0390*%
%ADD28R,0.0984X0.0787*%
%ADD29R,0.0906X0.0197*%
%ADD30C,0.0210*%
%ADD31C,0.0100*%
%ADD32R,0.0295X0.0295*%
%ADD33C,0.0160*%
%ADD34C,0.0295*%
%ADD35C,0.0300*%
%ADD36C,0.1266*%
%ADD37C,0.0120*%
%ADD38C,0.0240*%
D10*
X000937Y000524D02*
X000937Y017847D01*
X017079Y017847D01*
X017079Y000524D01*
X000937Y000524D01*
X002630Y002020D02*
X002632Y002046D01*
X002638Y002072D01*
X002648Y002097D01*
X002661Y002120D01*
X002677Y002140D01*
X002697Y002158D01*
X002719Y002173D01*
X002742Y002185D01*
X002768Y002193D01*
X002794Y002197D01*
X002820Y002197D01*
X002846Y002193D01*
X002872Y002185D01*
X002896Y002173D01*
X002917Y002158D01*
X002937Y002140D01*
X002953Y002120D01*
X002966Y002097D01*
X002976Y002072D01*
X002982Y002046D01*
X002984Y002020D01*
X002982Y001994D01*
X002976Y001968D01*
X002966Y001943D01*
X002953Y001920D01*
X002937Y001900D01*
X002917Y001882D01*
X002895Y001867D01*
X002872Y001855D01*
X002846Y001847D01*
X002820Y001843D01*
X002794Y001843D01*
X002768Y001847D01*
X002742Y001855D01*
X002718Y001867D01*
X002697Y001882D01*
X002677Y001900D01*
X002661Y001920D01*
X002648Y001943D01*
X002638Y001968D01*
X002632Y001994D01*
X002630Y002020D01*
X002630Y003752D02*
X002632Y003778D01*
X002638Y003804D01*
X002648Y003829D01*
X002661Y003852D01*
X002677Y003872D01*
X002697Y003890D01*
X002719Y003905D01*
X002742Y003917D01*
X002768Y003925D01*
X002794Y003929D01*
X002820Y003929D01*
X002846Y003925D01*
X002872Y003917D01*
X002896Y003905D01*
X002917Y003890D01*
X002937Y003872D01*
X002953Y003852D01*
X002966Y003829D01*
X002976Y003804D01*
X002982Y003778D01*
X002984Y003752D01*
X002982Y003726D01*
X002976Y003700D01*
X002966Y003675D01*
X002953Y003652D01*
X002937Y003632D01*
X002917Y003614D01*
X002895Y003599D01*
X002872Y003587D01*
X002846Y003579D01*
X002820Y003575D01*
X002794Y003575D01*
X002768Y003579D01*
X002742Y003587D01*
X002718Y003599D01*
X002697Y003614D01*
X002677Y003632D01*
X002661Y003652D01*
X002648Y003675D01*
X002638Y003700D01*
X002632Y003726D01*
X002630Y003752D01*
X007788Y001311D02*
X007790Y001352D01*
X007796Y001393D01*
X007806Y001433D01*
X007819Y001472D01*
X007836Y001509D01*
X007857Y001545D01*
X007881Y001579D01*
X007908Y001610D01*
X007937Y001638D01*
X007970Y001664D01*
X008004Y001686D01*
X008041Y001705D01*
X008079Y001720D01*
X008119Y001732D01*
X008159Y001740D01*
X008200Y001744D01*
X008242Y001744D01*
X008283Y001740D01*
X008323Y001732D01*
X008363Y001720D01*
X008401Y001705D01*
X008437Y001686D01*
X008472Y001664D01*
X008505Y001638D01*
X008534Y001610D01*
X008561Y001579D01*
X008585Y001545D01*
X008606Y001509D01*
X008623Y001472D01*
X008636Y001433D01*
X008646Y001393D01*
X008652Y001352D01*
X008654Y001311D01*
X008652Y001270D01*
X008646Y001229D01*
X008636Y001189D01*
X008623Y001150D01*
X008606Y001113D01*
X008585Y001077D01*
X008561Y001043D01*
X008534Y001012D01*
X008505Y000984D01*
X008472Y000958D01*
X008438Y000936D01*
X008401Y000917D01*
X008363Y000902D01*
X008323Y000890D01*
X008283Y000882D01*
X008242Y000878D01*
X008200Y000878D01*
X008159Y000882D01*
X008119Y000890D01*
X008079Y000902D01*
X008041Y000917D01*
X008005Y000936D01*
X007970Y000958D01*
X007937Y000984D01*
X007908Y001012D01*
X007881Y001043D01*
X007857Y001077D01*
X007836Y001113D01*
X007819Y001150D01*
X007806Y001189D01*
X007796Y001229D01*
X007790Y001270D01*
X007788Y001311D01*
X010741Y003674D02*
X010743Y003715D01*
X010749Y003756D01*
X010759Y003796D01*
X010772Y003835D01*
X010789Y003872D01*
X010810Y003908D01*
X010834Y003942D01*
X010861Y003973D01*
X010890Y004001D01*
X010923Y004027D01*
X010957Y004049D01*
X010994Y004068D01*
X011032Y004083D01*
X011072Y004095D01*
X011112Y004103D01*
X011153Y004107D01*
X011195Y004107D01*
X011236Y004103D01*
X011276Y004095D01*
X011316Y004083D01*
X011354Y004068D01*
X011390Y004049D01*
X011425Y004027D01*
X011458Y004001D01*
X011487Y003973D01*
X011514Y003942D01*
X011538Y003908D01*
X011559Y003872D01*
X011576Y003835D01*
X011589Y003796D01*
X011599Y003756D01*
X011605Y003715D01*
X011607Y003674D01*
X011605Y003633D01*
X011599Y003592D01*
X011589Y003552D01*
X011576Y003513D01*
X011559Y003476D01*
X011538Y003440D01*
X011514Y003406D01*
X011487Y003375D01*
X011458Y003347D01*
X011425Y003321D01*
X011391Y003299D01*
X011354Y003280D01*
X011316Y003265D01*
X011276Y003253D01*
X011236Y003245D01*
X011195Y003241D01*
X011153Y003241D01*
X011112Y003245D01*
X011072Y003253D01*
X011032Y003265D01*
X010994Y003280D01*
X010958Y003299D01*
X010923Y003321D01*
X010890Y003347D01*
X010861Y003375D01*
X010834Y003406D01*
X010810Y003440D01*
X010789Y003476D01*
X010772Y003513D01*
X010759Y003552D01*
X010749Y003592D01*
X010743Y003633D01*
X010741Y003674D01*
X010741Y009186D02*
X010743Y009227D01*
X010749Y009268D01*
X010759Y009308D01*
X010772Y009347D01*
X010789Y009384D01*
X010810Y009420D01*
X010834Y009454D01*
X010861Y009485D01*
X010890Y009513D01*
X010923Y009539D01*
X010957Y009561D01*
X010994Y009580D01*
X011032Y009595D01*
X011072Y009607D01*
X011112Y009615D01*
X011153Y009619D01*
X011195Y009619D01*
X011236Y009615D01*
X011276Y009607D01*
X011316Y009595D01*
X011354Y009580D01*
X011390Y009561D01*
X011425Y009539D01*
X011458Y009513D01*
X011487Y009485D01*
X011514Y009454D01*
X011538Y009420D01*
X011559Y009384D01*
X011576Y009347D01*
X011589Y009308D01*
X011599Y009268D01*
X011605Y009227D01*
X011607Y009186D01*
X011605Y009145D01*
X011599Y009104D01*
X011589Y009064D01*
X011576Y009025D01*
X011559Y008988D01*
X011538Y008952D01*
X011514Y008918D01*
X011487Y008887D01*
X011458Y008859D01*
X011425Y008833D01*
X011391Y008811D01*
X011354Y008792D01*
X011316Y008777D01*
X011276Y008765D01*
X011236Y008757D01*
X011195Y008753D01*
X011153Y008753D01*
X011112Y008757D01*
X011072Y008765D01*
X011032Y008777D01*
X010994Y008792D01*
X010958Y008811D01*
X010923Y008833D01*
X010890Y008859D01*
X010861Y008887D01*
X010834Y008918D01*
X010810Y008952D01*
X010789Y008988D01*
X010772Y009025D01*
X010759Y009064D01*
X010749Y009104D01*
X010743Y009145D01*
X010741Y009186D01*
X015859Y009186D02*
X015861Y009227D01*
X015867Y009268D01*
X015877Y009308D01*
X015890Y009347D01*
X015907Y009384D01*
X015928Y009420D01*
X015952Y009454D01*
X015979Y009485D01*
X016008Y009513D01*
X016041Y009539D01*
X016075Y009561D01*
X016112Y009580D01*
X016150Y009595D01*
X016190Y009607D01*
X016230Y009615D01*
X016271Y009619D01*
X016313Y009619D01*
X016354Y009615D01*
X016394Y009607D01*
X016434Y009595D01*
X016472Y009580D01*
X016508Y009561D01*
X016543Y009539D01*
X016576Y009513D01*
X016605Y009485D01*
X016632Y009454D01*
X016656Y009420D01*
X016677Y009384D01*
X016694Y009347D01*
X016707Y009308D01*
X016717Y009268D01*
X016723Y009227D01*
X016725Y009186D01*
X016723Y009145D01*
X016717Y009104D01*
X016707Y009064D01*
X016694Y009025D01*
X016677Y008988D01*
X016656Y008952D01*
X016632Y008918D01*
X016605Y008887D01*
X016576Y008859D01*
X016543Y008833D01*
X016509Y008811D01*
X016472Y008792D01*
X016434Y008777D01*
X016394Y008765D01*
X016354Y008757D01*
X016313Y008753D01*
X016271Y008753D01*
X016230Y008757D01*
X016190Y008765D01*
X016150Y008777D01*
X016112Y008792D01*
X016076Y008811D01*
X016041Y008833D01*
X016008Y008859D01*
X015979Y008887D01*
X015952Y008918D01*
X015928Y008952D01*
X015907Y008988D01*
X015890Y009025D01*
X015877Y009064D01*
X015867Y009104D01*
X015861Y009145D01*
X015859Y009186D01*
X015662Y001311D02*
X015664Y001352D01*
X015670Y001393D01*
X015680Y001433D01*
X015693Y001472D01*
X015710Y001509D01*
X015731Y001545D01*
X015755Y001579D01*
X015782Y001610D01*
X015811Y001638D01*
X015844Y001664D01*
X015878Y001686D01*
X015915Y001705D01*
X015953Y001720D01*
X015993Y001732D01*
X016033Y001740D01*
X016074Y001744D01*
X016116Y001744D01*
X016157Y001740D01*
X016197Y001732D01*
X016237Y001720D01*
X016275Y001705D01*
X016311Y001686D01*
X016346Y001664D01*
X016379Y001638D01*
X016408Y001610D01*
X016435Y001579D01*
X016459Y001545D01*
X016480Y001509D01*
X016497Y001472D01*
X016510Y001433D01*
X016520Y001393D01*
X016526Y001352D01*
X016528Y001311D01*
X016526Y001270D01*
X016520Y001229D01*
X016510Y001189D01*
X016497Y001150D01*
X016480Y001113D01*
X016459Y001077D01*
X016435Y001043D01*
X016408Y001012D01*
X016379Y000984D01*
X016346Y000958D01*
X016312Y000936D01*
X016275Y000917D01*
X016237Y000902D01*
X016197Y000890D01*
X016157Y000882D01*
X016116Y000878D01*
X016074Y000878D01*
X016033Y000882D01*
X015993Y000890D01*
X015953Y000902D01*
X015915Y000917D01*
X015879Y000936D01*
X015844Y000958D01*
X015811Y000984D01*
X015782Y001012D01*
X015755Y001043D01*
X015731Y001077D01*
X015710Y001113D01*
X015693Y001150D01*
X015680Y001189D01*
X015670Y001229D01*
X015664Y001270D01*
X015662Y001311D01*
X015662Y017060D02*
X015664Y017101D01*
X015670Y017142D01*
X015680Y017182D01*
X015693Y017221D01*
X015710Y017258D01*
X015731Y017294D01*
X015755Y017328D01*
X015782Y017359D01*
X015811Y017387D01*
X015844Y017413D01*
X015878Y017435D01*
X015915Y017454D01*
X015953Y017469D01*
X015993Y017481D01*
X016033Y017489D01*
X016074Y017493D01*
X016116Y017493D01*
X016157Y017489D01*
X016197Y017481D01*
X016237Y017469D01*
X016275Y017454D01*
X016311Y017435D01*
X016346Y017413D01*
X016379Y017387D01*
X016408Y017359D01*
X016435Y017328D01*
X016459Y017294D01*
X016480Y017258D01*
X016497Y017221D01*
X016510Y017182D01*
X016520Y017142D01*
X016526Y017101D01*
X016528Y017060D01*
X016526Y017019D01*
X016520Y016978D01*
X016510Y016938D01*
X016497Y016899D01*
X016480Y016862D01*
X016459Y016826D01*
X016435Y016792D01*
X016408Y016761D01*
X016379Y016733D01*
X016346Y016707D01*
X016312Y016685D01*
X016275Y016666D01*
X016237Y016651D01*
X016197Y016639D01*
X016157Y016631D01*
X016116Y016627D01*
X016074Y016627D01*
X016033Y016631D01*
X015993Y016639D01*
X015953Y016651D01*
X015915Y016666D01*
X015879Y016685D01*
X015844Y016707D01*
X015811Y016733D01*
X015782Y016761D01*
X015755Y016792D01*
X015731Y016826D01*
X015710Y016862D01*
X015693Y016899D01*
X015680Y016938D01*
X015670Y016978D01*
X015664Y017019D01*
X015662Y017060D01*
X007788Y017060D02*
X007790Y017101D01*
X007796Y017142D01*
X007806Y017182D01*
X007819Y017221D01*
X007836Y017258D01*
X007857Y017294D01*
X007881Y017328D01*
X007908Y017359D01*
X007937Y017387D01*
X007970Y017413D01*
X008004Y017435D01*
X008041Y017454D01*
X008079Y017469D01*
X008119Y017481D01*
X008159Y017489D01*
X008200Y017493D01*
X008242Y017493D01*
X008283Y017489D01*
X008323Y017481D01*
X008363Y017469D01*
X008401Y017454D01*
X008437Y017435D01*
X008472Y017413D01*
X008505Y017387D01*
X008534Y017359D01*
X008561Y017328D01*
X008585Y017294D01*
X008606Y017258D01*
X008623Y017221D01*
X008636Y017182D01*
X008646Y017142D01*
X008652Y017101D01*
X008654Y017060D01*
X008652Y017019D01*
X008646Y016978D01*
X008636Y016938D01*
X008623Y016899D01*
X008606Y016862D01*
X008585Y016826D01*
X008561Y016792D01*
X008534Y016761D01*
X008505Y016733D01*
X008472Y016707D01*
X008438Y016685D01*
X008401Y016666D01*
X008363Y016651D01*
X008323Y016639D01*
X008283Y016631D01*
X008242Y016627D01*
X008200Y016627D01*
X008159Y016631D01*
X008119Y016639D01*
X008079Y016651D01*
X008041Y016666D01*
X008005Y016685D01*
X007970Y016707D01*
X007937Y016733D01*
X007908Y016761D01*
X007881Y016792D01*
X007857Y016826D01*
X007836Y016862D01*
X007819Y016899D01*
X007806Y016938D01*
X007796Y016978D01*
X007790Y017019D01*
X007788Y017060D01*
D11*
X008181Y007788D03*
X008181Y007414D03*
X008181Y007040D03*
X009244Y007040D03*
X009244Y007414D03*
X009244Y007788D03*
D12*
G36*
X009808Y008361D02*
X010030Y008583D01*
X010252Y008361D01*
X010030Y008139D01*
X009808Y008361D01*
G37*
G36*
X010225Y007943D02*
X010447Y008165D01*
X010669Y007943D01*
X010447Y007721D01*
X010225Y007943D01*
G37*
D13*
X009943Y006774D03*
X010534Y006774D03*
X005366Y011676D03*
X005366Y012266D03*
X006941Y016449D03*
X006941Y017040D03*
D14*
X004372Y011400D03*
X004372Y010869D03*
X004884Y010869D03*
X005553Y010869D03*
X003703Y010869D03*
X003703Y011400D03*
X005416Y006124D03*
X005416Y005455D03*
X008696Y008494D03*
X009365Y008494D03*
X010937Y011006D03*
X011607Y011006D03*
X014973Y011794D03*
X015642Y011794D03*
X015111Y007256D03*
X015111Y006587D03*
X015111Y005977D03*
X015111Y005308D03*
X014618Y005189D03*
X014618Y004520D03*
X014618Y003910D03*
X014618Y003241D03*
X012158Y002089D03*
X012158Y001420D03*
X010337Y001666D03*
X010337Y002335D03*
X009697Y002502D03*
X009697Y003172D03*
X009697Y004225D03*
X009697Y004894D03*
X009805Y005839D03*
X010475Y005839D03*
D15*
X003351Y006603D03*
X003351Y007103D03*
X003351Y007603D03*
X003351Y008103D03*
X003351Y008603D03*
X003351Y009103D03*
X003351Y009603D03*
X001751Y009603D03*
X001751Y009103D03*
X001751Y008603D03*
X001751Y008103D03*
X001751Y007103D03*
X001751Y006603D03*
D16*
X004924Y004353D03*
X004924Y003684D03*
X005514Y003615D03*
X005514Y002945D03*
X011616Y005750D03*
X011616Y006420D03*
X011616Y007128D03*
X011616Y007798D03*
X013929Y005091D03*
X013929Y004422D03*
X013929Y003910D03*
X013929Y003241D03*
X013083Y002689D03*
X012414Y002689D03*
X012266Y010908D03*
X012935Y010908D03*
X013733Y012542D03*
X013733Y013211D03*
X014874Y012532D03*
X015544Y012532D03*
X009786Y011302D03*
X009116Y011302D03*
X008516Y015052D03*
X007975Y015052D03*
X007975Y015721D03*
X008516Y015721D03*
X006351Y016430D03*
X006351Y017099D03*
D17*
X010066Y016813D03*
X011986Y016813D03*
X011937Y013073D03*
X010017Y013073D03*
D18*
X009520Y014451D03*
X009520Y015436D03*
X012433Y015436D03*
X012433Y014451D03*
D19*
X008569Y014327D03*
X008069Y014327D03*
X008069Y011327D03*
X008569Y011327D03*
D20*
X006685Y013123D03*
X006685Y014304D03*
X006685Y015485D03*
X004863Y015485D03*
X004863Y014304D03*
X004863Y013123D03*
D21*
X002709Y011594D03*
X002709Y017014D03*
D22*
X006142Y006124D03*
X006142Y005869D03*
X006142Y005613D03*
X006142Y005357D03*
X006142Y005101D03*
X006142Y004845D03*
X006142Y004589D03*
X006142Y004333D03*
X006142Y004077D03*
X006142Y003821D03*
X006142Y003565D03*
X006142Y003310D03*
X006142Y003054D03*
X006142Y002798D03*
X009020Y002798D03*
X009020Y003054D03*
X009020Y003310D03*
X009020Y003565D03*
X009020Y003821D03*
X009020Y004077D03*
X009020Y004333D03*
X009020Y004589D03*
X009020Y004845D03*
X009020Y005101D03*
X009020Y005357D03*
X009020Y005613D03*
X009020Y005869D03*
X009020Y006124D03*
D23*
X012414Y004560D03*
X013280Y004560D03*
X013280Y003575D03*
X012414Y003575D03*
D24*
X011646Y002414D03*
X010898Y002414D03*
X010898Y001390D03*
X011272Y001390D03*
X011646Y001390D03*
X014146Y001390D03*
X014520Y001390D03*
X014894Y001390D03*
X014894Y002414D03*
X014146Y002414D03*
D25*
X014557Y013142D03*
X015057Y013142D03*
X015557Y013142D03*
X016057Y013142D03*
X016057Y015268D03*
X015557Y015268D03*
X015057Y015268D03*
X014557Y015268D03*
D26*
X013142Y013315D03*
X013142Y012437D03*
D27*
X013083Y010433D03*
X012827Y010433D03*
X013339Y010433D03*
X013595Y010433D03*
X013851Y010433D03*
X014107Y010433D03*
X014363Y010433D03*
X014618Y010433D03*
X014874Y010433D03*
X015130Y010433D03*
X015130Y008135D03*
X014874Y008135D03*
X014618Y008135D03*
X014363Y008135D03*
X014107Y008135D03*
X013851Y008135D03*
X013595Y008135D03*
X013339Y008135D03*
X013083Y008135D03*
X012827Y008135D03*
D28*
X003792Y004638D03*
X001626Y004638D03*
X001626Y001134D03*
X003792Y001134D03*
D29*
X003831Y002256D03*
X003831Y002571D03*
X003831Y002886D03*
X003831Y003201D03*
X003831Y003516D03*
D30*
X004185Y003514D03*
X004874Y004904D03*
X005416Y005455D03*
X005563Y005002D03*
X005465Y006134D03*
X004776Y007561D03*
X005268Y007709D03*
X005711Y008250D03*
X005957Y008595D03*
X006301Y008546D03*
X006646Y008546D03*
X006990Y008792D03*
X007286Y008398D03*
X007532Y008644D03*
X007778Y008398D03*
X007581Y007414D03*
X007876Y006528D03*
X007876Y006233D03*
X007729Y005937D03*
X007483Y005642D03*
X007483Y005347D03*
X007483Y005052D03*
X006794Y005002D03*
X006794Y005298D03*
X006794Y005593D03*
X006794Y005888D03*
X006794Y006184D03*
X008172Y003969D03*
X007138Y003674D03*
X007138Y003378D03*
X007138Y003083D03*
X007138Y002788D03*
X006646Y001853D03*
X005514Y002886D03*
X003890Y001853D03*
X002512Y006626D03*
X001751Y006603D03*
X001725Y007611D03*
X002463Y007611D03*
X004333Y008546D03*
X005022Y010170D03*
X003447Y010367D03*
X002168Y009973D03*
X001626Y010022D03*
X003152Y013093D03*
X004874Y014304D03*
X006449Y012532D03*
X007926Y010662D03*
X008319Y010662D03*
X009648Y009481D03*
X010937Y011006D03*
X009796Y011302D03*
X008319Y012729D03*
X007433Y015928D03*
X006351Y017099D03*
X011272Y015682D03*
X014077Y015239D03*
X015544Y012532D03*
X014766Y010957D03*
X013083Y008939D03*
X012109Y008054D03*
X012847Y007512D03*
X014057Y006065D03*
X014313Y006341D03*
X014569Y006676D03*
X014963Y007365D03*
X013801Y005810D03*
X013546Y005554D03*
X013142Y005741D03*
X012847Y005445D03*
X012551Y005741D03*
X012847Y004067D03*
X013929Y003910D03*
X014618Y003871D03*
X014618Y005189D03*
X014618Y005593D03*
X015111Y005308D03*
X013093Y002689D03*
X012414Y002689D03*
X012158Y001410D03*
X011272Y001902D03*
X010898Y002414D03*
X010337Y001607D03*
X010898Y001390D03*
X010160Y004048D03*
X009697Y004904D03*
X009805Y005839D03*
X014146Y001390D03*
X014520Y001902D03*
X016735Y010121D03*
X012256Y010908D03*
D31*
X012217Y010871D02*
X011903Y010871D01*
X011903Y010859D02*
X011903Y010956D01*
X012217Y010956D01*
X012217Y010859D01*
X011903Y010859D01*
X011900Y010745D02*
X011845Y010690D01*
X011368Y010690D01*
X011310Y010748D01*
X011310Y011264D01*
X011345Y011299D01*
X011199Y011299D01*
X011234Y011264D01*
X011234Y010748D01*
X011176Y010690D01*
X010699Y010690D01*
X010684Y010705D01*
X010684Y010664D01*
X011826Y010664D01*
X011914Y010576D01*
X011914Y010576D01*
X012269Y010221D01*
X012667Y010221D01*
X012667Y010621D01*
X012625Y010663D01*
X012622Y010653D01*
X012603Y010619D01*
X012575Y010591D01*
X012540Y010571D01*
X012502Y010561D01*
X012314Y010561D01*
X012314Y010859D01*
X012218Y010859D01*
X012218Y010561D01*
X012030Y010561D01*
X011992Y010571D01*
X011957Y010591D01*
X011929Y010619D01*
X011910Y010653D01*
X011900Y010691D01*
X011900Y010745D01*
X011904Y010674D02*
X010684Y010674D01*
X010534Y010711D02*
X008368Y010711D01*
X008319Y010662D01*
X008172Y010908D02*
X007926Y010662D01*
X008172Y010908D02*
X010337Y010908D01*
X010337Y011646D01*
X013437Y011646D01*
X013595Y011489D01*
X013595Y010433D01*
X013339Y010433D02*
X013339Y011351D01*
X013240Y011449D01*
X010534Y011449D01*
X010534Y010711D01*
X010187Y011058D02*
X010145Y011058D01*
X010152Y011085D01*
X010152Y011253D01*
X009834Y011253D01*
X009834Y011058D01*
X009737Y011058D01*
X009737Y011253D01*
X009433Y011253D01*
X009433Y011350D01*
X009737Y011350D01*
X009737Y011253D01*
X009834Y011253D01*
X009834Y011350D01*
X009737Y011350D01*
X009737Y011648D01*
X009549Y011648D01*
X009511Y011638D01*
X009477Y011619D01*
X009449Y011591D01*
X009429Y011556D01*
X009427Y011546D01*
X009374Y011598D01*
X008858Y011598D01*
X008819Y011559D01*
X008819Y011619D01*
X008760Y011677D01*
X008378Y011677D01*
X008320Y011619D01*
X008320Y011477D01*
X008319Y011477D01*
X008319Y011619D01*
X008260Y011677D01*
X007923Y011677D01*
X007938Y011693D01*
X010187Y011693D01*
X010187Y011058D01*
X010187Y011068D02*
X010148Y011068D01*
X010152Y011167D02*
X010187Y011167D01*
X010187Y011265D02*
X009834Y011265D01*
X009834Y011350D02*
X010152Y011350D01*
X010152Y011518D01*
X010142Y011556D01*
X010122Y011591D01*
X010094Y011619D01*
X010060Y011638D01*
X010022Y011648D01*
X009834Y011648D01*
X009834Y011350D01*
X009834Y011364D02*
X009737Y011364D01*
X009737Y011462D02*
X009834Y011462D01*
X009834Y011561D02*
X009737Y011561D01*
X009432Y011561D02*
X009412Y011561D01*
X009433Y011265D02*
X009737Y011265D01*
X009737Y011167D02*
X009834Y011167D01*
X009834Y011068D02*
X009737Y011068D01*
X010152Y011364D02*
X010187Y011364D01*
X010187Y011462D02*
X010152Y011462D01*
X010139Y011561D02*
X010187Y011561D01*
X010187Y011659D02*
X008778Y011659D01*
X008819Y011561D02*
X008821Y011561D01*
X008569Y011327D02*
X008595Y011302D01*
X009116Y011302D01*
X008569Y011327D02*
X008069Y011327D01*
X008073Y011331D01*
X008319Y011561D02*
X008320Y011561D01*
X008360Y011659D02*
X008278Y011659D01*
X007876Y011843D02*
X006744Y010711D01*
X006744Y009038D01*
X006990Y008792D01*
X007136Y008647D02*
X007075Y008587D01*
X006906Y008587D01*
X006796Y008696D01*
X006796Y008686D01*
X006851Y008631D01*
X006851Y008461D01*
X006731Y008341D01*
X006561Y008341D01*
X006474Y008428D01*
X006386Y008341D01*
X006217Y008341D01*
X006105Y008453D01*
X006042Y008390D01*
X005872Y008390D01*
X005752Y008510D01*
X005752Y008680D01*
X005872Y008800D01*
X005901Y008800D01*
X005955Y008854D01*
X005955Y010895D01*
X005955Y011019D01*
X007243Y012307D01*
X007187Y012284D01*
X007089Y012284D01*
X006998Y012322D01*
X006928Y012392D01*
X006890Y012483D01*
X006890Y012581D01*
X006928Y012672D01*
X006998Y012742D01*
X007072Y012773D01*
X006069Y012773D01*
X006010Y012831D01*
X006010Y013414D01*
X006069Y013472D01*
X007302Y013472D01*
X007360Y013414D01*
X007360Y013272D01*
X008552Y013272D01*
X009370Y014090D01*
X009370Y014115D01*
X009044Y014115D01*
X008985Y014174D01*
X008985Y014729D01*
X009044Y014787D01*
X009296Y014787D01*
X009291Y014793D01*
X008946Y014793D01*
X008858Y014881D01*
X008833Y014907D01*
X008833Y014813D01*
X008774Y014755D01*
X008719Y014755D01*
X008719Y014677D01*
X008760Y014677D01*
X008819Y014619D01*
X008819Y014036D01*
X008760Y013977D01*
X008378Y013977D01*
X008320Y014036D01*
X008320Y014619D01*
X008378Y014677D01*
X008419Y014677D01*
X008419Y014755D01*
X008258Y014755D01*
X008245Y014768D01*
X008233Y014755D01*
X008219Y014755D01*
X008219Y014677D01*
X008260Y014677D01*
X008319Y014619D01*
X008319Y014036D01*
X008260Y013977D01*
X007878Y013977D01*
X007820Y014036D01*
X007820Y014619D01*
X007878Y014677D01*
X007919Y014677D01*
X007919Y014755D01*
X007731Y014755D01*
X007731Y014537D01*
X007643Y014449D01*
X007360Y014166D01*
X007360Y014012D01*
X007302Y013954D01*
X006069Y013954D01*
X006010Y014012D01*
X006010Y014595D01*
X006069Y014654D01*
X007302Y014654D01*
X007360Y014595D01*
X007360Y014590D01*
X007431Y014661D01*
X007431Y015521D01*
X007431Y015645D01*
X007657Y015871D01*
X007658Y015871D01*
X007658Y015959D01*
X007717Y016018D01*
X007825Y016018D01*
X007825Y016088D01*
X007913Y016176D01*
X007923Y016187D01*
X008011Y016274D01*
X009291Y016274D01*
X009415Y016274D01*
X009670Y016019D01*
X009670Y015895D01*
X009670Y015772D01*
X009996Y015772D01*
X010055Y015713D01*
X010055Y015158D01*
X009996Y015099D01*
X009064Y015099D01*
X009070Y015093D01*
X009291Y015093D01*
X009415Y015093D01*
X009670Y014838D01*
X009670Y014787D01*
X009996Y014787D01*
X010055Y014729D01*
X010055Y014174D01*
X009996Y014115D01*
X009670Y014115D01*
X009670Y014090D01*
X009670Y013966D01*
X008677Y012973D01*
X008552Y012973D01*
X007360Y012973D01*
X007360Y012831D01*
X007302Y012773D01*
X007204Y012773D01*
X007278Y012742D01*
X007348Y012672D01*
X007386Y012581D01*
X007386Y012483D01*
X007363Y012427D01*
X007519Y012584D01*
X007643Y012584D01*
X008175Y012584D01*
X008114Y012644D01*
X008114Y012814D01*
X008234Y012934D01*
X008404Y012934D01*
X008524Y012814D01*
X008524Y012644D01*
X008464Y012584D01*
X009436Y012584D01*
X009432Y012590D01*
X009422Y012629D01*
X009422Y013023D01*
X009967Y013023D01*
X009967Y013123D01*
X009422Y013123D01*
X009422Y013518D01*
X009432Y013556D01*
X009452Y013590D01*
X009480Y013618D01*
X009514Y013638D01*
X009552Y013648D01*
X009967Y013648D01*
X009967Y013123D01*
X010067Y013123D01*
X010612Y013123D01*
X010612Y013518D01*
X010601Y013556D01*
X010582Y013590D01*
X010554Y013618D01*
X010520Y013638D01*
X010481Y013648D01*
X010067Y013648D01*
X010067Y013123D01*
X010067Y013023D01*
X010612Y013023D01*
X010612Y012629D01*
X010601Y012590D01*
X010597Y012584D01*
X011415Y012584D01*
X011392Y012607D01*
X011392Y013540D01*
X011450Y013598D01*
X011757Y013598D01*
X011757Y013880D01*
X011757Y014029D01*
X011900Y014172D01*
X011898Y014174D01*
X011898Y014729D01*
X011957Y014787D01*
X012781Y014787D01*
X013249Y015256D01*
X013117Y015256D01*
X012968Y015256D01*
X012968Y015158D01*
X012910Y015099D01*
X011957Y015099D01*
X011898Y015158D01*
X011898Y015713D01*
X011900Y015715D01*
X011806Y015808D01*
X011806Y015958D01*
X011806Y016288D01*
X011499Y016288D01*
X011441Y016347D01*
X011441Y017280D01*
X011499Y017338D01*
X012472Y017338D01*
X012531Y017280D01*
X012531Y016347D01*
X012472Y016288D01*
X012166Y016288D01*
X012166Y015958D01*
X012352Y015772D01*
X012910Y015772D01*
X012968Y015713D01*
X012968Y015615D01*
X013117Y015615D01*
X013700Y016199D01*
X013806Y016304D01*
X015134Y016304D01*
X015284Y016304D01*
X015632Y015956D01*
X015737Y015851D01*
X015737Y015633D01*
X015766Y015605D01*
X015766Y014931D01*
X015707Y014873D01*
X015408Y014873D01*
X015349Y014931D01*
X015349Y015605D01*
X015377Y015633D01*
X015377Y015701D01*
X015134Y015944D01*
X015053Y015944D01*
X015094Y015904D01*
X015132Y015865D01*
X015237Y015760D01*
X015237Y015633D01*
X015266Y015605D01*
X015266Y014931D01*
X015207Y014873D01*
X014908Y014873D01*
X014849Y014931D01*
X014849Y015605D01*
X014866Y015622D01*
X014839Y015649D01*
X014789Y015649D01*
X014805Y015621D01*
X014816Y015583D01*
X014816Y015272D01*
X014562Y015272D01*
X014562Y015264D01*
X014816Y015264D01*
X014816Y014953D01*
X014805Y014915D01*
X014786Y014881D01*
X014758Y014853D01*
X014724Y014833D01*
X014685Y014823D01*
X014562Y014823D01*
X014562Y015264D01*
X014553Y015264D01*
X014299Y015264D01*
X014299Y014953D01*
X014309Y014915D01*
X014329Y014881D01*
X014357Y014853D01*
X014391Y014833D01*
X014429Y014823D01*
X014553Y014823D01*
X014553Y015264D01*
X014553Y015272D01*
X014299Y015272D01*
X014299Y015583D01*
X014309Y015621D01*
X014325Y015649D01*
X014152Y015649D01*
X012968Y014466D01*
X012968Y014174D01*
X012910Y014115D01*
X012352Y014115D01*
X012117Y013880D01*
X012117Y013598D01*
X012423Y013598D01*
X012482Y013540D01*
X012482Y012674D01*
X012500Y012693D01*
X012500Y013775D01*
X012588Y013863D01*
X012686Y013961D01*
X012810Y013961D01*
X014582Y013961D01*
X014670Y013874D01*
X014670Y013874D01*
X014707Y013836D01*
X014707Y013712D01*
X014707Y013537D01*
X014766Y013479D01*
X014766Y012879D01*
X014799Y012879D01*
X014799Y013138D01*
X015053Y013138D01*
X015053Y013146D01*
X014799Y013146D01*
X014799Y013457D01*
X014809Y013495D01*
X014829Y013530D01*
X014857Y013557D01*
X014891Y013577D01*
X014929Y013587D01*
X015053Y013587D01*
X015053Y013147D01*
X015062Y013147D01*
X015062Y013587D01*
X015185Y013587D01*
X015224Y013577D01*
X015258Y013557D01*
X015286Y013530D01*
X015305Y013495D01*
X015316Y013457D01*
X015316Y013146D01*
X015062Y013146D01*
X015062Y013138D01*
X015316Y013138D01*
X015316Y012829D01*
X015349Y012829D01*
X015349Y013479D01*
X015408Y013537D01*
X015707Y013537D01*
X015766Y013479D01*
X015766Y012829D01*
X015802Y012829D01*
X015860Y012770D01*
X015860Y012362D01*
X015907Y012409D01*
X015907Y012747D01*
X015849Y012805D01*
X015849Y013479D01*
X015908Y013537D01*
X016207Y013537D01*
X016266Y013479D01*
X016266Y012805D01*
X016207Y012747D01*
X016207Y012409D01*
X016207Y012285D01*
X016048Y012125D01*
X015960Y012037D01*
X015939Y012037D01*
X015939Y011974D01*
X016463Y011974D01*
X016612Y011974D01*
X016809Y011777D01*
X016879Y011707D01*
X016879Y017647D01*
X016331Y017647D01*
X016453Y017596D01*
X016631Y017418D01*
X016728Y017185D01*
X016728Y016934D01*
X016631Y016701D01*
X016453Y016523D01*
X016221Y016426D01*
X015969Y016426D01*
X015736Y016523D01*
X015558Y016701D01*
X015462Y016934D01*
X015462Y017185D01*
X015558Y017418D01*
X015736Y017596D01*
X015859Y017647D01*
X008457Y017647D01*
X008579Y017596D01*
X008757Y017418D01*
X008854Y017185D01*
X008854Y016934D01*
X008757Y016701D01*
X008579Y016523D01*
X008347Y016426D01*
X008095Y016426D01*
X007862Y016523D01*
X007684Y016701D01*
X007588Y016934D01*
X007588Y017185D01*
X007684Y017418D01*
X007862Y017596D01*
X007985Y017647D01*
X003134Y017647D01*
X003134Y016297D01*
X003075Y016239D01*
X002343Y016239D01*
X002284Y016297D01*
X002284Y017647D01*
X001137Y017647D01*
X001137Y009825D01*
X001160Y009848D01*
X001511Y009848D01*
X001421Y009937D01*
X001421Y010107D01*
X001541Y010227D01*
X001711Y010227D01*
X001831Y010107D01*
X001831Y009937D01*
X001742Y009848D01*
X002343Y009848D01*
X002362Y009829D01*
X002362Y009960D01*
X001919Y010403D01*
X001919Y010527D01*
X001919Y012864D01*
X001919Y012988D01*
X002174Y013243D01*
X002299Y013243D01*
X003012Y013243D01*
X003067Y013298D01*
X003237Y013298D01*
X003357Y013178D01*
X003357Y013008D01*
X003237Y012888D01*
X003067Y012888D01*
X003012Y012943D01*
X002299Y012943D01*
X002219Y012864D01*
X002219Y010527D01*
X002662Y010084D01*
X002662Y009960D01*
X002662Y008313D01*
X002701Y008273D01*
X002701Y008289D01*
X002760Y008348D01*
X003925Y008348D01*
X003915Y008358D01*
X002760Y008358D01*
X002701Y008416D01*
X002701Y008789D01*
X002760Y008848D01*
X003201Y008848D01*
X003201Y008858D01*
X002760Y008858D01*
X002701Y008916D01*
X002701Y009289D01*
X002760Y009348D01*
X003943Y009348D01*
X004001Y009289D01*
X004001Y008916D01*
X003943Y008858D01*
X003501Y008858D01*
X003501Y008848D01*
X003943Y008848D01*
X004001Y008789D01*
X004001Y008696D01*
X004032Y008665D01*
X004128Y008569D01*
X004128Y008631D01*
X004183Y008686D01*
X004183Y010552D01*
X004134Y010552D01*
X004076Y010611D01*
X004076Y011127D01*
X004083Y011134D01*
X004076Y011142D01*
X004076Y011658D01*
X004134Y011717D01*
X004611Y011717D01*
X004669Y011658D01*
X004669Y011550D01*
X005029Y011550D01*
X005109Y011630D01*
X005109Y011875D01*
X005168Y011933D01*
X005565Y011933D01*
X005624Y011875D01*
X005624Y011477D01*
X005565Y011418D01*
X005321Y011418D01*
X005153Y011250D01*
X005029Y011250D01*
X004669Y011250D01*
X004669Y011185D01*
X005122Y011185D01*
X005181Y011127D01*
X005181Y010611D01*
X005122Y010552D01*
X004646Y010552D01*
X004628Y010570D01*
X004611Y010552D01*
X004483Y010552D01*
X004483Y008686D01*
X004538Y008631D01*
X004538Y008461D01*
X004418Y008341D01*
X004356Y008341D01*
X004483Y008214D01*
X004483Y008090D01*
X004483Y007574D01*
X004571Y007486D01*
X004571Y007646D01*
X004691Y007766D01*
X004861Y007766D01*
X004981Y007646D01*
X004981Y007613D01*
X005074Y007613D01*
X005063Y007624D01*
X005063Y007794D01*
X005183Y007914D01*
X005353Y007914D01*
X005359Y007908D01*
X005379Y007908D01*
X005841Y007908D01*
X005704Y008045D01*
X005626Y008045D01*
X005506Y008166D01*
X005506Y008335D01*
X005626Y008455D01*
X005796Y008455D01*
X005916Y008335D01*
X005916Y008258D01*
X006068Y008105D01*
X007716Y008105D01*
X007804Y008193D01*
X007693Y008193D01*
X007573Y008313D01*
X007573Y008439D01*
X007491Y008439D01*
X007491Y008313D01*
X007371Y008193D01*
X007201Y008193D01*
X007081Y008313D01*
X007081Y008483D01*
X007136Y008538D01*
X007136Y008647D01*
X007136Y008605D02*
X007093Y008605D01*
X007104Y008506D02*
X006851Y008506D01*
X006851Y008605D02*
X006888Y008605D01*
X006798Y008408D02*
X007081Y008408D01*
X007085Y008309D02*
X005916Y008309D01*
X005963Y008210D02*
X007183Y008210D01*
X007388Y008210D02*
X007676Y008210D01*
X007723Y008112D02*
X006062Y008112D01*
X006006Y007955D02*
X005711Y008250D01*
X005560Y008112D02*
X004483Y008112D01*
X004483Y008210D02*
X005506Y008210D01*
X005506Y008309D02*
X004388Y008309D01*
X004485Y008408D02*
X005578Y008408D01*
X005756Y008506D02*
X004538Y008506D01*
X004538Y008605D02*
X005752Y008605D01*
X005775Y008703D02*
X004483Y008703D01*
X004483Y008802D02*
X005902Y008802D01*
X005955Y008900D02*
X004483Y008900D01*
X004483Y008999D02*
X005955Y008999D01*
X005955Y009097D02*
X004483Y009097D01*
X004483Y009196D02*
X005955Y009196D01*
X005955Y009294D02*
X004483Y009294D01*
X004483Y009393D02*
X005955Y009393D01*
X005955Y009492D02*
X004483Y009492D01*
X004483Y009590D02*
X005955Y009590D01*
X005955Y009689D02*
X004483Y009689D01*
X004483Y009787D02*
X005955Y009787D01*
X005955Y009886D02*
X004483Y009886D01*
X004483Y009984D02*
X005955Y009984D01*
X005955Y010083D02*
X004483Y010083D01*
X004483Y010181D02*
X005955Y010181D01*
X005955Y010280D02*
X004483Y010280D01*
X004483Y010378D02*
X005955Y010378D01*
X005955Y010477D02*
X004483Y010477D01*
X004333Y010760D02*
X004372Y010800D01*
X004372Y010869D01*
X004884Y010869D01*
X005181Y010871D02*
X005505Y010871D01*
X005505Y010917D02*
X005505Y010820D01*
X005602Y010820D01*
X005602Y010917D01*
X005900Y010917D01*
X005900Y011105D01*
X005890Y011143D01*
X005870Y011177D01*
X005842Y011205D01*
X005808Y011225D01*
X005770Y011235D01*
X005602Y011235D01*
X005602Y010917D01*
X005505Y010917D01*
X005207Y010917D01*
X005207Y011105D01*
X005217Y011143D01*
X005237Y011177D01*
X005264Y011205D01*
X005299Y011225D01*
X005337Y011235D01*
X005505Y011235D01*
X005505Y010917D01*
X005505Y010970D02*
X005602Y010970D01*
X005602Y011068D02*
X005505Y011068D01*
X005505Y011167D02*
X005602Y011167D01*
X005610Y011462D02*
X006398Y011462D01*
X006299Y011364D02*
X005267Y011364D01*
X005168Y011265D02*
X006201Y011265D01*
X006102Y011167D02*
X005876Y011167D01*
X005900Y011068D02*
X006004Y011068D01*
X005955Y010970D02*
X005900Y010970D01*
X005955Y010871D02*
X005602Y010871D01*
X005602Y010820D02*
X005900Y010820D01*
X005900Y010632D01*
X005890Y010594D01*
X005870Y010560D01*
X005842Y010532D01*
X005808Y010512D01*
X005770Y010502D01*
X005602Y010502D01*
X005602Y010820D01*
X005602Y010773D02*
X005505Y010773D01*
X005505Y010820D02*
X005505Y010502D01*
X005337Y010502D01*
X005299Y010512D01*
X005264Y010532D01*
X005237Y010560D01*
X005217Y010594D01*
X005207Y010632D01*
X005207Y010820D01*
X005505Y010820D01*
X005505Y010674D02*
X005602Y010674D01*
X005602Y010576D02*
X005505Y010576D01*
X005228Y010576D02*
X005146Y010576D01*
X005181Y010674D02*
X005207Y010674D01*
X005207Y010773D02*
X005181Y010773D01*
X005181Y010970D02*
X005207Y010970D01*
X005207Y011068D02*
X005181Y011068D01*
X005141Y011167D02*
X005231Y011167D01*
X005091Y011400D02*
X005366Y011676D01*
X005624Y011659D02*
X006595Y011659D01*
X006496Y011561D02*
X005624Y011561D01*
X005624Y011758D02*
X006693Y011758D01*
X006792Y011857D02*
X005624Y011857D01*
X005582Y011969D02*
X005616Y011989D01*
X005644Y012017D01*
X005664Y012051D01*
X005674Y012089D01*
X005674Y012237D01*
X005395Y012237D01*
X005395Y011959D01*
X005544Y011959D01*
X005582Y011969D01*
X005664Y012054D02*
X006989Y012054D01*
X007088Y012152D02*
X005674Y012152D01*
X005674Y012295D02*
X005674Y012443D01*
X005664Y012482D01*
X005644Y012516D01*
X005616Y012544D01*
X005582Y012563D01*
X005544Y012574D01*
X005395Y012574D01*
X005395Y012295D01*
X005338Y012295D01*
X005338Y012574D01*
X005189Y012574D01*
X005151Y012563D01*
X005117Y012544D01*
X005089Y012516D01*
X005069Y012482D01*
X005059Y012443D01*
X005059Y012295D01*
X005337Y012295D01*
X005337Y012237D01*
X005059Y012237D01*
X005059Y012089D01*
X005069Y012051D01*
X005089Y012017D01*
X005117Y011989D01*
X005151Y011969D01*
X005189Y011959D01*
X005338Y011959D01*
X005338Y012237D01*
X005395Y012237D01*
X005395Y012295D01*
X005674Y012295D01*
X005674Y012349D02*
X006971Y012349D01*
X006905Y012448D02*
X005673Y012448D01*
X005611Y012546D02*
X006890Y012546D01*
X006917Y012645D02*
X003853Y012645D01*
X003853Y012726D02*
X004100Y012973D01*
X004188Y012973D01*
X004188Y012831D01*
X004246Y012773D01*
X005479Y012773D01*
X005537Y012831D01*
X005537Y013414D01*
X005479Y013472D01*
X004246Y013472D01*
X004188Y013414D01*
X004188Y013272D01*
X004100Y013272D01*
X003976Y013272D01*
X003553Y012850D01*
X003553Y012726D01*
X003553Y011717D01*
X003465Y011717D01*
X003406Y011658D01*
X003406Y011142D01*
X003414Y011134D01*
X003406Y011127D01*
X003406Y010611D01*
X003465Y010552D01*
X003941Y010552D01*
X004000Y010611D01*
X004000Y011127D01*
X003992Y011134D01*
X004000Y011142D01*
X004000Y011658D01*
X003941Y011717D01*
X003853Y011717D01*
X003853Y012726D01*
X003871Y012743D02*
X007002Y012743D01*
X007275Y012743D02*
X008114Y012743D01*
X008114Y012645D02*
X007359Y012645D01*
X007386Y012546D02*
X007482Y012546D01*
X007383Y012448D02*
X007371Y012448D01*
X007581Y012434D02*
X006105Y010957D01*
X006105Y008792D01*
X005957Y008644D01*
X005957Y008595D01*
X005854Y008408D02*
X005844Y008408D01*
X006059Y008408D02*
X006150Y008408D01*
X006301Y008546D02*
X006301Y010859D01*
X007679Y012237D01*
X012945Y012237D01*
X013142Y012434D01*
X013142Y012437D01*
X013363Y012645D02*
X013416Y012645D01*
X013416Y012617D02*
X013391Y012617D01*
X013347Y012661D01*
X012937Y012661D01*
X012879Y012603D01*
X012879Y012387D01*
X012618Y012387D01*
X012800Y012568D01*
X012800Y012693D01*
X012800Y013651D01*
X012810Y013661D01*
X014407Y013661D01*
X014407Y013537D01*
X014349Y013479D01*
X014349Y012805D01*
X014408Y012747D01*
X014508Y012747D01*
X014508Y012580D01*
X014826Y012580D01*
X014826Y012483D01*
X014508Y012483D01*
X014508Y012337D01*
X014484Y012337D01*
X014325Y012496D01*
X014325Y013135D01*
X014238Y013223D01*
X014238Y013223D01*
X014100Y013361D01*
X014049Y013361D01*
X014049Y013449D01*
X013991Y013508D01*
X013475Y013508D01*
X013449Y013482D01*
X013445Y013497D01*
X013425Y013532D01*
X014402Y013532D01*
X014407Y013630D02*
X012800Y013630D01*
X012800Y013532D02*
X012859Y013532D01*
X012839Y013497D01*
X012829Y013459D01*
X012829Y013327D01*
X013130Y013327D01*
X013130Y013303D01*
X013154Y013303D01*
X013154Y013041D01*
X013325Y013041D01*
X013363Y013052D01*
X013398Y013071D01*
X013416Y013090D01*
X013416Y012973D01*
X013475Y012914D01*
X013991Y012914D01*
X014026Y012949D01*
X014026Y012804D01*
X013991Y012839D01*
X013475Y012839D01*
X013416Y012780D01*
X013416Y012617D01*
X013416Y012743D02*
X012800Y012743D01*
X012800Y012645D02*
X012921Y012645D01*
X012879Y012546D02*
X012778Y012546D01*
X012679Y012448D02*
X012879Y012448D01*
X012650Y012630D02*
X012453Y012434D01*
X007581Y012434D01*
X007186Y012251D02*
X005395Y012251D01*
X005337Y012251D02*
X003853Y012251D01*
X003853Y012349D02*
X005059Y012349D01*
X005060Y012448D02*
X003853Y012448D01*
X003853Y012546D02*
X005121Y012546D01*
X005338Y012546D02*
X005395Y012546D01*
X005395Y012448D02*
X005338Y012448D01*
X005338Y012349D02*
X005395Y012349D01*
X005395Y012152D02*
X005338Y012152D01*
X005338Y012054D02*
X005395Y012054D01*
X005068Y012054D02*
X003853Y012054D01*
X003853Y012152D02*
X005059Y012152D01*
X005109Y011857D02*
X003853Y011857D01*
X003853Y011955D02*
X006890Y011955D01*
X007360Y012842D02*
X008143Y012842D01*
X008496Y012842D02*
X009422Y012842D01*
X009422Y012743D02*
X008524Y012743D01*
X008524Y012645D02*
X009422Y012645D01*
X009422Y012941D02*
X007360Y012941D01*
X007360Y013335D02*
X008615Y013335D01*
X008713Y013433D02*
X007341Y013433D01*
X007360Y014025D02*
X007831Y014025D01*
X007820Y014123D02*
X007360Y014123D01*
X007416Y014222D02*
X007820Y014222D01*
X007820Y014320D02*
X007514Y014320D01*
X007613Y014419D02*
X007820Y014419D01*
X007820Y014517D02*
X007711Y014517D01*
X007731Y014616D02*
X007820Y014616D01*
X007731Y014714D02*
X007919Y014714D01*
X008069Y014957D02*
X008069Y014327D01*
X008319Y014320D02*
X008320Y014320D01*
X008319Y014222D02*
X008320Y014222D01*
X008319Y014123D02*
X008320Y014123D01*
X008308Y014025D02*
X008331Y014025D01*
X008569Y014327D02*
X008569Y015006D01*
X008516Y015052D01*
X008832Y014813D02*
X008927Y014813D01*
X008985Y014714D02*
X008719Y014714D01*
X008819Y014616D02*
X008985Y014616D01*
X008985Y014517D02*
X008819Y014517D01*
X008819Y014419D02*
X008985Y014419D01*
X008985Y014320D02*
X008819Y014320D01*
X008819Y014222D02*
X008985Y014222D01*
X009036Y014123D02*
X008819Y014123D01*
X008808Y014025D02*
X009304Y014025D01*
X009206Y013926D02*
X005516Y013926D01*
X005530Y013934D02*
X005495Y013914D01*
X005457Y013904D01*
X004912Y013904D01*
X004912Y014253D01*
X004813Y014253D01*
X004813Y013904D01*
X004268Y013904D01*
X004230Y013914D01*
X004195Y013934D01*
X004167Y013961D01*
X004148Y013996D01*
X004138Y014034D01*
X004138Y014254D01*
X004812Y014254D01*
X004812Y014354D01*
X004138Y014354D01*
X004138Y014573D01*
X004148Y014611D01*
X004167Y014646D01*
X004195Y014674D01*
X004230Y014693D01*
X004268Y014704D01*
X004813Y014704D01*
X004813Y014354D01*
X004912Y014354D01*
X004912Y014704D01*
X005457Y014704D01*
X005495Y014693D01*
X005530Y014674D01*
X005558Y014646D01*
X005577Y014611D01*
X005587Y014573D01*
X005587Y014354D01*
X004913Y014354D01*
X004913Y014254D01*
X005587Y014254D01*
X005587Y014034D01*
X005577Y013996D01*
X005558Y013961D01*
X005530Y013934D01*
X005585Y014025D02*
X006010Y014025D01*
X006010Y014123D02*
X005587Y014123D01*
X005587Y014222D02*
X006010Y014222D01*
X006010Y014320D02*
X004913Y014320D01*
X004912Y014222D02*
X004813Y014222D01*
X004812Y014320D02*
X001137Y014320D01*
X001137Y014222D02*
X004138Y014222D01*
X004138Y014123D02*
X001137Y014123D01*
X001137Y014025D02*
X004140Y014025D01*
X004209Y013926D02*
X001137Y013926D01*
X001137Y013827D02*
X009107Y013827D01*
X009009Y013729D02*
X001137Y013729D01*
X001137Y013630D02*
X008910Y013630D01*
X008812Y013532D02*
X001137Y013532D01*
X001137Y013433D02*
X004207Y013433D01*
X004188Y013335D02*
X001137Y013335D01*
X001137Y013236D02*
X002168Y013236D01*
X002069Y013138D02*
X001137Y013138D01*
X001137Y013039D02*
X001971Y013039D01*
X001919Y012941D02*
X001137Y012941D01*
X001137Y012842D02*
X001919Y012842D01*
X001919Y012743D02*
X001137Y012743D01*
X001137Y012645D02*
X001919Y012645D01*
X001919Y012546D02*
X001137Y012546D01*
X001137Y012448D02*
X001919Y012448D01*
X001919Y012349D02*
X001137Y012349D01*
X001137Y012251D02*
X001919Y012251D01*
X001919Y012152D02*
X001137Y012152D01*
X001137Y012054D02*
X001919Y012054D01*
X001919Y011955D02*
X001137Y011955D01*
X001137Y011857D02*
X001919Y011857D01*
X001919Y011758D02*
X001137Y011758D01*
X001137Y011659D02*
X001919Y011659D01*
X001919Y011561D02*
X001137Y011561D01*
X001137Y011462D02*
X001919Y011462D01*
X001919Y011364D02*
X001137Y011364D01*
X001137Y011265D02*
X001919Y011265D01*
X001919Y011167D02*
X001137Y011167D01*
X001137Y011068D02*
X001919Y011068D01*
X001919Y010970D02*
X001137Y010970D01*
X001137Y010871D02*
X001919Y010871D01*
X001919Y010773D02*
X001137Y010773D01*
X001137Y010674D02*
X001919Y010674D01*
X001919Y010576D02*
X001137Y010576D01*
X001137Y010477D02*
X001919Y010477D01*
X001944Y010378D02*
X001137Y010378D01*
X001137Y010280D02*
X002042Y010280D01*
X002141Y010181D02*
X001757Y010181D01*
X001831Y010083D02*
X002239Y010083D01*
X002338Y009984D02*
X001831Y009984D01*
X001780Y009886D02*
X002362Y009886D01*
X002512Y010022D02*
X002069Y010465D01*
X002069Y012926D01*
X002237Y013093D01*
X003152Y013093D01*
X003299Y013236D02*
X003939Y013236D01*
X003841Y013138D02*
X003357Y013138D01*
X003357Y013039D02*
X003742Y013039D01*
X003644Y012941D02*
X003289Y012941D01*
X003014Y012941D02*
X002296Y012941D01*
X002219Y012842D02*
X003553Y012842D01*
X003553Y012743D02*
X002219Y012743D01*
X002219Y012645D02*
X003553Y012645D01*
X003553Y012546D02*
X002219Y012546D01*
X002219Y012448D02*
X003553Y012448D01*
X003553Y012349D02*
X003095Y012349D01*
X003075Y012369D02*
X002343Y012369D01*
X002284Y012310D01*
X002284Y010877D01*
X002343Y010819D01*
X003075Y010819D01*
X003134Y010877D01*
X003134Y012310D01*
X003075Y012369D01*
X003134Y012251D02*
X003553Y012251D01*
X003553Y012152D02*
X003134Y012152D01*
X003134Y012054D02*
X003553Y012054D01*
X003553Y011955D02*
X003134Y011955D01*
X003134Y011857D02*
X003553Y011857D01*
X003553Y011758D02*
X003134Y011758D01*
X003134Y011659D02*
X003408Y011659D01*
X003406Y011561D02*
X003134Y011561D01*
X003134Y011462D02*
X003406Y011462D01*
X003406Y011364D02*
X003134Y011364D01*
X003134Y011265D02*
X003406Y011265D01*
X003406Y011167D02*
X003134Y011167D01*
X003134Y011068D02*
X003406Y011068D01*
X003406Y010970D02*
X003134Y010970D01*
X003128Y010871D02*
X003406Y010871D01*
X003406Y010773D02*
X002219Y010773D01*
X002219Y010871D02*
X002290Y010871D01*
X002284Y010970D02*
X002219Y010970D01*
X002219Y011068D02*
X002284Y011068D01*
X002284Y011167D02*
X002219Y011167D01*
X002219Y011265D02*
X002284Y011265D01*
X002284Y011364D02*
X002219Y011364D01*
X002219Y011462D02*
X002284Y011462D01*
X002284Y011561D02*
X002219Y011561D01*
X002219Y011659D02*
X002284Y011659D01*
X002284Y011758D02*
X002219Y011758D01*
X002219Y011857D02*
X002284Y011857D01*
X002284Y011955D02*
X002219Y011955D01*
X002219Y012054D02*
X002284Y012054D01*
X002284Y012152D02*
X002219Y012152D01*
X002219Y012251D02*
X002284Y012251D01*
X002323Y012349D02*
X002219Y012349D01*
X003703Y012788D02*
X003703Y011400D01*
X003703Y010869D01*
X003406Y010674D02*
X002219Y010674D01*
X002219Y010576D02*
X003441Y010576D01*
X003965Y010576D02*
X004111Y010576D01*
X004076Y010674D02*
X004000Y010674D01*
X004000Y010773D02*
X004076Y010773D01*
X004076Y010871D02*
X004000Y010871D01*
X004000Y010970D02*
X004076Y010970D01*
X004076Y011068D02*
X004000Y011068D01*
X004000Y011167D02*
X004076Y011167D01*
X004076Y011265D02*
X004000Y011265D01*
X004000Y011364D02*
X004076Y011364D01*
X004076Y011462D02*
X004000Y011462D01*
X004000Y011561D02*
X004076Y011561D01*
X004077Y011659D02*
X003998Y011659D01*
X003853Y011758D02*
X005109Y011758D01*
X005109Y011659D02*
X004668Y011659D01*
X004669Y011561D02*
X005040Y011561D01*
X005091Y011400D02*
X004372Y011400D01*
X004333Y010760D02*
X004333Y008546D01*
X004128Y008605D02*
X004092Y008605D01*
X004001Y008703D02*
X004183Y008703D01*
X004183Y008802D02*
X003989Y008802D01*
X003985Y008900D02*
X004183Y008900D01*
X004183Y008999D02*
X004001Y008999D01*
X004001Y009097D02*
X004183Y009097D01*
X004183Y009196D02*
X004001Y009196D01*
X003996Y009294D02*
X004183Y009294D01*
X004183Y009393D02*
X003978Y009393D01*
X004001Y009416D02*
X004001Y009789D01*
X003943Y009848D01*
X002760Y009848D01*
X002701Y009789D01*
X002701Y009416D01*
X002760Y009358D01*
X003943Y009358D01*
X004001Y009416D01*
X004001Y009492D02*
X004183Y009492D01*
X004183Y009590D02*
X004001Y009590D01*
X004001Y009689D02*
X004183Y009689D01*
X004183Y009787D02*
X004001Y009787D01*
X004183Y009886D02*
X002662Y009886D01*
X002662Y009984D02*
X004183Y009984D01*
X004183Y010083D02*
X002662Y010083D01*
X002565Y010181D02*
X004183Y010181D01*
X004183Y010280D02*
X002466Y010280D01*
X002368Y010378D02*
X004183Y010378D01*
X004183Y010477D02*
X002269Y010477D01*
X002512Y010022D02*
X002512Y008250D01*
X002660Y008103D01*
X003351Y008103D01*
X003939Y008103D01*
X004136Y007906D01*
X004136Y007365D01*
X004431Y007069D01*
X006843Y007069D01*
X007433Y006479D01*
X007433Y005691D01*
X007483Y005642D01*
X007625Y005495D02*
X007688Y005557D01*
X007688Y005727D01*
X007682Y005732D01*
X007814Y005732D01*
X007923Y005842D01*
X007923Y004989D01*
X008011Y004902D01*
X008474Y004439D01*
X008598Y004439D01*
X008600Y004439D01*
X008595Y004421D01*
X008595Y004333D01*
X008595Y004245D01*
X008600Y004227D01*
X008342Y004227D01*
X008218Y004227D01*
X008164Y004174D01*
X008087Y004174D01*
X007967Y004054D01*
X007967Y003884D01*
X008087Y003764D01*
X008256Y003764D01*
X008377Y003884D01*
X008377Y003927D01*
X008558Y003927D01*
X008306Y003676D01*
X008218Y003588D01*
X008218Y003293D01*
X007617Y002692D01*
X007332Y002692D01*
X007618Y002692D01*
X007716Y002791D02*
X007343Y002791D01*
X007343Y002873D02*
X007343Y002703D01*
X007332Y002692D01*
X007343Y002873D02*
X007280Y002936D01*
X007343Y002998D01*
X007343Y003168D01*
X007280Y003231D01*
X007343Y003294D01*
X007343Y003463D01*
X007280Y003526D01*
X007343Y003589D01*
X007343Y003759D01*
X007223Y003879D01*
X007053Y003879D01*
X006998Y003824D01*
X006954Y003824D01*
X006807Y003971D01*
X006682Y003971D01*
X006517Y003971D01*
X006517Y004187D01*
X006499Y004205D01*
X006517Y004223D01*
X006517Y004408D01*
X006537Y004428D01*
X006556Y004463D01*
X006567Y004501D01*
X006567Y004589D01*
X006567Y004677D01*
X006562Y004695D01*
X006574Y004695D01*
X006698Y004695D01*
X006801Y004797D01*
X006879Y004797D01*
X006999Y004918D01*
X006999Y005077D01*
X007174Y004902D01*
X007299Y004902D01*
X007343Y004902D01*
X007398Y004847D01*
X007567Y004847D01*
X007688Y004967D01*
X007688Y005137D01*
X007625Y005199D01*
X007688Y005262D01*
X007688Y005432D01*
X007625Y005495D01*
X007668Y005451D02*
X007923Y005451D01*
X007923Y005353D02*
X007688Y005353D01*
X007680Y005254D02*
X007923Y005254D01*
X007923Y005156D02*
X007668Y005156D01*
X007688Y005057D02*
X007923Y005057D01*
X007954Y004959D02*
X007679Y004959D01*
X007581Y004860D02*
X008053Y004860D01*
X008151Y004761D02*
X006765Y004761D01*
X006636Y004845D02*
X006794Y005002D01*
X006941Y004860D02*
X007384Y004860D01*
X007483Y005052D02*
X007237Y005052D01*
X007040Y005249D01*
X007040Y006282D01*
X006744Y006577D01*
X003377Y006577D01*
X003351Y006603D01*
X003351Y007103D02*
X004053Y007103D01*
X004333Y006823D01*
X006794Y006823D01*
X007237Y006380D01*
X007237Y005445D01*
X007335Y005347D01*
X007483Y005347D01*
X007680Y005550D02*
X007923Y005550D01*
X007923Y005648D02*
X007688Y005648D01*
X007828Y005747D02*
X007923Y005747D01*
X007729Y005937D02*
X007679Y005937D01*
X007630Y005987D01*
X007630Y006577D01*
X006941Y007266D01*
X004579Y007266D01*
X004333Y007512D01*
X004333Y008152D01*
X003882Y008603D01*
X003351Y008603D01*
X003351Y009103D01*
X002701Y009097D02*
X002662Y009097D01*
X002662Y008999D02*
X002701Y008999D01*
X002718Y008900D02*
X002662Y008900D01*
X002662Y008802D02*
X002714Y008802D01*
X002701Y008703D02*
X002662Y008703D01*
X002662Y008605D02*
X002701Y008605D01*
X002701Y008506D02*
X002662Y008506D01*
X002662Y008408D02*
X002710Y008408D01*
X002721Y008309D02*
X002666Y008309D01*
X002537Y008013D02*
X002451Y008013D01*
X002451Y008080D02*
X001774Y008080D01*
X001774Y007808D01*
X002321Y007808D01*
X002359Y007818D01*
X002394Y007838D01*
X002421Y007866D01*
X002441Y007900D01*
X002451Y007938D01*
X002451Y008080D01*
X002450Y008100D02*
X002598Y007953D01*
X002701Y007953D01*
X002701Y007916D01*
X002760Y007858D01*
X003943Y007858D01*
X003958Y007872D01*
X003986Y007844D01*
X003986Y007805D01*
X003943Y007848D01*
X002760Y007848D01*
X002701Y007789D01*
X002701Y007783D01*
X002581Y007783D01*
X002548Y007816D01*
X002378Y007816D01*
X002258Y007696D01*
X002258Y007526D01*
X002378Y007406D01*
X002548Y007406D01*
X002565Y007423D01*
X002701Y007423D01*
X002701Y007416D01*
X002760Y007358D01*
X003943Y007358D01*
X003986Y007401D01*
X003986Y007305D01*
X003943Y007348D01*
X002760Y007348D01*
X002701Y007289D01*
X002701Y006916D01*
X002760Y006858D01*
X003943Y006858D01*
X004001Y006916D01*
X004001Y006943D01*
X004217Y006727D01*
X004001Y006727D01*
X004001Y006789D01*
X003943Y006848D01*
X002760Y006848D01*
X002701Y006789D01*
X002701Y006416D01*
X002760Y006358D01*
X003943Y006358D01*
X004001Y006416D01*
X004001Y006427D01*
X005095Y006427D01*
X005079Y006399D01*
X005069Y006361D01*
X005069Y006173D01*
X005367Y006173D01*
X005367Y006076D01*
X005069Y006076D01*
X005069Y005888D01*
X005079Y005850D01*
X005099Y005816D01*
X005127Y005788D01*
X005161Y005768D01*
X005171Y005765D01*
X005119Y005713D01*
X005119Y005197D01*
X005177Y005139D01*
X005654Y005139D01*
X005692Y005177D01*
X005767Y005177D01*
X005767Y004991D01*
X005785Y004973D01*
X005767Y004955D01*
X005767Y004770D01*
X005747Y004750D01*
X005727Y004715D01*
X005717Y004677D01*
X005717Y004589D01*
X005717Y004501D01*
X005727Y004463D01*
X005747Y004428D01*
X005767Y004408D01*
X005767Y004227D01*
X005665Y004227D01*
X005516Y004376D01*
X005516Y004694D01*
X005516Y004819D01*
X005281Y005054D01*
X005157Y005054D01*
X005014Y005054D01*
X004959Y005109D01*
X004789Y005109D01*
X004669Y004989D01*
X004669Y004819D01*
X004789Y004699D01*
X004959Y004699D01*
X005014Y004754D01*
X005157Y004754D01*
X005216Y004694D01*
X005216Y004615D01*
X005181Y004650D01*
X004666Y004650D01*
X004607Y004591D01*
X004607Y004248D01*
X004094Y003735D01*
X004069Y003715D01*
X003337Y003715D01*
X003278Y003656D01*
X003278Y003376D01*
X003296Y003359D01*
X003278Y003341D01*
X003278Y003061D01*
X003296Y003044D01*
X003278Y003026D01*
X003278Y002746D01*
X003296Y002729D01*
X003278Y002711D01*
X003278Y002467D01*
X003258Y002447D01*
X003239Y002413D01*
X003228Y002375D01*
X003228Y002257D01*
X003831Y002257D01*
X003831Y002256D01*
X003831Y002008D01*
X004304Y002008D01*
X004342Y002018D01*
X004376Y002038D01*
X004404Y002066D01*
X004424Y002100D01*
X004434Y002138D01*
X004434Y002256D01*
X003831Y002256D01*
X003831Y002256D01*
X003831Y002008D01*
X003359Y002008D01*
X003320Y002018D01*
X003286Y002038D01*
X003258Y002066D01*
X003239Y002100D01*
X003228Y002138D01*
X003228Y002256D01*
X003831Y002256D01*
X003831Y002257D01*
X004434Y002257D01*
X004434Y002375D01*
X004424Y002413D01*
X004404Y002447D01*
X004384Y002467D01*
X004384Y002711D01*
X004366Y002729D01*
X004374Y002736D01*
X004429Y002736D01*
X004429Y002627D01*
X004517Y002539D01*
X005058Y001998D01*
X005183Y001998D01*
X006501Y001998D01*
X006441Y001938D01*
X006441Y001768D01*
X006561Y001648D01*
X006731Y001648D01*
X006851Y001768D01*
X006851Y001938D01*
X006791Y001998D01*
X008086Y001998D01*
X008174Y002086D01*
X008717Y002629D01*
X009337Y002629D01*
X009350Y002643D01*
X009350Y002551D01*
X009648Y002551D01*
X009648Y002454D01*
X009350Y002454D01*
X009350Y002266D01*
X009361Y002228D01*
X009380Y002194D01*
X009408Y002166D01*
X009442Y002146D01*
X009481Y002136D01*
X009649Y002136D01*
X009649Y002454D01*
X009746Y002454D01*
X009746Y002136D01*
X009914Y002136D01*
X009952Y002146D01*
X009986Y002166D01*
X010014Y002194D01*
X010034Y002228D01*
X010040Y002252D01*
X010040Y002077D01*
X010092Y002025D01*
X010082Y002022D01*
X010048Y002002D01*
X008090Y002002D01*
X008095Y001945D02*
X007862Y001848D01*
X007684Y001670D01*
X007588Y001437D01*
X007588Y001186D01*
X007684Y000953D01*
X007862Y000775D01*
X007985Y000724D01*
X004384Y000724D01*
X004384Y001569D01*
X004325Y001628D01*
X003258Y001628D01*
X003200Y001569D01*
X003200Y000724D01*
X002218Y000724D01*
X002218Y001569D01*
X002160Y001628D01*
X001137Y001628D01*
X001137Y004145D01*
X002160Y004145D01*
X002218Y004203D01*
X002218Y005073D01*
X002160Y005132D01*
X001137Y005132D01*
X001137Y006381D01*
X001160Y006358D01*
X002343Y006358D01*
X002401Y006416D01*
X002401Y006789D01*
X002368Y006823D01*
X002394Y006838D01*
X002421Y006866D01*
X002441Y006900D01*
X002451Y006938D01*
X002451Y007080D01*
X001774Y007080D01*
X001774Y007125D01*
X002451Y007125D01*
X002451Y007268D01*
X002441Y007306D01*
X002421Y007340D01*
X002394Y007368D01*
X002359Y007388D01*
X002321Y007398D01*
X001774Y007398D01*
X001774Y007126D01*
X001729Y007126D01*
X001729Y007398D01*
X001182Y007398D01*
X001144Y007388D01*
X001137Y007384D01*
X001137Y007822D01*
X001144Y007818D01*
X001182Y007808D01*
X001729Y007808D01*
X001729Y008080D01*
X001774Y008080D01*
X001774Y008125D01*
X002425Y008125D01*
X002450Y008100D01*
X002439Y008112D02*
X001774Y008112D01*
X001774Y008126D02*
X001729Y008126D01*
X001729Y008398D01*
X001729Y008580D01*
X001774Y008580D01*
X001774Y008398D01*
X001774Y008126D01*
X001774Y008210D02*
X001729Y008210D01*
X001729Y008309D02*
X001774Y008309D01*
X001774Y008408D02*
X001729Y008408D01*
X001729Y008506D02*
X001774Y008506D01*
X001774Y008626D02*
X001729Y008626D01*
X001729Y008808D01*
X001729Y009080D01*
X001774Y009080D01*
X001774Y008808D01*
X001774Y008626D01*
X001774Y008703D02*
X001729Y008703D01*
X001729Y008802D02*
X001774Y008802D01*
X001774Y008900D02*
X001729Y008900D01*
X001729Y008999D02*
X001774Y008999D01*
X001774Y008013D02*
X001729Y008013D01*
X001729Y007915D02*
X001774Y007915D01*
X001774Y007816D02*
X001729Y007816D01*
X001729Y007324D02*
X001774Y007324D01*
X001774Y007225D02*
X001729Y007225D01*
X001729Y007126D02*
X001774Y007126D01*
X002263Y007521D02*
X001137Y007521D01*
X001137Y007619D02*
X002258Y007619D01*
X002280Y007718D02*
X001137Y007718D01*
X001137Y007816D02*
X001150Y007816D01*
X001137Y007422D02*
X002362Y007422D01*
X002431Y007324D02*
X002736Y007324D01*
X002701Y007422D02*
X002564Y007422D01*
X002451Y007225D02*
X002701Y007225D01*
X002701Y007126D02*
X002451Y007126D01*
X002451Y007028D02*
X002701Y007028D01*
X002701Y006929D02*
X002449Y006929D01*
X002382Y006831D02*
X002743Y006831D01*
X002701Y006732D02*
X002401Y006732D01*
X002401Y006634D02*
X002701Y006634D01*
X002701Y006535D02*
X002401Y006535D01*
X002401Y006437D02*
X002701Y006437D01*
X003258Y005132D02*
X003200Y005073D01*
X003200Y004203D01*
X003258Y004145D01*
X004325Y004145D01*
X004384Y004203D01*
X004384Y005073D01*
X004325Y005132D01*
X003258Y005132D01*
X003200Y005057D02*
X002218Y005057D01*
X002218Y004959D02*
X003200Y004959D01*
X003200Y004860D02*
X002218Y004860D01*
X002218Y004761D02*
X003200Y004761D01*
X003200Y004663D02*
X002218Y004663D01*
X002218Y004564D02*
X003200Y004564D01*
X003200Y004466D02*
X002218Y004466D01*
X002218Y004367D02*
X003200Y004367D01*
X003200Y004269D02*
X002218Y004269D01*
X002185Y004170D02*
X003232Y004170D01*
X003120Y003973D02*
X004332Y003973D01*
X004430Y004072D02*
X003022Y004072D01*
X003021Y004072D02*
X002882Y004130D01*
X002732Y004130D01*
X002594Y004072D01*
X002488Y003966D01*
X002430Y003827D01*
X002430Y003677D01*
X002488Y003539D01*
X002594Y003433D01*
X002732Y003375D01*
X002882Y003375D01*
X003021Y003433D01*
X003127Y003539D01*
X003185Y003677D01*
X003185Y003827D01*
X003127Y003966D01*
X003021Y004072D01*
X003165Y003875D02*
X004233Y003875D01*
X004135Y003776D02*
X003185Y003776D01*
X003185Y003677D02*
X003300Y003677D01*
X003278Y003579D02*
X003144Y003579D01*
X003069Y003480D02*
X003278Y003480D01*
X003278Y003382D02*
X002898Y003382D01*
X002716Y003382D02*
X001137Y003382D01*
X001137Y003480D02*
X002546Y003480D01*
X002471Y003579D02*
X001137Y003579D01*
X001137Y003677D02*
X002430Y003677D01*
X002430Y003776D02*
X001137Y003776D01*
X001137Y003875D02*
X002450Y003875D01*
X002495Y003973D02*
X001137Y003973D01*
X001137Y004072D02*
X002593Y004072D01*
X003278Y003283D02*
X001137Y003283D01*
X001137Y003185D02*
X003278Y003185D01*
X003278Y003086D02*
X001137Y003086D01*
X001137Y002988D02*
X003278Y002988D01*
X003278Y002889D02*
X001137Y002889D01*
X001137Y002791D02*
X003278Y002791D01*
X003278Y002692D02*
X001137Y002692D01*
X001137Y002594D02*
X003278Y002594D01*
X003278Y002495D02*
X001137Y002495D01*
X001137Y002396D02*
X002730Y002396D01*
X002732Y002397D02*
X002594Y002340D01*
X002488Y002234D01*
X002430Y002095D01*
X002430Y001945D01*
X002488Y001806D01*
X002594Y001700D01*
X002732Y001643D01*
X002882Y001643D01*
X003021Y001700D01*
X003127Y001806D01*
X003185Y001945D01*
X003185Y002095D01*
X003127Y002234D01*
X003021Y002340D01*
X002882Y002397D01*
X002732Y002397D01*
X002885Y002396D02*
X003234Y002396D01*
X003228Y002298D02*
X003063Y002298D01*
X003141Y002199D02*
X003228Y002199D01*
X003238Y002101D02*
X003182Y002101D01*
X003185Y002002D02*
X005054Y002002D01*
X004956Y002101D02*
X004424Y002101D01*
X004434Y002199D02*
X004857Y002199D01*
X004758Y002298D02*
X004434Y002298D01*
X004428Y002396D02*
X004660Y002396D01*
X004561Y002495D02*
X004384Y002495D01*
X004384Y002594D02*
X004463Y002594D01*
X004429Y002692D02*
X004384Y002692D01*
X004579Y002689D02*
X004579Y002837D01*
X004530Y002886D01*
X003831Y002886D01*
X003831Y003201D02*
X004510Y003201D01*
X004805Y002906D01*
X004805Y002758D01*
X005219Y002345D01*
X007926Y002345D01*
X008634Y003054D01*
X009020Y003054D01*
X009020Y002798D02*
X008674Y002798D01*
X008024Y002148D01*
X005120Y002148D01*
X004579Y002689D01*
X005022Y002788D02*
X005022Y003585D01*
X004924Y003684D01*
X005445Y003684D01*
X005514Y003615D01*
X005466Y003292D02*
X005278Y003292D01*
X005240Y003282D01*
X005205Y003262D01*
X005178Y003234D01*
X005172Y003225D01*
X005172Y003387D01*
X005181Y003387D01*
X005198Y003403D01*
X005198Y003376D01*
X005256Y003318D01*
X005767Y003318D01*
X005767Y003288D01*
X005750Y003292D01*
X005563Y003292D01*
X005563Y002994D01*
X005466Y002994D01*
X005466Y003292D01*
X005466Y003283D02*
X005563Y003283D01*
X005563Y003185D02*
X005466Y003185D01*
X005466Y003086D02*
X005563Y003086D01*
X005563Y002897D02*
X005466Y002897D01*
X005466Y002692D01*
X005563Y002692D01*
X005466Y002692D01*
X005563Y002692D02*
X005563Y002897D01*
X005563Y002889D02*
X005466Y002889D01*
X005466Y002791D02*
X005563Y002791D01*
X005268Y002542D02*
X005022Y002788D01*
X005268Y002542D02*
X007679Y002542D01*
X008368Y003231D01*
X008368Y003526D01*
X008664Y003821D01*
X009020Y003821D01*
X009021Y003566D02*
X009445Y003566D01*
X009445Y003654D01*
X009435Y003692D01*
X009415Y003726D01*
X009395Y003746D01*
X009395Y003927D01*
X009440Y003927D01*
X009459Y003908D01*
X009935Y003908D01*
X009972Y003945D01*
X010075Y003843D01*
X010245Y003843D01*
X010365Y003963D01*
X010365Y004133D01*
X010245Y004253D01*
X010075Y004253D01*
X009994Y004172D01*
X009994Y004483D01*
X009942Y004535D01*
X009952Y004538D01*
X009986Y004558D01*
X010014Y004586D01*
X010034Y004620D01*
X010044Y004658D01*
X010044Y004846D01*
X009746Y004846D01*
X009746Y004943D01*
X009649Y004943D01*
X009649Y005261D01*
X009481Y005261D01*
X009442Y005250D01*
X009440Y005249D01*
X009445Y005269D01*
X009445Y005357D01*
X009445Y005445D01*
X009435Y005483D01*
X009434Y005485D01*
X009435Y005486D01*
X009445Y005524D01*
X009445Y005612D01*
X009021Y005612D01*
X009021Y005613D01*
X009445Y005613D01*
X009445Y005701D01*
X009435Y005739D01*
X009415Y005773D01*
X009395Y005793D01*
X009395Y005979D01*
X009377Y005997D01*
X009395Y006015D01*
X009395Y006231D01*
X009519Y006107D01*
X009509Y006097D01*
X009509Y005581D01*
X009567Y005523D01*
X009625Y005523D01*
X009625Y005509D01*
X009763Y005371D01*
X009869Y005265D01*
X011237Y005265D01*
X011386Y005265D01*
X011574Y005454D01*
X011874Y005454D01*
X011933Y005512D01*
X011933Y005989D01*
X011874Y006047D01*
X011358Y006047D01*
X011300Y005989D01*
X011300Y005688D01*
X011237Y005625D01*
X010772Y005625D01*
X010772Y006097D01*
X010713Y006156D01*
X010684Y006156D01*
X010684Y006517D01*
X010733Y006517D01*
X010791Y006575D01*
X010791Y006973D01*
X010733Y007032D01*
X010335Y007032D01*
X010276Y006973D01*
X010276Y006575D01*
X010335Y006517D01*
X010384Y006517D01*
X010384Y006156D01*
X010236Y006156D01*
X010178Y006097D01*
X010178Y005625D01*
X010102Y005625D01*
X010102Y006097D01*
X010044Y006156D01*
X009980Y006156D01*
X009483Y006652D01*
X009378Y006757D01*
X008935Y006757D01*
X008893Y006799D01*
X008893Y007234D01*
X008935Y007234D01*
X008958Y007234D01*
X008965Y007227D01*
X008938Y007199D01*
X008938Y006880D01*
X008996Y006822D01*
X009493Y006822D01*
X009551Y006880D01*
X009551Y006890D01*
X009615Y006890D01*
X009686Y006819D01*
X009686Y006575D01*
X009744Y006517D01*
X010142Y006517D01*
X010201Y006575D01*
X010201Y006973D01*
X010142Y007032D01*
X009898Y007032D01*
X009740Y007190D01*
X009615Y007190D01*
X009551Y007190D01*
X009551Y007199D01*
X009524Y007227D01*
X009551Y007254D01*
X009551Y007573D01*
X009524Y007601D01*
X009551Y007628D01*
X009551Y007638D01*
X010263Y007638D01*
X010319Y007634D01*
X010324Y007638D01*
X010330Y007638D01*
X010359Y007667D01*
X010406Y007621D01*
X010489Y007621D01*
X010770Y007902D01*
X010770Y007985D01*
X010489Y008266D01*
X010406Y008266D01*
X010125Y007985D01*
X010125Y007938D01*
X009551Y007938D01*
X009551Y007947D01*
X009493Y008006D01*
X008996Y008006D01*
X008938Y007947D01*
X008938Y007628D01*
X008965Y007601D01*
X008958Y007594D01*
X008935Y007594D01*
X008893Y007636D01*
X008893Y008178D01*
X008934Y008178D01*
X008993Y008236D01*
X008993Y008752D01*
X008934Y008811D01*
X008458Y008811D01*
X008399Y008752D01*
X008399Y008236D01*
X008458Y008178D01*
X008533Y008178D01*
X008533Y007636D01*
X008533Y007571D01*
X008528Y007590D01*
X008508Y007624D01*
X008488Y007644D01*
X008488Y007947D01*
X008430Y008006D01*
X008041Y008006D01*
X008322Y008287D01*
X008322Y008411D01*
X008322Y008730D01*
X008529Y008937D01*
X009832Y008937D01*
X011121Y007648D01*
X011246Y007648D01*
X011300Y007648D01*
X011300Y007559D01*
X011358Y007501D01*
X011874Y007501D01*
X011933Y007559D01*
X011933Y008036D01*
X011874Y008095D01*
X011358Y008095D01*
X011300Y008036D01*
X011300Y007948D01*
X011246Y007948D01*
X009956Y009237D01*
X009832Y009237D01*
X008529Y009237D01*
X008405Y009237D01*
X008109Y008942D01*
X008022Y008854D01*
X008022Y008411D01*
X007983Y008372D01*
X007983Y008483D01*
X007928Y008538D01*
X007928Y009419D01*
X008381Y009872D01*
X008651Y009872D01*
X008775Y009872D01*
X008873Y009971D01*
X011505Y009971D01*
X011948Y009528D01*
X012072Y009528D01*
X014533Y009528D01*
X014621Y009615D01*
X015024Y010019D01*
X015024Y010142D01*
X015029Y010138D01*
X015232Y010138D01*
X015290Y010196D01*
X015290Y010669D01*
X015232Y010728D01*
X015029Y010728D01*
X015002Y010701D01*
X014976Y010728D01*
X014773Y010728D01*
X014746Y010701D01*
X014720Y010728D01*
X014517Y010728D01*
X014490Y010701D01*
X014464Y010728D01*
X014261Y010728D01*
X014257Y010723D01*
X014257Y011614D01*
X014676Y011614D01*
X014676Y011536D01*
X014734Y011477D01*
X015211Y011477D01*
X015270Y011536D01*
X015270Y012037D01*
X015345Y012037D01*
X015345Y011536D01*
X015404Y011477D01*
X015880Y011477D01*
X015939Y011536D01*
X015939Y011614D01*
X016463Y011614D01*
X016555Y011522D01*
X016555Y010230D01*
X016530Y010205D01*
X016530Y010036D01*
X016650Y009916D01*
X016819Y009916D01*
X016879Y009975D01*
X016879Y009421D01*
X016828Y009544D01*
X016650Y009722D01*
X016418Y009819D01*
X016166Y009819D01*
X015933Y009722D01*
X015755Y009544D01*
X015659Y009311D01*
X015659Y009060D01*
X015755Y008827D01*
X015933Y008649D01*
X016166Y008552D01*
X016418Y008552D01*
X016650Y008649D01*
X016828Y008827D01*
X016879Y008949D01*
X016879Y000724D01*
X016331Y000724D01*
X016453Y000775D01*
X016631Y000953D01*
X016728Y001186D01*
X016728Y001437D01*
X016631Y001670D01*
X016453Y001848D01*
X016221Y001945D01*
X015969Y001945D01*
X015736Y001848D01*
X015558Y001670D01*
X015462Y001437D01*
X015462Y001186D01*
X015558Y000953D01*
X015736Y000775D01*
X015859Y000724D01*
X008457Y000724D01*
X008579Y000775D01*
X008757Y000953D01*
X008854Y001186D01*
X008854Y001437D01*
X008757Y001670D01*
X008579Y001848D01*
X008347Y001945D01*
X008095Y001945D01*
X007996Y001904D02*
X006851Y001904D01*
X006851Y001805D02*
X007819Y001805D01*
X007721Y001707D02*
X006790Y001707D01*
X006502Y001707D02*
X003027Y001707D01*
X003126Y001805D02*
X006441Y001805D01*
X006441Y001904D02*
X003167Y001904D01*
X003238Y001608D02*
X002180Y001608D01*
X002218Y001510D02*
X003200Y001510D01*
X003200Y001411D02*
X002218Y001411D01*
X002218Y001312D02*
X003200Y001312D01*
X003200Y001214D02*
X002218Y001214D01*
X002218Y001115D02*
X003200Y001115D01*
X003200Y001017D02*
X002218Y001017D01*
X002218Y000918D02*
X003200Y000918D01*
X003200Y000820D02*
X002218Y000820D01*
X002588Y001707D02*
X001137Y001707D01*
X001137Y001805D02*
X002489Y001805D01*
X002447Y001904D02*
X001137Y001904D01*
X001137Y002002D02*
X002430Y002002D01*
X002433Y002101D02*
X001137Y002101D01*
X001137Y002199D02*
X002473Y002199D01*
X002552Y002298D02*
X001137Y002298D01*
X001137Y005156D02*
X005160Y005156D01*
X005119Y005254D02*
X001137Y005254D01*
X001137Y005353D02*
X005119Y005353D01*
X005119Y005451D02*
X001137Y005451D01*
X001137Y005550D02*
X005119Y005550D01*
X005119Y005648D02*
X001137Y005648D01*
X001137Y005747D02*
X005153Y005747D01*
X005082Y005845D02*
X001137Y005845D01*
X001137Y005944D02*
X005069Y005944D01*
X005069Y006043D02*
X001137Y006043D01*
X001137Y006141D02*
X005367Y006141D01*
X005464Y006141D02*
X005767Y006141D01*
X005762Y006173D02*
X005762Y006361D01*
X005752Y006399D01*
X005736Y006427D01*
X006682Y006427D01*
X006721Y006389D01*
X006709Y006389D01*
X006595Y006274D01*
X006477Y006274D01*
X006458Y006293D01*
X005825Y006293D01*
X005767Y006234D01*
X005767Y006015D01*
X005785Y005997D01*
X005767Y005979D01*
X005767Y005759D01*
X005785Y005741D01*
X005767Y005723D01*
X005767Y005537D01*
X005712Y005537D01*
X005712Y005713D01*
X005660Y005765D01*
X005670Y005768D01*
X005705Y005788D01*
X005733Y005816D01*
X005752Y005850D01*
X005762Y005888D01*
X005762Y006076D01*
X005464Y006076D01*
X005464Y006173D01*
X005762Y006173D01*
X005762Y006240D02*
X005772Y006240D01*
X005762Y006338D02*
X006658Y006338D01*
X006794Y006184D02*
X006735Y006124D01*
X006142Y006124D01*
X006142Y005869D02*
X006774Y005869D01*
X006794Y005888D01*
X006774Y005613D02*
X006794Y005593D01*
X006774Y005613D02*
X006142Y005613D01*
X005767Y005648D02*
X005712Y005648D01*
X005712Y005550D02*
X005767Y005550D01*
X005778Y005747D02*
X005679Y005747D01*
X005750Y005845D02*
X005767Y005845D01*
X005762Y005944D02*
X005767Y005944D01*
X005762Y006043D02*
X005767Y006043D01*
X005069Y006240D02*
X001137Y006240D01*
X001137Y006338D02*
X005069Y006338D01*
X004212Y006732D02*
X004001Y006732D01*
X003960Y006831D02*
X004113Y006831D01*
X004015Y006929D02*
X004001Y006929D01*
X003986Y007324D02*
X003967Y007324D01*
X003974Y007816D02*
X003986Y007816D01*
X004483Y007816D02*
X005085Y007816D01*
X005063Y007718D02*
X004909Y007718D01*
X004981Y007619D02*
X005068Y007619D01*
X005268Y007709D02*
X005317Y007758D01*
X007827Y007758D01*
X007857Y007788D01*
X008181Y007788D01*
X008048Y008013D02*
X008533Y008013D01*
X008533Y007915D02*
X008488Y007915D01*
X008488Y007816D02*
X008533Y007816D01*
X008533Y007718D02*
X008488Y007718D01*
X008511Y007619D02*
X008533Y007619D01*
X008533Y007257D02*
X008533Y006650D01*
X008638Y006545D01*
X008786Y006397D01*
X008935Y006397D01*
X009229Y006397D01*
X009333Y006293D01*
X008704Y006293D01*
X008645Y006234D01*
X008645Y006015D01*
X008663Y005997D01*
X008645Y005979D01*
X008645Y005793D01*
X008625Y005773D01*
X008606Y005739D01*
X008595Y005701D01*
X008595Y005613D01*
X009020Y005613D01*
X009020Y005612D01*
X009021Y005612D01*
X009021Y005575D01*
X009021Y005357D01*
X009445Y005357D01*
X009021Y005357D01*
X009021Y005357D01*
X009020Y005357D01*
X009020Y005357D01*
X008595Y005357D01*
X008595Y005445D01*
X008606Y005483D01*
X008607Y005485D01*
X008606Y005486D01*
X008595Y005524D01*
X008595Y005612D01*
X009020Y005612D01*
X009020Y005575D01*
X009020Y005357D01*
X008595Y005357D01*
X008595Y005269D01*
X008606Y005230D01*
X008625Y005196D01*
X008645Y005176D01*
X008645Y005036D01*
X008420Y005261D01*
X008420Y006269D01*
X008420Y006393D01*
X008223Y006590D01*
X008135Y006678D01*
X008016Y006678D01*
X007961Y006733D01*
X007791Y006733D01*
X007739Y006681D01*
X007530Y006890D01*
X007875Y006890D01*
X007875Y006880D01*
X007933Y006822D01*
X008430Y006822D01*
X008488Y006880D01*
X008488Y007184D01*
X008508Y007204D01*
X008528Y007238D01*
X008533Y007257D01*
X008533Y007225D02*
X008520Y007225D01*
X008533Y007126D02*
X008488Y007126D01*
X008488Y007028D02*
X008533Y007028D01*
X008533Y006929D02*
X008488Y006929D01*
X008533Y006831D02*
X008439Y006831D01*
X008533Y006732D02*
X007962Y006732D01*
X007924Y006831D02*
X007589Y006831D01*
X007687Y006732D02*
X007791Y006732D01*
X007876Y006528D02*
X008073Y006528D01*
X008270Y006331D01*
X008270Y005199D01*
X008624Y004845D01*
X009020Y004845D01*
X009020Y004589D02*
X008536Y004589D01*
X008073Y005052D01*
X008073Y006036D01*
X007876Y006233D01*
X008179Y006634D02*
X008549Y006634D01*
X008648Y006535D02*
X008278Y006535D01*
X008377Y006437D02*
X008747Y006437D01*
X008651Y006240D02*
X008420Y006240D01*
X008420Y006338D02*
X009288Y006338D01*
X009395Y006141D02*
X009485Y006141D01*
X009509Y006043D02*
X009395Y006043D01*
X009395Y005944D02*
X009509Y005944D01*
X009509Y005845D02*
X009395Y005845D01*
X009431Y005747D02*
X009509Y005747D01*
X009509Y005648D02*
X009445Y005648D01*
X009445Y005550D02*
X009540Y005550D01*
X009444Y005451D02*
X009683Y005451D01*
X009781Y005353D02*
X009445Y005353D01*
X009441Y005254D02*
X009456Y005254D01*
X009649Y005254D02*
X009746Y005254D01*
X009746Y005261D02*
X009746Y004943D01*
X010044Y004943D01*
X010044Y005130D01*
X010034Y005169D01*
X010014Y005203D01*
X009986Y005231D01*
X009952Y005250D01*
X009914Y005261D01*
X009746Y005261D01*
X009746Y005156D02*
X009649Y005156D01*
X009649Y005057D02*
X009746Y005057D01*
X009746Y004959D02*
X009649Y004959D01*
X009648Y004943D02*
X009648Y004846D01*
X009395Y004846D01*
X009395Y004943D01*
X009648Y004943D01*
X009648Y004860D02*
X009395Y004860D01*
X009649Y004845D02*
X009649Y004541D01*
X009746Y004541D01*
X009746Y004845D01*
X009649Y004845D01*
X009649Y004761D02*
X009746Y004761D01*
X009746Y004663D02*
X009649Y004663D01*
X009649Y004564D02*
X009746Y004564D01*
X009993Y004564D02*
X012038Y004564D01*
X012038Y004466D02*
X009994Y004466D01*
X009994Y004367D02*
X012038Y004367D01*
X012038Y004269D02*
X011391Y004269D01*
X011299Y004307D02*
X011048Y004307D01*
X010815Y004210D01*
X010637Y004032D01*
X010540Y003800D01*
X010540Y003548D01*
X010637Y003315D01*
X010815Y003137D01*
X011048Y003041D01*
X011299Y003041D01*
X011532Y003137D01*
X011710Y003315D01*
X011807Y003548D01*
X011807Y003800D01*
X011710Y004032D01*
X011532Y004210D01*
X011299Y004307D01*
X011572Y004170D02*
X012071Y004170D01*
X012097Y004145D02*
X012731Y004145D01*
X012789Y004203D01*
X012789Y004916D01*
X012731Y004974D01*
X012564Y004974D01*
X012564Y005536D01*
X012636Y005536D01*
X012697Y005596D01*
X012697Y005585D01*
X012642Y005530D01*
X012642Y005360D01*
X012762Y005240D01*
X012932Y005240D01*
X013052Y005360D01*
X013052Y005530D01*
X012997Y005585D01*
X012997Y005596D01*
X013057Y005536D01*
X013227Y005536D01*
X013347Y005656D01*
X013347Y005826D01*
X013227Y005946D01*
X013067Y005946D01*
X013292Y006171D01*
X013292Y006295D01*
X013292Y007302D01*
X013396Y007406D01*
X013396Y005693D01*
X013341Y005639D01*
X013341Y005469D01*
X013461Y005349D01*
X013538Y005349D01*
X013613Y005274D01*
X013613Y005014D01*
X013575Y005024D01*
X013330Y005024D01*
X013330Y004610D01*
X013230Y004610D01*
X013230Y005024D01*
X012984Y005024D01*
X012946Y005014D01*
X012912Y004994D01*
X012884Y004967D01*
X012864Y004932D01*
X012854Y004894D01*
X012854Y004609D01*
X013230Y004609D01*
X013230Y004510D01*
X012854Y004510D01*
X012854Y004225D01*
X012864Y004187D01*
X012884Y004152D01*
X012912Y004125D01*
X012946Y004105D01*
X012984Y004095D01*
X013230Y004095D01*
X013230Y004509D01*
X013330Y004509D01*
X013330Y004095D01*
X013575Y004095D01*
X013613Y004105D01*
X013613Y003974D01*
X013597Y003990D01*
X012963Y003990D01*
X012904Y003932D01*
X012904Y003755D01*
X012789Y003755D01*
X012789Y003932D01*
X012731Y003990D01*
X012097Y003990D01*
X012038Y003932D01*
X012038Y003219D01*
X012097Y003160D01*
X012234Y003160D01*
X012234Y002986D01*
X012156Y002986D01*
X012097Y002928D01*
X012097Y002451D01*
X012143Y002406D01*
X011919Y002406D01*
X011861Y002347D01*
X011861Y002245D01*
X011854Y002245D01*
X011854Y002692D01*
X012097Y002692D01*
X012097Y002594D02*
X011854Y002594D01*
X011854Y002692D02*
X011796Y002750D01*
X011496Y002750D01*
X011438Y002692D01*
X011106Y002692D01*
X011048Y002750D01*
X010748Y002750D01*
X010690Y002692D01*
X010044Y002692D01*
X010044Y002739D02*
X010034Y002777D01*
X010014Y002811D01*
X009986Y002839D01*
X009952Y002859D01*
X009942Y002861D01*
X009994Y002914D01*
X009994Y003430D01*
X009935Y003488D01*
X009459Y003488D01*
X009444Y003474D01*
X009445Y003477D01*
X009445Y003565D01*
X009021Y003565D01*
X009021Y003566D01*
X009020Y003310D02*
X009697Y003310D01*
X009697Y003172D01*
X009451Y003480D02*
X009445Y003480D01*
X009445Y003579D02*
X010540Y003579D01*
X010540Y003677D02*
X009439Y003677D01*
X009395Y003776D02*
X010540Y003776D01*
X010572Y003875D02*
X010277Y003875D01*
X010365Y003973D02*
X010612Y003973D01*
X010676Y004072D02*
X010365Y004072D01*
X010327Y004170D02*
X010775Y004170D01*
X010956Y004269D02*
X009994Y004269D01*
X009697Y004225D02*
X009697Y004077D01*
X009020Y004077D01*
X008280Y004077D01*
X008172Y003969D01*
X007984Y004072D02*
X006517Y004072D01*
X006517Y004170D02*
X008083Y004170D01*
X007967Y003973D02*
X006517Y003973D01*
X006517Y004269D02*
X008595Y004269D01*
X008595Y004333D02*
X009020Y004333D01*
X009020Y004333D01*
X008595Y004333D01*
X008595Y004367D02*
X006517Y004367D01*
X006557Y004466D02*
X008447Y004466D01*
X008348Y004564D02*
X006567Y004564D01*
X006567Y004589D02*
X006142Y004589D01*
X006567Y004589D01*
X006567Y004663D02*
X008250Y004663D01*
X008624Y005057D02*
X008645Y005057D01*
X008645Y005156D02*
X008526Y005156D01*
X008599Y005254D02*
X008427Y005254D01*
X008420Y005353D02*
X008595Y005353D01*
X008597Y005451D02*
X008420Y005451D01*
X008420Y005550D02*
X008595Y005550D01*
X008595Y005648D02*
X008420Y005648D01*
X008420Y005747D02*
X008610Y005747D01*
X008645Y005845D02*
X008420Y005845D01*
X008420Y005944D02*
X008645Y005944D01*
X008645Y006043D02*
X008420Y006043D01*
X008420Y006141D02*
X008645Y006141D01*
X009020Y005550D02*
X009021Y005550D01*
X009020Y005451D02*
X009021Y005451D01*
X009746Y004860D02*
X012038Y004860D01*
X012038Y004916D02*
X012038Y004203D01*
X012097Y004145D01*
X012080Y003973D02*
X011735Y003973D01*
X011776Y003875D02*
X012038Y003875D01*
X012038Y003776D02*
X011807Y003776D01*
X011807Y003677D02*
X012038Y003677D01*
X012038Y003579D02*
X011807Y003579D01*
X011779Y003480D02*
X012038Y003480D01*
X012038Y003382D02*
X011738Y003382D01*
X011678Y003283D02*
X012038Y003283D01*
X012072Y003185D02*
X011580Y003185D01*
X011409Y003086D02*
X012234Y003086D01*
X012234Y002988D02*
X009994Y002988D01*
X009994Y003086D02*
X010938Y003086D01*
X010767Y003185D02*
X009994Y003185D01*
X009994Y003283D02*
X010669Y003283D01*
X010609Y003382D02*
X009994Y003382D01*
X009943Y003480D02*
X010568Y003480D01*
X010043Y003875D02*
X009395Y003875D01*
X010044Y004663D02*
X012038Y004663D01*
X012038Y004761D02*
X010044Y004761D01*
X010044Y004959D02*
X012081Y004959D01*
X012097Y004974D02*
X012038Y004916D01*
X012097Y004974D02*
X012264Y004974D01*
X012264Y005541D01*
X012264Y005665D01*
X012346Y005748D01*
X012346Y005826D01*
X012467Y005946D01*
X012636Y005946D01*
X012697Y005885D01*
X012697Y006000D01*
X012992Y006295D01*
X012992Y007368D01*
X012932Y007307D01*
X012762Y007307D01*
X012642Y007427D01*
X012642Y007597D01*
X012762Y007717D01*
X012840Y007717D01*
X012915Y007792D01*
X012907Y007790D01*
X012827Y007790D01*
X012827Y008135D01*
X012827Y008135D01*
X012827Y007790D01*
X012747Y007790D01*
X012709Y007800D01*
X012675Y007820D01*
X012647Y007848D01*
X012627Y007882D01*
X012617Y007920D01*
X012617Y008135D01*
X012827Y008135D01*
X012827Y008135D01*
X012617Y008135D01*
X012617Y008350D01*
X012627Y008388D01*
X012647Y008422D01*
X012675Y008450D01*
X012709Y008470D01*
X012747Y008480D01*
X012827Y008480D01*
X012827Y008136D01*
X012827Y008136D01*
X012827Y008480D01*
X012903Y008480D01*
X012903Y008830D01*
X012878Y008855D01*
X012878Y009024D01*
X012998Y009144D01*
X013168Y009144D01*
X013288Y009024D01*
X013288Y008855D01*
X013263Y008830D01*
X013263Y008430D01*
X013440Y008430D01*
X013467Y008404D01*
X013493Y008430D01*
X013696Y008430D01*
X013723Y008404D01*
X013749Y008430D01*
X013952Y008430D01*
X013979Y008404D01*
X014005Y008430D01*
X014208Y008430D01*
X014235Y008404D01*
X014261Y008430D01*
X014464Y008430D01*
X014490Y008404D01*
X014517Y008430D01*
X014720Y008430D01*
X014746Y008404D01*
X014773Y008430D01*
X014976Y008430D01*
X015002Y008404D01*
X015029Y008430D01*
X015232Y008430D01*
X015290Y008372D01*
X015290Y007899D01*
X015232Y007840D01*
X015029Y007840D01*
X015024Y007845D01*
X015024Y007683D01*
X015024Y007573D01*
X015349Y007573D01*
X015407Y007514D01*
X015407Y007436D01*
X015489Y007436D01*
X015638Y007436D01*
X015881Y007193D01*
X015881Y007044D01*
X015881Y005076D01*
X015776Y004970D01*
X015291Y004485D01*
X015291Y003453D01*
X015291Y003304D01*
X015047Y003061D01*
X014915Y003061D01*
X014915Y002983D01*
X014857Y002924D01*
X014798Y002924D01*
X014798Y002910D01*
X014693Y002805D01*
X014354Y002466D01*
X014354Y002136D01*
X014296Y002078D01*
X013996Y002078D01*
X013938Y002136D01*
X013938Y002692D01*
X013132Y002692D01*
X013132Y002738D02*
X013449Y002738D01*
X013449Y002906D01*
X013439Y002944D01*
X013420Y002978D01*
X013392Y003006D01*
X013357Y003026D01*
X013319Y003036D01*
X013131Y003036D01*
X013131Y002738D01*
X013034Y002738D01*
X013034Y002641D01*
X012730Y002641D01*
X012730Y002738D01*
X013034Y002738D01*
X013034Y003036D01*
X012847Y003036D01*
X012809Y003026D01*
X012774Y003006D01*
X012746Y002978D01*
X012727Y002944D01*
X012724Y002934D01*
X012672Y002986D01*
X012594Y002986D01*
X012594Y003160D01*
X012731Y003160D01*
X012789Y003219D01*
X012789Y003395D01*
X012904Y003395D01*
X012904Y003219D01*
X012963Y003160D01*
X013597Y003160D01*
X013613Y003176D01*
X013613Y003002D01*
X013671Y002944D01*
X014187Y002944D01*
X014246Y003002D01*
X014246Y003345D01*
X014322Y003421D01*
X014322Y002983D01*
X014342Y002963D01*
X014129Y002750D01*
X013996Y002750D01*
X013938Y002692D01*
X013938Y002594D02*
X013449Y002594D01*
X013449Y002641D02*
X013132Y002641D01*
X013132Y002738D01*
X013131Y002791D02*
X013034Y002791D01*
X013034Y002889D02*
X013131Y002889D01*
X013131Y002988D02*
X013034Y002988D01*
X012938Y003185D02*
X012755Y003185D01*
X012789Y003283D02*
X012904Y003283D01*
X012904Y003382D02*
X012789Y003382D01*
X012594Y003086D02*
X013613Y003086D01*
X013628Y002988D02*
X013410Y002988D01*
X013449Y002889D02*
X014268Y002889D01*
X014231Y002988D02*
X014322Y002988D01*
X014322Y003086D02*
X014246Y003086D01*
X014246Y003185D02*
X014322Y003185D01*
X014322Y003283D02*
X014246Y003283D01*
X014283Y003382D02*
X014322Y003382D01*
X014274Y003585D02*
X013929Y003241D01*
X014274Y003585D02*
X014274Y005337D01*
X013801Y005810D01*
X013801Y007434D01*
X014107Y007739D01*
X014107Y008135D01*
X013851Y008135D02*
X013851Y007778D01*
X013546Y007473D01*
X013546Y005554D01*
X013929Y005170D01*
X013613Y005156D02*
X012564Y005156D01*
X012564Y005254D02*
X012748Y005254D01*
X012649Y005353D02*
X012564Y005353D01*
X012564Y005451D02*
X012642Y005451D01*
X012651Y005550D02*
X012661Y005550D01*
X012847Y005445D02*
X012847Y005937D01*
X013142Y006233D01*
X013142Y007365D01*
X013595Y007817D01*
X013595Y008135D01*
X013339Y008135D02*
X013339Y007857D01*
X013191Y007709D01*
X013044Y007709D01*
X012847Y007512D01*
X012642Y007521D02*
X011894Y007521D01*
X011874Y007425D02*
X011358Y007425D01*
X011300Y007367D01*
X011300Y006952D01*
X011266Y006986D01*
X011174Y007024D01*
X011075Y007024D01*
X010983Y006986D01*
X010912Y006916D01*
X010874Y006824D01*
X010874Y006724D01*
X010912Y006632D01*
X010983Y006562D01*
X011075Y006524D01*
X011174Y006524D01*
X011266Y006562D01*
X011300Y006596D01*
X011300Y006181D01*
X011358Y006123D01*
X011874Y006123D01*
X011933Y006181D01*
X011933Y006658D01*
X011874Y006717D01*
X011766Y006717D01*
X011766Y006738D01*
X011730Y006774D01*
X011766Y006810D01*
X011766Y006832D01*
X011874Y006832D01*
X011933Y006890D01*
X011933Y007367D01*
X011874Y007425D01*
X011878Y007422D02*
X012647Y007422D01*
X012746Y007324D02*
X011933Y007324D01*
X011933Y007225D02*
X012992Y007225D01*
X012992Y007126D02*
X011933Y007126D01*
X011933Y007028D02*
X012992Y007028D01*
X012992Y006929D02*
X011933Y006929D01*
X011766Y006831D02*
X012992Y006831D01*
X012992Y006732D02*
X011766Y006732D01*
X011616Y006676D02*
X011616Y006420D01*
X011616Y006676D02*
X011518Y006774D01*
X011616Y006873D01*
X011616Y007128D01*
X011518Y006774D02*
X011124Y006774D01*
X010926Y006929D02*
X010791Y006929D01*
X010791Y006831D02*
X010877Y006831D01*
X010874Y006732D02*
X010791Y006732D01*
X010791Y006634D02*
X010912Y006634D01*
X011048Y006535D02*
X010751Y006535D01*
X010684Y006437D02*
X011300Y006437D01*
X011300Y006535D02*
X011201Y006535D01*
X011300Y006338D02*
X010684Y006338D01*
X010684Y006240D02*
X011300Y006240D01*
X011340Y006141D02*
X010727Y006141D01*
X010772Y006043D02*
X011354Y006043D01*
X011300Y005944D02*
X010772Y005944D01*
X010772Y005845D02*
X011300Y005845D01*
X011300Y005747D02*
X010772Y005747D01*
X010772Y005648D02*
X011260Y005648D01*
X011473Y005353D02*
X012264Y005353D01*
X012264Y005451D02*
X011572Y005451D01*
X011933Y005550D02*
X012264Y005550D01*
X012264Y005648D02*
X011933Y005648D01*
X011933Y005747D02*
X012346Y005747D01*
X012366Y005845D02*
X011933Y005845D01*
X011933Y005944D02*
X012465Y005944D01*
X012638Y005944D02*
X012697Y005944D01*
X012740Y006043D02*
X011879Y006043D01*
X011893Y006141D02*
X012838Y006141D01*
X012937Y006240D02*
X011933Y006240D01*
X011933Y006338D02*
X012992Y006338D01*
X012992Y006437D02*
X011933Y006437D01*
X011933Y006535D02*
X012992Y006535D01*
X012992Y006634D02*
X011933Y006634D01*
X011300Y007028D02*
X010736Y007028D01*
X010534Y006774D02*
X010534Y005928D01*
X010475Y005839D01*
X010178Y005845D02*
X010102Y005845D01*
X010102Y005747D02*
X010178Y005747D01*
X010178Y005648D02*
X010102Y005648D01*
X010102Y005944D02*
X010178Y005944D01*
X010178Y006043D02*
X010102Y006043D01*
X010058Y006141D02*
X010222Y006141D01*
X010384Y006240D02*
X009896Y006240D01*
X009797Y006338D02*
X010384Y006338D01*
X010384Y006437D02*
X009699Y006437D01*
X009726Y006535D02*
X009600Y006535D01*
X009686Y006634D02*
X009501Y006634D01*
X009403Y006732D02*
X009686Y006732D01*
X009674Y006831D02*
X009502Y006831D01*
X009677Y007040D02*
X009244Y007040D01*
X009525Y007225D02*
X011300Y007225D01*
X011300Y007126D02*
X009803Y007126D01*
X009677Y007040D02*
X009943Y006774D01*
X010201Y006732D02*
X010276Y006732D01*
X010276Y006634D02*
X010201Y006634D01*
X010161Y006535D02*
X010316Y006535D01*
X010276Y006831D02*
X010201Y006831D01*
X010201Y006929D02*
X010276Y006929D01*
X010331Y007028D02*
X010146Y007028D01*
X010586Y007718D02*
X011051Y007718D01*
X010953Y007816D02*
X010684Y007816D01*
X010770Y007915D02*
X010854Y007915D01*
X010756Y008013D02*
X010741Y008013D01*
X010657Y008112D02*
X010643Y008112D01*
X010558Y008210D02*
X010544Y008210D01*
X010460Y008309D02*
X010342Y008309D01*
X010352Y008319D02*
X010352Y008402D01*
X010071Y008683D01*
X009988Y008683D01*
X009952Y008647D01*
X009897Y008646D01*
X009832Y008646D01*
X009662Y008645D01*
X009662Y008752D01*
X009604Y008811D01*
X009127Y008811D01*
X009068Y008752D01*
X009068Y008236D01*
X009127Y008178D01*
X009604Y008178D01*
X009662Y008236D01*
X009662Y008345D01*
X009707Y008346D01*
X009707Y008319D01*
X009988Y008038D01*
X010071Y008038D01*
X010352Y008319D01*
X010347Y008408D02*
X010361Y008408D01*
X010263Y008506D02*
X010248Y008506D01*
X010164Y008605D02*
X010150Y008605D01*
X010066Y008703D02*
X009662Y008703D01*
X009612Y008802D02*
X009967Y008802D01*
X009869Y008900D02*
X008492Y008900D01*
X008449Y008802D02*
X008394Y008802D01*
X008399Y008703D02*
X008322Y008703D01*
X008322Y008605D02*
X008399Y008605D01*
X008399Y008506D02*
X008322Y008506D01*
X008322Y008408D02*
X008399Y008408D01*
X008399Y008309D02*
X008322Y008309D01*
X008245Y008210D02*
X008425Y008210D01*
X008533Y008112D02*
X008147Y008112D01*
X008172Y008349D02*
X007778Y007955D01*
X006006Y007955D01*
X005834Y007915D02*
X004483Y007915D01*
X004483Y008013D02*
X005736Y008013D01*
X006453Y008408D02*
X006494Y008408D01*
X006646Y008546D02*
X006646Y008644D01*
X006498Y008792D01*
X006498Y010760D01*
X007778Y012040D01*
X013831Y012040D01*
X014107Y011764D01*
X014943Y011764D01*
X014973Y011794D01*
X015270Y011758D02*
X015345Y011758D01*
X015345Y011659D02*
X015270Y011659D01*
X015270Y011561D02*
X015345Y011561D01*
X015345Y011857D02*
X015270Y011857D01*
X015270Y011955D02*
X015345Y011955D01*
X015898Y012187D02*
X014422Y012187D01*
X014176Y012434D01*
X014176Y013073D01*
X014038Y013211D01*
X013733Y013211D01*
X013416Y013039D02*
X012800Y013039D01*
X012859Y013099D02*
X012887Y013071D01*
X012921Y013052D01*
X012959Y013041D01*
X013130Y013041D01*
X013130Y013303D01*
X012829Y013303D01*
X012829Y013172D01*
X012839Y013134D01*
X012859Y013099D01*
X012838Y013138D02*
X012800Y013138D01*
X012800Y013236D02*
X012829Y013236D01*
X012829Y013335D02*
X012800Y013335D01*
X012800Y013433D02*
X012829Y013433D01*
X012859Y013532D02*
X012887Y013559D01*
X012921Y013579D01*
X012959Y013589D01*
X013130Y013589D01*
X013130Y013328D01*
X013154Y013328D01*
X013154Y013589D01*
X013325Y013589D01*
X013363Y013579D01*
X013398Y013559D01*
X013425Y013532D01*
X013154Y013532D02*
X013130Y013532D01*
X013130Y013433D02*
X013154Y013433D01*
X013154Y013335D02*
X013130Y013335D01*
X013130Y013236D02*
X013154Y013236D01*
X013154Y013138D02*
X013130Y013138D01*
X013448Y012941D02*
X012800Y012941D01*
X012800Y012842D02*
X014026Y012842D01*
X014017Y012941D02*
X014026Y012941D01*
X014325Y012941D02*
X014349Y012941D01*
X014349Y013039D02*
X014325Y013039D01*
X014323Y013138D02*
X014349Y013138D01*
X014349Y013236D02*
X014225Y013236D01*
X014126Y013335D02*
X014349Y013335D01*
X014349Y013433D02*
X014049Y013433D01*
X014557Y013142D02*
X014557Y013774D01*
X014520Y013811D01*
X012748Y013811D01*
X012650Y013713D01*
X012650Y012630D01*
X012500Y012743D02*
X012482Y012743D01*
X012482Y012842D02*
X012500Y012842D01*
X012500Y012941D02*
X012482Y012941D01*
X012482Y013039D02*
X012500Y013039D01*
X012500Y013138D02*
X012482Y013138D01*
X012482Y013236D02*
X012500Y013236D01*
X012500Y013335D02*
X012482Y013335D01*
X012482Y013433D02*
X012500Y013433D01*
X012500Y013532D02*
X012482Y013532D01*
X012500Y013630D02*
X012117Y013630D01*
X012117Y013729D02*
X012500Y013729D01*
X012552Y013827D02*
X012117Y013827D01*
X012163Y013926D02*
X012651Y013926D01*
X012918Y014123D02*
X016879Y014123D01*
X016879Y014025D02*
X012261Y014025D01*
X011898Y014222D02*
X010055Y014222D01*
X010055Y014320D02*
X011898Y014320D01*
X011898Y014419D02*
X010055Y014419D01*
X010055Y014517D02*
X011898Y014517D01*
X011898Y014616D02*
X010055Y014616D01*
X010055Y014714D02*
X011898Y014714D01*
X011948Y015109D02*
X010006Y015109D01*
X010055Y015207D02*
X011898Y015207D01*
X011898Y015306D02*
X010055Y015306D01*
X010055Y015404D02*
X011898Y015404D01*
X011898Y015503D02*
X010055Y015503D01*
X010055Y015601D02*
X011898Y015601D01*
X011898Y015700D02*
X010055Y015700D01*
X009670Y015798D02*
X011816Y015798D01*
X011806Y015897D02*
X009670Y015897D01*
X009670Y015995D02*
X011806Y015995D01*
X011806Y016094D02*
X009595Y016094D01*
X009497Y016192D02*
X011806Y016192D01*
X011497Y016291D02*
X010626Y016291D01*
X010631Y016296D02*
X010651Y016331D01*
X010661Y016369D01*
X010661Y016764D01*
X010116Y016764D01*
X010116Y016863D01*
X010661Y016863D01*
X010661Y017258D01*
X010651Y017296D01*
X010631Y017331D01*
X010603Y017358D01*
X010569Y017378D01*
X010531Y017388D01*
X010116Y017388D01*
X010116Y016864D01*
X010016Y016864D01*
X010016Y017388D01*
X009601Y017388D01*
X009563Y017378D01*
X009529Y017358D01*
X009501Y017331D01*
X009481Y017296D01*
X009471Y017258D01*
X009471Y016863D01*
X010016Y016863D01*
X010016Y016764D01*
X009471Y016764D01*
X009471Y016369D01*
X009481Y016331D01*
X009501Y016296D01*
X009529Y016268D01*
X009563Y016249D01*
X009601Y016238D01*
X010016Y016238D01*
X010016Y016763D01*
X010116Y016763D01*
X010116Y016238D01*
X010531Y016238D01*
X010569Y016249D01*
X010603Y016268D01*
X010631Y016296D01*
X010661Y016390D02*
X011441Y016390D01*
X011441Y016488D02*
X010661Y016488D01*
X010661Y016587D02*
X011441Y016587D01*
X011441Y016685D02*
X010661Y016685D01*
X010661Y016882D02*
X011441Y016882D01*
X011441Y016784D02*
X010116Y016784D01*
X010116Y016882D02*
X010016Y016882D01*
X010016Y016784D02*
X008792Y016784D01*
X008833Y016882D02*
X009471Y016882D01*
X009471Y016981D02*
X008854Y016981D01*
X008854Y017079D02*
X009471Y017079D01*
X009471Y017178D02*
X008854Y017178D01*
X008816Y017276D02*
X009476Y017276D01*
X009557Y017375D02*
X008775Y017375D01*
X008702Y017474D02*
X015614Y017474D01*
X015540Y017375D02*
X010574Y017375D01*
X010656Y017276D02*
X011441Y017276D01*
X011441Y017178D02*
X010661Y017178D01*
X010661Y017079D02*
X011441Y017079D01*
X011441Y016981D02*
X010661Y016981D01*
X010116Y016981D02*
X010016Y016981D01*
X010016Y017079D02*
X010116Y017079D01*
X010116Y017178D02*
X010016Y017178D01*
X010016Y017276D02*
X010116Y017276D01*
X010116Y017375D02*
X010016Y017375D01*
X010016Y016685D02*
X010116Y016685D01*
X010116Y016587D02*
X010016Y016587D01*
X010016Y016488D02*
X010116Y016488D01*
X010116Y016390D02*
X010016Y016390D01*
X010016Y016291D02*
X010116Y016291D01*
X009506Y016291D02*
X007199Y016291D01*
X007199Y016250D02*
X007199Y016648D01*
X007140Y016707D01*
X006742Y016707D01*
X006684Y016648D01*
X006684Y016580D01*
X006667Y016580D01*
X006667Y016668D01*
X006609Y016726D01*
X006093Y016726D01*
X006034Y016668D01*
X006034Y016191D01*
X006093Y016133D01*
X006609Y016133D01*
X006667Y016191D01*
X006667Y016280D01*
X006684Y016280D01*
X006684Y016250D01*
X006742Y016192D01*
X007140Y016192D01*
X007199Y016250D01*
X007141Y016192D02*
X007929Y016192D01*
X007830Y016094D02*
X001137Y016094D01*
X001137Y016192D02*
X006034Y016192D01*
X006034Y016291D02*
X003128Y016291D01*
X003134Y016390D02*
X006034Y016390D01*
X006034Y016488D02*
X003134Y016488D01*
X003134Y016587D02*
X006034Y016587D01*
X006051Y016685D02*
X003134Y016685D01*
X003134Y016784D02*
X006670Y016784D01*
X006664Y016790D02*
X006692Y016762D01*
X006726Y016743D01*
X006764Y016732D01*
X006912Y016732D01*
X006912Y017011D01*
X006970Y017011D01*
X006970Y016732D01*
X007118Y016732D01*
X007157Y016743D01*
X007191Y016762D01*
X007219Y016790D01*
X007238Y016824D01*
X007249Y016863D01*
X007249Y017011D01*
X006970Y017011D01*
X006970Y017069D01*
X006912Y017069D01*
X006912Y017347D01*
X006764Y017347D01*
X006726Y017337D01*
X006692Y017317D01*
X006667Y017293D01*
X006667Y017337D01*
X006609Y017396D01*
X006093Y017396D01*
X006034Y017337D01*
X006034Y016861D01*
X006093Y016802D01*
X006609Y016802D01*
X006641Y016835D01*
X006644Y016824D01*
X006664Y016790D01*
X006650Y016685D02*
X006721Y016685D01*
X006684Y016587D02*
X006667Y016587D01*
X006667Y016192D02*
X006742Y016192D01*
X006922Y016430D02*
X006941Y016449D01*
X006922Y016430D02*
X006351Y016430D01*
X006034Y016882D02*
X003134Y016882D01*
X003134Y016981D02*
X006034Y016981D01*
X006034Y017079D02*
X003134Y017079D01*
X003134Y017178D02*
X006034Y017178D01*
X006034Y017276D02*
X003134Y017276D01*
X003134Y017375D02*
X006072Y017375D01*
X006629Y017375D02*
X007666Y017375D01*
X007625Y017276D02*
X007226Y017276D01*
X007219Y017289D02*
X007191Y017317D01*
X007157Y017337D01*
X007118Y017347D01*
X006970Y017347D01*
X006970Y017069D01*
X007249Y017069D01*
X007249Y017217D01*
X007238Y017255D01*
X007219Y017289D01*
X007249Y017178D02*
X007588Y017178D01*
X007588Y017079D02*
X007249Y017079D01*
X007249Y016981D02*
X007588Y016981D01*
X007609Y016882D02*
X007249Y016882D01*
X007212Y016784D02*
X007650Y016784D01*
X007700Y016685D02*
X007162Y016685D01*
X007199Y016587D02*
X007798Y016587D01*
X007946Y016488D02*
X007199Y016488D01*
X007199Y016390D02*
X009471Y016390D01*
X009471Y016488D02*
X008496Y016488D01*
X008643Y016587D02*
X009471Y016587D01*
X009471Y016685D02*
X008742Y016685D01*
X009353Y016124D02*
X009520Y015957D01*
X009520Y015436D01*
X009498Y015010D02*
X013003Y015010D01*
X012919Y015109D02*
X013102Y015109D01*
X013200Y015207D02*
X012968Y015207D01*
X012905Y014911D02*
X009597Y014911D01*
X009670Y014813D02*
X012806Y014813D01*
X013020Y014517D02*
X016879Y014517D01*
X016879Y014419D02*
X012968Y014419D01*
X012968Y014320D02*
X016879Y014320D01*
X016879Y014222D02*
X012968Y014222D01*
X013118Y014616D02*
X016879Y014616D01*
X016879Y014714D02*
X013217Y014714D01*
X013315Y014813D02*
X016879Y014813D01*
X016879Y014911D02*
X016246Y014911D01*
X016266Y014931D02*
X016266Y015605D01*
X016207Y015663D01*
X015908Y015663D01*
X015849Y015605D01*
X015849Y014931D01*
X015908Y014873D01*
X016207Y014873D01*
X016266Y014931D01*
X016266Y015010D02*
X016879Y015010D01*
X016879Y015109D02*
X016266Y015109D01*
X016266Y015207D02*
X016879Y015207D01*
X016879Y015306D02*
X016266Y015306D01*
X016266Y015404D02*
X016879Y015404D01*
X016879Y015503D02*
X016266Y015503D01*
X016266Y015601D02*
X016879Y015601D01*
X016879Y015700D02*
X015737Y015700D01*
X015737Y015798D02*
X016879Y015798D01*
X016879Y015897D02*
X015691Y015897D01*
X015593Y015995D02*
X016879Y015995D01*
X016879Y016094D02*
X015494Y016094D01*
X015395Y016192D02*
X016879Y016192D01*
X016879Y016291D02*
X015297Y016291D01*
X015182Y015897D02*
X015101Y015897D01*
X015199Y015798D02*
X015281Y015798D01*
X015237Y015700D02*
X015377Y015700D01*
X015349Y015601D02*
X015266Y015601D01*
X015266Y015503D02*
X015349Y015503D01*
X015349Y015404D02*
X015266Y015404D01*
X015266Y015306D02*
X015349Y015306D01*
X015349Y015207D02*
X015266Y015207D01*
X015266Y015109D02*
X015349Y015109D01*
X015349Y015010D02*
X015266Y015010D01*
X015246Y014911D02*
X015369Y014911D01*
X015746Y014911D02*
X015869Y014911D01*
X015849Y015010D02*
X015766Y015010D01*
X015766Y015109D02*
X015849Y015109D01*
X015849Y015207D02*
X015766Y015207D01*
X015766Y015306D02*
X015849Y015306D01*
X015849Y015404D02*
X015766Y015404D01*
X015766Y015503D02*
X015849Y015503D01*
X015849Y015601D02*
X015766Y015601D01*
X015820Y016488D02*
X012531Y016488D01*
X012531Y016390D02*
X016879Y016390D01*
X016879Y016488D02*
X016370Y016488D01*
X016517Y016587D02*
X016879Y016587D01*
X016879Y016685D02*
X016616Y016685D01*
X016666Y016784D02*
X016879Y016784D01*
X016879Y016882D02*
X016707Y016882D01*
X016728Y016981D02*
X016879Y016981D01*
X016879Y017079D02*
X016728Y017079D01*
X016728Y017178D02*
X016879Y017178D01*
X016879Y017276D02*
X016690Y017276D01*
X016649Y017375D02*
X016879Y017375D01*
X016879Y017474D02*
X016576Y017474D01*
X016477Y017572D02*
X016879Y017572D01*
X015712Y017572D02*
X008603Y017572D01*
X007838Y017572D02*
X003134Y017572D01*
X003134Y017474D02*
X007740Y017474D01*
X006970Y017276D02*
X006912Y017276D01*
X006912Y017178D02*
X006970Y017178D01*
X006970Y017079D02*
X006912Y017079D01*
X006912Y016981D02*
X006970Y016981D01*
X006970Y016882D02*
X006912Y016882D01*
X006912Y016784D02*
X006970Y016784D01*
X006735Y015885D02*
X006735Y015535D01*
X006635Y015535D01*
X006635Y015885D01*
X006091Y015885D01*
X006052Y015874D01*
X006018Y015855D01*
X005990Y015827D01*
X005971Y015793D01*
X005960Y015754D01*
X005960Y015535D01*
X006635Y015535D01*
X006635Y015435D01*
X005960Y015435D01*
X005960Y015215D01*
X005971Y015177D01*
X005990Y015143D01*
X006018Y015115D01*
X006052Y015095D01*
X006091Y015085D01*
X006635Y015085D01*
X006635Y015435D01*
X006735Y015435D01*
X006735Y015085D01*
X007280Y015085D01*
X007318Y015095D01*
X007352Y015115D01*
X007380Y015143D01*
X007400Y015177D01*
X007410Y015215D01*
X007410Y015435D01*
X006735Y015435D01*
X006735Y015535D01*
X007410Y015535D01*
X007410Y015754D01*
X007400Y015793D01*
X007380Y015827D01*
X007352Y015855D01*
X007318Y015874D01*
X007280Y015885D01*
X006735Y015885D01*
X006735Y015798D02*
X006635Y015798D01*
X006635Y015700D02*
X006735Y015700D01*
X006735Y015601D02*
X006635Y015601D01*
X006635Y015503D02*
X005537Y015503D01*
X005537Y015601D02*
X005960Y015601D01*
X005960Y015700D02*
X005537Y015700D01*
X005537Y015776D02*
X005479Y015835D01*
X004246Y015835D01*
X004188Y015776D01*
X004188Y015193D01*
X004246Y015135D01*
X005479Y015135D01*
X005537Y015193D01*
X005537Y015776D01*
X005515Y015798D02*
X005974Y015798D01*
X005960Y015404D02*
X005537Y015404D01*
X005537Y015306D02*
X005960Y015306D01*
X005962Y015207D02*
X005537Y015207D01*
X006029Y015109D02*
X001137Y015109D01*
X001137Y015207D02*
X004188Y015207D01*
X004188Y015306D02*
X001137Y015306D01*
X001137Y015404D02*
X004188Y015404D01*
X004188Y015503D02*
X001137Y015503D01*
X001137Y015601D02*
X004188Y015601D01*
X004188Y015700D02*
X001137Y015700D01*
X001137Y015798D02*
X004210Y015798D01*
X004150Y014616D02*
X001137Y014616D01*
X001137Y014714D02*
X007431Y014714D01*
X007431Y014813D02*
X001137Y014813D01*
X001137Y014911D02*
X007431Y014911D01*
X007431Y015010D02*
X001137Y015010D01*
X001137Y014517D02*
X004138Y014517D01*
X004138Y014419D02*
X001137Y014419D01*
X001137Y015897D02*
X007658Y015897D01*
X007694Y015995D02*
X001137Y015995D01*
X001137Y016291D02*
X002290Y016291D01*
X002284Y016390D02*
X001137Y016390D01*
X001137Y016488D02*
X002284Y016488D01*
X002284Y016587D02*
X001137Y016587D01*
X001137Y016685D02*
X002284Y016685D01*
X002284Y016784D02*
X001137Y016784D01*
X001137Y016882D02*
X002284Y016882D01*
X002284Y016981D02*
X001137Y016981D01*
X001137Y017079D02*
X002284Y017079D01*
X002284Y017178D02*
X001137Y017178D01*
X001137Y017276D02*
X002284Y017276D01*
X002284Y017375D02*
X001137Y017375D01*
X001137Y017474D02*
X002284Y017474D01*
X002284Y017572D02*
X001137Y017572D01*
X004813Y014616D02*
X004912Y014616D01*
X004912Y014517D02*
X004813Y014517D01*
X004813Y014419D02*
X004912Y014419D01*
X004912Y014123D02*
X004813Y014123D01*
X004813Y014025D02*
X004912Y014025D01*
X004912Y013926D02*
X004813Y013926D01*
X004863Y013123D02*
X004038Y013123D01*
X003703Y012788D01*
X003969Y012842D02*
X004188Y012842D01*
X004188Y012941D02*
X004068Y012941D01*
X005537Y012941D02*
X006010Y012941D01*
X006010Y013039D02*
X005537Y013039D01*
X005537Y013138D02*
X006010Y013138D01*
X006010Y013236D02*
X005537Y013236D01*
X005537Y013335D02*
X006010Y013335D01*
X006030Y013433D02*
X005518Y013433D01*
X005537Y012842D02*
X006010Y012842D01*
X006685Y013123D02*
X008614Y013123D01*
X009520Y014028D01*
X009520Y014451D01*
X009520Y014776D01*
X009353Y014943D01*
X009008Y014943D01*
X008910Y015042D01*
X008910Y015583D01*
X008772Y015721D01*
X008516Y015721D01*
X007975Y015721D02*
X007719Y015721D01*
X007581Y015583D01*
X007581Y014599D01*
X007286Y014304D01*
X006685Y014304D01*
X006031Y014616D02*
X005575Y014616D01*
X005587Y014517D02*
X006010Y014517D01*
X006010Y014419D02*
X005587Y014419D01*
X006635Y015109D02*
X006735Y015109D01*
X006735Y015207D02*
X006635Y015207D01*
X006635Y015306D02*
X006735Y015306D01*
X006735Y015404D02*
X006635Y015404D01*
X006735Y015503D02*
X007431Y015503D01*
X007431Y015601D02*
X007410Y015601D01*
X007410Y015700D02*
X007486Y015700D01*
X007397Y015798D02*
X007584Y015798D01*
X007431Y015404D02*
X007410Y015404D01*
X007410Y015306D02*
X007431Y015306D01*
X007431Y015207D02*
X007408Y015207D01*
X007431Y015109D02*
X007342Y015109D01*
X007340Y014616D02*
X007386Y014616D01*
X007975Y015052D02*
X008069Y014957D01*
X008219Y014714D02*
X008419Y014714D01*
X008320Y014616D02*
X008319Y014616D01*
X008319Y014517D02*
X008320Y014517D01*
X008319Y014419D02*
X008320Y014419D01*
X009137Y013433D02*
X009422Y013433D01*
X009422Y013335D02*
X009039Y013335D01*
X008940Y013236D02*
X009422Y013236D01*
X009422Y013138D02*
X008842Y013138D01*
X008743Y013039D02*
X009967Y013039D01*
X009967Y013138D02*
X010067Y013138D01*
X010067Y013236D02*
X009967Y013236D01*
X009967Y013335D02*
X010067Y013335D01*
X010067Y013433D02*
X009967Y013433D01*
X009967Y013532D02*
X010067Y013532D01*
X010067Y013630D02*
X009967Y013630D01*
X009630Y013926D02*
X011757Y013926D01*
X011757Y013827D02*
X009532Y013827D01*
X009433Y013729D02*
X011757Y013729D01*
X011757Y013630D02*
X010533Y013630D01*
X010608Y013532D02*
X011392Y013532D01*
X011392Y013433D02*
X010612Y013433D01*
X010612Y013335D02*
X011392Y013335D01*
X011392Y013236D02*
X010612Y013236D01*
X010612Y013138D02*
X011392Y013138D01*
X011392Y013039D02*
X010067Y013039D01*
X010612Y012941D02*
X011392Y012941D01*
X011392Y012842D02*
X010612Y012842D01*
X010612Y012743D02*
X011392Y012743D01*
X011392Y012645D02*
X010612Y012645D01*
X009425Y013532D02*
X009236Y013532D01*
X009334Y013630D02*
X009500Y013630D01*
X009670Y014025D02*
X011757Y014025D01*
X011851Y014123D02*
X010004Y014123D01*
X009353Y016124D02*
X008073Y016124D01*
X007975Y016026D01*
X007975Y015721D01*
X007876Y011843D02*
X013634Y011843D01*
X013851Y011626D01*
X013851Y010433D01*
X014107Y010433D02*
X014107Y011764D01*
X014257Y011561D02*
X014676Y011561D01*
X014257Y011462D02*
X016555Y011462D01*
X016555Y011364D02*
X014257Y011364D01*
X014257Y011265D02*
X016555Y011265D01*
X016555Y011167D02*
X014257Y011167D01*
X014257Y011068D02*
X016555Y011068D01*
X016555Y010970D02*
X014257Y010970D01*
X014257Y010871D02*
X016555Y010871D01*
X016555Y010773D02*
X014257Y010773D01*
X014363Y010433D02*
X014363Y010160D01*
X014274Y010071D01*
X012207Y010071D01*
X011764Y010514D01*
X008565Y010514D01*
X008467Y010416D01*
X008221Y010416D01*
X007286Y009481D01*
X007286Y008398D01*
X007491Y008408D02*
X007573Y008408D01*
X007577Y008309D02*
X007487Y008309D01*
X007778Y008398D02*
X007778Y009481D01*
X008319Y010022D01*
X008713Y010022D01*
X008811Y010121D01*
X011567Y010121D01*
X012010Y009678D01*
X014471Y009678D01*
X014874Y010081D01*
X014874Y010433D01*
X015024Y010083D02*
X016530Y010083D01*
X016530Y010181D02*
X015275Y010181D01*
X015290Y010280D02*
X016555Y010280D01*
X016555Y010378D02*
X015290Y010378D01*
X015290Y010477D02*
X016555Y010477D01*
X016555Y010576D02*
X015290Y010576D01*
X015285Y010674D02*
X016555Y010674D01*
X016581Y009984D02*
X014990Y009984D01*
X014891Y009886D02*
X016879Y009886D01*
X016879Y009787D02*
X016493Y009787D01*
X016684Y009689D02*
X016879Y009689D01*
X016879Y009590D02*
X016782Y009590D01*
X016850Y009492D02*
X016879Y009492D01*
X016859Y008900D02*
X016879Y008900D01*
X016879Y008802D02*
X016803Y008802D01*
X016879Y008703D02*
X016705Y008703D01*
X016544Y008605D02*
X016879Y008605D01*
X016879Y008506D02*
X013263Y008506D01*
X013263Y008605D02*
X016040Y008605D01*
X015879Y008703D02*
X013263Y008703D01*
X013263Y008802D02*
X015780Y008802D01*
X015725Y008900D02*
X013288Y008900D01*
X013288Y008999D02*
X015684Y008999D01*
X015659Y009097D02*
X013215Y009097D01*
X012951Y009097D02*
X011807Y009097D01*
X011807Y009060D02*
X011710Y008827D01*
X011532Y008649D01*
X011299Y008552D01*
X011048Y008552D01*
X010815Y008649D01*
X010637Y008827D01*
X010540Y009060D01*
X010540Y009311D01*
X010637Y009544D01*
X010815Y009722D01*
X011048Y009819D01*
X011299Y009819D01*
X011532Y009722D01*
X011710Y009544D01*
X011807Y009311D01*
X011807Y009060D01*
X011781Y008999D02*
X012878Y008999D01*
X012878Y008900D02*
X011741Y008900D01*
X011685Y008802D02*
X012903Y008802D01*
X012903Y008703D02*
X011586Y008703D01*
X011425Y008605D02*
X012903Y008605D01*
X012903Y008506D02*
X010687Y008506D01*
X010786Y008408D02*
X012639Y008408D01*
X012617Y008309D02*
X010884Y008309D01*
X010983Y008210D02*
X012617Y008210D01*
X012617Y008112D02*
X011081Y008112D01*
X011180Y008013D02*
X011300Y008013D01*
X011183Y007798D02*
X009894Y009087D01*
X008467Y009087D01*
X008172Y008792D01*
X008172Y008349D01*
X008018Y008408D02*
X007983Y008408D01*
X007960Y008506D02*
X008022Y008506D01*
X008022Y008605D02*
X007928Y008605D01*
X007928Y008703D02*
X008022Y008703D01*
X008022Y008802D02*
X007928Y008802D01*
X007928Y008900D02*
X008068Y008900D01*
X008166Y008999D02*
X007928Y008999D01*
X007928Y009097D02*
X008265Y009097D01*
X008364Y009196D02*
X007928Y009196D01*
X007928Y009294D02*
X009544Y009294D01*
X009563Y009276D02*
X009443Y009396D01*
X009443Y009566D01*
X009563Y009686D01*
X009733Y009686D01*
X009853Y009566D01*
X009853Y009396D01*
X009733Y009276D01*
X009563Y009276D01*
X009446Y009393D02*
X007928Y009393D01*
X008001Y009492D02*
X009443Y009492D01*
X009467Y009590D02*
X008099Y009590D01*
X008198Y009689D02*
X010781Y009689D01*
X010683Y009590D02*
X009829Y009590D01*
X009853Y009492D02*
X010615Y009492D01*
X010574Y009393D02*
X009850Y009393D01*
X009751Y009294D02*
X010540Y009294D01*
X010540Y009196D02*
X009997Y009196D01*
X010096Y009097D02*
X010540Y009097D01*
X010566Y008999D02*
X010194Y008999D01*
X010293Y008900D02*
X010606Y008900D01*
X010662Y008802D02*
X010391Y008802D01*
X010490Y008703D02*
X010761Y008703D01*
X010922Y008605D02*
X010589Y008605D01*
X010350Y008210D02*
X010243Y008210D01*
X010252Y008112D02*
X010145Y008112D01*
X010153Y008013D02*
X008893Y008013D01*
X008893Y007915D02*
X008938Y007915D01*
X008938Y007816D02*
X008893Y007816D01*
X008893Y007718D02*
X008938Y007718D01*
X008947Y007619D02*
X008910Y007619D01*
X009244Y007788D02*
X010268Y007788D01*
X010447Y007943D01*
X010030Y008361D02*
X009894Y008497D01*
X009453Y008494D01*
X009365Y008494D01*
X009068Y008506D02*
X008993Y008506D01*
X008993Y008408D02*
X009068Y008408D01*
X009068Y008309D02*
X008993Y008309D01*
X008967Y008210D02*
X009094Y008210D01*
X008893Y008112D02*
X009914Y008112D01*
X009816Y008210D02*
X009636Y008210D01*
X009662Y008309D02*
X009717Y008309D01*
X009832Y008646D02*
X009832Y008646D01*
X009118Y008802D02*
X008943Y008802D01*
X008993Y008703D02*
X009068Y008703D01*
X009068Y008605D02*
X008993Y008605D01*
X009542Y007619D02*
X011300Y007619D01*
X011339Y007521D02*
X009551Y007521D01*
X009551Y007422D02*
X011355Y007422D01*
X011300Y007324D02*
X009551Y007324D01*
X008963Y007225D02*
X008893Y007225D01*
X008893Y007126D02*
X008938Y007126D01*
X008938Y007028D02*
X008893Y007028D01*
X008893Y006929D02*
X008938Y006929D01*
X008893Y006831D02*
X008987Y006831D01*
X008181Y007040D02*
X007463Y007040D01*
X007040Y007463D01*
X004874Y007463D01*
X004776Y007561D01*
X004642Y007718D02*
X004483Y007718D01*
X004483Y007619D02*
X004571Y007619D01*
X004571Y007521D02*
X004537Y007521D01*
X002729Y007816D02*
X002353Y007816D01*
X002445Y007915D02*
X002703Y007915D01*
X002662Y009196D02*
X002701Y009196D01*
X002707Y009294D02*
X002662Y009294D01*
X002662Y009393D02*
X002725Y009393D01*
X002701Y009492D02*
X002662Y009492D01*
X002662Y009590D02*
X002701Y009590D01*
X002701Y009689D02*
X002662Y009689D01*
X002662Y009787D02*
X002701Y009787D01*
X001473Y009886D02*
X001137Y009886D01*
X001137Y009984D02*
X001421Y009984D01*
X001421Y010083D02*
X001137Y010083D01*
X001137Y010181D02*
X001496Y010181D01*
X005671Y005156D02*
X005767Y005156D01*
X005767Y005057D02*
X005011Y005057D01*
X004874Y004904D02*
X005219Y004904D01*
X005366Y004756D01*
X005366Y004313D01*
X005603Y004077D01*
X006142Y004077D01*
X006142Y003821D02*
X006744Y003821D01*
X006892Y003674D01*
X007138Y003674D01*
X007343Y003677D02*
X008308Y003677D01*
X008269Y003776D02*
X008406Y003776D01*
X008367Y003875D02*
X008505Y003875D01*
X008218Y003579D02*
X007333Y003579D01*
X007326Y003480D02*
X008218Y003480D01*
X008218Y003382D02*
X007343Y003382D01*
X007333Y003283D02*
X008209Y003283D01*
X008110Y003185D02*
X007326Y003185D01*
X007343Y003086D02*
X008012Y003086D01*
X007913Y002988D02*
X007332Y002988D01*
X007327Y002889D02*
X007815Y002889D01*
X008386Y002298D02*
X009350Y002298D01*
X009350Y002396D02*
X008484Y002396D01*
X008583Y002495D02*
X009648Y002495D01*
X009649Y002396D02*
X009746Y002396D01*
X009746Y002298D02*
X009649Y002298D01*
X009649Y002199D02*
X009746Y002199D01*
X010017Y002199D02*
X010040Y002199D01*
X010040Y002101D02*
X008189Y002101D01*
X008287Y002199D02*
X009377Y002199D01*
X009350Y002594D02*
X008681Y002594D01*
X008445Y001904D02*
X009991Y001904D01*
X009990Y001902D02*
X009990Y001714D01*
X010288Y001714D01*
X010288Y001617D01*
X009990Y001617D01*
X009990Y001430D01*
X010000Y001391D01*
X010020Y001357D01*
X010048Y001329D01*
X010082Y001310D01*
X010120Y001299D01*
X010288Y001299D01*
X010288Y001617D01*
X010385Y001617D01*
X010385Y001299D01*
X010554Y001299D01*
X010592Y001310D01*
X010626Y001329D01*
X010654Y001357D01*
X010674Y001391D01*
X010684Y001430D01*
X010684Y001617D01*
X010386Y001617D01*
X010386Y001714D01*
X010684Y001714D01*
X010684Y001902D01*
X010674Y001940D01*
X010654Y001974D01*
X010626Y002002D01*
X011530Y002002D01*
X011539Y001994D02*
X011581Y001950D01*
X011583Y001950D01*
X011584Y001949D01*
X011644Y001949D01*
X011861Y001945D01*
X011861Y001831D01*
X011913Y001779D01*
X011903Y001776D01*
X011869Y001756D01*
X011841Y001728D01*
X011824Y001698D01*
X011796Y001726D01*
X011496Y001726D01*
X011494Y001724D01*
X011472Y001746D01*
X011438Y001766D01*
X011400Y001776D01*
X011276Y001776D01*
X011276Y001395D01*
X011268Y001395D01*
X011268Y001776D01*
X011144Y001776D01*
X011106Y001766D01*
X011072Y001746D01*
X011050Y001724D01*
X011048Y001726D01*
X010748Y001726D01*
X010690Y001668D01*
X010690Y001113D01*
X010718Y001084D01*
X010718Y000971D01*
X010902Y000787D01*
X011051Y000787D01*
X011642Y000787D01*
X011747Y000892D01*
X011826Y000971D01*
X011826Y001084D01*
X011847Y001105D01*
X011869Y001083D01*
X011903Y001063D01*
X011941Y001053D01*
X012109Y001053D01*
X012109Y001371D01*
X012206Y001371D01*
X012206Y001053D01*
X012374Y001053D01*
X012413Y001063D01*
X012447Y001083D01*
X012475Y001111D01*
X012494Y001145D01*
X012505Y001183D01*
X012505Y001371D01*
X012206Y001371D01*
X012206Y001468D01*
X012109Y001468D01*
X012109Y001371D01*
X011854Y001371D01*
X011854Y001468D01*
X012109Y001468D01*
X012109Y001773D01*
X012206Y001773D01*
X012206Y001468D01*
X012505Y001468D01*
X012505Y001656D01*
X012494Y001694D01*
X012475Y001728D01*
X012447Y001756D01*
X012413Y001776D01*
X012402Y001779D01*
X012455Y001831D01*
X012455Y002347D01*
X012409Y002393D01*
X012672Y002393D01*
X012724Y002445D01*
X012727Y002435D01*
X012746Y002400D01*
X012774Y002373D01*
X012809Y002353D01*
X012847Y002343D01*
X013034Y002343D01*
X013034Y002641D01*
X013131Y002641D01*
X013131Y002343D01*
X013319Y002343D01*
X013357Y002353D01*
X013392Y002373D01*
X013420Y002400D01*
X013439Y002435D01*
X013449Y002473D01*
X013449Y002641D01*
X013449Y002495D02*
X013938Y002495D01*
X013938Y002396D02*
X013415Y002396D01*
X013131Y002396D02*
X013034Y002396D01*
X013034Y002495D02*
X013131Y002495D01*
X013131Y002594D02*
X013034Y002594D01*
X013034Y002692D02*
X012730Y002692D01*
X012756Y002988D02*
X012594Y002988D01*
X012097Y002889D02*
X009969Y002889D01*
X010026Y002791D02*
X012097Y002791D01*
X012097Y002495D02*
X011854Y002495D01*
X011854Y002396D02*
X011910Y002396D01*
X011861Y002298D02*
X011854Y002298D01*
X011646Y002414D02*
X011646Y002099D01*
X012158Y002089D01*
X012455Y002101D02*
X013973Y002101D01*
X013938Y002199D02*
X012455Y002199D01*
X012455Y002298D02*
X013938Y002298D01*
X014319Y002101D02*
X014721Y002101D01*
X014744Y002078D02*
X015044Y002078D01*
X015102Y002136D01*
X015102Y002692D01*
X016879Y002692D01*
X016879Y002594D02*
X015102Y002594D01*
X015102Y002692D02*
X015044Y002750D01*
X014744Y002750D01*
X014686Y002692D01*
X014580Y002692D01*
X014686Y002692D02*
X014686Y002136D01*
X014744Y002078D01*
X014686Y002199D02*
X014354Y002199D01*
X014354Y002298D02*
X014686Y002298D01*
X014686Y002396D02*
X014354Y002396D01*
X014383Y002495D02*
X014686Y002495D01*
X014686Y002594D02*
X014482Y002594D01*
X014679Y002791D02*
X016879Y002791D01*
X016879Y002889D02*
X014777Y002889D01*
X014915Y002988D02*
X016879Y002988D01*
X016879Y003086D02*
X015073Y003086D01*
X015171Y003185D02*
X016879Y003185D01*
X016879Y003283D02*
X015270Y003283D01*
X015291Y003382D02*
X016879Y003382D01*
X016879Y003480D02*
X015291Y003480D01*
X015291Y003579D02*
X016879Y003579D01*
X016879Y003677D02*
X015291Y003677D01*
X015291Y003776D02*
X016879Y003776D01*
X016879Y003875D02*
X015291Y003875D01*
X015291Y003973D02*
X016879Y003973D01*
X016879Y004072D02*
X015291Y004072D01*
X015291Y004170D02*
X016879Y004170D01*
X016879Y004269D02*
X015291Y004269D01*
X015291Y004367D02*
X016879Y004367D01*
X016879Y004466D02*
X015291Y004466D01*
X015370Y004564D02*
X016879Y004564D01*
X016879Y004663D02*
X015468Y004663D01*
X015567Y004761D02*
X016879Y004761D01*
X016879Y004860D02*
X015666Y004860D01*
X015764Y004959D02*
X016879Y004959D01*
X016879Y005057D02*
X015863Y005057D01*
X015881Y005156D02*
X016879Y005156D01*
X016879Y005254D02*
X015881Y005254D01*
X015881Y005353D02*
X016879Y005353D01*
X016879Y005451D02*
X015881Y005451D01*
X015881Y005550D02*
X016879Y005550D01*
X016879Y005648D02*
X015881Y005648D01*
X015881Y005747D02*
X016879Y005747D01*
X016879Y005845D02*
X015881Y005845D01*
X015881Y005944D02*
X016879Y005944D01*
X016879Y006043D02*
X015881Y006043D01*
X015881Y006141D02*
X016879Y006141D01*
X016879Y006240D02*
X015881Y006240D01*
X015881Y006338D02*
X016879Y006338D01*
X016879Y006437D02*
X015881Y006437D01*
X015881Y006535D02*
X016879Y006535D01*
X016879Y006634D02*
X015881Y006634D01*
X015881Y006732D02*
X016879Y006732D01*
X016879Y006831D02*
X015881Y006831D01*
X015881Y006929D02*
X016879Y006929D01*
X016879Y007028D02*
X015881Y007028D01*
X015881Y007126D02*
X016879Y007126D01*
X016879Y007225D02*
X015849Y007225D01*
X015751Y007324D02*
X016879Y007324D01*
X016879Y007422D02*
X015652Y007422D01*
X015401Y007521D02*
X016879Y007521D01*
X016879Y007619D02*
X015024Y007619D01*
X015024Y007718D02*
X016879Y007718D01*
X016879Y007816D02*
X015024Y007816D01*
X014874Y007621D02*
X014569Y007315D01*
X014569Y006676D01*
X014719Y006535D02*
X014764Y006535D01*
X014764Y006539D02*
X014764Y006351D01*
X014774Y006313D01*
X014792Y006282D01*
X014774Y006251D01*
X014764Y006213D01*
X014764Y006025D01*
X015062Y006025D01*
X015062Y005928D01*
X014764Y005928D01*
X014764Y005741D01*
X014774Y005702D01*
X014794Y005668D01*
X014822Y005640D01*
X014856Y005621D01*
X014866Y005618D01*
X014814Y005566D01*
X014814Y005506D01*
X014380Y005506D01*
X014349Y005474D01*
X014336Y005487D01*
X014006Y005817D01*
X014006Y005860D01*
X014142Y005860D01*
X014262Y005981D01*
X014262Y006136D01*
X014398Y006136D01*
X014518Y006256D01*
X014518Y006426D01*
X014463Y006481D01*
X014463Y006492D01*
X014484Y006471D01*
X014654Y006471D01*
X014774Y006591D01*
X014774Y006636D01*
X015062Y006636D01*
X015062Y006539D01*
X014764Y006539D01*
X014774Y006634D02*
X015062Y006634D01*
X015062Y006538D02*
X015159Y006538D01*
X015159Y006221D01*
X015159Y006026D01*
X015062Y006026D01*
X015062Y006221D01*
X015062Y006538D01*
X015062Y006535D02*
X015159Y006535D01*
X015159Y006539D02*
X015159Y006636D01*
X015457Y006636D01*
X015457Y006823D01*
X015447Y006861D01*
X015427Y006896D01*
X015399Y006924D01*
X015365Y006943D01*
X015355Y006946D01*
X015407Y006998D01*
X015407Y007076D01*
X015489Y007076D01*
X015521Y007044D01*
X015521Y005225D01*
X015407Y005111D01*
X015407Y005566D01*
X015355Y005618D01*
X015365Y005621D01*
X015399Y005640D01*
X015427Y005668D01*
X015447Y005702D01*
X015457Y005741D01*
X015457Y005928D01*
X015159Y005928D01*
X015159Y006025D01*
X015457Y006025D01*
X015457Y006213D01*
X015447Y006251D01*
X015429Y006282D01*
X015447Y006313D01*
X015457Y006351D01*
X015457Y006539D01*
X015159Y006539D01*
X015159Y006634D02*
X015521Y006634D01*
X015521Y006732D02*
X015457Y006732D01*
X015455Y006831D02*
X015521Y006831D01*
X015521Y006929D02*
X015389Y006929D01*
X015407Y007028D02*
X015521Y007028D01*
X015521Y006535D02*
X015457Y006535D01*
X015457Y006437D02*
X015521Y006437D01*
X015521Y006338D02*
X015454Y006338D01*
X015450Y006240D02*
X015521Y006240D01*
X015521Y006141D02*
X015457Y006141D01*
X015457Y006043D02*
X015521Y006043D01*
X015521Y005944D02*
X015159Y005944D01*
X015062Y005944D02*
X014226Y005944D01*
X014262Y006043D02*
X014764Y006043D01*
X014764Y006141D02*
X014403Y006141D01*
X014502Y006240D02*
X014771Y006240D01*
X014767Y006338D02*
X014518Y006338D01*
X014507Y006437D02*
X014764Y006437D01*
X015062Y006437D02*
X015159Y006437D01*
X015159Y006338D02*
X015062Y006338D01*
X015062Y006240D02*
X015159Y006240D01*
X015159Y006141D02*
X015062Y006141D01*
X015062Y006043D02*
X015159Y006043D01*
X015457Y005845D02*
X015521Y005845D01*
X015521Y005747D02*
X015457Y005747D01*
X015408Y005648D02*
X015521Y005648D01*
X015521Y005550D02*
X015407Y005550D01*
X015407Y005451D02*
X015521Y005451D01*
X015521Y005353D02*
X015407Y005353D01*
X015407Y005254D02*
X015521Y005254D01*
X015452Y005156D02*
X015407Y005156D01*
X014814Y005550D02*
X014273Y005550D01*
X014175Y005648D02*
X014814Y005648D01*
X014764Y005747D02*
X014076Y005747D01*
X014006Y005845D02*
X014764Y005845D01*
X014313Y006341D02*
X014313Y007355D01*
X014618Y007660D01*
X014618Y008135D01*
X014363Y008135D02*
X014363Y007699D01*
X014057Y007394D01*
X014057Y006065D01*
X013457Y005353D02*
X013044Y005353D01*
X013052Y005451D02*
X013358Y005451D01*
X013341Y005550D02*
X013241Y005550D01*
X013340Y005648D02*
X013350Y005648D01*
X013347Y005747D02*
X013396Y005747D01*
X013396Y005845D02*
X013327Y005845D01*
X013396Y005944D02*
X013229Y005944D01*
X013164Y006043D02*
X013396Y006043D01*
X013396Y006141D02*
X013262Y006141D01*
X013292Y006240D02*
X013396Y006240D01*
X013396Y006338D02*
X013292Y006338D01*
X013292Y006437D02*
X013396Y006437D01*
X013396Y006535D02*
X013292Y006535D01*
X013292Y006634D02*
X013396Y006634D01*
X013396Y006732D02*
X013292Y006732D01*
X013292Y006831D02*
X013396Y006831D01*
X013396Y006929D02*
X013292Y006929D01*
X013292Y007028D02*
X013396Y007028D01*
X013396Y007126D02*
X013292Y007126D01*
X013292Y007225D02*
X013396Y007225D01*
X013396Y007324D02*
X013313Y007324D01*
X012992Y007324D02*
X012948Y007324D01*
X012840Y007718D02*
X011933Y007718D01*
X011933Y007816D02*
X012682Y007816D01*
X012619Y007915D02*
X011933Y007915D01*
X011933Y008013D02*
X012617Y008013D01*
X012827Y008013D02*
X012827Y008013D01*
X012827Y007915D02*
X012827Y007915D01*
X012827Y007816D02*
X012827Y007816D01*
X012664Y007619D02*
X011933Y007619D01*
X011616Y007798D02*
X011183Y007798D01*
X011807Y009196D02*
X015659Y009196D01*
X015659Y009294D02*
X011807Y009294D01*
X011773Y009393D02*
X015692Y009393D01*
X015733Y009492D02*
X011732Y009492D01*
X011664Y009590D02*
X011886Y009590D01*
X011787Y009689D02*
X011566Y009689D01*
X011688Y009787D02*
X011375Y009787D01*
X011590Y009886D02*
X008789Y009886D01*
X008614Y010219D02*
X008713Y010317D01*
X011666Y010317D01*
X012109Y009874D01*
X014372Y009874D01*
X014618Y010121D01*
X014618Y010433D01*
X014792Y009787D02*
X016090Y009787D01*
X015899Y009689D02*
X014694Y009689D01*
X014595Y009590D02*
X015801Y009590D01*
X015254Y008408D02*
X016879Y008408D01*
X016879Y008309D02*
X015290Y008309D01*
X015290Y008210D02*
X016879Y008210D01*
X016879Y008112D02*
X015290Y008112D01*
X015290Y008013D02*
X016879Y008013D01*
X016879Y007915D02*
X015290Y007915D01*
X014874Y008135D02*
X014874Y007621D01*
X014750Y008408D02*
X014742Y008408D01*
X014998Y008408D02*
X015006Y008408D01*
X014494Y008408D02*
X014487Y008408D01*
X014238Y008408D02*
X014231Y008408D01*
X013983Y008408D02*
X013975Y008408D01*
X013727Y008408D02*
X013719Y008408D01*
X013471Y008408D02*
X013463Y008408D01*
X012827Y008408D02*
X012827Y008408D01*
X012827Y008309D02*
X012827Y008309D01*
X012827Y008210D02*
X012827Y008210D01*
X012827Y008112D02*
X012827Y008112D01*
X012667Y010280D02*
X012211Y010280D01*
X012112Y010378D02*
X012667Y010378D01*
X012667Y010477D02*
X012013Y010477D01*
X011984Y010576D02*
X011915Y010576D01*
X012218Y010576D02*
X012314Y010576D01*
X012314Y010674D02*
X012218Y010674D01*
X012218Y010773D02*
X012314Y010773D01*
X012315Y010859D02*
X012315Y010956D01*
X012619Y010956D01*
X012619Y010859D01*
X012315Y010859D01*
X012315Y010871D02*
X012619Y010871D01*
X012935Y011164D02*
X012847Y011252D01*
X011813Y011252D01*
X011607Y011046D01*
X011607Y011006D01*
X011310Y010970D02*
X011234Y010970D01*
X011234Y011068D02*
X011310Y011068D01*
X011310Y011167D02*
X011234Y011167D01*
X011233Y011265D02*
X011311Y011265D01*
X011310Y010871D02*
X011234Y010871D01*
X011234Y010773D02*
X011310Y010773D01*
X010972Y009787D02*
X008296Y009787D01*
X008270Y010219D02*
X007532Y009481D01*
X007532Y008644D01*
X007846Y007608D02*
X007106Y007608D01*
X007190Y007525D01*
X007525Y007190D01*
X007869Y007190D01*
X007855Y007204D01*
X007835Y007238D01*
X007825Y007276D01*
X007825Y007405D01*
X008172Y007405D01*
X008172Y007423D01*
X007825Y007423D01*
X007825Y007552D01*
X007835Y007590D01*
X007846Y007608D01*
X007825Y007521D02*
X007194Y007521D01*
X007293Y007422D02*
X008172Y007422D01*
X007825Y007324D02*
X007391Y007324D01*
X007490Y007225D02*
X007842Y007225D01*
X006794Y005298D02*
X006597Y005101D01*
X006142Y005101D01*
X006142Y004845D02*
X006636Y004845D01*
X006999Y004959D02*
X007117Y004959D01*
X007019Y005057D02*
X006999Y005057D01*
X006142Y004589D02*
X006142Y004589D01*
X006141Y004589D02*
X005717Y004589D01*
X006141Y004589D01*
X006141Y004589D01*
X005758Y004761D02*
X005516Y004761D01*
X005516Y004663D02*
X005717Y004663D01*
X005717Y004564D02*
X005516Y004564D01*
X005516Y004466D02*
X005726Y004466D01*
X005767Y004367D02*
X005525Y004367D01*
X005623Y004269D02*
X005767Y004269D01*
X005767Y004860D02*
X005475Y004860D01*
X005376Y004959D02*
X005770Y004959D01*
X005216Y004663D02*
X004384Y004663D01*
X004384Y004761D02*
X004727Y004761D01*
X004669Y004860D02*
X004384Y004860D01*
X004384Y004959D02*
X004669Y004959D01*
X004738Y005057D02*
X004384Y005057D01*
X004384Y004564D02*
X004607Y004564D01*
X004607Y004466D02*
X004384Y004466D01*
X004384Y004367D02*
X004607Y004367D01*
X004607Y004269D02*
X004384Y004269D01*
X004351Y004170D02*
X004529Y004170D01*
X004924Y004353D02*
X004195Y003624D01*
X004185Y003514D01*
X004087Y003526D01*
X004087Y003516D01*
X005172Y003382D02*
X005198Y003382D01*
X005172Y003283D02*
X005245Y003283D01*
X006142Y003054D02*
X007109Y003054D01*
X007138Y003083D01*
X007138Y003378D02*
X006794Y003378D01*
X006607Y003565D01*
X006142Y003565D01*
X006142Y002798D02*
X007128Y002798D01*
X007138Y002788D01*
X007326Y003776D02*
X008075Y003776D01*
X007976Y003875D02*
X007227Y003875D01*
X007049Y003875D02*
X006903Y003875D01*
X008622Y001805D02*
X009990Y001805D01*
X009990Y001902D02*
X010000Y001940D01*
X010020Y001974D01*
X010048Y002002D01*
X010288Y001707D02*
X008721Y001707D01*
X008783Y001608D02*
X009990Y001608D01*
X009990Y001510D02*
X008824Y001510D01*
X008854Y001411D02*
X009995Y001411D01*
X010077Y001312D02*
X008854Y001312D01*
X008854Y001214D02*
X010690Y001214D01*
X010690Y001312D02*
X010597Y001312D01*
X010679Y001411D02*
X010690Y001411D01*
X010684Y001510D02*
X010690Y001510D01*
X010684Y001608D02*
X010690Y001608D01*
X010728Y001707D02*
X010386Y001707D01*
X010385Y001608D02*
X010288Y001608D01*
X010288Y001510D02*
X010385Y001510D01*
X010385Y001411D02*
X010288Y001411D01*
X010288Y001312D02*
X010385Y001312D01*
X010690Y001115D02*
X008825Y001115D01*
X008784Y001017D02*
X010718Y001017D01*
X010771Y000918D02*
X008723Y000918D01*
X008624Y000820D02*
X010869Y000820D01*
X011268Y001411D02*
X011276Y001411D01*
X011268Y001510D02*
X011276Y001510D01*
X011268Y001608D02*
X011276Y001608D01*
X011268Y001707D02*
X011276Y001707D01*
X011539Y001994D02*
X011496Y002037D01*
X011496Y002038D01*
X011495Y002040D01*
X011496Y002078D01*
X011438Y002136D01*
X011438Y002692D01*
X011438Y002594D02*
X011106Y002594D01*
X011106Y002692D02*
X011106Y002136D01*
X011048Y002078D01*
X010748Y002078D01*
X010690Y002136D01*
X010690Y002234D01*
X010634Y002234D01*
X010634Y002077D01*
X010581Y002025D01*
X010592Y002022D01*
X010626Y002002D01*
X010634Y002101D02*
X010725Y002101D01*
X010690Y002199D02*
X010634Y002199D01*
X010683Y001904D02*
X011861Y001904D01*
X011887Y001805D02*
X010684Y001805D01*
X011071Y002101D02*
X011473Y002101D01*
X011438Y002199D02*
X011106Y002199D01*
X011106Y002298D02*
X011438Y002298D01*
X011438Y002396D02*
X011106Y002396D01*
X011106Y002495D02*
X011438Y002495D01*
X010690Y002594D02*
X010633Y002594D01*
X010575Y002652D01*
X010099Y002652D01*
X010044Y002597D01*
X010044Y002739D01*
X010690Y002692D02*
X010690Y002594D01*
X011815Y001707D02*
X011828Y001707D01*
X012109Y001707D02*
X012206Y001707D01*
X012206Y001608D02*
X012109Y001608D01*
X012109Y001510D02*
X012206Y001510D01*
X012206Y001411D02*
X013938Y001411D01*
X013938Y001312D02*
X012505Y001312D01*
X012505Y001214D02*
X013938Y001214D01*
X013938Y001115D02*
X012477Y001115D01*
X012206Y001115D02*
X012109Y001115D01*
X012109Y001214D02*
X012206Y001214D01*
X012206Y001312D02*
X012109Y001312D01*
X012109Y001411D02*
X011854Y001411D01*
X011826Y001017D02*
X013966Y001017D01*
X013966Y000971D02*
X014045Y000892D01*
X014150Y000787D01*
X014890Y000787D01*
X014995Y000892D01*
X015074Y000971D01*
X015074Y001084D01*
X015102Y001113D01*
X015102Y001668D01*
X015044Y001726D01*
X014744Y001726D01*
X014742Y001724D01*
X014720Y001746D01*
X014686Y001766D01*
X014648Y001776D01*
X014524Y001776D01*
X014524Y001395D01*
X014516Y001395D01*
X014516Y001776D01*
X014392Y001776D01*
X014354Y001766D01*
X014320Y001746D01*
X014298Y001724D01*
X014296Y001726D01*
X013996Y001726D01*
X013938Y001668D01*
X013938Y001113D01*
X013966Y001084D01*
X013966Y000971D01*
X014019Y000918D02*
X011773Y000918D01*
X011674Y000820D02*
X014117Y000820D01*
X014516Y001411D02*
X014524Y001411D01*
X014516Y001510D02*
X014524Y001510D01*
X014516Y001608D02*
X014524Y001608D01*
X014516Y001707D02*
X014524Y001707D01*
X015063Y001707D02*
X015595Y001707D01*
X015532Y001608D02*
X015102Y001608D01*
X015102Y001510D02*
X015492Y001510D01*
X015462Y001411D02*
X015102Y001411D01*
X015102Y001312D02*
X015462Y001312D01*
X015462Y001214D02*
X015102Y001214D01*
X015102Y001115D02*
X015491Y001115D01*
X015532Y001017D02*
X015074Y001017D01*
X015021Y000918D02*
X015593Y000918D01*
X015691Y000820D02*
X014923Y000820D01*
X015693Y001805D02*
X012429Y001805D01*
X012455Y001904D02*
X015870Y001904D01*
X016319Y001904D02*
X016879Y001904D01*
X016879Y002002D02*
X012455Y002002D01*
X012487Y001707D02*
X013976Y001707D01*
X013938Y001608D02*
X012505Y001608D01*
X012505Y001510D02*
X013938Y001510D01*
X014170Y002791D02*
X013449Y002791D01*
X012750Y002396D02*
X012675Y002396D01*
X012789Y003776D02*
X012904Y003776D01*
X012904Y003875D02*
X012789Y003875D01*
X012748Y003973D02*
X012946Y003973D01*
X012874Y004170D02*
X012756Y004170D01*
X012789Y004269D02*
X012854Y004269D01*
X012854Y004367D02*
X012789Y004367D01*
X012789Y004466D02*
X012854Y004466D01*
X012789Y004564D02*
X013230Y004564D01*
X013230Y004466D02*
X013330Y004466D01*
X013330Y004367D02*
X013230Y004367D01*
X013230Y004269D02*
X013330Y004269D01*
X013330Y004170D02*
X013230Y004170D01*
X013613Y004072D02*
X011671Y004072D01*
X012414Y004560D02*
X012414Y005603D01*
X012551Y005741D01*
X013032Y005550D02*
X013043Y005550D01*
X012945Y005254D02*
X013613Y005254D01*
X013613Y005057D02*
X012564Y005057D01*
X012747Y004959D02*
X012880Y004959D01*
X012854Y004860D02*
X012789Y004860D01*
X012789Y004761D02*
X012854Y004761D01*
X012854Y004663D02*
X012789Y004663D01*
X013230Y004663D02*
X013330Y004663D01*
X013330Y004761D02*
X013230Y004761D01*
X013230Y004860D02*
X013330Y004860D01*
X013330Y004959D02*
X013230Y004959D01*
X012264Y005057D02*
X010044Y005057D01*
X010037Y005156D02*
X012264Y005156D01*
X012264Y005254D02*
X009938Y005254D01*
X007658Y001608D02*
X004345Y001608D01*
X004384Y001510D02*
X007618Y001510D01*
X007588Y001411D02*
X004384Y001411D01*
X004384Y001312D02*
X007588Y001312D01*
X007588Y001214D02*
X004384Y001214D01*
X004384Y001115D02*
X007617Y001115D01*
X007658Y001017D02*
X004384Y001017D01*
X004384Y000918D02*
X007719Y000918D01*
X007817Y000820D02*
X004384Y000820D01*
X003831Y002101D02*
X003831Y002101D01*
X003831Y002199D02*
X003831Y002199D01*
X008270Y010219D02*
X008614Y010219D01*
X005955Y010576D02*
X005879Y010576D01*
X005900Y010674D02*
X005955Y010674D01*
X005955Y010773D02*
X005900Y010773D01*
X012166Y015995D02*
X013497Y015995D01*
X013595Y016094D02*
X012166Y016094D01*
X012166Y016192D02*
X013694Y016192D01*
X013792Y016291D02*
X012475Y016291D01*
X012531Y016587D02*
X015672Y016587D01*
X015574Y016685D02*
X012531Y016685D01*
X012531Y016784D02*
X015524Y016784D01*
X015483Y016882D02*
X012531Y016882D01*
X012531Y016981D02*
X015462Y016981D01*
X015462Y017079D02*
X012531Y017079D01*
X012531Y017178D02*
X015462Y017178D01*
X015499Y017276D02*
X012531Y017276D01*
X012227Y015897D02*
X013398Y015897D01*
X013300Y015798D02*
X012325Y015798D01*
X012968Y015700D02*
X013201Y015700D01*
X013709Y015207D02*
X014299Y015207D01*
X014299Y015109D02*
X013611Y015109D01*
X013512Y015010D02*
X014299Y015010D01*
X014311Y014911D02*
X013414Y014911D01*
X013808Y015306D02*
X014299Y015306D01*
X014299Y015404D02*
X013907Y015404D01*
X014005Y015503D02*
X014299Y015503D01*
X014304Y015601D02*
X014104Y015601D01*
X014553Y015207D02*
X014562Y015207D01*
X014553Y015109D02*
X014562Y015109D01*
X014553Y015010D02*
X014562Y015010D01*
X014553Y014911D02*
X014562Y014911D01*
X014803Y014911D02*
X014869Y014911D01*
X014849Y015010D02*
X014816Y015010D01*
X014816Y015109D02*
X014849Y015109D01*
X014849Y015207D02*
X014816Y015207D01*
X014816Y015306D02*
X014849Y015306D01*
X014849Y015404D02*
X014816Y015404D01*
X014816Y015503D02*
X014849Y015503D01*
X014849Y015601D02*
X014811Y015601D01*
X014618Y013926D02*
X016879Y013926D01*
X016879Y013827D02*
X014707Y013827D01*
X014707Y013729D02*
X016879Y013729D01*
X016879Y013630D02*
X014707Y013630D01*
X014713Y013532D02*
X014831Y013532D01*
X014799Y013433D02*
X014766Y013433D01*
X014766Y013335D02*
X014799Y013335D01*
X014799Y013236D02*
X014766Y013236D01*
X014766Y013138D02*
X014799Y013138D01*
X014799Y013039D02*
X014766Y013039D01*
X014766Y012941D02*
X014799Y012941D01*
X014508Y012743D02*
X014325Y012743D01*
X014325Y012645D02*
X014508Y012645D01*
X014508Y012448D02*
X014373Y012448D01*
X014325Y012546D02*
X014826Y012546D01*
X014508Y012349D02*
X014472Y012349D01*
X014349Y012842D02*
X014325Y012842D01*
X015053Y013236D02*
X015062Y013236D01*
X015053Y013335D02*
X015062Y013335D01*
X015053Y013433D02*
X015062Y013433D01*
X015053Y013532D02*
X015062Y013532D01*
X015283Y013532D02*
X015402Y013532D01*
X015349Y013433D02*
X015316Y013433D01*
X015316Y013335D02*
X015349Y013335D01*
X015349Y013236D02*
X015316Y013236D01*
X015316Y013138D02*
X015349Y013138D01*
X015349Y013039D02*
X015316Y013039D01*
X015316Y012941D02*
X015349Y012941D01*
X015349Y012842D02*
X015316Y012842D01*
X015766Y012842D02*
X015849Y012842D01*
X015849Y012941D02*
X015766Y012941D01*
X015766Y013039D02*
X015849Y013039D01*
X015849Y013138D02*
X015766Y013138D01*
X015766Y013236D02*
X015849Y013236D01*
X015849Y013335D02*
X015766Y013335D01*
X015766Y013433D02*
X015849Y013433D01*
X015902Y013532D02*
X015713Y013532D01*
X016057Y013142D02*
X016057Y012347D01*
X015898Y012187D01*
X015976Y012054D02*
X016879Y012054D01*
X016879Y012152D02*
X016075Y012152D01*
X016173Y012251D02*
X016879Y012251D01*
X016879Y012349D02*
X016207Y012349D01*
X016207Y012448D02*
X016879Y012448D01*
X016879Y012546D02*
X016207Y012546D01*
X016207Y012645D02*
X016879Y012645D01*
X016879Y012743D02*
X016207Y012743D01*
X016266Y012842D02*
X016879Y012842D01*
X016879Y012941D02*
X016266Y012941D01*
X016266Y013039D02*
X016879Y013039D01*
X016879Y013138D02*
X016266Y013138D01*
X016266Y013236D02*
X016879Y013236D01*
X016879Y013335D02*
X016266Y013335D01*
X016266Y013433D02*
X016879Y013433D01*
X016879Y013532D02*
X016213Y013532D01*
X015907Y012743D02*
X015860Y012743D01*
X015860Y012645D02*
X015907Y012645D01*
X015907Y012546D02*
X015860Y012546D01*
X015860Y012448D02*
X015907Y012448D01*
X016631Y011955D02*
X016879Y011955D01*
X016879Y011857D02*
X016729Y011857D01*
X016828Y011758D02*
X016879Y011758D01*
X016516Y011561D02*
X015939Y011561D01*
X012935Y011164D02*
X012935Y010908D01*
X012667Y010576D02*
X012548Y010576D01*
X012314Y010957D02*
X012314Y011102D01*
X012218Y011102D01*
X012218Y010957D01*
X012314Y010957D01*
X012314Y010970D02*
X012218Y010970D01*
X012218Y011068D02*
X012314Y011068D01*
X014570Y004471D02*
X014667Y004471D01*
X014667Y004154D01*
X014667Y003959D01*
X014570Y003959D01*
X014570Y004154D01*
X014570Y004471D01*
X014570Y004466D02*
X014667Y004466D01*
X014667Y004367D02*
X014570Y004367D01*
X014570Y004269D02*
X014667Y004269D01*
X014667Y004170D02*
X014570Y004170D01*
X014570Y004072D02*
X014667Y004072D01*
X014667Y003973D02*
X014570Y003973D01*
X014570Y003958D02*
X014424Y003958D01*
X014424Y003861D01*
X014570Y003861D01*
X014667Y003861D01*
X014667Y003557D01*
X014570Y003557D01*
X014570Y003861D01*
X014570Y003958D01*
X014570Y003875D02*
X014424Y003875D01*
X014570Y003776D02*
X014667Y003776D01*
X014667Y003861D02*
X014931Y003861D01*
X014931Y003958D01*
X014667Y003958D01*
X014667Y003861D01*
X014667Y003875D02*
X014931Y003875D01*
X014667Y003677D02*
X014570Y003677D01*
X014570Y003579D02*
X014667Y003579D01*
X015102Y002495D02*
X016879Y002495D01*
X016879Y002396D02*
X015102Y002396D01*
X015102Y002298D02*
X016879Y002298D01*
X016879Y002199D02*
X015102Y002199D01*
X015067Y002101D02*
X016879Y002101D01*
X016879Y001805D02*
X016496Y001805D01*
X016595Y001707D02*
X016879Y001707D01*
X016879Y001608D02*
X016657Y001608D01*
X016698Y001510D02*
X016879Y001510D01*
X016879Y001411D02*
X016728Y001411D01*
X016728Y001312D02*
X016879Y001312D01*
X016879Y001214D02*
X016728Y001214D01*
X016699Y001115D02*
X016879Y001115D01*
X016879Y001017D02*
X016658Y001017D01*
X016597Y000918D02*
X016879Y000918D01*
X016879Y000820D02*
X016498Y000820D01*
D32*
X004863Y013123D03*
D33*
X008696Y008494D02*
X008713Y008379D01*
X008713Y007561D01*
X008861Y007414D01*
X009244Y007414D01*
X008713Y007561D02*
X008713Y006725D01*
X008861Y006577D01*
X009303Y006577D01*
X009805Y006075D01*
X009805Y005839D01*
X009805Y005583D01*
X009943Y005445D01*
X011311Y005445D01*
X011616Y005750D01*
X012414Y003575D02*
X013280Y003575D01*
X013929Y003910D02*
X013929Y004398D01*
X013953Y004422D01*
X013929Y004422D01*
X014618Y003241D02*
X014973Y003241D01*
X015111Y003378D01*
X015111Y004560D01*
X015701Y005150D01*
X015701Y007119D01*
X015563Y007256D01*
X015111Y007256D01*
X015071Y007256D01*
X014963Y007365D01*
X013083Y008135D02*
X013083Y008939D01*
X015642Y011794D02*
X016538Y011794D01*
X016735Y011597D01*
X016735Y010121D01*
X015544Y012532D02*
X015557Y012735D01*
X015557Y013142D01*
X015057Y013142D02*
X015057Y012715D01*
X014874Y012532D01*
X013811Y013142D02*
X013742Y013211D01*
X013733Y013211D01*
X013733Y012542D02*
X013628Y012437D01*
X013142Y012437D01*
X011937Y013073D02*
X011937Y013955D01*
X012433Y014451D01*
X012699Y014451D01*
X014077Y015829D01*
X014914Y015829D01*
X015057Y015686D01*
X015057Y015268D01*
X015557Y015268D02*
X015557Y015776D01*
X015209Y016124D01*
X013880Y016124D01*
X013191Y015436D01*
X012433Y015436D01*
X011986Y015883D01*
X011986Y016813D01*
X003351Y007603D02*
X002471Y007603D01*
X002463Y007611D01*
X005416Y005455D02*
X005514Y005357D01*
X006142Y005357D01*
X004185Y003516D02*
X004185Y003514D01*
X004185Y003516D02*
X003831Y003516D01*
X010337Y002335D02*
X010406Y002414D01*
X010898Y002414D01*
X010898Y001390D02*
X010898Y001046D01*
X010977Y000967D01*
X011567Y000967D01*
X011646Y001046D01*
X011646Y001390D01*
X012414Y002689D02*
X012414Y003575D01*
X014146Y002512D02*
X014146Y002414D01*
X014146Y002512D02*
X014618Y002985D01*
X014618Y003241D01*
X014894Y001390D02*
X014894Y001046D01*
X014815Y000967D01*
X014225Y000967D01*
X014146Y001046D01*
X014146Y001390D01*
D34*
X007138Y012532D03*
D35*
X011124Y006774D03*
X011124Y006282D03*
D36*
X016292Y003674D03*
D37*
X013929Y005091D02*
X013929Y005170D01*
X013083Y010433D02*
X012827Y010433D01*
X012935Y010541D01*
D38*
X012935Y010908D01*
M02*
