G04 This is an RS-274x file exported by *
G04 gerbv version 2.6.1 *
G04 More information is available about gerbv at *
G04 http://gerbv.geda-project.org/ *
G04 --End of header info--*
%MOIN*%
%FSLAX34Y34*%
%IPPOS*%
G04 --Define apertures--*
%ADD10C,0.0000*%
G04 --Start main section--*
G54D10*
G01X0000937Y0000524D02*
G01X0000937Y0017847D01*
G01X0000937Y0017847D02*
G01X0017079Y0017847D01*
G01X0017079Y0017847D02*
G01X0017079Y0000524D01*
G01X0017079Y0000524D02*
G01X0000937Y0000524D01*
G01X0002630Y0002020D02*
G01X0002632Y0002046D01*
G01X0002632Y0002046D02*
G01X0002638Y0002072D01*
G01X0002638Y0002072D02*
G01X0002648Y0002097D01*
G01X0002648Y0002097D02*
G01X0002661Y0002120D01*
G01X0002661Y0002120D02*
G01X0002677Y0002140D01*
G01X0002677Y0002140D02*
G01X0002697Y0002158D01*
G01X0002697Y0002158D02*
G01X0002719Y0002173D01*
G01X0002719Y0002173D02*
G01X0002742Y0002185D01*
G01X0002742Y0002185D02*
G01X0002768Y0002193D01*
G01X0002768Y0002193D02*
G01X0002794Y0002197D01*
G01X0002794Y0002197D02*
G01X0002820Y0002197D01*
G01X0002820Y0002197D02*
G01X0002846Y0002193D01*
G01X0002846Y0002193D02*
G01X0002872Y0002185D01*
G01X0002872Y0002185D02*
G01X0002896Y0002173D01*
G01X0002896Y0002173D02*
G01X0002917Y0002158D01*
G01X0002917Y0002158D02*
G01X0002937Y0002140D01*
G01X0002937Y0002140D02*
G01X0002953Y0002120D01*
G01X0002953Y0002120D02*
G01X0002966Y0002097D01*
G01X0002966Y0002097D02*
G01X0002976Y0002072D01*
G01X0002976Y0002072D02*
G01X0002982Y0002046D01*
G01X0002982Y0002046D02*
G01X0002984Y0002020D01*
G01X0002984Y0002020D02*
G01X0002982Y0001994D01*
G01X0002982Y0001994D02*
G01X0002976Y0001968D01*
G01X0002976Y0001968D02*
G01X0002966Y0001943D01*
G01X0002966Y0001943D02*
G01X0002953Y0001920D01*
G01X0002953Y0001920D02*
G01X0002937Y0001900D01*
G01X0002937Y0001900D02*
G01X0002917Y0001882D01*
G01X0002917Y0001882D02*
G01X0002895Y0001867D01*
G01X0002895Y0001867D02*
G01X0002872Y0001855D01*
G01X0002872Y0001855D02*
G01X0002846Y0001847D01*
G01X0002846Y0001847D02*
G01X0002820Y0001843D01*
G01X0002820Y0001843D02*
G01X0002794Y0001843D01*
G01X0002794Y0001843D02*
G01X0002768Y0001847D01*
G01X0002768Y0001847D02*
G01X0002742Y0001855D01*
G01X0002742Y0001855D02*
G01X0002718Y0001867D01*
G01X0002718Y0001867D02*
G01X0002697Y0001882D01*
G01X0002697Y0001882D02*
G01X0002677Y0001900D01*
G01X0002677Y0001900D02*
G01X0002661Y0001920D01*
G01X0002661Y0001920D02*
G01X0002648Y0001943D01*
G01X0002648Y0001943D02*
G01X0002638Y0001968D01*
G01X0002638Y0001968D02*
G01X0002632Y0001994D01*
G01X0002632Y0001994D02*
G01X0002630Y0002020D01*
G01X0002630Y0003752D02*
G01X0002632Y0003778D01*
G01X0002632Y0003778D02*
G01X0002638Y0003804D01*
G01X0002638Y0003804D02*
G01X0002648Y0003829D01*
G01X0002648Y0003829D02*
G01X0002661Y0003852D01*
G01X0002661Y0003852D02*
G01X0002677Y0003872D01*
G01X0002677Y0003872D02*
G01X0002697Y0003890D01*
G01X0002697Y0003890D02*
G01X0002719Y0003905D01*
G01X0002719Y0003905D02*
G01X0002742Y0003917D01*
G01X0002742Y0003917D02*
G01X0002768Y0003925D01*
G01X0002768Y0003925D02*
G01X0002794Y0003929D01*
G01X0002794Y0003929D02*
G01X0002820Y0003929D01*
G01X0002820Y0003929D02*
G01X0002846Y0003925D01*
G01X0002846Y0003925D02*
G01X0002872Y0003917D01*
G01X0002872Y0003917D02*
G01X0002896Y0003905D01*
G01X0002896Y0003905D02*
G01X0002917Y0003890D01*
G01X0002917Y0003890D02*
G01X0002937Y0003872D01*
G01X0002937Y0003872D02*
G01X0002953Y0003852D01*
G01X0002953Y0003852D02*
G01X0002966Y0003829D01*
G01X0002966Y0003829D02*
G01X0002976Y0003804D01*
G01X0002976Y0003804D02*
G01X0002982Y0003778D01*
G01X0002982Y0003778D02*
G01X0002984Y0003752D01*
G01X0002984Y0003752D02*
G01X0002982Y0003726D01*
G01X0002982Y0003726D02*
G01X0002976Y0003700D01*
G01X0002976Y0003700D02*
G01X0002966Y0003675D01*
G01X0002966Y0003675D02*
G01X0002953Y0003652D01*
G01X0002953Y0003652D02*
G01X0002937Y0003632D01*
G01X0002937Y0003632D02*
G01X0002917Y0003614D01*
G01X0002917Y0003614D02*
G01X0002895Y0003599D01*
G01X0002895Y0003599D02*
G01X0002872Y0003587D01*
G01X0002872Y0003587D02*
G01X0002846Y0003579D01*
G01X0002846Y0003579D02*
G01X0002820Y0003575D01*
G01X0002820Y0003575D02*
G01X0002794Y0003575D01*
G01X0002794Y0003575D02*
G01X0002768Y0003579D01*
G01X0002768Y0003579D02*
G01X0002742Y0003587D01*
G01X0002742Y0003587D02*
G01X0002718Y0003599D01*
G01X0002718Y0003599D02*
G01X0002697Y0003614D01*
G01X0002697Y0003614D02*
G01X0002677Y0003632D01*
G01X0002677Y0003632D02*
G01X0002661Y0003652D01*
G01X0002661Y0003652D02*
G01X0002648Y0003675D01*
G01X0002648Y0003675D02*
G01X0002638Y0003700D01*
G01X0002638Y0003700D02*
G01X0002632Y0003726D01*
G01X0002632Y0003726D02*
G01X0002630Y0003752D01*
G01X0007788Y0001311D02*
G01X0007790Y0001352D01*
G01X0007790Y0001352D02*
G01X0007796Y0001393D01*
G01X0007796Y0001393D02*
G01X0007806Y0001433D01*
G01X0007806Y0001433D02*
G01X0007819Y0001472D01*
G01X0007819Y0001472D02*
G01X0007836Y0001509D01*
G01X0007836Y0001509D02*
G01X0007857Y0001545D01*
G01X0007857Y0001545D02*
G01X0007881Y0001579D01*
G01X0007881Y0001579D02*
G01X0007908Y0001610D01*
G01X0007908Y0001610D02*
G01X0007937Y0001638D01*
G01X0007937Y0001638D02*
G01X0007970Y0001664D01*
G01X0007970Y0001664D02*
G01X0008004Y0001686D01*
G01X0008004Y0001686D02*
G01X0008041Y0001705D01*
G01X0008041Y0001705D02*
G01X0008079Y0001720D01*
G01X0008079Y0001720D02*
G01X0008119Y0001732D01*
G01X0008119Y0001732D02*
G01X0008159Y0001740D01*
G01X0008159Y0001740D02*
G01X0008200Y0001744D01*
G01X0008200Y0001744D02*
G01X0008242Y0001744D01*
G01X0008242Y0001744D02*
G01X0008283Y0001740D01*
G01X0008283Y0001740D02*
G01X0008323Y0001732D01*
G01X0008323Y0001732D02*
G01X0008363Y0001720D01*
G01X0008363Y0001720D02*
G01X0008401Y0001705D01*
G01X0008401Y0001705D02*
G01X0008437Y0001686D01*
G01X0008437Y0001686D02*
G01X0008472Y0001664D01*
G01X0008472Y0001664D02*
G01X0008505Y0001638D01*
G01X0008505Y0001638D02*
G01X0008534Y0001610D01*
G01X0008534Y0001610D02*
G01X0008561Y0001579D01*
G01X0008561Y0001579D02*
G01X0008585Y0001545D01*
G01X0008585Y0001545D02*
G01X0008606Y0001509D01*
G01X0008606Y0001509D02*
G01X0008623Y0001472D01*
G01X0008623Y0001472D02*
G01X0008636Y0001433D01*
G01X0008636Y0001433D02*
G01X0008646Y0001393D01*
G01X0008646Y0001393D02*
G01X0008652Y0001352D01*
G01X0008652Y0001352D02*
G01X0008654Y0001311D01*
G01X0008654Y0001311D02*
G01X0008652Y0001270D01*
G01X0008652Y0001270D02*
G01X0008646Y0001229D01*
G01X0008646Y0001229D02*
G01X0008636Y0001189D01*
G01X0008636Y0001189D02*
G01X0008623Y0001150D01*
G01X0008623Y0001150D02*
G01X0008606Y0001113D01*
G01X0008606Y0001113D02*
G01X0008585Y0001077D01*
G01X0008585Y0001077D02*
G01X0008561Y0001043D01*
G01X0008561Y0001043D02*
G01X0008534Y0001012D01*
G01X0008534Y0001012D02*
G01X0008505Y0000984D01*
G01X0008505Y0000984D02*
G01X0008472Y0000958D01*
G01X0008472Y0000958D02*
G01X0008438Y0000936D01*
G01X0008438Y0000936D02*
G01X0008401Y0000917D01*
G01X0008401Y0000917D02*
G01X0008363Y0000902D01*
G01X0008363Y0000902D02*
G01X0008323Y0000890D01*
G01X0008323Y0000890D02*
G01X0008283Y0000882D01*
G01X0008283Y0000882D02*
G01X0008242Y0000878D01*
G01X0008242Y0000878D02*
G01X0008200Y0000878D01*
G01X0008200Y0000878D02*
G01X0008159Y0000882D01*
G01X0008159Y0000882D02*
G01X0008119Y0000890D01*
G01X0008119Y0000890D02*
G01X0008079Y0000902D01*
G01X0008079Y0000902D02*
G01X0008041Y0000917D01*
G01X0008041Y0000917D02*
G01X0008005Y0000936D01*
G01X0008005Y0000936D02*
G01X0007970Y0000958D01*
G01X0007970Y0000958D02*
G01X0007937Y0000984D01*
G01X0007937Y0000984D02*
G01X0007908Y0001012D01*
G01X0007908Y0001012D02*
G01X0007881Y0001043D01*
G01X0007881Y0001043D02*
G01X0007857Y0001077D01*
G01X0007857Y0001077D02*
G01X0007836Y0001113D01*
G01X0007836Y0001113D02*
G01X0007819Y0001150D01*
G01X0007819Y0001150D02*
G01X0007806Y0001189D01*
G01X0007806Y0001189D02*
G01X0007796Y0001229D01*
G01X0007796Y0001229D02*
G01X0007790Y0001270D01*
G01X0007790Y0001270D02*
G01X0007788Y0001311D01*
G01X0010741Y0003674D02*
G01X0010743Y0003715D01*
G01X0010743Y0003715D02*
G01X0010749Y0003756D01*
G01X0010749Y0003756D02*
G01X0010759Y0003796D01*
G01X0010759Y0003796D02*
G01X0010772Y0003835D01*
G01X0010772Y0003835D02*
G01X0010789Y0003872D01*
G01X0010789Y0003872D02*
G01X0010810Y0003908D01*
G01X0010810Y0003908D02*
G01X0010834Y0003942D01*
G01X0010834Y0003942D02*
G01X0010861Y0003973D01*
G01X0010861Y0003973D02*
G01X0010890Y0004001D01*
G01X0010890Y0004001D02*
G01X0010923Y0004027D01*
G01X0010923Y0004027D02*
G01X0010957Y0004049D01*
G01X0010957Y0004049D02*
G01X0010994Y0004068D01*
G01X0010994Y0004068D02*
G01X0011032Y0004083D01*
G01X0011032Y0004083D02*
G01X0011072Y0004095D01*
G01X0011072Y0004095D02*
G01X0011112Y0004103D01*
G01X0011112Y0004103D02*
G01X0011153Y0004107D01*
G01X0011153Y0004107D02*
G01X0011195Y0004107D01*
G01X0011195Y0004107D02*
G01X0011236Y0004103D01*
G01X0011236Y0004103D02*
G01X0011276Y0004095D01*
G01X0011276Y0004095D02*
G01X0011316Y0004083D01*
G01X0011316Y0004083D02*
G01X0011354Y0004068D01*
G01X0011354Y0004068D02*
G01X0011390Y0004049D01*
G01X0011390Y0004049D02*
G01X0011425Y0004027D01*
G01X0011425Y0004027D02*
G01X0011458Y0004001D01*
G01X0011458Y0004001D02*
G01X0011487Y0003973D01*
G01X0011487Y0003973D02*
G01X0011514Y0003942D01*
G01X0011514Y0003942D02*
G01X0011538Y0003908D01*
G01X0011538Y0003908D02*
G01X0011559Y0003872D01*
G01X0011559Y0003872D02*
G01X0011576Y0003835D01*
G01X0011576Y0003835D02*
G01X0011589Y0003796D01*
G01X0011589Y0003796D02*
G01X0011599Y0003756D01*
G01X0011599Y0003756D02*
G01X0011605Y0003715D01*
G01X0011605Y0003715D02*
G01X0011607Y0003674D01*
G01X0011607Y0003674D02*
G01X0011605Y0003633D01*
G01X0011605Y0003633D02*
G01X0011599Y0003592D01*
G01X0011599Y0003592D02*
G01X0011589Y0003552D01*
G01X0011589Y0003552D02*
G01X0011576Y0003513D01*
G01X0011576Y0003513D02*
G01X0011559Y0003476D01*
G01X0011559Y0003476D02*
G01X0011538Y0003440D01*
G01X0011538Y0003440D02*
G01X0011514Y0003406D01*
G01X0011514Y0003406D02*
G01X0011487Y0003375D01*
G01X0011487Y0003375D02*
G01X0011458Y0003347D01*
G01X0011458Y0003347D02*
G01X0011425Y0003321D01*
G01X0011425Y0003321D02*
G01X0011391Y0003299D01*
G01X0011391Y0003299D02*
G01X0011354Y0003280D01*
G01X0011354Y0003280D02*
G01X0011316Y0003265D01*
G01X0011316Y0003265D02*
G01X0011276Y0003253D01*
G01X0011276Y0003253D02*
G01X0011236Y0003245D01*
G01X0011236Y0003245D02*
G01X0011195Y0003241D01*
G01X0011195Y0003241D02*
G01X0011153Y0003241D01*
G01X0011153Y0003241D02*
G01X0011112Y0003245D01*
G01X0011112Y0003245D02*
G01X0011072Y0003253D01*
G01X0011072Y0003253D02*
G01X0011032Y0003265D01*
G01X0011032Y0003265D02*
G01X0010994Y0003280D01*
G01X0010994Y0003280D02*
G01X0010958Y0003299D01*
G01X0010958Y0003299D02*
G01X0010923Y0003321D01*
G01X0010923Y0003321D02*
G01X0010890Y0003347D01*
G01X0010890Y0003347D02*
G01X0010861Y0003375D01*
G01X0010861Y0003375D02*
G01X0010834Y0003406D01*
G01X0010834Y0003406D02*
G01X0010810Y0003440D01*
G01X0010810Y0003440D02*
G01X0010789Y0003476D01*
G01X0010789Y0003476D02*
G01X0010772Y0003513D01*
G01X0010772Y0003513D02*
G01X0010759Y0003552D01*
G01X0010759Y0003552D02*
G01X0010749Y0003592D01*
G01X0010749Y0003592D02*
G01X0010743Y0003633D01*
G01X0010743Y0003633D02*
G01X0010741Y0003674D01*
G01X0010741Y0009186D02*
G01X0010743Y0009227D01*
G01X0010743Y0009227D02*
G01X0010749Y0009268D01*
G01X0010749Y0009268D02*
G01X0010759Y0009308D01*
G01X0010759Y0009308D02*
G01X0010772Y0009347D01*
G01X0010772Y0009347D02*
G01X0010789Y0009384D01*
G01X0010789Y0009384D02*
G01X0010810Y0009420D01*
G01X0010810Y0009420D02*
G01X0010834Y0009454D01*
G01X0010834Y0009454D02*
G01X0010861Y0009485D01*
G01X0010861Y0009485D02*
G01X0010890Y0009513D01*
G01X0010890Y0009513D02*
G01X0010923Y0009539D01*
G01X0010923Y0009539D02*
G01X0010957Y0009561D01*
G01X0010957Y0009561D02*
G01X0010994Y0009580D01*
G01X0010994Y0009580D02*
G01X0011032Y0009595D01*
G01X0011032Y0009595D02*
G01X0011072Y0009607D01*
G01X0011072Y0009607D02*
G01X0011112Y0009615D01*
G01X0011112Y0009615D02*
G01X0011153Y0009619D01*
G01X0011153Y0009619D02*
G01X0011195Y0009619D01*
G01X0011195Y0009619D02*
G01X0011236Y0009615D01*
G01X0011236Y0009615D02*
G01X0011276Y0009607D01*
G01X0011276Y0009607D02*
G01X0011316Y0009595D01*
G01X0011316Y0009595D02*
G01X0011354Y0009580D01*
G01X0011354Y0009580D02*
G01X0011390Y0009561D01*
G01X0011390Y0009561D02*
G01X0011425Y0009539D01*
G01X0011425Y0009539D02*
G01X0011458Y0009513D01*
G01X0011458Y0009513D02*
G01X0011487Y0009485D01*
G01X0011487Y0009485D02*
G01X0011514Y0009454D01*
G01X0011514Y0009454D02*
G01X0011538Y0009420D01*
G01X0011538Y0009420D02*
G01X0011559Y0009384D01*
G01X0011559Y0009384D02*
G01X0011576Y0009347D01*
G01X0011576Y0009347D02*
G01X0011589Y0009308D01*
G01X0011589Y0009308D02*
G01X0011599Y0009268D01*
G01X0011599Y0009268D02*
G01X0011605Y0009227D01*
G01X0011605Y0009227D02*
G01X0011607Y0009186D01*
G01X0011607Y0009186D02*
G01X0011605Y0009145D01*
G01X0011605Y0009145D02*
G01X0011599Y0009104D01*
G01X0011599Y0009104D02*
G01X0011589Y0009064D01*
G01X0011589Y0009064D02*
G01X0011576Y0009025D01*
G01X0011576Y0009025D02*
G01X0011559Y0008988D01*
G01X0011559Y0008988D02*
G01X0011538Y0008952D01*
G01X0011538Y0008952D02*
G01X0011514Y0008918D01*
G01X0011514Y0008918D02*
G01X0011487Y0008887D01*
G01X0011487Y0008887D02*
G01X0011458Y0008859D01*
G01X0011458Y0008859D02*
G01X0011425Y0008833D01*
G01X0011425Y0008833D02*
G01X0011391Y0008811D01*
G01X0011391Y0008811D02*
G01X0011354Y0008792D01*
G01X0011354Y0008792D02*
G01X0011316Y0008777D01*
G01X0011316Y0008777D02*
G01X0011276Y0008765D01*
G01X0011276Y0008765D02*
G01X0011236Y0008757D01*
G01X0011236Y0008757D02*
G01X0011195Y0008753D01*
G01X0011195Y0008753D02*
G01X0011153Y0008753D01*
G01X0011153Y0008753D02*
G01X0011112Y0008757D01*
G01X0011112Y0008757D02*
G01X0011072Y0008765D01*
G01X0011072Y0008765D02*
G01X0011032Y0008777D01*
G01X0011032Y0008777D02*
G01X0010994Y0008792D01*
G01X0010994Y0008792D02*
G01X0010958Y0008811D01*
G01X0010958Y0008811D02*
G01X0010923Y0008833D01*
G01X0010923Y0008833D02*
G01X0010890Y0008859D01*
G01X0010890Y0008859D02*
G01X0010861Y0008887D01*
G01X0010861Y0008887D02*
G01X0010834Y0008918D01*
G01X0010834Y0008918D02*
G01X0010810Y0008952D01*
G01X0010810Y0008952D02*
G01X0010789Y0008988D01*
G01X0010789Y0008988D02*
G01X0010772Y0009025D01*
G01X0010772Y0009025D02*
G01X0010759Y0009064D01*
G01X0010759Y0009064D02*
G01X0010749Y0009104D01*
G01X0010749Y0009104D02*
G01X0010743Y0009145D01*
G01X0010743Y0009145D02*
G01X0010741Y0009186D01*
G01X0015859Y0009186D02*
G01X0015861Y0009227D01*
G01X0015861Y0009227D02*
G01X0015867Y0009268D01*
G01X0015867Y0009268D02*
G01X0015877Y0009308D01*
G01X0015877Y0009308D02*
G01X0015890Y0009347D01*
G01X0015890Y0009347D02*
G01X0015907Y0009384D01*
G01X0015907Y0009384D02*
G01X0015928Y0009420D01*
G01X0015928Y0009420D02*
G01X0015952Y0009454D01*
G01X0015952Y0009454D02*
G01X0015979Y0009485D01*
G01X0015979Y0009485D02*
G01X0016008Y0009513D01*
G01X0016008Y0009513D02*
G01X0016041Y0009539D01*
G01X0016041Y0009539D02*
G01X0016075Y0009561D01*
G01X0016075Y0009561D02*
G01X0016112Y0009580D01*
G01X0016112Y0009580D02*
G01X0016150Y0009595D01*
G01X0016150Y0009595D02*
G01X0016190Y0009607D01*
G01X0016190Y0009607D02*
G01X0016230Y0009615D01*
G01X0016230Y0009615D02*
G01X0016271Y0009619D01*
G01X0016271Y0009619D02*
G01X0016313Y0009619D01*
G01X0016313Y0009619D02*
G01X0016354Y0009615D01*
G01X0016354Y0009615D02*
G01X0016394Y0009607D01*
G01X0016394Y0009607D02*
G01X0016434Y0009595D01*
G01X0016434Y0009595D02*
G01X0016472Y0009580D01*
G01X0016472Y0009580D02*
G01X0016508Y0009561D01*
G01X0016508Y0009561D02*
G01X0016543Y0009539D01*
G01X0016543Y0009539D02*
G01X0016576Y0009513D01*
G01X0016576Y0009513D02*
G01X0016605Y0009485D01*
G01X0016605Y0009485D02*
G01X0016632Y0009454D01*
G01X0016632Y0009454D02*
G01X0016656Y0009420D01*
G01X0016656Y0009420D02*
G01X0016677Y0009384D01*
G01X0016677Y0009384D02*
G01X0016694Y0009347D01*
G01X0016694Y0009347D02*
G01X0016707Y0009308D01*
G01X0016707Y0009308D02*
G01X0016717Y0009268D01*
G01X0016717Y0009268D02*
G01X0016723Y0009227D01*
G01X0016723Y0009227D02*
G01X0016725Y0009186D01*
G01X0016725Y0009186D02*
G01X0016723Y0009145D01*
G01X0016723Y0009145D02*
G01X0016717Y0009104D01*
G01X0016717Y0009104D02*
G01X0016707Y0009064D01*
G01X0016707Y0009064D02*
G01X0016694Y0009025D01*
G01X0016694Y0009025D02*
G01X0016677Y0008988D01*
G01X0016677Y0008988D02*
G01X0016656Y0008952D01*
G01X0016656Y0008952D02*
G01X0016632Y0008918D01*
G01X0016632Y0008918D02*
G01X0016605Y0008887D01*
G01X0016605Y0008887D02*
G01X0016576Y0008859D01*
G01X0016576Y0008859D02*
G01X0016543Y0008833D01*
G01X0016543Y0008833D02*
G01X0016509Y0008811D01*
G01X0016509Y0008811D02*
G01X0016472Y0008792D01*
G01X0016472Y0008792D02*
G01X0016434Y0008777D01*
G01X0016434Y0008777D02*
G01X0016394Y0008765D01*
G01X0016394Y0008765D02*
G01X0016354Y0008757D01*
G01X0016354Y0008757D02*
G01X0016313Y0008753D01*
G01X0016313Y0008753D02*
G01X0016271Y0008753D01*
G01X0016271Y0008753D02*
G01X0016230Y0008757D01*
G01X0016230Y0008757D02*
G01X0016190Y0008765D01*
G01X0016190Y0008765D02*
G01X0016150Y0008777D01*
G01X0016150Y0008777D02*
G01X0016112Y0008792D01*
G01X0016112Y0008792D02*
G01X0016076Y0008811D01*
G01X0016076Y0008811D02*
G01X0016041Y0008833D01*
G01X0016041Y0008833D02*
G01X0016008Y0008859D01*
G01X0016008Y0008859D02*
G01X0015979Y0008887D01*
G01X0015979Y0008887D02*
G01X0015952Y0008918D01*
G01X0015952Y0008918D02*
G01X0015928Y0008952D01*
G01X0015928Y0008952D02*
G01X0015907Y0008988D01*
G01X0015907Y0008988D02*
G01X0015890Y0009025D01*
G01X0015890Y0009025D02*
G01X0015877Y0009064D01*
G01X0015877Y0009064D02*
G01X0015867Y0009104D01*
G01X0015867Y0009104D02*
G01X0015861Y0009145D01*
G01X0015861Y0009145D02*
G01X0015859Y0009186D01*
G01X0015662Y0001311D02*
G01X0015664Y0001352D01*
G01X0015664Y0001352D02*
G01X0015670Y0001393D01*
G01X0015670Y0001393D02*
G01X0015680Y0001433D01*
G01X0015680Y0001433D02*
G01X0015693Y0001472D01*
G01X0015693Y0001472D02*
G01X0015710Y0001509D01*
G01X0015710Y0001509D02*
G01X0015731Y0001545D01*
G01X0015731Y0001545D02*
G01X0015755Y0001579D01*
G01X0015755Y0001579D02*
G01X0015782Y0001610D01*
G01X0015782Y0001610D02*
G01X0015811Y0001638D01*
G01X0015811Y0001638D02*
G01X0015844Y0001664D01*
G01X0015844Y0001664D02*
G01X0015878Y0001686D01*
G01X0015878Y0001686D02*
G01X0015915Y0001705D01*
G01X0015915Y0001705D02*
G01X0015953Y0001720D01*
G01X0015953Y0001720D02*
G01X0015993Y0001732D01*
G01X0015993Y0001732D02*
G01X0016033Y0001740D01*
G01X0016033Y0001740D02*
G01X0016074Y0001744D01*
G01X0016074Y0001744D02*
G01X0016116Y0001744D01*
G01X0016116Y0001744D02*
G01X0016157Y0001740D01*
G01X0016157Y0001740D02*
G01X0016197Y0001732D01*
G01X0016197Y0001732D02*
G01X0016237Y0001720D01*
G01X0016237Y0001720D02*
G01X0016275Y0001705D01*
G01X0016275Y0001705D02*
G01X0016311Y0001686D01*
G01X0016311Y0001686D02*
G01X0016346Y0001664D01*
G01X0016346Y0001664D02*
G01X0016379Y0001638D01*
G01X0016379Y0001638D02*
G01X0016408Y0001610D01*
G01X0016408Y0001610D02*
G01X0016435Y0001579D01*
G01X0016435Y0001579D02*
G01X0016459Y0001545D01*
G01X0016459Y0001545D02*
G01X0016480Y0001509D01*
G01X0016480Y0001509D02*
G01X0016497Y0001472D01*
G01X0016497Y0001472D02*
G01X0016510Y0001433D01*
G01X0016510Y0001433D02*
G01X0016520Y0001393D01*
G01X0016520Y0001393D02*
G01X0016526Y0001352D01*
G01X0016526Y0001352D02*
G01X0016528Y0001311D01*
G01X0016528Y0001311D02*
G01X0016526Y0001270D01*
G01X0016526Y0001270D02*
G01X0016520Y0001229D01*
G01X0016520Y0001229D02*
G01X0016510Y0001189D01*
G01X0016510Y0001189D02*
G01X0016497Y0001150D01*
G01X0016497Y0001150D02*
G01X0016480Y0001113D01*
G01X0016480Y0001113D02*
G01X0016459Y0001077D01*
G01X0016459Y0001077D02*
G01X0016435Y0001043D01*
G01X0016435Y0001043D02*
G01X0016408Y0001012D01*
G01X0016408Y0001012D02*
G01X0016379Y0000984D01*
G01X0016379Y0000984D02*
G01X0016346Y0000958D01*
G01X0016346Y0000958D02*
G01X0016312Y0000936D01*
G01X0016312Y0000936D02*
G01X0016275Y0000917D01*
G01X0016275Y0000917D02*
G01X0016237Y0000902D01*
G01X0016237Y0000902D02*
G01X0016197Y0000890D01*
G01X0016197Y0000890D02*
G01X0016157Y0000882D01*
G01X0016157Y0000882D02*
G01X0016116Y0000878D01*
G01X0016116Y0000878D02*
G01X0016074Y0000878D01*
G01X0016074Y0000878D02*
G01X0016033Y0000882D01*
G01X0016033Y0000882D02*
G01X0015993Y0000890D01*
G01X0015993Y0000890D02*
G01X0015953Y0000902D01*
G01X0015953Y0000902D02*
G01X0015915Y0000917D01*
G01X0015915Y0000917D02*
G01X0015879Y0000936D01*
G01X0015879Y0000936D02*
G01X0015844Y0000958D01*
G01X0015844Y0000958D02*
G01X0015811Y0000984D01*
G01X0015811Y0000984D02*
G01X0015782Y0001012D01*
G01X0015782Y0001012D02*
G01X0015755Y0001043D01*
G01X0015755Y0001043D02*
G01X0015731Y0001077D01*
G01X0015731Y0001077D02*
G01X0015710Y0001113D01*
G01X0015710Y0001113D02*
G01X0015693Y0001150D01*
G01X0015693Y0001150D02*
G01X0015680Y0001189D01*
G01X0015680Y0001189D02*
G01X0015670Y0001229D01*
G01X0015670Y0001229D02*
G01X0015664Y0001270D01*
G01X0015664Y0001270D02*
G01X0015662Y0001311D01*
G01X0015662Y0017060D02*
G01X0015664Y0017101D01*
G01X0015664Y0017101D02*
G01X0015670Y0017142D01*
G01X0015670Y0017142D02*
G01X0015680Y0017182D01*
G01X0015680Y0017182D02*
G01X0015693Y0017221D01*
G01X0015693Y0017221D02*
G01X0015710Y0017258D01*
G01X0015710Y0017258D02*
G01X0015731Y0017294D01*
G01X0015731Y0017294D02*
G01X0015755Y0017328D01*
G01X0015755Y0017328D02*
G01X0015782Y0017359D01*
G01X0015782Y0017359D02*
G01X0015811Y0017387D01*
G01X0015811Y0017387D02*
G01X0015844Y0017413D01*
G01X0015844Y0017413D02*
G01X0015878Y0017435D01*
G01X0015878Y0017435D02*
G01X0015915Y0017454D01*
G01X0015915Y0017454D02*
G01X0015953Y0017469D01*
G01X0015953Y0017469D02*
G01X0015993Y0017481D01*
G01X0015993Y0017481D02*
G01X0016033Y0017489D01*
G01X0016033Y0017489D02*
G01X0016074Y0017493D01*
G01X0016074Y0017493D02*
G01X0016116Y0017493D01*
G01X0016116Y0017493D02*
G01X0016157Y0017489D01*
G01X0016157Y0017489D02*
G01X0016197Y0017481D01*
G01X0016197Y0017481D02*
G01X0016237Y0017469D01*
G01X0016237Y0017469D02*
G01X0016275Y0017454D01*
G01X0016275Y0017454D02*
G01X0016311Y0017435D01*
G01X0016311Y0017435D02*
G01X0016346Y0017413D01*
G01X0016346Y0017413D02*
G01X0016379Y0017387D01*
G01X0016379Y0017387D02*
G01X0016408Y0017359D01*
G01X0016408Y0017359D02*
G01X0016435Y0017328D01*
G01X0016435Y0017328D02*
G01X0016459Y0017294D01*
G01X0016459Y0017294D02*
G01X0016480Y0017258D01*
G01X0016480Y0017258D02*
G01X0016497Y0017221D01*
G01X0016497Y0017221D02*
G01X0016510Y0017182D01*
G01X0016510Y0017182D02*
G01X0016520Y0017142D01*
G01X0016520Y0017142D02*
G01X0016526Y0017101D01*
G01X0016526Y0017101D02*
G01X0016528Y0017060D01*
G01X0016528Y0017060D02*
G01X0016526Y0017019D01*
G01X0016526Y0017019D02*
G01X0016520Y0016978D01*
G01X0016520Y0016978D02*
G01X0016510Y0016938D01*
G01X0016510Y0016938D02*
G01X0016497Y0016899D01*
G01X0016497Y0016899D02*
G01X0016480Y0016862D01*
G01X0016480Y0016862D02*
G01X0016459Y0016826D01*
G01X0016459Y0016826D02*
G01X0016435Y0016792D01*
G01X0016435Y0016792D02*
G01X0016408Y0016761D01*
G01X0016408Y0016761D02*
G01X0016379Y0016733D01*
G01X0016379Y0016733D02*
G01X0016346Y0016707D01*
G01X0016346Y0016707D02*
G01X0016312Y0016685D01*
G01X0016312Y0016685D02*
G01X0016275Y0016666D01*
G01X0016275Y0016666D02*
G01X0016237Y0016651D01*
G01X0016237Y0016651D02*
G01X0016197Y0016639D01*
G01X0016197Y0016639D02*
G01X0016157Y0016631D01*
G01X0016157Y0016631D02*
G01X0016116Y0016627D01*
G01X0016116Y0016627D02*
G01X0016074Y0016627D01*
G01X0016074Y0016627D02*
G01X0016033Y0016631D01*
G01X0016033Y0016631D02*
G01X0015993Y0016639D01*
G01X0015993Y0016639D02*
G01X0015953Y0016651D01*
G01X0015953Y0016651D02*
G01X0015915Y0016666D01*
G01X0015915Y0016666D02*
G01X0015879Y0016685D01*
G01X0015879Y0016685D02*
G01X0015844Y0016707D01*
G01X0015844Y0016707D02*
G01X0015811Y0016733D01*
G01X0015811Y0016733D02*
G01X0015782Y0016761D01*
G01X0015782Y0016761D02*
G01X0015755Y0016792D01*
G01X0015755Y0016792D02*
G01X0015731Y0016826D01*
G01X0015731Y0016826D02*
G01X0015710Y0016862D01*
G01X0015710Y0016862D02*
G01X0015693Y0016899D01*
G01X0015693Y0016899D02*
G01X0015680Y0016938D01*
G01X0015680Y0016938D02*
G01X0015670Y0016978D01*
G01X0015670Y0016978D02*
G01X0015664Y0017019D01*
G01X0015664Y0017019D02*
G01X0015662Y0017060D01*
G01X0007788Y0017060D02*
G01X0007790Y0017101D01*
G01X0007790Y0017101D02*
G01X0007796Y0017142D01*
G01X0007796Y0017142D02*
G01X0007806Y0017182D01*
G01X0007806Y0017182D02*
G01X0007819Y0017221D01*
G01X0007819Y0017221D02*
G01X0007836Y0017258D01*
G01X0007836Y0017258D02*
G01X0007857Y0017294D01*
G01X0007857Y0017294D02*
G01X0007881Y0017328D01*
G01X0007881Y0017328D02*
G01X0007908Y0017359D01*
G01X0007908Y0017359D02*
G01X0007937Y0017387D01*
G01X0007937Y0017387D02*
G01X0007970Y0017413D01*
G01X0007970Y0017413D02*
G01X0008004Y0017435D01*
G01X0008004Y0017435D02*
G01X0008041Y0017454D01*
G01X0008041Y0017454D02*
G01X0008079Y0017469D01*
G01X0008079Y0017469D02*
G01X0008119Y0017481D01*
G01X0008119Y0017481D02*
G01X0008159Y0017489D01*
G01X0008159Y0017489D02*
G01X0008200Y0017493D01*
G01X0008200Y0017493D02*
G01X0008242Y0017493D01*
G01X0008242Y0017493D02*
G01X0008283Y0017489D01*
G01X0008283Y0017489D02*
G01X0008323Y0017481D01*
G01X0008323Y0017481D02*
G01X0008363Y0017469D01*
G01X0008363Y0017469D02*
G01X0008401Y0017454D01*
G01X0008401Y0017454D02*
G01X0008437Y0017435D01*
G01X0008437Y0017435D02*
G01X0008472Y0017413D01*
G01X0008472Y0017413D02*
G01X0008505Y0017387D01*
G01X0008505Y0017387D02*
G01X0008534Y0017359D01*
G01X0008534Y0017359D02*
G01X0008561Y0017328D01*
G01X0008561Y0017328D02*
G01X0008585Y0017294D01*
G01X0008585Y0017294D02*
G01X0008606Y0017258D01*
G01X0008606Y0017258D02*
G01X0008623Y0017221D01*
G01X0008623Y0017221D02*
G01X0008636Y0017182D01*
G01X0008636Y0017182D02*
G01X0008646Y0017142D01*
G01X0008646Y0017142D02*
G01X0008652Y0017101D01*
G01X0008652Y0017101D02*
G01X0008654Y0017060D01*
G01X0008654Y0017060D02*
G01X0008652Y0017019D01*
G01X0008652Y0017019D02*
G01X0008646Y0016978D01*
G01X0008646Y0016978D02*
G01X0008636Y0016938D01*
G01X0008636Y0016938D02*
G01X0008623Y0016899D01*
G01X0008623Y0016899D02*
G01X0008606Y0016862D01*
G01X0008606Y0016862D02*
G01X0008585Y0016826D01*
G01X0008585Y0016826D02*
G01X0008561Y0016792D01*
G01X0008561Y0016792D02*
G01X0008534Y0016761D01*
G01X0008534Y0016761D02*
G01X0008505Y0016733D01*
G01X0008505Y0016733D02*
G01X0008472Y0016707D01*
G01X0008472Y0016707D02*
G01X0008438Y0016685D01*
G01X0008438Y0016685D02*
G01X0008401Y0016666D01*
G01X0008401Y0016666D02*
G01X0008363Y0016651D01*
G01X0008363Y0016651D02*
G01X0008323Y0016639D01*
G01X0008323Y0016639D02*
G01X0008283Y0016631D01*
G01X0008283Y0016631D02*
G01X0008242Y0016627D01*
G01X0008242Y0016627D02*
G01X0008200Y0016627D01*
G01X0008200Y0016627D02*
G01X0008159Y0016631D01*
G01X0008159Y0016631D02*
G01X0008119Y0016639D01*
G01X0008119Y0016639D02*
G01X0008079Y0016651D01*
G01X0008079Y0016651D02*
G01X0008041Y0016666D01*
G01X0008041Y0016666D02*
G01X0008005Y0016685D01*
G01X0008005Y0016685D02*
G01X0007970Y0016707D01*
G01X0007970Y0016707D02*
G01X0007937Y0016733D01*
G01X0007937Y0016733D02*
G01X0007908Y0016761D01*
G01X0007908Y0016761D02*
G01X0007881Y0016792D01*
G01X0007881Y0016792D02*
G01X0007857Y0016826D01*
G01X0007857Y0016826D02*
G01X0007836Y0016862D01*
G01X0007836Y0016862D02*
G01X0007819Y0016899D01*
G01X0007819Y0016899D02*
G01X0007806Y0016938D01*
G01X0007806Y0016938D02*
G01X0007796Y0016978D01*
G01X0007796Y0016978D02*
G01X0007790Y0017019D01*
G01X0007790Y0017019D02*
G01X0007788Y0017060D01*
M02*
