G75*
G70*
%OFA0B0*%
%FSLAX24Y24*%
%IPPOS*%
%LPD*%
%AMOC8*
5,1,8,0,0,1.08239X$1,22.5*
%
%ADD10C,0.0946*%
%ADD11R,0.0710X0.0198*%
%ADD12R,0.0198X0.0710*%
%ADD13R,0.0474X0.0513*%
%ADD14R,0.0513X0.0474*%
%ADD15R,0.0671X0.0631*%
%ADD16R,0.0631X0.0671*%
%ADD17R,0.0631X0.0631*%
%ADD18R,0.0474X0.0277*%
%ADD19R,0.0789X0.0710*%
%ADD20R,0.0592X0.0671*%
%ADD21R,0.3308X0.1379*%
%ADD22R,0.1064X0.0749*%
%ADD23R,0.0474X0.0671*%
%ADD24R,0.1379X0.0671*%
%ADD25R,0.0671X0.0592*%
%ADD26R,0.0277X0.0411*%
%ADD27R,0.0411X0.0277*%
%ADD28R,0.0336X0.0336*%
%ADD29R,0.0513X0.0336*%
%ADD30R,0.0336X0.0513*%
%ADD31C,0.0434*%
%ADD32C,0.1346*%
D10*
X008221Y001311D03*
X011174Y003674D03*
X016095Y001311D03*
X016292Y009186D03*
X011174Y009186D03*
X008221Y017060D03*
X016095Y017060D03*
D11*
X008408Y008792D03*
X008408Y008595D03*
X008408Y008398D03*
X008408Y008201D03*
X008408Y008004D03*
X008408Y007808D03*
X008408Y007611D03*
X008408Y007414D03*
X008408Y007217D03*
X008408Y007020D03*
X008408Y006823D03*
X008408Y006626D03*
X008408Y006430D03*
X008408Y006233D03*
X008408Y006036D03*
X008408Y005839D03*
X008408Y005642D03*
X008408Y005445D03*
X008408Y005249D03*
X008408Y005052D03*
X003211Y005052D03*
X003211Y005249D03*
X003211Y005445D03*
X003211Y005642D03*
X003211Y005839D03*
X003211Y006036D03*
X003211Y006233D03*
X003211Y006430D03*
X003211Y006626D03*
X003211Y006823D03*
X003211Y007020D03*
X003211Y007217D03*
X003211Y007414D03*
X003211Y007611D03*
X003211Y007808D03*
X003211Y008004D03*
X003211Y008201D03*
X003211Y008398D03*
X003211Y008595D03*
X003211Y008792D03*
D12*
X003939Y009520D03*
X004136Y009520D03*
X004333Y009520D03*
X004530Y009520D03*
X004727Y009520D03*
X004924Y009520D03*
X005120Y009520D03*
X005317Y009520D03*
X005514Y009520D03*
X005711Y009520D03*
X005908Y009520D03*
X006105Y009520D03*
X006301Y009520D03*
X006498Y009520D03*
X006695Y009520D03*
X006892Y009520D03*
X007089Y009520D03*
X007286Y009520D03*
X007483Y009520D03*
X007679Y009520D03*
X007679Y004323D03*
X007483Y004323D03*
X007286Y004323D03*
X007089Y004323D03*
X006892Y004323D03*
X006695Y004323D03*
X006498Y004323D03*
X006301Y004323D03*
X006105Y004323D03*
X005908Y004323D03*
X005711Y004323D03*
X005514Y004323D03*
X005317Y004323D03*
X005120Y004323D03*
X004924Y004323D03*
X004727Y004323D03*
X004530Y004323D03*
X004333Y004323D03*
X004136Y004323D03*
X003939Y004323D03*
D13*
X005514Y003467D03*
X006006Y003467D03*
X006006Y002798D03*
X005514Y002798D03*
X002364Y005947D03*
X002364Y006617D03*
X002414Y008851D03*
X002414Y009520D03*
X008378Y009481D03*
X008378Y010121D03*
X009048Y010121D03*
X009048Y009481D03*
X009205Y006863D03*
X009205Y006193D03*
X010839Y012138D03*
X010839Y012729D03*
X011508Y012729D03*
X011508Y012138D03*
D14*
X011508Y014697D03*
X010839Y014697D03*
X007138Y012542D03*
X006469Y012542D03*
X006361Y010367D03*
X005701Y010170D03*
X005032Y010170D03*
X007030Y010367D03*
X009205Y008536D03*
X009205Y007867D03*
D15*
X007040Y010947D03*
X007040Y011754D03*
X003447Y010376D03*
X003447Y009569D03*
X001626Y009884D03*
X001626Y009077D03*
X006646Y003437D03*
X006646Y002630D03*
D16*
X003959Y012227D03*
X003959Y013093D03*
X003152Y013093D03*
X002345Y013093D03*
X002345Y012227D03*
X003152Y012227D03*
D17*
X009805Y014245D03*
X009805Y015741D03*
D18*
X010760Y014087D03*
X010760Y013713D03*
X010760Y013339D03*
X011587Y013339D03*
X011587Y013713D03*
X011587Y014087D03*
D19*
X009796Y013378D03*
X009796Y012276D03*
D20*
X012374Y012926D03*
X012374Y013713D03*
X013122Y013713D03*
X013122Y012926D03*
D21*
X015307Y012197D03*
X015307Y014048D03*
D22*
X012847Y015682D03*
X011272Y015682D03*
D23*
X008319Y013290D03*
X007729Y013290D03*
X007138Y013290D03*
X006548Y013290D03*
D24*
X007433Y015770D03*
D25*
X008319Y012611D03*
X008319Y011863D03*
D26*
X012492Y008126D03*
X012847Y008126D03*
X013201Y008126D03*
X013555Y008126D03*
X013910Y008126D03*
X014264Y008126D03*
X014618Y008126D03*
X014973Y008126D03*
X014973Y004733D03*
X014618Y004733D03*
X014264Y004733D03*
X013910Y004733D03*
X013555Y004733D03*
X013201Y004733D03*
X012847Y004733D03*
X012492Y004733D03*
D27*
X012036Y005189D03*
X012036Y005544D03*
X012036Y005898D03*
X012036Y006252D03*
X012036Y006607D03*
X012036Y006961D03*
X012036Y007315D03*
X012036Y007670D03*
X015429Y007670D03*
X015429Y007315D03*
X015429Y006961D03*
X015429Y006607D03*
X015429Y006252D03*
X015429Y005898D03*
X015429Y005544D03*
X015429Y005189D03*
D28*
X015821Y005367D03*
X015821Y005721D03*
X015821Y006075D03*
X015821Y006430D03*
X015821Y006784D03*
X015821Y007138D03*
X015821Y007493D03*
X014796Y008518D03*
X014441Y008518D03*
X014087Y008518D03*
X013733Y008518D03*
X013378Y008518D03*
X013024Y008518D03*
X012670Y008518D03*
X011644Y007493D03*
X011644Y007138D03*
X011644Y006784D03*
X011644Y006430D03*
X011644Y006075D03*
X011644Y005721D03*
X011644Y005367D03*
X012670Y004341D03*
X013024Y004341D03*
X013378Y004341D03*
X013733Y004341D03*
X014087Y004341D03*
X014441Y004341D03*
X014796Y004341D03*
D29*
X015240Y004341D03*
X012225Y004341D03*
X012225Y008518D03*
X015240Y008518D03*
D30*
X015821Y007937D03*
X015821Y004922D03*
X011644Y004922D03*
X011644Y007937D03*
D31*
X002807Y002020D03*
X002807Y003752D03*
D32*
X016292Y003674D03*
M02*
