%
M48
M72
T01C0.0130
T02C0.0197
T03C0.0200
T04C0.0354
T05C0.0866
%
T01
X3890Y1853
X4185Y3514
X4874Y4904
X5416Y5455
X5563Y5002
X5465Y6134
X4776Y7561
X5268Y7709
X5711Y8250
X5957Y8595
X6301Y8546
X6646Y8546
X6990Y8792
X7286Y8398
X7532Y8644
X7778Y8398
X7581Y7414
X7876Y6528
X7876Y6233
X7729Y5937
X7483Y5642
X7483Y5347
X7483Y5052
X6794Y5002
X6794Y5298
X6794Y5593
X6794Y5888
X6794Y6184
X8172Y3969
X7138Y3674
X7138Y3378
X7138Y3083
X7138Y2788
X6646Y1853
X5514Y2886
X2512Y6626
X1751Y6603
X1725Y7611
X2463Y7611
X4333Y8546
X5022Y10170
X3447Y10367
X2168Y9973
X1626Y10022
X3152Y13093
X4874Y14304
X6449Y12532
X7926Y10662
X8319Y10662
X9648Y9481
X10937Y11006
X9796Y11302
X8319Y12729
X7433Y15928
X6351Y17099
X11272Y15682
X14077Y15239
X14973Y12532
X14766Y10957
X13083Y8939
X12109Y8054
X12847Y7512
X14057Y6065
X14313Y6341
X14569Y6676
X14963Y7365
X13801Y5810
X13546Y5554
X13142Y5741
X12847Y5445
X12551Y5741
X12847Y4067
X13929Y3910
X14618Y3871
X14618Y5189
X14618Y5593
X15111Y5308
X13093Y2689
X12414Y2689
X12158Y1410
X11272Y1902
X10898Y2414
X10337Y1607
X10898Y1390
X10160Y4048
X9697Y4904
X9805Y5839
X14146Y1390
X14520Y1902
X16735Y10121
X12256Y10908
T02
X7138Y12532
X4863Y13123
T03
X11124Y6774
X11124Y6282
T04
X2807Y2020
X2807Y3752
T05
X8221Y1311
X11174Y3674
X16095Y1311
X16292Y3674
X16292Y9186
X11174Y9186
X8221Y17060
X16095Y17060
M30
