G75*
G70*
%OFA0B0*%
%FSLAX24Y24*%
%IPPOS*%
%LPD*%
%AMOC8*
5,1,8,0,0,1.08239X$1,22.5*
%
%ADD10C,0.0050*%
%ADD11C,0.0098*%
%ADD12C,0.0150*%
%ADD13R,0.0059X0.0118*%
%ADD14R,0.0118X0.0118*%
%ADD15R,0.0118X0.0059*%
%ADD16R,0.0118X0.0118*%
%ADD17C,0.0004*%
%ADD18C,0.0236*%
%ADD19C,0.0060*%
%ADD20C,0.0080*%
%ADD21C,0.0157*%
%ADD22C,0.0039*%
%ADD23C,0.0079*%
%ADD24C,0.0020*%
D10*
X008480Y007788D02*
X008482Y007802D01*
X008488Y007816D01*
X008496Y007828D01*
X008508Y007836D01*
X008522Y007842D01*
X008536Y007844D01*
X008550Y007842D01*
X008564Y007836D01*
X008576Y007828D01*
X008584Y007816D01*
X008590Y007802D01*
X008592Y007788D01*
X008590Y007774D01*
X008584Y007760D01*
X008576Y007748D01*
X008564Y007740D01*
X008550Y007734D01*
X008536Y007732D01*
X008522Y007734D01*
X008508Y007740D01*
X008496Y007748D01*
X008488Y007760D01*
X008482Y007774D01*
X008480Y007788D01*
X009870Y008923D02*
X010099Y009153D01*
X010099Y008923D01*
X010042Y008866D01*
X009927Y008866D01*
X009870Y008923D01*
X009870Y009153D01*
X009927Y009210D01*
X010042Y009210D01*
X010099Y009153D01*
X010929Y007596D02*
X010929Y007252D01*
X010815Y007252D02*
X011044Y007252D01*
X010815Y007481D02*
X010929Y007596D01*
X013497Y002887D02*
X013499Y002893D01*
X013503Y002897D01*
X013510Y002898D01*
X013515Y002895D01*
X013519Y002890D01*
X013519Y002884D01*
X013515Y002879D01*
X013510Y002876D01*
X013503Y002877D01*
X013499Y002881D01*
X013497Y002887D01*
X013451Y002887D02*
X013453Y002902D01*
X013459Y002915D01*
X013468Y002927D01*
X013479Y002936D01*
X013493Y002942D01*
X013508Y002944D01*
X013523Y002942D01*
X013536Y002936D01*
X013548Y002927D01*
X013557Y002916D01*
X013563Y002902D01*
X013565Y002887D01*
X013563Y002872D01*
X013557Y002859D01*
X013548Y002847D01*
X013537Y002838D01*
X013523Y002832D01*
X013508Y002830D01*
X013493Y002832D01*
X013480Y002838D01*
X013468Y002847D01*
X013459Y002858D01*
X013453Y002872D01*
X013451Y002887D01*
X013404Y002887D02*
X013406Y002907D01*
X013411Y002926D01*
X013421Y002943D01*
X013433Y002959D01*
X013448Y002972D01*
X013465Y002982D01*
X013483Y002988D01*
X013503Y002991D01*
X013523Y002990D01*
X013542Y002985D01*
X013560Y002977D01*
X013576Y002966D01*
X013590Y002951D01*
X013600Y002935D01*
X013608Y002916D01*
X013612Y002897D01*
X013612Y002877D01*
X013608Y002858D01*
X013600Y002839D01*
X013590Y002823D01*
X013576Y002808D01*
X013560Y002797D01*
X013542Y002789D01*
X013523Y002784D01*
X013503Y002783D01*
X013483Y002786D01*
X013465Y002792D01*
X013448Y002802D01*
X013433Y002815D01*
X013421Y002831D01*
X013411Y002848D01*
X013406Y002867D01*
X013404Y002887D01*
X011977Y013943D02*
X009977Y013943D01*
X009977Y015943D01*
X011977Y015943D01*
X011977Y013943D01*
X001562Y011553D02*
X001562Y011438D01*
X001505Y011381D01*
X001275Y011381D01*
X001218Y011438D01*
X001218Y011553D01*
X001275Y011610D01*
X001390Y011610D02*
X001390Y011495D01*
X001390Y011610D02*
X001505Y011610D01*
X001562Y011553D01*
X001562Y011247D02*
X001333Y011247D01*
X001218Y011133D01*
X001333Y011018D01*
X001562Y011018D01*
X001390Y011018D02*
X001390Y011247D01*
X001218Y010885D02*
X001218Y010656D01*
X001218Y010770D02*
X001562Y010770D01*
X001505Y010465D02*
X001218Y010465D01*
X001218Y010408D02*
X001218Y010522D01*
X001505Y010465D02*
X001562Y010408D01*
X001562Y010351D01*
X001505Y010293D01*
D11*
X009648Y008152D02*
X009650Y008200D01*
X009656Y008248D01*
X009666Y008295D01*
X009679Y008341D01*
X009697Y008386D01*
X009717Y008430D01*
X009742Y008472D01*
X009770Y008511D01*
X009800Y008548D01*
X009834Y008582D01*
X009871Y008614D01*
X009909Y008643D01*
X009950Y008668D01*
X009993Y008690D01*
X010038Y008708D01*
X010084Y008722D01*
X010131Y008733D01*
X010179Y008740D01*
X010227Y008743D01*
X010275Y008742D01*
X010323Y008737D01*
X010371Y008728D01*
X010417Y008716D01*
X010462Y008699D01*
X010506Y008679D01*
X010548Y008656D01*
X010588Y008629D01*
X010626Y008599D01*
X010661Y008566D01*
X010693Y008530D01*
X010723Y008492D01*
X010749Y008451D01*
X010771Y008408D01*
X010791Y008364D01*
X010806Y008319D01*
X010818Y008272D01*
X010826Y008224D01*
X010830Y008176D01*
X010830Y008128D01*
X010826Y008080D01*
X010818Y008032D01*
X010806Y007985D01*
X010791Y007940D01*
X010771Y007896D01*
X010749Y007853D01*
X010723Y007812D01*
X010693Y007774D01*
X010661Y007738D01*
X010626Y007705D01*
X010588Y007675D01*
X010548Y007648D01*
X010506Y007625D01*
X010462Y007605D01*
X010417Y007588D01*
X010371Y007576D01*
X010323Y007567D01*
X010275Y007562D01*
X010227Y007561D01*
X010179Y007564D01*
X010131Y007571D01*
X010084Y007582D01*
X010038Y007596D01*
X009993Y007614D01*
X009950Y007636D01*
X009909Y007661D01*
X009871Y007690D01*
X009834Y007722D01*
X009800Y007756D01*
X009770Y007793D01*
X009742Y007832D01*
X009717Y007874D01*
X009697Y007918D01*
X009679Y007963D01*
X009666Y008009D01*
X009656Y008056D01*
X009650Y008104D01*
X009648Y008152D01*
X009648Y006774D02*
X009650Y006822D01*
X009656Y006870D01*
X009666Y006917D01*
X009679Y006963D01*
X009697Y007008D01*
X009717Y007052D01*
X009742Y007094D01*
X009770Y007133D01*
X009800Y007170D01*
X009834Y007204D01*
X009871Y007236D01*
X009909Y007265D01*
X009950Y007290D01*
X009993Y007312D01*
X010038Y007330D01*
X010084Y007344D01*
X010131Y007355D01*
X010179Y007362D01*
X010227Y007365D01*
X010275Y007364D01*
X010323Y007359D01*
X010371Y007350D01*
X010417Y007338D01*
X010462Y007321D01*
X010506Y007301D01*
X010548Y007278D01*
X010588Y007251D01*
X010626Y007221D01*
X010661Y007188D01*
X010693Y007152D01*
X010723Y007114D01*
X010749Y007073D01*
X010771Y007030D01*
X010791Y006986D01*
X010806Y006941D01*
X010818Y006894D01*
X010826Y006846D01*
X010830Y006798D01*
X010830Y006750D01*
X010826Y006702D01*
X010818Y006654D01*
X010806Y006607D01*
X010791Y006562D01*
X010771Y006518D01*
X010749Y006475D01*
X010723Y006434D01*
X010693Y006396D01*
X010661Y006360D01*
X010626Y006327D01*
X010588Y006297D01*
X010548Y006270D01*
X010506Y006247D01*
X010462Y006227D01*
X010417Y006210D01*
X010371Y006198D01*
X010323Y006189D01*
X010275Y006184D01*
X010227Y006183D01*
X010179Y006186D01*
X010131Y006193D01*
X010084Y006204D01*
X010038Y006218D01*
X009993Y006236D01*
X009950Y006258D01*
X009909Y006283D01*
X009871Y006312D01*
X009834Y006344D01*
X009800Y006378D01*
X009770Y006415D01*
X009742Y006454D01*
X009717Y006496D01*
X009697Y006540D01*
X009679Y006585D01*
X009666Y006631D01*
X009656Y006678D01*
X009650Y006726D01*
X009648Y006774D01*
D12*
X005842Y016741D02*
X005842Y017576D01*
X005285Y017576D02*
X005842Y016741D01*
X005285Y016741D02*
X005285Y017576D01*
X004936Y017297D02*
X004936Y016741D01*
X004936Y017158D02*
X004379Y017158D01*
X004379Y017297D02*
X004658Y017576D01*
X004936Y017297D01*
X004379Y017297D02*
X004379Y016741D01*
X004030Y016880D02*
X003890Y016741D01*
X003612Y016741D01*
X003473Y016880D01*
X003473Y017437D01*
X003612Y017576D01*
X003890Y017576D01*
X004030Y017437D01*
D13*
X006794Y016804D03*
X007089Y016804D03*
X005514Y012030D03*
X005219Y012030D03*
G36*
X010114Y008027D02*
X010155Y008068D01*
X010238Y007985D01*
X010197Y007944D01*
X010114Y008027D01*
G37*
G36*
X010323Y008236D02*
X010364Y008277D01*
X010447Y008194D01*
X010406Y008153D01*
X010323Y008236D01*
G37*
D14*
G36*
X010197Y008110D02*
X010280Y008193D01*
X010363Y008110D01*
X010280Y008027D01*
X010197Y008110D01*
G37*
D15*
X010179Y006922D03*
X010179Y006626D03*
D16*
X010179Y006774D03*
X005366Y012030D03*
X006941Y016804D03*
D17*
X006292Y007345D02*
X005268Y007345D01*
X006292Y007345D01*
X006705Y007758D01*
X006705Y008310D01*
X006429Y008191D01*
X006154Y008310D01*
X006154Y008054D01*
X006705Y008054D01*
X006705Y008052D02*
X006152Y008052D01*
X006154Y008054D02*
X006036Y007936D01*
X005504Y007936D01*
X005406Y008034D01*
X005406Y009136D01*
X004855Y009136D01*
X004855Y009138D02*
X005408Y009138D01*
X005406Y009136D02*
X005504Y009235D01*
X006055Y009235D01*
X006154Y009136D01*
X006705Y009136D01*
X006705Y009138D02*
X006152Y009138D01*
X006154Y009136D02*
X006154Y008939D01*
X006429Y008821D01*
X006705Y008939D01*
X006705Y009432D01*
X006292Y009845D01*
X005268Y009845D01*
X004855Y009432D01*
X004855Y007758D01*
X005268Y007345D01*
X005266Y007347D02*
X006294Y007347D01*
X006297Y007350D02*
X005263Y007350D01*
X005261Y007352D02*
X006299Y007352D01*
X006302Y007355D02*
X005258Y007355D01*
X005256Y007357D02*
X006304Y007357D01*
X006307Y007360D02*
X005253Y007360D01*
X005251Y007362D02*
X006309Y007362D01*
X006311Y007365D02*
X005248Y007365D01*
X005246Y007367D02*
X006314Y007367D01*
X006316Y007370D02*
X005243Y007370D01*
X005241Y007372D02*
X006319Y007372D01*
X006321Y007375D02*
X005238Y007375D01*
X005236Y007377D02*
X006324Y007377D01*
X006326Y007380D02*
X005233Y007380D01*
X005231Y007382D02*
X006329Y007382D01*
X006331Y007385D02*
X005228Y007385D01*
X005226Y007387D02*
X006334Y007387D01*
X006336Y007390D02*
X005223Y007390D01*
X005221Y007392D02*
X006339Y007392D01*
X006341Y007395D02*
X005218Y007395D01*
X005216Y007397D02*
X006344Y007397D01*
X006346Y007400D02*
X005213Y007400D01*
X005211Y007402D02*
X006349Y007402D01*
X006351Y007404D02*
X005209Y007404D01*
X005206Y007407D02*
X006354Y007407D01*
X006356Y007409D02*
X005204Y007409D01*
X005201Y007412D02*
X006359Y007412D01*
X006361Y007414D02*
X005199Y007414D01*
X005196Y007417D02*
X006364Y007417D01*
X006366Y007419D02*
X005194Y007419D01*
X005191Y007422D02*
X006369Y007422D01*
X006371Y007424D02*
X005189Y007424D01*
X005186Y007427D02*
X006374Y007427D01*
X006376Y007429D02*
X005184Y007429D01*
X005181Y007432D02*
X006378Y007432D01*
X006381Y007434D02*
X005179Y007434D01*
X005176Y007437D02*
X006383Y007437D01*
X006386Y007439D02*
X005174Y007439D01*
X005171Y007442D02*
X006388Y007442D01*
X006391Y007444D02*
X005169Y007444D01*
X005166Y007447D02*
X006393Y007447D01*
X006396Y007449D02*
X005164Y007449D01*
X005161Y007452D02*
X006398Y007452D01*
X006401Y007454D02*
X005159Y007454D01*
X005156Y007457D02*
X006403Y007457D01*
X006406Y007459D02*
X005154Y007459D01*
X005151Y007462D02*
X006408Y007462D01*
X006411Y007464D02*
X005149Y007464D01*
X005146Y007466D02*
X006413Y007466D01*
X006416Y007469D02*
X005144Y007469D01*
X005142Y007471D02*
X006418Y007471D01*
X006421Y007474D02*
X005139Y007474D01*
X005137Y007476D02*
X006423Y007476D01*
X006426Y007479D02*
X005134Y007479D01*
X005132Y007481D02*
X006428Y007481D01*
X006431Y007484D02*
X005129Y007484D01*
X005127Y007486D02*
X006433Y007486D01*
X006436Y007489D02*
X005124Y007489D01*
X005122Y007491D02*
X006438Y007491D01*
X006440Y007494D02*
X005119Y007494D01*
X005117Y007496D02*
X006443Y007496D01*
X006445Y007499D02*
X005114Y007499D01*
X005112Y007501D02*
X006448Y007501D01*
X006450Y007504D02*
X005109Y007504D01*
X005107Y007506D02*
X006453Y007506D01*
X006455Y007509D02*
X005104Y007509D01*
X005102Y007511D02*
X006458Y007511D01*
X006460Y007514D02*
X005099Y007514D01*
X005097Y007516D02*
X006463Y007516D01*
X006465Y007519D02*
X005094Y007519D01*
X005092Y007521D02*
X006468Y007521D01*
X006470Y007524D02*
X005089Y007524D01*
X005087Y007526D02*
X006473Y007526D01*
X006475Y007529D02*
X005084Y007529D01*
X005082Y007531D02*
X006478Y007531D01*
X006480Y007533D02*
X005080Y007533D01*
X005077Y007536D02*
X006483Y007536D01*
X006485Y007538D02*
X005075Y007538D01*
X005072Y007541D02*
X006488Y007541D01*
X006490Y007543D02*
X005070Y007543D01*
X005067Y007546D02*
X006493Y007546D01*
X006495Y007548D02*
X005065Y007548D01*
X005062Y007551D02*
X006498Y007551D01*
X006500Y007553D02*
X005060Y007553D01*
X005057Y007556D02*
X006502Y007556D01*
X006505Y007558D02*
X005055Y007558D01*
X005052Y007561D02*
X006507Y007561D01*
X006510Y007563D02*
X005050Y007563D01*
X005047Y007566D02*
X006512Y007566D01*
X006515Y007568D02*
X005045Y007568D01*
X005042Y007571D02*
X006517Y007571D01*
X006520Y007573D02*
X005040Y007573D01*
X005037Y007576D02*
X006522Y007576D01*
X006525Y007578D02*
X005035Y007578D01*
X005032Y007581D02*
X006527Y007581D01*
X006530Y007583D02*
X005030Y007583D01*
X005027Y007586D02*
X006532Y007586D01*
X006535Y007588D02*
X005025Y007588D01*
X005022Y007591D02*
X006537Y007591D01*
X006540Y007593D02*
X005020Y007593D01*
X005018Y007595D02*
X006542Y007595D01*
X006545Y007598D02*
X005015Y007598D01*
X005013Y007600D02*
X006547Y007600D01*
X006550Y007603D02*
X005010Y007603D01*
X005008Y007605D02*
X006552Y007605D01*
X006555Y007608D02*
X005005Y007608D01*
X005003Y007610D02*
X006557Y007610D01*
X006560Y007613D02*
X005000Y007613D01*
X004998Y007615D02*
X006562Y007615D01*
X006564Y007618D02*
X004995Y007618D01*
X004993Y007620D02*
X006567Y007620D01*
X006569Y007623D02*
X004990Y007623D01*
X004988Y007625D02*
X006572Y007625D01*
X006574Y007628D02*
X004985Y007628D01*
X004983Y007630D02*
X006577Y007630D01*
X006579Y007633D02*
X004980Y007633D01*
X004978Y007635D02*
X006582Y007635D01*
X006584Y007638D02*
X004975Y007638D01*
X004973Y007640D02*
X006587Y007640D01*
X006589Y007643D02*
X004970Y007643D01*
X004968Y007645D02*
X006592Y007645D01*
X006594Y007648D02*
X004965Y007648D01*
X004963Y007650D02*
X006597Y007650D01*
X006599Y007653D02*
X004960Y007653D01*
X004958Y007655D02*
X006602Y007655D01*
X006604Y007657D02*
X004956Y007657D01*
X004953Y007660D02*
X006607Y007660D01*
X006609Y007662D02*
X004951Y007662D01*
X004948Y007665D02*
X006612Y007665D01*
X006614Y007667D02*
X004946Y007667D01*
X004943Y007670D02*
X006617Y007670D01*
X006619Y007672D02*
X004941Y007672D01*
X004938Y007675D02*
X006622Y007675D01*
X006624Y007677D02*
X004936Y007677D01*
X004933Y007680D02*
X006626Y007680D01*
X006629Y007682D02*
X004931Y007682D01*
X004928Y007685D02*
X006631Y007685D01*
X006634Y007687D02*
X004926Y007687D01*
X004923Y007690D02*
X006636Y007690D01*
X006639Y007692D02*
X004921Y007692D01*
X004918Y007695D02*
X006641Y007695D01*
X006644Y007697D02*
X004916Y007697D01*
X004913Y007700D02*
X006646Y007700D01*
X006649Y007702D02*
X004911Y007702D01*
X004908Y007705D02*
X006651Y007705D01*
X006654Y007707D02*
X004906Y007707D01*
X004903Y007710D02*
X006656Y007710D01*
X006659Y007712D02*
X004901Y007712D01*
X004898Y007715D02*
X006661Y007715D01*
X006664Y007717D02*
X004896Y007717D01*
X004894Y007719D02*
X006666Y007719D01*
X006669Y007722D02*
X004891Y007722D01*
X004889Y007724D02*
X006671Y007724D01*
X006674Y007727D02*
X004886Y007727D01*
X004884Y007729D02*
X006676Y007729D01*
X006679Y007732D02*
X004881Y007732D01*
X004879Y007734D02*
X006681Y007734D01*
X006684Y007737D02*
X004876Y007737D01*
X004874Y007739D02*
X006686Y007739D01*
X006689Y007742D02*
X004871Y007742D01*
X004869Y007744D02*
X006691Y007744D01*
X006693Y007747D02*
X004866Y007747D01*
X004864Y007749D02*
X006696Y007749D01*
X006698Y007752D02*
X004861Y007752D01*
X004859Y007754D02*
X006701Y007754D01*
X006703Y007757D02*
X004856Y007757D01*
X004855Y007759D02*
X006705Y007759D01*
X006705Y007762D02*
X004855Y007762D01*
X004855Y007764D02*
X006705Y007764D01*
X006705Y007767D02*
X004855Y007767D01*
X004855Y007769D02*
X006705Y007769D01*
X006705Y007772D02*
X004855Y007772D01*
X004855Y007774D02*
X006705Y007774D01*
X006705Y007777D02*
X004855Y007777D01*
X004855Y007779D02*
X006705Y007779D01*
X006705Y007781D02*
X004855Y007781D01*
X004855Y007784D02*
X006705Y007784D01*
X006705Y007786D02*
X004855Y007786D01*
X004855Y007789D02*
X006705Y007789D01*
X006705Y007791D02*
X004855Y007791D01*
X004855Y007794D02*
X006705Y007794D01*
X006705Y007796D02*
X004855Y007796D01*
X004855Y007799D02*
X006705Y007799D01*
X006705Y007801D02*
X004855Y007801D01*
X004855Y007804D02*
X006705Y007804D01*
X006705Y007806D02*
X004855Y007806D01*
X004855Y007809D02*
X006705Y007809D01*
X006705Y007811D02*
X004855Y007811D01*
X004855Y007814D02*
X006705Y007814D01*
X006705Y007816D02*
X004855Y007816D01*
X004855Y007819D02*
X006705Y007819D01*
X006705Y007821D02*
X004855Y007821D01*
X004855Y007824D02*
X006705Y007824D01*
X006705Y007826D02*
X004855Y007826D01*
X004855Y007829D02*
X006705Y007829D01*
X006705Y007831D02*
X004855Y007831D01*
X004855Y007834D02*
X006705Y007834D01*
X006705Y007836D02*
X004855Y007836D01*
X004855Y007839D02*
X006705Y007839D01*
X006705Y007841D02*
X004855Y007841D01*
X004855Y007844D02*
X006705Y007844D01*
X006705Y007846D02*
X004855Y007846D01*
X004855Y007848D02*
X006705Y007848D01*
X006705Y007851D02*
X004855Y007851D01*
X004855Y007853D02*
X006705Y007853D01*
X006705Y007856D02*
X004855Y007856D01*
X004855Y007858D02*
X006705Y007858D01*
X006705Y007861D02*
X004855Y007861D01*
X004855Y007863D02*
X006705Y007863D01*
X006705Y007866D02*
X004855Y007866D01*
X004855Y007868D02*
X006705Y007868D01*
X006705Y007871D02*
X004855Y007871D01*
X004855Y007873D02*
X006705Y007873D01*
X006705Y007876D02*
X004855Y007876D01*
X004855Y007878D02*
X006705Y007878D01*
X006705Y007881D02*
X004855Y007881D01*
X004855Y007883D02*
X006705Y007883D01*
X006705Y007886D02*
X004855Y007886D01*
X004855Y007888D02*
X006705Y007888D01*
X006705Y007891D02*
X004855Y007891D01*
X004855Y007893D02*
X006705Y007893D01*
X006705Y007896D02*
X004855Y007896D01*
X004855Y007898D02*
X006705Y007898D01*
X006705Y007901D02*
X004855Y007901D01*
X004855Y007903D02*
X006705Y007903D01*
X006705Y007906D02*
X004855Y007906D01*
X004855Y007908D02*
X006705Y007908D01*
X006705Y007910D02*
X004855Y007910D01*
X004855Y007913D02*
X006705Y007913D01*
X006705Y007915D02*
X004855Y007915D01*
X004855Y007918D02*
X006705Y007918D01*
X006705Y007920D02*
X004855Y007920D01*
X004855Y007923D02*
X006705Y007923D01*
X006705Y007925D02*
X004855Y007925D01*
X004855Y007928D02*
X006705Y007928D01*
X006705Y007930D02*
X004855Y007930D01*
X004855Y007933D02*
X006705Y007933D01*
X006705Y007935D02*
X004855Y007935D01*
X004855Y007938D02*
X005502Y007938D01*
X005500Y007940D02*
X004855Y007940D01*
X004855Y007943D02*
X005497Y007943D01*
X005495Y007945D02*
X004855Y007945D01*
X004855Y007948D02*
X005492Y007948D01*
X005490Y007950D02*
X004855Y007950D01*
X004855Y007953D02*
X005487Y007953D01*
X005485Y007955D02*
X004855Y007955D01*
X004855Y007958D02*
X005482Y007958D01*
X005480Y007960D02*
X004855Y007960D01*
X004855Y007963D02*
X005477Y007963D01*
X005475Y007965D02*
X004855Y007965D01*
X004855Y007968D02*
X005472Y007968D01*
X005470Y007970D02*
X004855Y007970D01*
X004855Y007972D02*
X005467Y007972D01*
X005465Y007975D02*
X004855Y007975D01*
X004855Y007977D02*
X005462Y007977D01*
X005460Y007980D02*
X004855Y007980D01*
X004855Y007982D02*
X005457Y007982D01*
X005455Y007985D02*
X004855Y007985D01*
X004855Y007987D02*
X005452Y007987D01*
X005450Y007990D02*
X004855Y007990D01*
X004855Y007992D02*
X005447Y007992D01*
X005445Y007995D02*
X004855Y007995D01*
X004855Y007997D02*
X005442Y007997D01*
X005440Y008000D02*
X004855Y008000D01*
X004855Y008002D02*
X005438Y008002D01*
X005435Y008005D02*
X004855Y008005D01*
X004855Y008007D02*
X005433Y008007D01*
X005430Y008010D02*
X004855Y008010D01*
X004855Y008012D02*
X005428Y008012D01*
X005425Y008015D02*
X004855Y008015D01*
X004855Y008017D02*
X005423Y008017D01*
X005420Y008020D02*
X004855Y008020D01*
X004855Y008022D02*
X005418Y008022D01*
X005415Y008025D02*
X004855Y008025D01*
X004855Y008027D02*
X005413Y008027D01*
X005410Y008030D02*
X004855Y008030D01*
X004855Y008032D02*
X005408Y008032D01*
X005406Y008034D02*
X004855Y008034D01*
X004855Y008037D02*
X005406Y008037D01*
X005406Y008039D02*
X004855Y008039D01*
X004855Y008042D02*
X005406Y008042D01*
X005406Y008044D02*
X004855Y008044D01*
X004855Y008047D02*
X005406Y008047D01*
X005406Y008049D02*
X004855Y008049D01*
X004855Y008052D02*
X005406Y008052D01*
X005406Y008054D02*
X004855Y008054D01*
X004855Y008057D02*
X005406Y008057D01*
X005406Y008059D02*
X004855Y008059D01*
X004855Y008062D02*
X005406Y008062D01*
X005406Y008064D02*
X004855Y008064D01*
X004855Y008067D02*
X005406Y008067D01*
X005406Y008069D02*
X004855Y008069D01*
X004855Y008072D02*
X005406Y008072D01*
X005406Y008074D02*
X004855Y008074D01*
X004855Y008077D02*
X005406Y008077D01*
X005406Y008079D02*
X004855Y008079D01*
X004855Y008082D02*
X005406Y008082D01*
X005406Y008084D02*
X004855Y008084D01*
X004855Y008087D02*
X005406Y008087D01*
X005406Y008089D02*
X004855Y008089D01*
X004855Y008092D02*
X005406Y008092D01*
X005406Y008094D02*
X004855Y008094D01*
X004855Y008096D02*
X005406Y008096D01*
X005406Y008099D02*
X004855Y008099D01*
X004855Y008101D02*
X005406Y008101D01*
X005406Y008104D02*
X004855Y008104D01*
X004855Y008106D02*
X005406Y008106D01*
X005406Y008109D02*
X004855Y008109D01*
X004855Y008111D02*
X005406Y008111D01*
X005406Y008114D02*
X004855Y008114D01*
X004855Y008116D02*
X005406Y008116D01*
X005406Y008119D02*
X004855Y008119D01*
X004855Y008121D02*
X005406Y008121D01*
X005406Y008124D02*
X004855Y008124D01*
X004855Y008126D02*
X005406Y008126D01*
X005406Y008129D02*
X004855Y008129D01*
X004855Y008131D02*
X005406Y008131D01*
X005406Y008134D02*
X004855Y008134D01*
X004855Y008136D02*
X005406Y008136D01*
X005406Y008139D02*
X004855Y008139D01*
X004855Y008141D02*
X005406Y008141D01*
X005406Y008144D02*
X004855Y008144D01*
X004855Y008146D02*
X005406Y008146D01*
X005406Y008149D02*
X004855Y008149D01*
X004855Y008151D02*
X005406Y008151D01*
X005406Y008154D02*
X004855Y008154D01*
X004855Y008156D02*
X005406Y008156D01*
X005406Y008159D02*
X004855Y008159D01*
X004855Y008161D02*
X005406Y008161D01*
X005406Y008163D02*
X004855Y008163D01*
X004855Y008166D02*
X005406Y008166D01*
X005406Y008168D02*
X004855Y008168D01*
X004855Y008171D02*
X005406Y008171D01*
X005406Y008173D02*
X004855Y008173D01*
X004855Y008176D02*
X005406Y008176D01*
X005406Y008178D02*
X004855Y008178D01*
X004855Y008181D02*
X005406Y008181D01*
X005406Y008183D02*
X004855Y008183D01*
X004855Y008186D02*
X005406Y008186D01*
X005406Y008188D02*
X004855Y008188D01*
X004855Y008191D02*
X005406Y008191D01*
X005406Y008193D02*
X004855Y008193D01*
X004855Y008196D02*
X005406Y008196D01*
X005406Y008198D02*
X004855Y008198D01*
X004855Y008201D02*
X005406Y008201D01*
X005406Y008203D02*
X004855Y008203D01*
X004855Y008206D02*
X005406Y008206D01*
X005406Y008208D02*
X004855Y008208D01*
X004855Y008211D02*
X005406Y008211D01*
X005406Y008213D02*
X004855Y008213D01*
X004855Y008216D02*
X005406Y008216D01*
X005406Y008218D02*
X004855Y008218D01*
X004855Y008221D02*
X005406Y008221D01*
X005406Y008223D02*
X004855Y008223D01*
X004855Y008225D02*
X005406Y008225D01*
X005406Y008228D02*
X004855Y008228D01*
X004855Y008230D02*
X005406Y008230D01*
X005406Y008233D02*
X004855Y008233D01*
X004855Y008235D02*
X005406Y008235D01*
X005406Y008238D02*
X004855Y008238D01*
X004855Y008240D02*
X005406Y008240D01*
X005406Y008243D02*
X004855Y008243D01*
X004855Y008245D02*
X005406Y008245D01*
X005406Y008248D02*
X004855Y008248D01*
X004855Y008250D02*
X005406Y008250D01*
X005406Y008253D02*
X004855Y008253D01*
X004855Y008255D02*
X005406Y008255D01*
X005406Y008258D02*
X004855Y008258D01*
X004855Y008260D02*
X005406Y008260D01*
X005406Y008263D02*
X004855Y008263D01*
X004855Y008265D02*
X005406Y008265D01*
X005406Y008268D02*
X004855Y008268D01*
X004855Y008270D02*
X005406Y008270D01*
X005406Y008273D02*
X004855Y008273D01*
X004855Y008275D02*
X005406Y008275D01*
X005406Y008278D02*
X004855Y008278D01*
X004855Y008280D02*
X005406Y008280D01*
X005406Y008283D02*
X004855Y008283D01*
X004855Y008285D02*
X005406Y008285D01*
X005406Y008287D02*
X004855Y008287D01*
X004855Y008290D02*
X005406Y008290D01*
X005406Y008292D02*
X004855Y008292D01*
X004855Y008295D02*
X005406Y008295D01*
X005406Y008297D02*
X004855Y008297D01*
X004855Y008300D02*
X005406Y008300D01*
X005406Y008302D02*
X004855Y008302D01*
X004855Y008305D02*
X005406Y008305D01*
X005406Y008307D02*
X004855Y008307D01*
X004855Y008310D02*
X005406Y008310D01*
X005406Y008312D02*
X004855Y008312D01*
X004855Y008315D02*
X005406Y008315D01*
X005406Y008317D02*
X004855Y008317D01*
X004855Y008320D02*
X005406Y008320D01*
X005406Y008322D02*
X004855Y008322D01*
X004855Y008325D02*
X005406Y008325D01*
X005406Y008327D02*
X004855Y008327D01*
X004855Y008330D02*
X005406Y008330D01*
X005406Y008332D02*
X004855Y008332D01*
X004855Y008335D02*
X005406Y008335D01*
X005406Y008337D02*
X004855Y008337D01*
X004855Y008340D02*
X005406Y008340D01*
X005406Y008342D02*
X004855Y008342D01*
X004855Y008345D02*
X005406Y008345D01*
X005406Y008347D02*
X004855Y008347D01*
X004855Y008349D02*
X005406Y008349D01*
X005406Y008352D02*
X004855Y008352D01*
X004855Y008354D02*
X005406Y008354D01*
X005406Y008357D02*
X004855Y008357D01*
X004855Y008359D02*
X005406Y008359D01*
X005406Y008362D02*
X004855Y008362D01*
X004855Y008364D02*
X005406Y008364D01*
X005406Y008367D02*
X004855Y008367D01*
X004855Y008369D02*
X005406Y008369D01*
X005406Y008372D02*
X004855Y008372D01*
X004855Y008374D02*
X005406Y008374D01*
X005406Y008377D02*
X004855Y008377D01*
X004855Y008379D02*
X005406Y008379D01*
X005406Y008382D02*
X004855Y008382D01*
X004855Y008384D02*
X005406Y008384D01*
X005406Y008387D02*
X004855Y008387D01*
X004855Y008389D02*
X005406Y008389D01*
X005406Y008392D02*
X004855Y008392D01*
X004855Y008394D02*
X005406Y008394D01*
X005406Y008397D02*
X004855Y008397D01*
X004855Y008399D02*
X005406Y008399D01*
X005406Y008402D02*
X004855Y008402D01*
X004855Y008404D02*
X005406Y008404D01*
X005406Y008407D02*
X004855Y008407D01*
X004855Y008409D02*
X005406Y008409D01*
X005406Y008411D02*
X004855Y008411D01*
X004855Y008414D02*
X005406Y008414D01*
X005406Y008416D02*
X004855Y008416D01*
X004855Y008419D02*
X005406Y008419D01*
X005406Y008421D02*
X004855Y008421D01*
X004855Y008424D02*
X005406Y008424D01*
X005406Y008426D02*
X004855Y008426D01*
X004855Y008429D02*
X005406Y008429D01*
X005406Y008431D02*
X004855Y008431D01*
X004855Y008434D02*
X005406Y008434D01*
X005406Y008436D02*
X004855Y008436D01*
X004855Y008439D02*
X005406Y008439D01*
X005406Y008441D02*
X004855Y008441D01*
X004855Y008444D02*
X005406Y008444D01*
X005406Y008446D02*
X004855Y008446D01*
X004855Y008449D02*
X005406Y008449D01*
X005406Y008451D02*
X004855Y008451D01*
X004855Y008454D02*
X005406Y008454D01*
X005406Y008456D02*
X004855Y008456D01*
X004855Y008459D02*
X005406Y008459D01*
X005406Y008461D02*
X004855Y008461D01*
X004855Y008464D02*
X005406Y008464D01*
X005406Y008466D02*
X004855Y008466D01*
X004855Y008469D02*
X005406Y008469D01*
X005406Y008471D02*
X004855Y008471D01*
X004855Y008474D02*
X005406Y008474D01*
X005406Y008476D02*
X004855Y008476D01*
X004855Y008478D02*
X005406Y008478D01*
X005406Y008481D02*
X004855Y008481D01*
X004855Y008483D02*
X005406Y008483D01*
X005406Y008486D02*
X004855Y008486D01*
X004855Y008488D02*
X005406Y008488D01*
X005406Y008491D02*
X004855Y008491D01*
X004855Y008493D02*
X005406Y008493D01*
X005406Y008496D02*
X004855Y008496D01*
X004855Y008498D02*
X005406Y008498D01*
X005406Y008501D02*
X004855Y008501D01*
X004855Y008503D02*
X005406Y008503D01*
X005406Y008506D02*
X004855Y008506D01*
X004855Y008508D02*
X005406Y008508D01*
X005406Y008511D02*
X004855Y008511D01*
X004855Y008513D02*
X005406Y008513D01*
X005406Y008516D02*
X004855Y008516D01*
X004855Y008518D02*
X005406Y008518D01*
X005406Y008521D02*
X004855Y008521D01*
X004855Y008523D02*
X005406Y008523D01*
X005406Y008526D02*
X004855Y008526D01*
X004855Y008528D02*
X005406Y008528D01*
X005406Y008531D02*
X004855Y008531D01*
X004855Y008533D02*
X005406Y008533D01*
X005406Y008536D02*
X004855Y008536D01*
X004855Y008538D02*
X005406Y008538D01*
X005406Y008540D02*
X004855Y008540D01*
X004855Y008543D02*
X005406Y008543D01*
X005406Y008545D02*
X004855Y008545D01*
X004855Y008548D02*
X005406Y008548D01*
X005406Y008550D02*
X004855Y008550D01*
X004855Y008553D02*
X005406Y008553D01*
X005406Y008555D02*
X004855Y008555D01*
X004855Y008558D02*
X005406Y008558D01*
X005406Y008560D02*
X004855Y008560D01*
X004855Y008563D02*
X005406Y008563D01*
X005406Y008565D02*
X004855Y008565D01*
X004855Y008568D02*
X005406Y008568D01*
X005406Y008570D02*
X004855Y008570D01*
X004855Y008573D02*
X005406Y008573D01*
X005406Y008575D02*
X004855Y008575D01*
X004855Y008578D02*
X005406Y008578D01*
X005406Y008580D02*
X004855Y008580D01*
X004855Y008583D02*
X005406Y008583D01*
X005406Y008585D02*
X004855Y008585D01*
X004855Y008588D02*
X005406Y008588D01*
X005406Y008590D02*
X004855Y008590D01*
X004855Y008593D02*
X005406Y008593D01*
X005406Y008595D02*
X004855Y008595D01*
X004855Y008598D02*
X005406Y008598D01*
X005406Y008600D02*
X004855Y008600D01*
X004855Y008602D02*
X005406Y008602D01*
X005406Y008605D02*
X004855Y008605D01*
X004855Y008607D02*
X005406Y008607D01*
X005406Y008610D02*
X004855Y008610D01*
X004855Y008612D02*
X005406Y008612D01*
X005406Y008615D02*
X004855Y008615D01*
X004855Y008617D02*
X005406Y008617D01*
X005406Y008620D02*
X004855Y008620D01*
X004855Y008622D02*
X005406Y008622D01*
X005406Y008625D02*
X004855Y008625D01*
X004855Y008627D02*
X005406Y008627D01*
X005406Y008630D02*
X004855Y008630D01*
X004855Y008632D02*
X005406Y008632D01*
X005406Y008635D02*
X004855Y008635D01*
X004855Y008637D02*
X005406Y008637D01*
X005406Y008640D02*
X004855Y008640D01*
X004855Y008642D02*
X005406Y008642D01*
X005406Y008645D02*
X004855Y008645D01*
X004855Y008647D02*
X005406Y008647D01*
X005406Y008650D02*
X004855Y008650D01*
X004855Y008652D02*
X005406Y008652D01*
X005406Y008655D02*
X004855Y008655D01*
X004855Y008657D02*
X005406Y008657D01*
X005406Y008660D02*
X004855Y008660D01*
X004855Y008662D02*
X005406Y008662D01*
X005406Y008664D02*
X004855Y008664D01*
X004855Y008667D02*
X005406Y008667D01*
X005406Y008669D02*
X004855Y008669D01*
X004855Y008672D02*
X005406Y008672D01*
X005406Y008674D02*
X004855Y008674D01*
X004855Y008677D02*
X005406Y008677D01*
X005406Y008679D02*
X004855Y008679D01*
X004855Y008682D02*
X005406Y008682D01*
X005406Y008684D02*
X004855Y008684D01*
X004855Y008687D02*
X005406Y008687D01*
X005406Y008689D02*
X004855Y008689D01*
X004855Y008692D02*
X005406Y008692D01*
X005406Y008694D02*
X004855Y008694D01*
X004855Y008697D02*
X005406Y008697D01*
X005406Y008699D02*
X004855Y008699D01*
X004855Y008702D02*
X005406Y008702D01*
X005406Y008704D02*
X004855Y008704D01*
X004855Y008707D02*
X005406Y008707D01*
X005406Y008709D02*
X004855Y008709D01*
X004855Y008712D02*
X005406Y008712D01*
X005406Y008714D02*
X004855Y008714D01*
X004855Y008717D02*
X005406Y008717D01*
X005406Y008719D02*
X004855Y008719D01*
X004855Y008722D02*
X005406Y008722D01*
X005406Y008724D02*
X004855Y008724D01*
X004855Y008726D02*
X005406Y008726D01*
X005406Y008729D02*
X004855Y008729D01*
X004855Y008731D02*
X005406Y008731D01*
X005406Y008734D02*
X004855Y008734D01*
X004855Y008736D02*
X005406Y008736D01*
X005406Y008739D02*
X004855Y008739D01*
X004855Y008741D02*
X005406Y008741D01*
X005406Y008744D02*
X004855Y008744D01*
X004855Y008746D02*
X005406Y008746D01*
X005406Y008749D02*
X004855Y008749D01*
X004855Y008751D02*
X005406Y008751D01*
X005406Y008754D02*
X004855Y008754D01*
X004855Y008756D02*
X005406Y008756D01*
X005406Y008759D02*
X004855Y008759D01*
X004855Y008761D02*
X005406Y008761D01*
X005406Y008764D02*
X004855Y008764D01*
X004855Y008766D02*
X005406Y008766D01*
X005406Y008769D02*
X004855Y008769D01*
X004855Y008771D02*
X005406Y008771D01*
X005406Y008774D02*
X004855Y008774D01*
X004855Y008776D02*
X005406Y008776D01*
X005406Y008779D02*
X004855Y008779D01*
X004855Y008781D02*
X005406Y008781D01*
X005406Y008784D02*
X004855Y008784D01*
X004855Y008786D02*
X005406Y008786D01*
X005406Y008789D02*
X004855Y008789D01*
X004855Y008791D02*
X005406Y008791D01*
X005406Y008793D02*
X004855Y008793D01*
X004855Y008796D02*
X005406Y008796D01*
X005406Y008798D02*
X004855Y008798D01*
X004855Y008801D02*
X005406Y008801D01*
X005406Y008803D02*
X004855Y008803D01*
X004855Y008806D02*
X005406Y008806D01*
X005406Y008808D02*
X004855Y008808D01*
X004855Y008811D02*
X005406Y008811D01*
X005406Y008813D02*
X004855Y008813D01*
X004855Y008816D02*
X005406Y008816D01*
X005406Y008818D02*
X004855Y008818D01*
X004855Y008821D02*
X005406Y008821D01*
X005406Y008823D02*
X004855Y008823D01*
X004855Y008826D02*
X005406Y008826D01*
X005406Y008828D02*
X004855Y008828D01*
X004855Y008831D02*
X005406Y008831D01*
X005406Y008833D02*
X004855Y008833D01*
X004855Y008836D02*
X005406Y008836D01*
X005406Y008838D02*
X004855Y008838D01*
X004855Y008841D02*
X005406Y008841D01*
X005406Y008843D02*
X004855Y008843D01*
X004855Y008846D02*
X005406Y008846D01*
X005406Y008848D02*
X004855Y008848D01*
X004855Y008851D02*
X005406Y008851D01*
X005406Y008853D02*
X004855Y008853D01*
X004855Y008855D02*
X005406Y008855D01*
X005406Y008858D02*
X004855Y008858D01*
X004855Y008860D02*
X005406Y008860D01*
X005406Y008863D02*
X004855Y008863D01*
X004855Y008865D02*
X005406Y008865D01*
X005406Y008868D02*
X004855Y008868D01*
X004855Y008870D02*
X005406Y008870D01*
X005406Y008873D02*
X004855Y008873D01*
X004855Y008875D02*
X005406Y008875D01*
X005406Y008878D02*
X004855Y008878D01*
X004855Y008880D02*
X005406Y008880D01*
X005406Y008883D02*
X004855Y008883D01*
X004855Y008885D02*
X005406Y008885D01*
X005406Y008888D02*
X004855Y008888D01*
X004855Y008890D02*
X005406Y008890D01*
X005406Y008893D02*
X004855Y008893D01*
X004855Y008895D02*
X005406Y008895D01*
X005406Y008898D02*
X004855Y008898D01*
X004855Y008900D02*
X005406Y008900D01*
X005406Y008903D02*
X004855Y008903D01*
X004855Y008905D02*
X005406Y008905D01*
X005406Y008908D02*
X004855Y008908D01*
X004855Y008910D02*
X005406Y008910D01*
X005406Y008913D02*
X004855Y008913D01*
X004855Y008915D02*
X005406Y008915D01*
X005406Y008917D02*
X004855Y008917D01*
X004855Y008920D02*
X005406Y008920D01*
X005406Y008922D02*
X004855Y008922D01*
X004855Y008925D02*
X005406Y008925D01*
X005406Y008927D02*
X004855Y008927D01*
X004855Y008930D02*
X005406Y008930D01*
X005406Y008932D02*
X004855Y008932D01*
X004855Y008935D02*
X005406Y008935D01*
X005406Y008937D02*
X004855Y008937D01*
X004855Y008940D02*
X005406Y008940D01*
X005406Y008942D02*
X004855Y008942D01*
X004855Y008945D02*
X005406Y008945D01*
X005406Y008947D02*
X004855Y008947D01*
X004855Y008950D02*
X005406Y008950D01*
X005406Y008952D02*
X004855Y008952D01*
X004855Y008955D02*
X005406Y008955D01*
X005406Y008957D02*
X004855Y008957D01*
X004855Y008960D02*
X005406Y008960D01*
X005406Y008962D02*
X004855Y008962D01*
X004855Y008965D02*
X005406Y008965D01*
X005406Y008967D02*
X004855Y008967D01*
X004855Y008970D02*
X005406Y008970D01*
X005406Y008972D02*
X004855Y008972D01*
X004855Y008975D02*
X005406Y008975D01*
X005406Y008977D02*
X004855Y008977D01*
X004855Y008979D02*
X005406Y008979D01*
X005406Y008982D02*
X004855Y008982D01*
X004855Y008984D02*
X005406Y008984D01*
X005406Y008987D02*
X004855Y008987D01*
X004855Y008989D02*
X005406Y008989D01*
X005406Y008992D02*
X004855Y008992D01*
X004855Y008994D02*
X005406Y008994D01*
X005406Y008997D02*
X004855Y008997D01*
X004855Y008999D02*
X005406Y008999D01*
X005406Y009002D02*
X004855Y009002D01*
X004855Y009004D02*
X005406Y009004D01*
X005406Y009007D02*
X004855Y009007D01*
X004855Y009009D02*
X005406Y009009D01*
X005406Y009012D02*
X004855Y009012D01*
X004855Y009014D02*
X005406Y009014D01*
X005406Y009017D02*
X004855Y009017D01*
X004855Y009019D02*
X005406Y009019D01*
X005406Y009022D02*
X004855Y009022D01*
X004855Y009024D02*
X005406Y009024D01*
X005406Y009027D02*
X004855Y009027D01*
X004855Y009029D02*
X005406Y009029D01*
X005406Y009032D02*
X004855Y009032D01*
X004855Y009034D02*
X005406Y009034D01*
X005406Y009037D02*
X004855Y009037D01*
X004855Y009039D02*
X005406Y009039D01*
X005406Y009041D02*
X004855Y009041D01*
X004855Y009044D02*
X005406Y009044D01*
X005406Y009046D02*
X004855Y009046D01*
X004855Y009049D02*
X005406Y009049D01*
X005406Y009051D02*
X004855Y009051D01*
X004855Y009054D02*
X005406Y009054D01*
X005406Y009056D02*
X004855Y009056D01*
X004855Y009059D02*
X005406Y009059D01*
X005406Y009061D02*
X004855Y009061D01*
X004855Y009064D02*
X005406Y009064D01*
X005406Y009066D02*
X004855Y009066D01*
X004855Y009069D02*
X005406Y009069D01*
X005406Y009071D02*
X004855Y009071D01*
X004855Y009074D02*
X005406Y009074D01*
X005406Y009076D02*
X004855Y009076D01*
X004855Y009079D02*
X005406Y009079D01*
X005406Y009081D02*
X004855Y009081D01*
X004855Y009084D02*
X005406Y009084D01*
X005406Y009086D02*
X004855Y009086D01*
X004855Y009089D02*
X005406Y009089D01*
X005406Y009091D02*
X004855Y009091D01*
X004855Y009094D02*
X005406Y009094D01*
X005406Y009096D02*
X004855Y009096D01*
X004855Y009099D02*
X005406Y009099D01*
X005406Y009101D02*
X004855Y009101D01*
X004855Y009104D02*
X005406Y009104D01*
X005406Y009106D02*
X004855Y009106D01*
X004855Y009108D02*
X005406Y009108D01*
X005406Y009111D02*
X004855Y009111D01*
X004855Y009113D02*
X005406Y009113D01*
X005406Y009116D02*
X004855Y009116D01*
X004855Y009118D02*
X005406Y009118D01*
X005406Y009121D02*
X004855Y009121D01*
X004855Y009123D02*
X005406Y009123D01*
X005406Y009126D02*
X004855Y009126D01*
X004855Y009128D02*
X005406Y009128D01*
X005406Y009131D02*
X004855Y009131D01*
X004855Y009133D02*
X005406Y009133D01*
X005410Y009141D02*
X004855Y009141D01*
X004855Y009143D02*
X005413Y009143D01*
X005415Y009146D02*
X004855Y009146D01*
X004855Y009148D02*
X005418Y009148D01*
X005420Y009151D02*
X004855Y009151D01*
X004855Y009153D02*
X005423Y009153D01*
X005425Y009156D02*
X004855Y009156D01*
X004855Y009158D02*
X005428Y009158D01*
X005430Y009161D02*
X004855Y009161D01*
X004855Y009163D02*
X005433Y009163D01*
X005435Y009166D02*
X004855Y009166D01*
X004855Y009168D02*
X005438Y009168D01*
X005440Y009170D02*
X004855Y009170D01*
X004855Y009173D02*
X005442Y009173D01*
X005445Y009175D02*
X004855Y009175D01*
X004855Y009178D02*
X005447Y009178D01*
X005450Y009180D02*
X004855Y009180D01*
X004855Y009183D02*
X005452Y009183D01*
X005455Y009185D02*
X004855Y009185D01*
X004855Y009188D02*
X005457Y009188D01*
X005460Y009190D02*
X004855Y009190D01*
X004855Y009193D02*
X005462Y009193D01*
X005465Y009195D02*
X004855Y009195D01*
X004855Y009198D02*
X005467Y009198D01*
X005470Y009200D02*
X004855Y009200D01*
X004855Y009203D02*
X005472Y009203D01*
X005475Y009205D02*
X004855Y009205D01*
X004855Y009208D02*
X005477Y009208D01*
X005480Y009210D02*
X004855Y009210D01*
X004855Y009213D02*
X005482Y009213D01*
X005485Y009215D02*
X004855Y009215D01*
X004855Y009218D02*
X005487Y009218D01*
X005490Y009220D02*
X004855Y009220D01*
X004855Y009223D02*
X005492Y009223D01*
X005495Y009225D02*
X004855Y009225D01*
X004855Y009228D02*
X005497Y009228D01*
X005500Y009230D02*
X004855Y009230D01*
X004855Y009232D02*
X005502Y009232D01*
X005137Y009714D02*
X006423Y009714D01*
X006420Y009716D02*
X005139Y009716D01*
X005142Y009719D02*
X006418Y009719D01*
X006416Y009721D02*
X005144Y009721D01*
X005147Y009724D02*
X006413Y009724D01*
X006411Y009726D02*
X005149Y009726D01*
X005152Y009729D02*
X006408Y009729D01*
X006406Y009731D02*
X005154Y009731D01*
X005157Y009734D02*
X006403Y009734D01*
X006401Y009736D02*
X005159Y009736D01*
X005162Y009738D02*
X006398Y009738D01*
X006396Y009741D02*
X005164Y009741D01*
X005166Y009743D02*
X006393Y009743D01*
X006391Y009746D02*
X005169Y009746D01*
X005171Y009748D02*
X006388Y009748D01*
X006386Y009751D02*
X005174Y009751D01*
X005176Y009753D02*
X006383Y009753D01*
X006381Y009756D02*
X005179Y009756D01*
X005181Y009758D02*
X006378Y009758D01*
X006376Y009761D02*
X005184Y009761D01*
X005186Y009763D02*
X006373Y009763D01*
X006371Y009766D02*
X005189Y009766D01*
X005191Y009768D02*
X006368Y009768D01*
X006366Y009771D02*
X005194Y009771D01*
X005196Y009773D02*
X006363Y009773D01*
X006361Y009776D02*
X005199Y009776D01*
X005201Y009778D02*
X006358Y009778D01*
X006356Y009781D02*
X005204Y009781D01*
X005206Y009783D02*
X006354Y009783D01*
X006351Y009786D02*
X005209Y009786D01*
X005211Y009788D02*
X006349Y009788D01*
X006346Y009791D02*
X005214Y009791D01*
X005216Y009793D02*
X006344Y009793D01*
X006341Y009796D02*
X005219Y009796D01*
X005221Y009798D02*
X006339Y009798D01*
X006336Y009800D02*
X005224Y009800D01*
X005226Y009803D02*
X006334Y009803D01*
X006331Y009805D02*
X005229Y009805D01*
X005231Y009808D02*
X006329Y009808D01*
X006326Y009810D02*
X005233Y009810D01*
X005236Y009813D02*
X006324Y009813D01*
X006321Y009815D02*
X005238Y009815D01*
X005241Y009818D02*
X006319Y009818D01*
X006316Y009820D02*
X005243Y009820D01*
X005246Y009823D02*
X006314Y009823D01*
X006311Y009825D02*
X005248Y009825D01*
X005251Y009828D02*
X006309Y009828D01*
X006306Y009830D02*
X005253Y009830D01*
X005256Y009833D02*
X006304Y009833D01*
X006301Y009835D02*
X005258Y009835D01*
X005261Y009838D02*
X006299Y009838D01*
X006296Y009840D02*
X005263Y009840D01*
X005266Y009843D02*
X006294Y009843D01*
X006425Y009711D02*
X005134Y009711D01*
X005132Y009709D02*
X006428Y009709D01*
X006430Y009706D02*
X005129Y009706D01*
X005127Y009704D02*
X006433Y009704D01*
X006435Y009701D02*
X005124Y009701D01*
X005122Y009699D02*
X006438Y009699D01*
X006440Y009696D02*
X005119Y009696D01*
X005117Y009694D02*
X006443Y009694D01*
X006445Y009691D02*
X005114Y009691D01*
X005112Y009689D02*
X006448Y009689D01*
X006450Y009686D02*
X005109Y009686D01*
X005107Y009684D02*
X006453Y009684D01*
X006455Y009681D02*
X005104Y009681D01*
X005102Y009679D02*
X006458Y009679D01*
X006460Y009676D02*
X005100Y009676D01*
X005097Y009674D02*
X006463Y009674D01*
X006465Y009671D02*
X005095Y009671D01*
X005092Y009669D02*
X006468Y009669D01*
X006470Y009667D02*
X005090Y009667D01*
X005087Y009664D02*
X006473Y009664D01*
X006475Y009662D02*
X005085Y009662D01*
X005082Y009659D02*
X006478Y009659D01*
X006480Y009657D02*
X005080Y009657D01*
X005077Y009654D02*
X006482Y009654D01*
X006485Y009652D02*
X005075Y009652D01*
X005072Y009649D02*
X006487Y009649D01*
X006490Y009647D02*
X005070Y009647D01*
X005067Y009644D02*
X006492Y009644D01*
X006495Y009642D02*
X005065Y009642D01*
X005062Y009639D02*
X006497Y009639D01*
X006500Y009637D02*
X005060Y009637D01*
X005057Y009634D02*
X006502Y009634D01*
X006505Y009632D02*
X005055Y009632D01*
X005052Y009629D02*
X006507Y009629D01*
X006510Y009627D02*
X005050Y009627D01*
X005047Y009624D02*
X006512Y009624D01*
X006515Y009622D02*
X005045Y009622D01*
X005042Y009619D02*
X006517Y009619D01*
X006520Y009617D02*
X005040Y009617D01*
X005038Y009614D02*
X006522Y009614D01*
X006525Y009612D02*
X005035Y009612D01*
X005033Y009609D02*
X006527Y009609D01*
X006530Y009607D02*
X005030Y009607D01*
X005028Y009605D02*
X006532Y009605D01*
X006535Y009602D02*
X005025Y009602D01*
X005023Y009600D02*
X006537Y009600D01*
X006540Y009597D02*
X005020Y009597D01*
X005018Y009595D02*
X006542Y009595D01*
X006544Y009592D02*
X005015Y009592D01*
X005013Y009590D02*
X006547Y009590D01*
X006549Y009587D02*
X005010Y009587D01*
X005008Y009585D02*
X006552Y009585D01*
X006554Y009582D02*
X005005Y009582D01*
X005003Y009580D02*
X006557Y009580D01*
X006559Y009577D02*
X005000Y009577D01*
X004998Y009575D02*
X006562Y009575D01*
X006564Y009572D02*
X004995Y009572D01*
X004993Y009570D02*
X006567Y009570D01*
X006569Y009567D02*
X004990Y009567D01*
X004988Y009565D02*
X006572Y009565D01*
X006574Y009562D02*
X004985Y009562D01*
X004983Y009560D02*
X006577Y009560D01*
X006579Y009557D02*
X004980Y009557D01*
X004978Y009555D02*
X006582Y009555D01*
X006584Y009552D02*
X004976Y009552D01*
X004973Y009550D02*
X006587Y009550D01*
X006589Y009547D02*
X004971Y009547D01*
X004968Y009545D02*
X006592Y009545D01*
X006594Y009543D02*
X004966Y009543D01*
X004963Y009540D02*
X006597Y009540D01*
X006599Y009538D02*
X004961Y009538D01*
X004958Y009535D02*
X006602Y009535D01*
X006604Y009533D02*
X004956Y009533D01*
X004953Y009530D02*
X006606Y009530D01*
X006609Y009528D02*
X004951Y009528D01*
X004948Y009525D02*
X006611Y009525D01*
X006614Y009523D02*
X004946Y009523D01*
X004943Y009520D02*
X006616Y009520D01*
X006619Y009518D02*
X004941Y009518D01*
X004938Y009515D02*
X006621Y009515D01*
X006624Y009513D02*
X004936Y009513D01*
X004933Y009510D02*
X006626Y009510D01*
X006629Y009508D02*
X004931Y009508D01*
X004928Y009505D02*
X006631Y009505D01*
X006634Y009503D02*
X004926Y009503D01*
X004923Y009500D02*
X006636Y009500D01*
X006639Y009498D02*
X004921Y009498D01*
X004918Y009495D02*
X006641Y009495D01*
X006644Y009493D02*
X004916Y009493D01*
X004914Y009490D02*
X006646Y009490D01*
X006649Y009488D02*
X004911Y009488D01*
X004909Y009485D02*
X006651Y009485D01*
X006654Y009483D02*
X004906Y009483D01*
X004904Y009481D02*
X006656Y009481D01*
X006659Y009478D02*
X004901Y009478D01*
X004899Y009476D02*
X006661Y009476D01*
X006664Y009473D02*
X004896Y009473D01*
X004894Y009471D02*
X006666Y009471D01*
X006669Y009468D02*
X004891Y009468D01*
X004889Y009466D02*
X006671Y009466D01*
X006673Y009463D02*
X004886Y009463D01*
X004884Y009461D02*
X006676Y009461D01*
X006678Y009458D02*
X004881Y009458D01*
X004879Y009456D02*
X006681Y009456D01*
X006683Y009453D02*
X004876Y009453D01*
X004874Y009451D02*
X006686Y009451D01*
X006688Y009448D02*
X004871Y009448D01*
X004869Y009446D02*
X006691Y009446D01*
X006693Y009443D02*
X004866Y009443D01*
X004864Y009441D02*
X006696Y009441D01*
X006698Y009438D02*
X004861Y009438D01*
X004859Y009436D02*
X006701Y009436D01*
X006703Y009433D02*
X004856Y009433D01*
X004855Y009431D02*
X006705Y009431D01*
X006705Y009428D02*
X004855Y009428D01*
X004855Y009426D02*
X006705Y009426D01*
X006705Y009423D02*
X004855Y009423D01*
X004855Y009421D02*
X006705Y009421D01*
X006705Y009419D02*
X004855Y009419D01*
X004855Y009416D02*
X006705Y009416D01*
X006705Y009414D02*
X004855Y009414D01*
X004855Y009411D02*
X006705Y009411D01*
X006705Y009409D02*
X004855Y009409D01*
X004855Y009406D02*
X006705Y009406D01*
X006705Y009404D02*
X004855Y009404D01*
X004855Y009401D02*
X006705Y009401D01*
X006705Y009399D02*
X004855Y009399D01*
X004855Y009396D02*
X006705Y009396D01*
X006705Y009394D02*
X004855Y009394D01*
X004855Y009391D02*
X006705Y009391D01*
X006705Y009389D02*
X004855Y009389D01*
X004855Y009386D02*
X006705Y009386D01*
X006705Y009384D02*
X004855Y009384D01*
X004855Y009381D02*
X006705Y009381D01*
X006705Y009379D02*
X004855Y009379D01*
X004855Y009376D02*
X006705Y009376D01*
X006705Y009374D02*
X004855Y009374D01*
X004855Y009371D02*
X006705Y009371D01*
X006705Y009369D02*
X004855Y009369D01*
X004855Y009366D02*
X006705Y009366D01*
X006705Y009364D02*
X004855Y009364D01*
X004855Y009361D02*
X006705Y009361D01*
X006705Y009359D02*
X004855Y009359D01*
X004855Y009356D02*
X006705Y009356D01*
X006705Y009354D02*
X004855Y009354D01*
X004855Y009352D02*
X006705Y009352D01*
X006705Y009349D02*
X004855Y009349D01*
X004855Y009347D02*
X006705Y009347D01*
X006705Y009344D02*
X004855Y009344D01*
X004855Y009342D02*
X006705Y009342D01*
X006705Y009339D02*
X004855Y009339D01*
X004855Y009337D02*
X006705Y009337D01*
X006705Y009334D02*
X004855Y009334D01*
X004855Y009332D02*
X006705Y009332D01*
X006705Y009329D02*
X004855Y009329D01*
X004855Y009327D02*
X006705Y009327D01*
X006705Y009324D02*
X004855Y009324D01*
X004855Y009322D02*
X006705Y009322D01*
X006705Y009319D02*
X004855Y009319D01*
X004855Y009317D02*
X006705Y009317D01*
X006705Y009314D02*
X004855Y009314D01*
X004855Y009312D02*
X006705Y009312D01*
X006705Y009309D02*
X004855Y009309D01*
X004855Y009307D02*
X006705Y009307D01*
X006705Y009304D02*
X004855Y009304D01*
X004855Y009302D02*
X006705Y009302D01*
X006705Y009299D02*
X004855Y009299D01*
X004855Y009297D02*
X006705Y009297D01*
X006705Y009294D02*
X004855Y009294D01*
X004855Y009292D02*
X006705Y009292D01*
X006705Y009290D02*
X004855Y009290D01*
X004855Y009287D02*
X006705Y009287D01*
X006705Y009285D02*
X004855Y009285D01*
X004855Y009282D02*
X006705Y009282D01*
X006705Y009280D02*
X004855Y009280D01*
X004855Y009277D02*
X006705Y009277D01*
X006705Y009275D02*
X004855Y009275D01*
X004855Y009272D02*
X006705Y009272D01*
X006705Y009270D02*
X004855Y009270D01*
X004855Y009267D02*
X006705Y009267D01*
X006705Y009265D02*
X004855Y009265D01*
X004855Y009262D02*
X006705Y009262D01*
X006705Y009260D02*
X004855Y009260D01*
X004855Y009257D02*
X006705Y009257D01*
X006705Y009255D02*
X004855Y009255D01*
X004855Y009252D02*
X006705Y009252D01*
X006705Y009250D02*
X004855Y009250D01*
X004855Y009247D02*
X006705Y009247D01*
X006705Y009245D02*
X004855Y009245D01*
X004855Y009242D02*
X006705Y009242D01*
X006705Y009240D02*
X004855Y009240D01*
X004855Y009237D02*
X006705Y009237D01*
X006705Y009235D02*
X004855Y009235D01*
X006058Y009232D02*
X006705Y009232D01*
X006705Y009230D02*
X006060Y009230D01*
X006063Y009228D02*
X006705Y009228D01*
X006705Y009225D02*
X006065Y009225D01*
X006068Y009223D02*
X006705Y009223D01*
X006705Y009220D02*
X006070Y009220D01*
X006073Y009218D02*
X006705Y009218D01*
X006705Y009215D02*
X006075Y009215D01*
X006078Y009213D02*
X006705Y009213D01*
X006705Y009210D02*
X006080Y009210D01*
X006082Y009208D02*
X006705Y009208D01*
X006705Y009205D02*
X006085Y009205D01*
X006087Y009203D02*
X006705Y009203D01*
X006705Y009200D02*
X006090Y009200D01*
X006092Y009198D02*
X006705Y009198D01*
X006705Y009195D02*
X006095Y009195D01*
X006097Y009193D02*
X006705Y009193D01*
X006705Y009190D02*
X006100Y009190D01*
X006102Y009188D02*
X006705Y009188D01*
X006705Y009185D02*
X006105Y009185D01*
X006107Y009183D02*
X006705Y009183D01*
X006705Y009180D02*
X006110Y009180D01*
X006112Y009178D02*
X006705Y009178D01*
X006705Y009175D02*
X006115Y009175D01*
X006117Y009173D02*
X006705Y009173D01*
X006705Y009170D02*
X006120Y009170D01*
X006122Y009168D02*
X006705Y009168D01*
X006705Y009166D02*
X006125Y009166D01*
X006127Y009163D02*
X006705Y009163D01*
X006705Y009161D02*
X006130Y009161D01*
X006132Y009158D02*
X006705Y009158D01*
X006705Y009156D02*
X006135Y009156D01*
X006137Y009153D02*
X006705Y009153D01*
X006705Y009151D02*
X006140Y009151D01*
X006142Y009148D02*
X006705Y009148D01*
X006705Y009146D02*
X006144Y009146D01*
X006147Y009143D02*
X006705Y009143D01*
X006705Y009141D02*
X006149Y009141D01*
X006154Y009133D02*
X006705Y009133D01*
X006705Y009131D02*
X006154Y009131D01*
X006154Y009128D02*
X006705Y009128D01*
X006705Y009126D02*
X006154Y009126D01*
X006154Y009123D02*
X006705Y009123D01*
X006705Y009121D02*
X006154Y009121D01*
X006154Y009118D02*
X006705Y009118D01*
X006705Y009116D02*
X006154Y009116D01*
X006154Y009113D02*
X006705Y009113D01*
X006705Y009111D02*
X006154Y009111D01*
X006154Y009108D02*
X006705Y009108D01*
X006705Y009106D02*
X006154Y009106D01*
X006154Y009104D02*
X006705Y009104D01*
X006705Y009101D02*
X006154Y009101D01*
X006154Y009099D02*
X006705Y009099D01*
X006705Y009096D02*
X006154Y009096D01*
X006154Y009094D02*
X006705Y009094D01*
X006705Y009091D02*
X006154Y009091D01*
X006154Y009089D02*
X006705Y009089D01*
X006705Y009086D02*
X006154Y009086D01*
X006154Y009084D02*
X006705Y009084D01*
X006705Y009081D02*
X006154Y009081D01*
X006154Y009079D02*
X006705Y009079D01*
X006705Y009076D02*
X006154Y009076D01*
X006154Y009074D02*
X006705Y009074D01*
X006705Y009071D02*
X006154Y009071D01*
X006154Y009069D02*
X006705Y009069D01*
X006705Y009066D02*
X006154Y009066D01*
X006154Y009064D02*
X006705Y009064D01*
X006705Y009061D02*
X006154Y009061D01*
X006154Y009059D02*
X006705Y009059D01*
X006705Y009056D02*
X006154Y009056D01*
X006154Y009054D02*
X006705Y009054D01*
X006705Y009051D02*
X006154Y009051D01*
X006154Y009049D02*
X006705Y009049D01*
X006705Y009046D02*
X006154Y009046D01*
X006154Y009044D02*
X006705Y009044D01*
X006705Y009041D02*
X006154Y009041D01*
X006154Y009039D02*
X006705Y009039D01*
X006705Y009037D02*
X006154Y009037D01*
X006154Y009034D02*
X006705Y009034D01*
X006705Y009032D02*
X006154Y009032D01*
X006154Y009029D02*
X006705Y009029D01*
X006705Y009027D02*
X006154Y009027D01*
X006154Y009024D02*
X006705Y009024D01*
X006705Y009022D02*
X006154Y009022D01*
X006154Y009019D02*
X006705Y009019D01*
X006705Y009017D02*
X006154Y009017D01*
X006154Y009014D02*
X006705Y009014D01*
X006705Y009012D02*
X006154Y009012D01*
X006154Y009009D02*
X006705Y009009D01*
X006705Y009007D02*
X006154Y009007D01*
X006154Y009004D02*
X006705Y009004D01*
X006705Y009002D02*
X006154Y009002D01*
X006154Y008999D02*
X006705Y008999D01*
X006705Y008997D02*
X006154Y008997D01*
X006154Y008994D02*
X006705Y008994D01*
X006705Y008992D02*
X006154Y008992D01*
X006154Y008989D02*
X006705Y008989D01*
X006705Y008987D02*
X006154Y008987D01*
X006154Y008984D02*
X006705Y008984D01*
X006705Y008982D02*
X006154Y008982D01*
X006154Y008979D02*
X006705Y008979D01*
X006705Y008977D02*
X006154Y008977D01*
X006154Y008975D02*
X006705Y008975D01*
X006705Y008972D02*
X006154Y008972D01*
X006154Y008970D02*
X006705Y008970D01*
X006705Y008967D02*
X006154Y008967D01*
X006154Y008965D02*
X006705Y008965D01*
X006705Y008962D02*
X006154Y008962D01*
X006154Y008960D02*
X006705Y008960D01*
X006705Y008957D02*
X006154Y008957D01*
X006154Y008955D02*
X006705Y008955D01*
X006705Y008952D02*
X006154Y008952D01*
X006154Y008950D02*
X006705Y008950D01*
X006705Y008947D02*
X006154Y008947D01*
X006154Y008945D02*
X006705Y008945D01*
X006705Y008942D02*
X006154Y008942D01*
X006154Y008940D02*
X006705Y008940D01*
X006700Y008937D02*
X006159Y008937D01*
X006165Y008935D02*
X006694Y008935D01*
X006689Y008932D02*
X006170Y008932D01*
X006176Y008930D02*
X006683Y008930D01*
X006677Y008927D02*
X006182Y008927D01*
X006188Y008925D02*
X006671Y008925D01*
X006665Y008922D02*
X006194Y008922D01*
X006199Y008920D02*
X006660Y008920D01*
X006654Y008917D02*
X006205Y008917D01*
X006211Y008915D02*
X006648Y008915D01*
X006642Y008913D02*
X006217Y008913D01*
X006222Y008910D02*
X006636Y008910D01*
X006631Y008908D02*
X006228Y008908D01*
X006234Y008905D02*
X006625Y008905D01*
X006619Y008903D02*
X006240Y008903D01*
X006246Y008900D02*
X006613Y008900D01*
X006607Y008898D02*
X006251Y008898D01*
X006257Y008895D02*
X006602Y008895D01*
X006596Y008893D02*
X006263Y008893D01*
X006269Y008890D02*
X006590Y008890D01*
X006584Y008888D02*
X006275Y008888D01*
X006280Y008885D02*
X006579Y008885D01*
X006573Y008883D02*
X006286Y008883D01*
X006292Y008880D02*
X006567Y008880D01*
X006561Y008878D02*
X006298Y008878D01*
X006304Y008875D02*
X006555Y008875D01*
X006550Y008873D02*
X006309Y008873D01*
X006315Y008870D02*
X006544Y008870D01*
X006538Y008868D02*
X006321Y008868D01*
X006327Y008865D02*
X006532Y008865D01*
X006526Y008863D02*
X006332Y008863D01*
X006338Y008860D02*
X006521Y008860D01*
X006515Y008858D02*
X006344Y008858D01*
X006350Y008855D02*
X006509Y008855D01*
X006503Y008853D02*
X006356Y008853D01*
X006361Y008851D02*
X006498Y008851D01*
X006492Y008848D02*
X006367Y008848D01*
X006373Y008846D02*
X006486Y008846D01*
X006480Y008843D02*
X006379Y008843D01*
X006385Y008841D02*
X006474Y008841D01*
X006469Y008838D02*
X006390Y008838D01*
X006396Y008836D02*
X006463Y008836D01*
X006457Y008833D02*
X006402Y008833D01*
X006408Y008831D02*
X006451Y008831D01*
X006445Y008828D02*
X006413Y008828D01*
X006419Y008826D02*
X006440Y008826D01*
X006434Y008823D02*
X006425Y008823D01*
X006194Y008292D02*
X006154Y008292D01*
X006154Y008290D02*
X006200Y008290D01*
X006205Y008287D02*
X006154Y008287D01*
X006154Y008285D02*
X006211Y008285D01*
X006217Y008283D02*
X006154Y008283D01*
X006154Y008280D02*
X006223Y008280D01*
X006228Y008278D02*
X006154Y008278D01*
X006154Y008275D02*
X006234Y008275D01*
X006240Y008273D02*
X006154Y008273D01*
X006154Y008270D02*
X006246Y008270D01*
X006252Y008268D02*
X006154Y008268D01*
X006154Y008265D02*
X006257Y008265D01*
X006263Y008263D02*
X006154Y008263D01*
X006154Y008260D02*
X006269Y008260D01*
X006275Y008258D02*
X006154Y008258D01*
X006154Y008255D02*
X006281Y008255D01*
X006286Y008253D02*
X006154Y008253D01*
X006154Y008250D02*
X006292Y008250D01*
X006298Y008248D02*
X006154Y008248D01*
X006154Y008245D02*
X006304Y008245D01*
X006309Y008243D02*
X006154Y008243D01*
X006154Y008240D02*
X006315Y008240D01*
X006321Y008238D02*
X006154Y008238D01*
X006154Y008235D02*
X006327Y008235D01*
X006333Y008233D02*
X006154Y008233D01*
X006154Y008230D02*
X006338Y008230D01*
X006344Y008228D02*
X006154Y008228D01*
X006154Y008225D02*
X006350Y008225D01*
X006356Y008223D02*
X006154Y008223D01*
X006154Y008221D02*
X006362Y008221D01*
X006367Y008218D02*
X006154Y008218D01*
X006154Y008216D02*
X006373Y008216D01*
X006379Y008213D02*
X006154Y008213D01*
X006154Y008211D02*
X006385Y008211D01*
X006391Y008208D02*
X006154Y008208D01*
X006154Y008206D02*
X006396Y008206D01*
X006402Y008203D02*
X006154Y008203D01*
X006154Y008201D02*
X006408Y008201D01*
X006414Y008198D02*
X006154Y008198D01*
X006154Y008196D02*
X006419Y008196D01*
X006425Y008193D02*
X006154Y008193D01*
X006154Y008191D02*
X006705Y008191D01*
X006705Y008193D02*
X006434Y008193D01*
X006439Y008196D02*
X006705Y008196D01*
X006705Y008198D02*
X006445Y008198D01*
X006451Y008201D02*
X006705Y008201D01*
X006705Y008203D02*
X006457Y008203D01*
X006463Y008206D02*
X006705Y008206D01*
X006705Y008208D02*
X006468Y008208D01*
X006474Y008211D02*
X006705Y008211D01*
X006705Y008213D02*
X006480Y008213D01*
X006486Y008216D02*
X006705Y008216D01*
X006705Y008218D02*
X006492Y008218D01*
X006497Y008221D02*
X006705Y008221D01*
X006705Y008223D02*
X006503Y008223D01*
X006509Y008225D02*
X006705Y008225D01*
X006705Y008228D02*
X006515Y008228D01*
X006521Y008230D02*
X006705Y008230D01*
X006705Y008233D02*
X006526Y008233D01*
X006532Y008235D02*
X006705Y008235D01*
X006705Y008238D02*
X006538Y008238D01*
X006544Y008240D02*
X006705Y008240D01*
X006705Y008243D02*
X006549Y008243D01*
X006555Y008245D02*
X006705Y008245D01*
X006705Y008248D02*
X006561Y008248D01*
X006567Y008250D02*
X006705Y008250D01*
X006705Y008253D02*
X006573Y008253D01*
X006578Y008255D02*
X006705Y008255D01*
X006705Y008258D02*
X006584Y008258D01*
X006590Y008260D02*
X006705Y008260D01*
X006705Y008263D02*
X006596Y008263D01*
X006602Y008265D02*
X006705Y008265D01*
X006705Y008268D02*
X006607Y008268D01*
X006613Y008270D02*
X006705Y008270D01*
X006705Y008273D02*
X006619Y008273D01*
X006625Y008275D02*
X006705Y008275D01*
X006705Y008278D02*
X006630Y008278D01*
X006636Y008280D02*
X006705Y008280D01*
X006705Y008283D02*
X006642Y008283D01*
X006648Y008285D02*
X006705Y008285D01*
X006705Y008287D02*
X006654Y008287D01*
X006659Y008290D02*
X006705Y008290D01*
X006705Y008292D02*
X006665Y008292D01*
X006671Y008295D02*
X006705Y008295D01*
X006705Y008297D02*
X006677Y008297D01*
X006683Y008300D02*
X006705Y008300D01*
X006705Y008302D02*
X006688Y008302D01*
X006694Y008305D02*
X006705Y008305D01*
X006705Y008307D02*
X006700Y008307D01*
X006705Y008188D02*
X006154Y008188D01*
X006154Y008186D02*
X006705Y008186D01*
X006705Y008183D02*
X006154Y008183D01*
X006154Y008181D02*
X006705Y008181D01*
X006705Y008178D02*
X006154Y008178D01*
X006154Y008176D02*
X006705Y008176D01*
X006705Y008173D02*
X006154Y008173D01*
X006154Y008171D02*
X006705Y008171D01*
X006705Y008168D02*
X006154Y008168D01*
X006154Y008166D02*
X006705Y008166D01*
X006705Y008163D02*
X006154Y008163D01*
X006154Y008161D02*
X006705Y008161D01*
X006705Y008159D02*
X006154Y008159D01*
X006154Y008156D02*
X006705Y008156D01*
X006705Y008154D02*
X006154Y008154D01*
X006154Y008151D02*
X006705Y008151D01*
X006705Y008149D02*
X006154Y008149D01*
X006154Y008146D02*
X006705Y008146D01*
X006705Y008144D02*
X006154Y008144D01*
X006154Y008141D02*
X006705Y008141D01*
X006705Y008139D02*
X006154Y008139D01*
X006154Y008136D02*
X006705Y008136D01*
X006705Y008134D02*
X006154Y008134D01*
X006154Y008131D02*
X006705Y008131D01*
X006705Y008129D02*
X006154Y008129D01*
X006154Y008126D02*
X006705Y008126D01*
X006705Y008124D02*
X006154Y008124D01*
X006154Y008121D02*
X006705Y008121D01*
X006705Y008119D02*
X006154Y008119D01*
X006154Y008116D02*
X006705Y008116D01*
X006705Y008114D02*
X006154Y008114D01*
X006154Y008111D02*
X006705Y008111D01*
X006705Y008109D02*
X006154Y008109D01*
X006154Y008106D02*
X006705Y008106D01*
X006705Y008104D02*
X006154Y008104D01*
X006154Y008101D02*
X006705Y008101D01*
X006705Y008099D02*
X006154Y008099D01*
X006154Y008096D02*
X006705Y008096D01*
X006705Y008094D02*
X006154Y008094D01*
X006154Y008092D02*
X006705Y008092D01*
X006705Y008089D02*
X006154Y008089D01*
X006154Y008087D02*
X006705Y008087D01*
X006705Y008084D02*
X006154Y008084D01*
X006154Y008082D02*
X006705Y008082D01*
X006705Y008079D02*
X006154Y008079D01*
X006154Y008077D02*
X006705Y008077D01*
X006705Y008074D02*
X006154Y008074D01*
X006154Y008072D02*
X006705Y008072D01*
X006705Y008069D02*
X006154Y008069D01*
X006154Y008067D02*
X006705Y008067D01*
X006705Y008064D02*
X006154Y008064D01*
X006154Y008062D02*
X006705Y008062D01*
X006705Y008059D02*
X006154Y008059D01*
X006154Y008057D02*
X006705Y008057D01*
X006705Y008049D02*
X006150Y008049D01*
X006147Y008047D02*
X006705Y008047D01*
X006705Y008044D02*
X006145Y008044D01*
X006142Y008042D02*
X006705Y008042D01*
X006705Y008039D02*
X006140Y008039D01*
X006137Y008037D02*
X006705Y008037D01*
X006705Y008034D02*
X006135Y008034D01*
X006132Y008032D02*
X006705Y008032D01*
X006705Y008030D02*
X006130Y008030D01*
X006127Y008027D02*
X006705Y008027D01*
X006705Y008025D02*
X006125Y008025D01*
X006122Y008022D02*
X006705Y008022D01*
X006705Y008020D02*
X006120Y008020D01*
X006117Y008017D02*
X006705Y008017D01*
X006705Y008015D02*
X006115Y008015D01*
X006112Y008012D02*
X006705Y008012D01*
X006705Y008010D02*
X006110Y008010D01*
X006107Y008007D02*
X006705Y008007D01*
X006705Y008005D02*
X006105Y008005D01*
X006102Y008002D02*
X006705Y008002D01*
X006705Y008000D02*
X006100Y008000D01*
X006098Y007997D02*
X006705Y007997D01*
X006705Y007995D02*
X006095Y007995D01*
X006093Y007992D02*
X006705Y007992D01*
X006705Y007990D02*
X006090Y007990D01*
X006088Y007987D02*
X006705Y007987D01*
X006705Y007985D02*
X006085Y007985D01*
X006083Y007982D02*
X006705Y007982D01*
X006705Y007980D02*
X006080Y007980D01*
X006078Y007977D02*
X006705Y007977D01*
X006705Y007975D02*
X006075Y007975D01*
X006073Y007972D02*
X006705Y007972D01*
X006705Y007970D02*
X006070Y007970D01*
X006068Y007968D02*
X006705Y007968D01*
X006705Y007965D02*
X006065Y007965D01*
X006063Y007963D02*
X006705Y007963D01*
X006705Y007960D02*
X006060Y007960D01*
X006058Y007958D02*
X006705Y007958D01*
X006705Y007955D02*
X006055Y007955D01*
X006053Y007953D02*
X006705Y007953D01*
X006705Y007950D02*
X006050Y007950D01*
X006048Y007948D02*
X006705Y007948D01*
X006705Y007945D02*
X006045Y007945D01*
X006043Y007943D02*
X006705Y007943D01*
X006705Y007940D02*
X006040Y007940D01*
X006038Y007938D02*
X006705Y007938D01*
X006188Y008295D02*
X006154Y008295D01*
X006154Y008297D02*
X006182Y008297D01*
X006176Y008300D02*
X006154Y008300D01*
X006154Y008302D02*
X006171Y008302D01*
X006165Y008305D02*
X006154Y008305D01*
X006154Y008307D02*
X006159Y008307D01*
D18*
X011359Y014443D02*
X011361Y014464D01*
X011367Y014484D01*
X011376Y014504D01*
X011388Y014521D01*
X011403Y014535D01*
X011421Y014547D01*
X011441Y014555D01*
X011461Y014560D01*
X011482Y014561D01*
X011503Y014558D01*
X011523Y014552D01*
X011542Y014541D01*
X011559Y014528D01*
X011572Y014512D01*
X011583Y014494D01*
X011591Y014474D01*
X011595Y014454D01*
X011595Y014432D01*
X011591Y014412D01*
X011583Y014392D01*
X011572Y014374D01*
X011559Y014358D01*
X011542Y014345D01*
X011523Y014334D01*
X011503Y014328D01*
X011482Y014325D01*
X011461Y014326D01*
X011441Y014331D01*
X011421Y014339D01*
X011403Y014351D01*
X011388Y014365D01*
X011376Y014382D01*
X011367Y014402D01*
X011361Y014422D01*
X011359Y014443D01*
X011359Y015443D02*
X011361Y015464D01*
X011367Y015484D01*
X011376Y015504D01*
X011388Y015521D01*
X011403Y015535D01*
X011421Y015547D01*
X011441Y015555D01*
X011461Y015560D01*
X011482Y015561D01*
X011503Y015558D01*
X011523Y015552D01*
X011542Y015541D01*
X011559Y015528D01*
X011572Y015512D01*
X011583Y015494D01*
X011591Y015474D01*
X011595Y015454D01*
X011595Y015432D01*
X011591Y015412D01*
X011583Y015392D01*
X011572Y015374D01*
X011559Y015358D01*
X011542Y015345D01*
X011523Y015334D01*
X011503Y015328D01*
X011482Y015325D01*
X011461Y015326D01*
X011441Y015331D01*
X011421Y015339D01*
X011403Y015351D01*
X011388Y015365D01*
X011376Y015382D01*
X011367Y015402D01*
X011361Y015422D01*
X011359Y015443D01*
D19*
X012733Y010183D02*
X012733Y008385D01*
X015225Y008385D01*
X015225Y010183D01*
X012733Y010183D01*
X012903Y008804D02*
X012905Y008830D01*
X012911Y008856D01*
X012920Y008880D01*
X012933Y008903D01*
X012949Y008924D01*
X012968Y008942D01*
X012989Y008958D01*
X013013Y008970D01*
X013037Y008978D01*
X013063Y008983D01*
X013090Y008984D01*
X013116Y008981D01*
X013141Y008974D01*
X013165Y008964D01*
X013188Y008950D01*
X013208Y008934D01*
X013225Y008914D01*
X013240Y008892D01*
X013251Y008868D01*
X013259Y008843D01*
X013263Y008817D01*
X013263Y008791D01*
X013259Y008765D01*
X013251Y008740D01*
X013240Y008716D01*
X013225Y008694D01*
X013208Y008674D01*
X013188Y008658D01*
X013165Y008644D01*
X013141Y008634D01*
X013116Y008627D01*
X013090Y008624D01*
X013063Y008625D01*
X013037Y008630D01*
X013013Y008638D01*
X012989Y008650D01*
X012968Y008666D01*
X012949Y008684D01*
X012933Y008705D01*
X012920Y008728D01*
X012911Y008752D01*
X012905Y008778D01*
X012903Y008804D01*
X012905Y008830D01*
X012911Y008856D01*
X012920Y008880D01*
X012933Y008903D01*
X012949Y008924D01*
X012968Y008942D01*
X012989Y008958D01*
X013013Y008970D01*
X013037Y008978D01*
X013063Y008983D01*
X013090Y008984D01*
X013116Y008981D01*
X013141Y008974D01*
X013165Y008964D01*
X013188Y008950D01*
X013208Y008934D01*
X013225Y008914D01*
X013240Y008892D01*
X013251Y008868D01*
X013259Y008843D01*
X013263Y008817D01*
X013263Y008791D01*
X013259Y008765D01*
X013251Y008740D01*
X013240Y008716D01*
X013225Y008694D01*
X013208Y008674D01*
X013188Y008658D01*
X013165Y008644D01*
X013141Y008634D01*
X013116Y008627D01*
X013090Y008624D01*
X013063Y008625D01*
X013037Y008630D01*
X013013Y008638D01*
X012989Y008650D01*
X012968Y008666D01*
X012949Y008684D01*
X012933Y008705D01*
X012920Y008728D01*
X012911Y008752D01*
X012905Y008778D01*
X012903Y008804D01*
X008733Y006508D02*
X006429Y006508D01*
X006429Y002414D01*
X008733Y002414D01*
X008733Y006508D01*
X006632Y006124D02*
X006634Y006150D01*
X006640Y006176D01*
X006649Y006201D01*
X006662Y006224D01*
X006678Y006245D01*
X006697Y006263D01*
X006719Y006279D01*
X006742Y006291D01*
X006767Y006299D01*
X006793Y006304D01*
X006820Y006305D01*
X006846Y006302D01*
X006871Y006295D01*
X006896Y006285D01*
X006918Y006271D01*
X006939Y006254D01*
X006956Y006235D01*
X006971Y006213D01*
X006982Y006189D01*
X006990Y006163D01*
X006994Y006137D01*
X006994Y006111D01*
X006990Y006085D01*
X006982Y006059D01*
X006971Y006035D01*
X006956Y006013D01*
X006939Y005994D01*
X006918Y005977D01*
X006896Y005963D01*
X006871Y005953D01*
X006846Y005946D01*
X006820Y005943D01*
X006793Y005944D01*
X006767Y005949D01*
X006742Y005957D01*
X006719Y005969D01*
X006697Y005985D01*
X006678Y006003D01*
X006662Y006024D01*
X006649Y006047D01*
X006640Y006072D01*
X006634Y006098D01*
X006632Y006124D01*
D20*
X010712Y002071D02*
X010712Y001733D01*
X011166Y002221D02*
X011378Y002221D01*
X011832Y002071D02*
X011832Y001733D01*
X012453Y003083D02*
X013240Y003083D01*
X013477Y003949D02*
X013477Y004186D01*
X013240Y005052D02*
X012453Y005052D01*
X012217Y004186D02*
X012217Y003949D01*
X013960Y002071D02*
X013960Y001733D01*
X014414Y002221D02*
X014626Y002221D01*
X015080Y002071D02*
X015080Y001733D01*
D21*
X015978Y014599D02*
X015980Y014617D01*
X015986Y014633D01*
X015995Y014648D01*
X016008Y014661D01*
X016023Y014670D01*
X016039Y014676D01*
X016057Y014678D01*
X016075Y014676D01*
X016091Y014670D01*
X016106Y014661D01*
X016119Y014648D01*
X016128Y014633D01*
X016134Y014617D01*
X016136Y014599D01*
X016134Y014581D01*
X016128Y014565D01*
X016119Y014550D01*
X016106Y014537D01*
X016091Y014528D01*
X016075Y014522D01*
X016057Y014520D01*
X016039Y014522D01*
X016023Y014528D01*
X016008Y014537D01*
X015995Y014550D01*
X015986Y014565D01*
X015980Y014581D01*
X015978Y014599D01*
D22*
X013300Y012955D02*
X013142Y012699D01*
X012985Y012955D01*
X013300Y012955D01*
X013279Y012922D02*
X013005Y012922D01*
X013028Y012884D02*
X013256Y012884D01*
X013232Y012846D02*
X013052Y012846D01*
X013075Y012808D02*
X013209Y012808D01*
X013186Y012770D02*
X013098Y012770D01*
X013122Y012732D02*
X013162Y012732D01*
D23*
X013319Y012680D02*
X012965Y012680D01*
D24*
X012823Y010093D02*
X012823Y008475D01*
X015135Y008475D01*
X015135Y010093D01*
X012823Y010093D01*
M02*
